%TF.GenerationSoftware,KiCad,Pcbnew,(5.1.8)-1*%
%TF.CreationDate,2023-07-29T11:14:22+09:00*%
%TF.ProjectId,Tracer,54726163-6572-42e6-9b69-6361645f7063,rev?*%
%TF.SameCoordinates,Original*%
%TF.FileFunction,Legend,Top*%
%TF.FilePolarity,Positive*%
%FSLAX46Y46*%
G04 Gerber Fmt 4.6, Leading zero omitted, Abs format (unit mm)*
G04 Created by KiCad (PCBNEW (5.1.8)-1) date 2023-07-29 11:14:22*
%MOMM*%
%LPD*%
G01*
G04 APERTURE LIST*
%ADD10C,0.127000*%
%ADD11C,0.300000*%
%ADD12C,0.100000*%
%ADD13C,0.120000*%
%ADD14C,0.200000*%
%ADD15C,0.250000*%
%ADD16C,0.125000*%
%ADD17C,0.150000*%
G04 APERTURE END LIST*
D10*
%TO.C,R45*%
X112320000Y-59760000D02*
X112320000Y-59560000D01*
X110880000Y-59760000D02*
X110880000Y-59560000D01*
%TO.C,R44*%
X114220000Y-59760000D02*
X114220000Y-59560000D01*
X112780000Y-59760000D02*
X112780000Y-59560000D01*
D11*
%TO.C,J5*%
X113290000Y-33620000D02*
X113290000Y-33620000D01*
X113290000Y-33720000D02*
X113290000Y-33720000D01*
D12*
X119840000Y-34320000D02*
X119840000Y-36420000D01*
X119290000Y-34320000D02*
X119840000Y-34320000D01*
X112140000Y-34320000D02*
X112140000Y-36420000D01*
X112690000Y-34320000D02*
X112140000Y-34320000D01*
X112990000Y-37920000D02*
X118990000Y-37920000D01*
D11*
X113290000Y-33720000D02*
G75*
G03*
X113290000Y-33620000I0J50000D01*
G01*
X113290000Y-33620000D02*
G75*
G03*
X113290000Y-33720000I0J-50000D01*
G01*
D13*
%TO.C,D6*%
X113700000Y-48000000D02*
X114700000Y-48000000D01*
D10*
%TO.C,R26*%
X104900654Y-32697448D02*
X104875934Y-32498982D01*
X103471696Y-32875434D02*
X103446976Y-32676968D01*
%TO.C,R27*%
X99141521Y-33560925D02*
X99104388Y-33364403D01*
X97726558Y-33828285D02*
X97689425Y-33631763D01*
%TO.C,R29*%
X87616969Y-36399364D02*
X87555497Y-36209045D01*
X86246673Y-36841957D02*
X86185201Y-36651638D01*
%TO.C,R28*%
X93280212Y-34828187D02*
X93230812Y-34634384D01*
X91884830Y-35183866D02*
X91835430Y-34990063D01*
%TO.C,R19*%
X140195170Y-35183866D02*
X140244570Y-34990063D01*
X138799788Y-34828187D02*
X138849188Y-34634384D01*
%TO.C,R17*%
X128492119Y-32908226D02*
X128516839Y-32709760D01*
X127063161Y-32730240D02*
X127087881Y-32531774D01*
%TO.C,R20*%
X145744412Y-36836456D02*
X145805884Y-36646137D01*
X144374116Y-36393863D02*
X144435588Y-36203544D01*
%TO.C,R18*%
X134378915Y-33851941D02*
X134416048Y-33655419D01*
X132963952Y-33584581D02*
X133001085Y-33388059D01*
%TO.C,R30*%
X82053864Y-38275202D02*
X81980889Y-38088991D01*
X80713143Y-38800625D02*
X80640168Y-38614414D01*
%TO.C,R21*%
X151266857Y-38900625D02*
X151339832Y-38714414D01*
X149926136Y-38375202D02*
X149999111Y-38188991D01*
%TO.C,R25*%
X110755835Y-32236448D02*
X110743277Y-32036843D01*
X109318677Y-32326867D02*
X109306119Y-32127262D01*
%TO.C,R16*%
X122543277Y-32303157D02*
X122555835Y-32103552D01*
X121106119Y-32212738D02*
X121118677Y-32013133D01*
%TO.C,R46*%
X112820000Y-47840000D02*
X112820000Y-47640000D01*
X111380000Y-47840000D02*
X111380000Y-47640000D01*
D14*
%TO.C,S2*%
X106678370Y-58525000D02*
G75*
G03*
X106678370Y-58525000I-53370J0D01*
G01*
X109925000Y-59125000D02*
X109925000Y-60125000D01*
X105725000Y-59125000D02*
X105725000Y-60125000D01*
X109925000Y-61225000D02*
X105725000Y-61225000D01*
X105725000Y-58025000D02*
X109925000Y-58025000D01*
%TO.C,S4*%
X117053370Y-46700000D02*
G75*
G03*
X117053370Y-46700000I-53370J0D01*
G01*
X120300000Y-47300000D02*
X120300000Y-48300000D01*
X116100000Y-47300000D02*
X116100000Y-48300000D01*
X120300000Y-49400000D02*
X116100000Y-49400000D01*
X116100000Y-46200000D02*
X120300000Y-46200000D01*
%TO.C,C24*%
X118600000Y-52720000D02*
X117200000Y-52720000D01*
%TO.C,S3*%
X116178370Y-58475000D02*
G75*
G03*
X116178370Y-58475000I-53370J0D01*
G01*
X119425000Y-59075000D02*
X119425000Y-60075000D01*
X115225000Y-59075000D02*
X115225000Y-60075000D01*
X119425000Y-61175000D02*
X115225000Y-61175000D01*
X115225000Y-57975000D02*
X119425000Y-57975000D01*
D13*
%TO.C,U1*%
X136400000Y-58900000D02*
X136900000Y-58900000D01*
X136400000Y-60800000D02*
X136400000Y-58900000D01*
X136400000Y-46600000D02*
X134500000Y-46600000D01*
X136400000Y-48500000D02*
X136400000Y-46600000D01*
X122200000Y-46600000D02*
X122200000Y-48500000D01*
X124100000Y-46600000D02*
X122200000Y-46600000D01*
X122200000Y-60800000D02*
X122200000Y-58900000D01*
X124100000Y-60800000D02*
X122200000Y-60800000D01*
X134500000Y-60800000D02*
X136400000Y-60800000D01*
%TO.C,J8*%
X102600000Y-48540000D02*
X103930000Y-48540000D01*
X103930000Y-48540000D02*
X103930000Y-49870000D01*
X103930000Y-51140000D02*
X103930000Y-58820000D01*
X101270000Y-58820000D02*
X103930000Y-58820000D01*
X101270000Y-51140000D02*
X101270000Y-58820000D01*
X101270000Y-51140000D02*
X103930000Y-51140000D01*
%TO.C,D1*%
X97100000Y-122400000D02*
X97100000Y-123400000D01*
D10*
%TO.C,R6*%
X138600000Y-111380000D02*
X138400000Y-111380000D01*
X138600000Y-112820000D02*
X138400000Y-112820000D01*
%TO.C,R8*%
X70520000Y-71300000D02*
X70520000Y-71100000D01*
X69080000Y-71300000D02*
X69080000Y-71100000D01*
%TO.C,R42*%
X125560000Y-69580000D02*
X125360000Y-69580000D01*
X125560000Y-71020000D02*
X125360000Y-71020000D01*
%TO.C,R14*%
X162820000Y-71300000D02*
X162820000Y-71100000D01*
X161380000Y-71300000D02*
X161380000Y-71100000D01*
%TO.C,R38*%
X152059333Y-72743538D02*
X152232539Y-72643538D01*
X151339333Y-71496462D02*
X151512539Y-71396462D01*
%TO.C,R13*%
X177820000Y-71200000D02*
X177820000Y-71000000D01*
X176380000Y-71200000D02*
X176380000Y-71000000D01*
%TO.C,R4*%
X101740000Y-123620000D02*
X101540000Y-123620000D01*
X101740000Y-122180000D02*
X101540000Y-122180000D01*
%TO.C,R7*%
X146680000Y-83040000D02*
X146680000Y-83240000D01*
X148120000Y-83040000D02*
X148120000Y-83240000D01*
%TO.C,R15*%
X80439333Y-73403538D02*
X80612539Y-73503538D01*
X81159333Y-72156462D02*
X81332539Y-72256462D01*
D14*
%TO.C,IC5*%
X117600000Y-104425000D02*
G75*
G03*
X117600000Y-104425000I-100000J0D01*
G01*
%TO.C,IC6*%
X122376093Y-93412835D02*
X115800000Y-99988928D01*
X115800000Y-99988928D02*
X109223907Y-93412835D01*
X109223907Y-93412835D02*
X115800000Y-86836742D01*
X115800000Y-86836742D02*
X122376093Y-93412835D01*
D15*
X121793986Y-93483546D02*
G75*
G03*
X121793986Y-93483546I-125000J0D01*
G01*
D14*
%TO.C,S5*%
X138753370Y-89600000D02*
G75*
G03*
X138753370Y-89600000I-53370J0D01*
G01*
X138100000Y-92900000D02*
X137100000Y-92900000D01*
X138100000Y-88700000D02*
X137100000Y-88700000D01*
X136000000Y-92900000D02*
X136000000Y-88700000D01*
X139200000Y-88700000D02*
X139200000Y-92900000D01*
D13*
%TO.C,J2*%
X139570000Y-88970000D02*
X140900000Y-88970000D01*
X139570000Y-90300000D02*
X139570000Y-88970000D01*
X142170000Y-88970000D02*
X144770000Y-88970000D01*
X142170000Y-91570000D02*
X142170000Y-88970000D01*
X139570000Y-91570000D02*
X142170000Y-91570000D01*
X144770000Y-88970000D02*
X144770000Y-96710000D01*
X139570000Y-91570000D02*
X139570000Y-96710000D01*
X139570000Y-96710000D02*
X144770000Y-96710000D01*
%TO.C,D3*%
X144900000Y-76562500D02*
X145900000Y-76562500D01*
D14*
%TO.C,C10*%
X111600000Y-82820000D02*
X113000000Y-82820000D01*
D13*
%TO.C,D2*%
X146900000Y-76537500D02*
X147900000Y-76537500D01*
%TO.C,J6*%
X90600000Y-84470000D02*
X89270000Y-84470000D01*
X89270000Y-84470000D02*
X89270000Y-83140000D01*
X89270000Y-81870000D02*
X89270000Y-74190000D01*
X91930000Y-74190000D02*
X89270000Y-74190000D01*
X91930000Y-81870000D02*
X91930000Y-74190000D01*
X91930000Y-81870000D02*
X89270000Y-81870000D01*
%TO.C,D4*%
X142900000Y-76537500D02*
X143900000Y-76537500D01*
%TO.C,D5*%
X140900000Y-76537500D02*
X141900000Y-76537500D01*
D14*
%TO.C,C8*%
X100800000Y-83020000D02*
X102200000Y-83020000D01*
%TO.C,LS1*%
X137300000Y-80300000D02*
X137300000Y-80300000D01*
X127700000Y-80300000D02*
X127700000Y-80300000D01*
X137300000Y-80300000D02*
G75*
G02*
X127700000Y-80300000I-4800000J0D01*
G01*
X127700000Y-80300000D02*
G75*
G02*
X137300000Y-80300000I4800000J0D01*
G01*
D10*
%TO.C,R3*%
X97120000Y-95300000D02*
X97120000Y-95100000D01*
X95680000Y-95300000D02*
X95680000Y-95100000D01*
%TO.C,R5*%
X143400000Y-111380000D02*
X143200000Y-111380000D01*
X143400000Y-112820000D02*
X143200000Y-112820000D01*
%TO.C,R1*%
X97420000Y-120240000D02*
X97420000Y-120040000D01*
X95980000Y-120240000D02*
X95980000Y-120040000D01*
%TO.C,R43*%
X105496914Y-87484852D02*
X105355492Y-87626274D01*
X106515148Y-88503086D02*
X106373726Y-88644508D01*
%TO.C,R40*%
X125560000Y-71580000D02*
X125360000Y-71580000D01*
X125560000Y-73020000D02*
X125360000Y-73020000D01*
%TO.C,R9*%
X124720000Y-82060000D02*
X124720000Y-81860000D01*
X123280000Y-82060000D02*
X123280000Y-81860000D01*
%TO.C,R39*%
X80350140Y-73938419D02*
X80176934Y-73838419D01*
X79630140Y-75185495D02*
X79456934Y-75085495D01*
%TO.C,R36*%
X140680000Y-83060000D02*
X140680000Y-83260000D01*
X142120000Y-83060000D02*
X142120000Y-83260000D01*
%TO.C,R35*%
X142680000Y-83060000D02*
X142680000Y-83260000D01*
X144120000Y-83060000D02*
X144120000Y-83260000D01*
%TO.C,R34*%
X144680000Y-83060000D02*
X144680000Y-83260000D01*
X146120000Y-83060000D02*
X146120000Y-83260000D01*
%TO.C,R12*%
X153512539Y-74856462D02*
X153339333Y-74956462D01*
X154232539Y-76103538D02*
X154059333Y-76203538D01*
%TO.C,R37*%
X153059333Y-74443538D02*
X153232539Y-74343538D01*
X152339333Y-73196462D02*
X152512539Y-73096462D01*
%TO.C,R11*%
X55520000Y-71260000D02*
X55520000Y-71060000D01*
X54080000Y-71260000D02*
X54080000Y-71060000D01*
%TO.C,R2*%
X95020000Y-95100000D02*
X95020000Y-95300000D01*
X93580000Y-95100000D02*
X93580000Y-95300000D01*
%TO.C,R41*%
X79332539Y-75656462D02*
X79159333Y-75556462D01*
X78612539Y-76903538D02*
X78439333Y-76803538D01*
%TO.C,R10*%
X126720000Y-82040000D02*
X126720000Y-81840000D01*
X125280000Y-82040000D02*
X125280000Y-81840000D01*
D13*
%TO.C,IC1*%
X119600000Y-115600000D02*
G75*
G03*
X119600000Y-115600000I-100000J0D01*
G01*
X119500000Y-115600000D02*
X119500000Y-115700000D01*
%TO.C,J3*%
X87570000Y-88770000D02*
X88900000Y-88770000D01*
X87570000Y-90100000D02*
X87570000Y-88770000D01*
X90170000Y-88770000D02*
X92770000Y-88770000D01*
X90170000Y-91370000D02*
X90170000Y-88770000D01*
X87570000Y-91370000D02*
X90170000Y-91370000D01*
X92770000Y-88770000D02*
X92770000Y-96510000D01*
X87570000Y-91370000D02*
X87570000Y-96510000D01*
X87570000Y-96510000D02*
X92770000Y-96510000D01*
%TO.C,IC2*%
X98765000Y-118188000D02*
G75*
G03*
X98765000Y-118188000I-100000J0D01*
G01*
X98665000Y-118188000D02*
X98765000Y-118188000D01*
D14*
%TO.C,S1*%
X94900000Y-119900000D02*
G75*
G03*
X94900000Y-119900000I-100000J0D01*
G01*
D11*
%TO.C,J4*%
X118600000Y-73450000D02*
X118600000Y-73450000D01*
X118600000Y-73350000D02*
X118600000Y-73350000D01*
D12*
X112050000Y-72750000D02*
X112050000Y-70650000D01*
X112600000Y-72750000D02*
X112050000Y-72750000D01*
X119750000Y-72750000D02*
X119750000Y-70650000D01*
X119200000Y-72750000D02*
X119750000Y-72750000D01*
X118900000Y-69150000D02*
X112900000Y-69150000D01*
D11*
X118600000Y-73350000D02*
G75*
G03*
X118600000Y-73450000I0J-50000D01*
G01*
X118600000Y-73450000D02*
G75*
G03*
X118600000Y-73350000I0J50000D01*
G01*
D12*
%TO.C,Q3*%
X74126202Y-73068718D02*
X74276202Y-72808910D01*
X74450962Y-73256218D02*
X74126202Y-73068718D01*
X75776202Y-70210834D02*
X76165913Y-70435834D01*
X75626202Y-70470642D02*
X75776202Y-70210834D01*
X75663702Y-70405690D02*
X75601202Y-70513943D01*
X77205144Y-71035834D02*
X77030144Y-71338943D01*
X76793782Y-70798334D02*
X77205144Y-71035834D01*
X75717644Y-73612260D02*
X76388814Y-73999760D01*
X75692644Y-73655561D02*
X75717644Y-73612260D01*
X75230384Y-73706218D02*
X75692644Y-73655561D01*
X74992227Y-73568718D02*
X75230384Y-73706218D01*
%TO.C,Q1*%
X123250000Y-76775000D02*
X123550000Y-76775000D01*
X123250000Y-77150000D02*
X123250000Y-76775000D01*
X126550000Y-76775000D02*
X126550000Y-77225000D01*
X126250000Y-76775000D02*
X126550000Y-76775000D01*
X126325000Y-76775000D02*
X126200000Y-76775000D01*
X126550000Y-78425000D02*
X126200000Y-78425000D01*
X126550000Y-77950000D02*
X126550000Y-78425000D01*
X123575000Y-78425000D02*
X123575000Y-79200000D01*
X123525000Y-78425000D02*
X123575000Y-78425000D01*
X123250000Y-78050000D02*
X123525000Y-78425000D01*
X123250000Y-77775000D02*
X123250000Y-78050000D01*
D14*
%TO.C,C1*%
X88900000Y-82000000D02*
G75*
G03*
X88900000Y-82000000I-5000000J0D01*
G01*
D12*
%TO.C,Q2*%
X157105144Y-69458558D02*
X157255144Y-69718366D01*
X156780384Y-69646058D02*
X157105144Y-69458558D01*
X158755144Y-72316442D02*
X158365433Y-72541442D01*
X158605144Y-72056634D02*
X158755144Y-72316442D01*
X158642644Y-72121586D02*
X158580144Y-72013333D01*
X157326202Y-73141442D02*
X157151202Y-72838333D01*
X157737564Y-72903942D02*
X157326202Y-73141442D01*
X155838702Y-70565016D02*
X155167532Y-70952516D01*
X155813702Y-70521715D02*
X155838702Y-70565016D01*
X156000962Y-70096058D02*
X155813702Y-70521715D01*
X156239119Y-69958558D02*
X156000962Y-70096058D01*
%TO.C,Q4*%
X123450000Y-72125000D02*
X123150000Y-72125000D01*
X123450000Y-71750000D02*
X123450000Y-72125000D01*
X120150000Y-72125000D02*
X120150000Y-71675000D01*
X120450000Y-72125000D02*
X120150000Y-72125000D01*
X120375000Y-72125000D02*
X120500000Y-72125000D01*
X120150000Y-70475000D02*
X120500000Y-70475000D01*
X120150000Y-70950000D02*
X120150000Y-70475000D01*
X123125000Y-70475000D02*
X123125000Y-69700000D01*
X123175000Y-70475000D02*
X123125000Y-70475000D01*
X123450000Y-70850000D02*
X123175000Y-70475000D01*
X123450000Y-71125000D02*
X123450000Y-70850000D01*
%TO.C,R45*%
D16*
X111302380Y-58026190D02*
X111016666Y-58026190D01*
X111159523Y-58026190D02*
X111159523Y-57526190D01*
X111111904Y-57597619D01*
X111064285Y-57645238D01*
X111016666Y-57669047D01*
X111611904Y-57526190D02*
X111659523Y-57526190D01*
X111707142Y-57550000D01*
X111730952Y-57573809D01*
X111754761Y-57621428D01*
X111778571Y-57716666D01*
X111778571Y-57835714D01*
X111754761Y-57930952D01*
X111730952Y-57978571D01*
X111707142Y-58002380D01*
X111659523Y-58026190D01*
X111611904Y-58026190D01*
X111564285Y-58002380D01*
X111540476Y-57978571D01*
X111516666Y-57930952D01*
X111492857Y-57835714D01*
X111492857Y-57716666D01*
X111516666Y-57621428D01*
X111540476Y-57573809D01*
X111564285Y-57550000D01*
X111611904Y-57526190D01*
X111992857Y-58026190D02*
X111992857Y-57526190D01*
X112040476Y-57835714D02*
X112183333Y-58026190D01*
X112183333Y-57692857D02*
X111992857Y-57883333D01*
%TO.C,R44*%
X113202380Y-58026190D02*
X112916666Y-58026190D01*
X113059523Y-58026190D02*
X113059523Y-57526190D01*
X113011904Y-57597619D01*
X112964285Y-57645238D01*
X112916666Y-57669047D01*
X113511904Y-57526190D02*
X113559523Y-57526190D01*
X113607142Y-57550000D01*
X113630952Y-57573809D01*
X113654761Y-57621428D01*
X113678571Y-57716666D01*
X113678571Y-57835714D01*
X113654761Y-57930952D01*
X113630952Y-57978571D01*
X113607142Y-58002380D01*
X113559523Y-58026190D01*
X113511904Y-58026190D01*
X113464285Y-58002380D01*
X113440476Y-57978571D01*
X113416666Y-57930952D01*
X113392857Y-57835714D01*
X113392857Y-57716666D01*
X113416666Y-57621428D01*
X113440476Y-57573809D01*
X113464285Y-57550000D01*
X113511904Y-57526190D01*
X113892857Y-58026190D02*
X113892857Y-57526190D01*
X113940476Y-57835714D02*
X114083333Y-58026190D01*
X114083333Y-57692857D02*
X113892857Y-57883333D01*
%TO.C,D6*%
X113878571Y-49926190D02*
X113640476Y-49926190D01*
X113640476Y-49426190D01*
X114045238Y-49664285D02*
X114211904Y-49664285D01*
X114283333Y-49926190D02*
X114045238Y-49926190D01*
X114045238Y-49426190D01*
X114283333Y-49426190D01*
X114497619Y-49926190D02*
X114497619Y-49426190D01*
X114616666Y-49426190D01*
X114688095Y-49450000D01*
X114735714Y-49497619D01*
X114759523Y-49545238D01*
X114783333Y-49640476D01*
X114783333Y-49711904D01*
X114759523Y-49807142D01*
X114735714Y-49854761D01*
X114688095Y-49902380D01*
X114616666Y-49926190D01*
X114497619Y-49926190D01*
%TO.C,R26*%
X103587180Y-30885657D02*
X103303656Y-30920972D01*
X103445418Y-30903314D02*
X103383617Y-30407148D01*
X103345192Y-30483915D01*
X103303824Y-30537055D01*
X103259513Y-30566567D01*
X103832529Y-30351233D02*
X103879783Y-30345348D01*
X103929980Y-30363089D01*
X103956550Y-30383773D01*
X103986063Y-30428084D01*
X104021461Y-30519649D01*
X104036176Y-30637784D01*
X104024320Y-30735234D01*
X104006579Y-30785431D01*
X103985895Y-30812001D01*
X103941584Y-30841514D01*
X103894330Y-30847399D01*
X103844133Y-30829658D01*
X103817563Y-30808974D01*
X103788051Y-30764663D01*
X103752652Y-30673098D01*
X103737938Y-30554964D01*
X103749793Y-30457513D01*
X103767534Y-30407316D01*
X103788218Y-30380746D01*
X103832529Y-30351233D01*
X104305068Y-30292376D02*
X104352322Y-30286490D01*
X104402519Y-30304231D01*
X104429089Y-30324915D01*
X104458602Y-30369226D01*
X104494000Y-30460791D01*
X104508715Y-30578926D01*
X104496859Y-30676376D01*
X104479118Y-30726573D01*
X104458434Y-30753143D01*
X104414123Y-30782656D01*
X104366869Y-30788542D01*
X104316672Y-30770800D01*
X104290102Y-30750116D01*
X104260590Y-30705805D01*
X104225191Y-30614240D01*
X104210477Y-30496106D01*
X104222332Y-30398655D01*
X104240073Y-30348458D01*
X104260757Y-30321888D01*
X104305068Y-30292376D01*
%TO.C,R27*%
X97604458Y-31904146D02*
X97323711Y-31957194D01*
X97464085Y-31930670D02*
X97371251Y-31439363D01*
X97337722Y-31518391D01*
X97299772Y-31574024D01*
X97257402Y-31606260D01*
X97815767Y-31355371D02*
X97862558Y-31346530D01*
X97913769Y-31361084D01*
X97941586Y-31380059D01*
X97973822Y-31422430D01*
X98014901Y-31511591D01*
X98037004Y-31628569D01*
X98031291Y-31726572D01*
X98016736Y-31777784D01*
X97997762Y-31805600D01*
X97955391Y-31837837D01*
X97908600Y-31846678D01*
X97857388Y-31832124D01*
X97829572Y-31813149D01*
X97797335Y-31770778D01*
X97756257Y-31681617D01*
X97734154Y-31564639D01*
X97739867Y-31466636D01*
X97754421Y-31415424D01*
X97773396Y-31387608D01*
X97815767Y-31355371D01*
X98283678Y-31266959D02*
X98330469Y-31258117D01*
X98381680Y-31272672D01*
X98409497Y-31291647D01*
X98441733Y-31334017D01*
X98482811Y-31423179D01*
X98504915Y-31540156D01*
X98499202Y-31638159D01*
X98484647Y-31689371D01*
X98465672Y-31717187D01*
X98423302Y-31749424D01*
X98376511Y-31758265D01*
X98325299Y-31743711D01*
X98297483Y-31724736D01*
X98265246Y-31682365D01*
X98224168Y-31593204D01*
X98202065Y-31476226D01*
X98207778Y-31378223D01*
X98222332Y-31327012D01*
X98241307Y-31299196D01*
X98283678Y-31266959D01*
%TO.C,R29*%
X85942323Y-34837693D02*
X85670438Y-34925509D01*
X85806380Y-34881601D02*
X85652702Y-34405804D01*
X85629342Y-34488411D01*
X85598664Y-34548361D01*
X85560668Y-34585654D01*
X86083185Y-34266762D02*
X86128499Y-34252126D01*
X86181131Y-34260147D01*
X86211106Y-34275486D01*
X86248399Y-34313482D01*
X86300329Y-34396792D01*
X86336919Y-34510077D01*
X86343534Y-34608023D01*
X86335513Y-34660655D01*
X86320174Y-34690630D01*
X86282178Y-34727923D01*
X86236864Y-34742559D01*
X86184232Y-34734538D01*
X86154257Y-34719199D01*
X86116964Y-34681203D01*
X86065034Y-34597893D01*
X86028444Y-34484608D01*
X86021829Y-34386662D01*
X86029850Y-34334030D01*
X86045189Y-34304055D01*
X86083185Y-34266762D01*
X86536326Y-34120402D02*
X86581640Y-34105766D01*
X86634272Y-34113787D01*
X86664247Y-34129126D01*
X86701540Y-34167122D01*
X86753469Y-34250432D01*
X86790059Y-34363717D01*
X86796674Y-34461663D01*
X86788653Y-34514295D01*
X86773314Y-34544270D01*
X86735318Y-34581563D01*
X86690004Y-34596199D01*
X86637372Y-34588178D01*
X86607397Y-34572839D01*
X86570104Y-34534843D01*
X86518175Y-34451533D01*
X86481585Y-34338248D01*
X86474970Y-34240302D01*
X86482991Y-34187670D01*
X86498330Y-34157695D01*
X86536326Y-34120402D01*
%TO.C,R28*%
X91722862Y-33221515D02*
X91446000Y-33292086D01*
X91584431Y-33256800D02*
X91460932Y-32772292D01*
X91432431Y-32853270D01*
X91398049Y-32911175D01*
X91357787Y-32946009D01*
X91899296Y-32660555D02*
X91945440Y-32648793D01*
X91997464Y-32660103D01*
X92026417Y-32677294D01*
X92061251Y-32717556D01*
X92107846Y-32803963D01*
X92137251Y-32919322D01*
X92137703Y-33017490D01*
X92126393Y-33069514D01*
X92109202Y-33098467D01*
X92068939Y-33133301D01*
X92022796Y-33145063D01*
X91970771Y-33133753D01*
X91941818Y-33116562D01*
X91906985Y-33076299D01*
X91860389Y-32989893D01*
X91830984Y-32874534D01*
X91830533Y-32776366D01*
X91841842Y-32724341D01*
X91859033Y-32695388D01*
X91899296Y-32660555D01*
X92360732Y-32542936D02*
X92406876Y-32531174D01*
X92458900Y-32542484D01*
X92487853Y-32559675D01*
X92522687Y-32599938D01*
X92569282Y-32686344D01*
X92598687Y-32801703D01*
X92599139Y-32899871D01*
X92587829Y-32951896D01*
X92570638Y-32980848D01*
X92530375Y-33015682D01*
X92484232Y-33027444D01*
X92432207Y-33016134D01*
X92403254Y-32998943D01*
X92368421Y-32958680D01*
X92321825Y-32872274D01*
X92292420Y-32756915D01*
X92291969Y-32658747D01*
X92303279Y-32606723D01*
X92320469Y-32577770D01*
X92360732Y-32542936D01*
%TO.C,R19*%
X139611125Y-32956849D02*
X139334264Y-32886277D01*
X139472695Y-32921563D02*
X139596194Y-32437055D01*
X139532408Y-32494509D01*
X139474502Y-32528890D01*
X139422478Y-32540200D01*
X140034558Y-32548793D02*
X140080702Y-32560555D01*
X140120965Y-32595388D01*
X140138156Y-32624341D01*
X140149465Y-32676366D01*
X140149014Y-32774534D01*
X140119609Y-32889893D01*
X140073013Y-32976299D01*
X140038180Y-33016562D01*
X140009227Y-33033753D01*
X139957202Y-33045063D01*
X139911059Y-33033301D01*
X139870796Y-32998467D01*
X139853605Y-32969514D01*
X139842295Y-32917490D01*
X139842747Y-32819322D01*
X139872152Y-32703963D01*
X139918747Y-32617556D01*
X139953581Y-32577294D01*
X139982534Y-32560103D01*
X140034558Y-32548793D01*
X140495994Y-32666411D02*
X140542138Y-32678173D01*
X140582401Y-32713007D01*
X140599592Y-32741960D01*
X140610902Y-32793984D01*
X140610450Y-32892152D01*
X140581045Y-33007511D01*
X140534449Y-33093918D01*
X140499616Y-33134180D01*
X140470663Y-33151371D01*
X140418639Y-33162681D01*
X140372495Y-33150919D01*
X140332232Y-33116086D01*
X140315041Y-33087133D01*
X140303731Y-33035108D01*
X140304183Y-32936940D01*
X140333588Y-32821581D01*
X140380184Y-32735175D01*
X140415017Y-32694912D01*
X140443970Y-32677721D01*
X140495994Y-32666411D01*
%TO.C,R17*%
X127731265Y-30803254D02*
X127447741Y-30767939D01*
X127589503Y-30785597D02*
X127651304Y-30289431D01*
X127595221Y-30354426D01*
X127542081Y-30395794D01*
X127491885Y-30413535D01*
X128100216Y-30345346D02*
X128147470Y-30351231D01*
X128191781Y-30380744D01*
X128212465Y-30407314D01*
X128230206Y-30457511D01*
X128242061Y-30554962D01*
X128227347Y-30673096D01*
X128191948Y-30764661D01*
X128162436Y-30808972D01*
X128135866Y-30829656D01*
X128085669Y-30847397D01*
X128038415Y-30841512D01*
X127994104Y-30811999D01*
X127973420Y-30785429D01*
X127955679Y-30735232D01*
X127943823Y-30637782D01*
X127958538Y-30519647D01*
X127993936Y-30428082D01*
X128023449Y-30383771D01*
X128050019Y-30363087D01*
X128100216Y-30345346D01*
X128572755Y-30404204D02*
X128620009Y-30410089D01*
X128664320Y-30439602D01*
X128685004Y-30466172D01*
X128702745Y-30516369D01*
X128714600Y-30613819D01*
X128699886Y-30731954D01*
X128664487Y-30823519D01*
X128634975Y-30867830D01*
X128608405Y-30888514D01*
X128558208Y-30906255D01*
X128510954Y-30900369D01*
X128466643Y-30870857D01*
X128445959Y-30844287D01*
X128428218Y-30794090D01*
X128416362Y-30696639D01*
X128431077Y-30578505D01*
X128466475Y-30486940D01*
X128495988Y-30442629D01*
X128522558Y-30421945D01*
X128572755Y-30404204D01*
%TO.C,R20*%
X145403280Y-34632789D02*
X145131396Y-34544973D01*
X145267338Y-34588881D02*
X145421016Y-34113084D01*
X145353748Y-34166419D01*
X145293798Y-34197097D01*
X145241166Y-34205118D01*
X145851500Y-34252126D02*
X145896814Y-34266762D01*
X145934810Y-34304055D01*
X145950149Y-34334030D01*
X145958170Y-34386662D01*
X145951555Y-34484608D01*
X145914965Y-34597893D01*
X145863035Y-34681203D01*
X145825742Y-34719199D01*
X145795767Y-34734538D01*
X145743135Y-34742559D01*
X145697821Y-34727923D01*
X145659825Y-34690630D01*
X145644486Y-34660655D01*
X145636465Y-34608023D01*
X145643080Y-34510077D01*
X145679670Y-34396792D01*
X145731600Y-34313482D01*
X145768893Y-34275486D01*
X145798868Y-34260147D01*
X145851500Y-34252126D01*
X146304640Y-34398486D02*
X146349954Y-34413122D01*
X146387950Y-34450415D01*
X146403289Y-34480390D01*
X146411310Y-34533022D01*
X146404695Y-34630968D01*
X146368105Y-34744253D01*
X146316176Y-34827563D01*
X146278883Y-34865559D01*
X146248908Y-34880898D01*
X146196276Y-34888919D01*
X146150962Y-34874283D01*
X146112966Y-34836990D01*
X146097627Y-34807015D01*
X146089606Y-34754383D01*
X146096221Y-34656437D01*
X146132811Y-34543152D01*
X146184740Y-34459842D01*
X146222033Y-34421846D01*
X146252008Y-34406507D01*
X146304640Y-34398486D01*
%TO.C,R18*%
X133720466Y-31680367D02*
X133439719Y-31627320D01*
X133580093Y-31653843D02*
X133672926Y-31162537D01*
X133612873Y-31223882D01*
X133557241Y-31261832D01*
X133506029Y-31276387D01*
X134117441Y-31246529D02*
X134164232Y-31255370D01*
X134206603Y-31287607D01*
X134225578Y-31315423D01*
X134240132Y-31366635D01*
X134245845Y-31464638D01*
X134223742Y-31581616D01*
X134182664Y-31670777D01*
X134150427Y-31713148D01*
X134122611Y-31732123D01*
X134071399Y-31746677D01*
X134024608Y-31737836D01*
X133982237Y-31705599D01*
X133963263Y-31677783D01*
X133948708Y-31626571D01*
X133942995Y-31528568D01*
X133965098Y-31411590D01*
X134006177Y-31322429D01*
X134038413Y-31280058D01*
X134066230Y-31261083D01*
X134117441Y-31246529D01*
X134585352Y-31334942D02*
X134632143Y-31343783D01*
X134674514Y-31376020D01*
X134693489Y-31403836D01*
X134708043Y-31455048D01*
X134713756Y-31553051D01*
X134691653Y-31670028D01*
X134650575Y-31759190D01*
X134618338Y-31801560D01*
X134590522Y-31820535D01*
X134539310Y-31835089D01*
X134492519Y-31826248D01*
X134450148Y-31794011D01*
X134431173Y-31766195D01*
X134416619Y-31714983D01*
X134410906Y-31616981D01*
X134433009Y-31500003D01*
X134474087Y-31410841D01*
X134506324Y-31368471D01*
X134534140Y-31349496D01*
X134585352Y-31334942D01*
%TO.C,R30*%
X80262179Y-36852221D02*
X79996163Y-36956472D01*
X80129171Y-36904346D02*
X79946733Y-36438818D01*
X79928459Y-36522697D01*
X79901499Y-36584409D01*
X79865850Y-36623952D01*
X80367925Y-36273755D02*
X80412261Y-36256380D01*
X80465284Y-36261173D01*
X80496140Y-36274653D01*
X80535683Y-36310302D01*
X80592601Y-36390286D01*
X80636039Y-36501126D01*
X80648621Y-36598486D01*
X80643828Y-36651509D01*
X80630348Y-36682365D01*
X80594699Y-36721908D01*
X80550363Y-36739283D01*
X80497340Y-36734490D01*
X80466484Y-36721010D01*
X80426941Y-36685361D01*
X80370023Y-36605377D01*
X80326585Y-36494537D01*
X80314003Y-36397177D01*
X80318796Y-36344154D01*
X80332276Y-36313298D01*
X80367925Y-36273755D01*
X80811285Y-36100004D02*
X80855621Y-36082629D01*
X80908644Y-36087422D01*
X80939500Y-36100903D01*
X80979043Y-36136551D01*
X81035961Y-36216535D01*
X81079399Y-36327375D01*
X81091981Y-36424735D01*
X81087188Y-36477758D01*
X81073708Y-36508614D01*
X81038059Y-36548157D01*
X80993723Y-36565532D01*
X80940700Y-36560739D01*
X80909844Y-36547259D01*
X80870301Y-36511610D01*
X80813383Y-36431626D01*
X80769945Y-36320786D01*
X80757363Y-36223426D01*
X80762156Y-36170403D01*
X80775636Y-36139547D01*
X80811285Y-36100004D01*
%TO.C,R21*%
X151097116Y-36708970D02*
X150831100Y-36604719D01*
X150964108Y-36656845D02*
X151146546Y-36191317D01*
X151076148Y-36240446D01*
X151014437Y-36267407D01*
X150961413Y-36272199D01*
X151567738Y-36356380D02*
X151612074Y-36373755D01*
X151647723Y-36413298D01*
X151661203Y-36444154D01*
X151665996Y-36497177D01*
X151653414Y-36594537D01*
X151609976Y-36705377D01*
X151553058Y-36785361D01*
X151513515Y-36821010D01*
X151482659Y-36834490D01*
X151429636Y-36839283D01*
X151385300Y-36821908D01*
X151349651Y-36782365D01*
X151336171Y-36751509D01*
X151331378Y-36698486D01*
X151343960Y-36601126D01*
X151387398Y-36490286D01*
X151444316Y-36410302D01*
X151483859Y-36374653D01*
X151514715Y-36361173D01*
X151567738Y-36356380D01*
X152011098Y-36530131D02*
X152055434Y-36547506D01*
X152091083Y-36587049D01*
X152104563Y-36617905D01*
X152109356Y-36670928D01*
X152096774Y-36768288D01*
X152053336Y-36879128D01*
X151996418Y-36959112D01*
X151956875Y-36994760D01*
X151926019Y-37008241D01*
X151872996Y-37013034D01*
X151828660Y-36995659D01*
X151793011Y-36956116D01*
X151779531Y-36925260D01*
X151774738Y-36872237D01*
X151787320Y-36774877D01*
X151830758Y-36664037D01*
X151887676Y-36584053D01*
X151927219Y-36548404D01*
X151958075Y-36534924D01*
X152011098Y-36530131D01*
%TO.C,R25*%
X109571527Y-30366674D02*
X109286376Y-30384614D01*
X109428951Y-30375644D02*
X109397556Y-29876631D01*
X109354516Y-29950908D01*
X109309981Y-30001423D01*
X109263951Y-30028176D01*
X109849044Y-29848225D02*
X109896569Y-29845235D01*
X109945589Y-29866008D01*
X109970847Y-29888275D01*
X109997600Y-29934305D01*
X110027342Y-30027861D01*
X110034817Y-30146673D01*
X110017035Y-30243218D01*
X109996262Y-30292239D01*
X109973995Y-30317496D01*
X109927965Y-30344249D01*
X109880440Y-30347239D01*
X109831419Y-30326466D01*
X109806162Y-30304199D01*
X109779409Y-30258169D01*
X109749667Y-30164613D01*
X109742192Y-30045801D01*
X109759974Y-29949256D01*
X109780747Y-29900235D01*
X109803014Y-29874978D01*
X109849044Y-29848225D01*
X110324295Y-29818325D02*
X110371820Y-29815335D01*
X110420840Y-29836108D01*
X110446098Y-29858375D01*
X110472850Y-29904405D01*
X110502593Y-29997960D01*
X110510068Y-30116773D01*
X110492286Y-30213318D01*
X110471513Y-30262338D01*
X110449246Y-30287596D01*
X110403215Y-30314348D01*
X110355690Y-30317338D01*
X110306670Y-30296566D01*
X110281413Y-30274298D01*
X110254660Y-30228268D01*
X110224918Y-30134713D01*
X110217443Y-30015900D01*
X110235225Y-29919355D01*
X110255998Y-29870335D01*
X110278265Y-29845078D01*
X110324295Y-29818325D01*
%TO.C,R16*%
X121643121Y-30224813D02*
X121357971Y-30206873D01*
X121500546Y-30215843D02*
X121531941Y-29716830D01*
X121479931Y-29785128D01*
X121429416Y-29829663D01*
X121380396Y-29850435D01*
X121983430Y-29745235D02*
X122030955Y-29748225D01*
X122076985Y-29774978D01*
X122099252Y-29800235D01*
X122120025Y-29849256D01*
X122137807Y-29945801D01*
X122130332Y-30064613D01*
X122100590Y-30158169D01*
X122073837Y-30204199D01*
X122048580Y-30226466D01*
X121999559Y-30247239D01*
X121952034Y-30244249D01*
X121906004Y-30217496D01*
X121883737Y-30192239D01*
X121862964Y-30143218D01*
X121845182Y-30046673D01*
X121852657Y-29927861D01*
X121882399Y-29834305D01*
X121909152Y-29788275D01*
X121934410Y-29766008D01*
X121983430Y-29745235D01*
X122458680Y-29775136D02*
X122506206Y-29778126D01*
X122552236Y-29804878D01*
X122574503Y-29830136D01*
X122595276Y-29879156D01*
X122613058Y-29975701D01*
X122605583Y-30094514D01*
X122575840Y-30188069D01*
X122549088Y-30234099D01*
X122523830Y-30256366D01*
X122474810Y-30277139D01*
X122427285Y-30274149D01*
X122381255Y-30247396D01*
X122358988Y-30222139D01*
X122338215Y-30173119D01*
X122320433Y-30076573D01*
X122327908Y-29957761D01*
X122357650Y-29864206D01*
X122384403Y-29818176D01*
X122409660Y-29795908D01*
X122458680Y-29775136D01*
%TO.C,R46*%
X111940476Y-50026190D02*
X111654761Y-50026190D01*
X111797619Y-50026190D02*
X111797619Y-49526190D01*
X111750000Y-49597619D01*
X111702380Y-49645238D01*
X111654761Y-49669047D01*
X112154761Y-50026190D02*
X112154761Y-49526190D01*
X112202380Y-49835714D02*
X112345238Y-50026190D01*
X112345238Y-49692857D02*
X112154761Y-49883333D01*
%TO.C,C24*%
X117290476Y-50626190D02*
X117004761Y-50626190D01*
X117147619Y-50626190D02*
X117147619Y-50126190D01*
X117100000Y-50197619D01*
X117052380Y-50245238D01*
X117004761Y-50269047D01*
X117600000Y-50126190D02*
X117647619Y-50126190D01*
X117695238Y-50150000D01*
X117719047Y-50173809D01*
X117742857Y-50221428D01*
X117766666Y-50316666D01*
X117766666Y-50435714D01*
X117742857Y-50530952D01*
X117719047Y-50578571D01*
X117695238Y-50602380D01*
X117647619Y-50626190D01*
X117600000Y-50626190D01*
X117552380Y-50602380D01*
X117528571Y-50578571D01*
X117504761Y-50530952D01*
X117480952Y-50435714D01*
X117480952Y-50316666D01*
X117504761Y-50221428D01*
X117528571Y-50173809D01*
X117552380Y-50150000D01*
X117600000Y-50126190D01*
X118076190Y-50126190D02*
X118123809Y-50126190D01*
X118171428Y-50150000D01*
X118195238Y-50173809D01*
X118219047Y-50221428D01*
X118242857Y-50316666D01*
X118242857Y-50435714D01*
X118219047Y-50530952D01*
X118195238Y-50578571D01*
X118171428Y-50602380D01*
X118123809Y-50626190D01*
X118076190Y-50626190D01*
X118028571Y-50602380D01*
X118004761Y-50578571D01*
X117980952Y-50530952D01*
X117957142Y-50435714D01*
X117957142Y-50316666D01*
X117980952Y-50221428D01*
X118004761Y-50173809D01*
X118028571Y-50150000D01*
X118076190Y-50126190D01*
X118457142Y-50292857D02*
X118457142Y-50792857D01*
X118695238Y-50554761D02*
X118719047Y-50602380D01*
X118766666Y-50626190D01*
X118457142Y-50554761D02*
X118480952Y-50602380D01*
X118528571Y-50626190D01*
X118623809Y-50626190D01*
X118671428Y-50602380D01*
X118695238Y-50554761D01*
X118695238Y-50292857D01*
X119147619Y-50364285D02*
X118980952Y-50364285D01*
X118980952Y-50626190D02*
X118980952Y-50126190D01*
X119219047Y-50126190D01*
%TO.C,C22*%
X115042857Y-54626190D02*
X115090476Y-54626190D01*
X115138095Y-54650000D01*
X115161904Y-54673809D01*
X115185714Y-54721428D01*
X115209523Y-54816666D01*
X115209523Y-54935714D01*
X115185714Y-55030952D01*
X115161904Y-55078571D01*
X115138095Y-55102380D01*
X115090476Y-55126190D01*
X115042857Y-55126190D01*
X114995238Y-55102380D01*
X114971428Y-55078571D01*
X114947619Y-55030952D01*
X114923809Y-54935714D01*
X114923809Y-54816666D01*
X114947619Y-54721428D01*
X114971428Y-54673809D01*
X114995238Y-54650000D01*
X115042857Y-54626190D01*
X115423809Y-55078571D02*
X115447619Y-55102380D01*
X115423809Y-55126190D01*
X115400000Y-55102380D01*
X115423809Y-55078571D01*
X115423809Y-55126190D01*
X115923809Y-55126190D02*
X115638095Y-55126190D01*
X115780952Y-55126190D02*
X115780952Y-54626190D01*
X115733333Y-54697619D01*
X115685714Y-54745238D01*
X115638095Y-54769047D01*
X116138095Y-54792857D02*
X116138095Y-55292857D01*
X116376190Y-55054761D02*
X116400000Y-55102380D01*
X116447619Y-55126190D01*
X116138095Y-55054761D02*
X116161904Y-55102380D01*
X116209523Y-55126190D01*
X116304761Y-55126190D01*
X116352380Y-55102380D01*
X116376190Y-55054761D01*
X116376190Y-54792857D01*
X116828571Y-54864285D02*
X116661904Y-54864285D01*
X116661904Y-55126190D02*
X116661904Y-54626190D01*
X116900000Y-54626190D01*
%TO.C,C23*%
X114742857Y-50126190D02*
X114790476Y-50126190D01*
X114838095Y-50150000D01*
X114861904Y-50173809D01*
X114885714Y-50221428D01*
X114909523Y-50316666D01*
X114909523Y-50435714D01*
X114885714Y-50530952D01*
X114861904Y-50578571D01*
X114838095Y-50602380D01*
X114790476Y-50626190D01*
X114742857Y-50626190D01*
X114695238Y-50602380D01*
X114671428Y-50578571D01*
X114647619Y-50530952D01*
X114623809Y-50435714D01*
X114623809Y-50316666D01*
X114647619Y-50221428D01*
X114671428Y-50173809D01*
X114695238Y-50150000D01*
X114742857Y-50126190D01*
X115123809Y-50578571D02*
X115147619Y-50602380D01*
X115123809Y-50626190D01*
X115100000Y-50602380D01*
X115123809Y-50578571D01*
X115123809Y-50626190D01*
X115623809Y-50626190D02*
X115338095Y-50626190D01*
X115480952Y-50626190D02*
X115480952Y-50126190D01*
X115433333Y-50197619D01*
X115385714Y-50245238D01*
X115338095Y-50269047D01*
X115838095Y-50292857D02*
X115838095Y-50792857D01*
X116076190Y-50554761D02*
X116100000Y-50602380D01*
X116147619Y-50626190D01*
X115838095Y-50554761D02*
X115861904Y-50602380D01*
X115909523Y-50626190D01*
X116004761Y-50626190D01*
X116052380Y-50602380D01*
X116076190Y-50554761D01*
X116076190Y-50292857D01*
X116528571Y-50364285D02*
X116361904Y-50364285D01*
X116361904Y-50626190D02*
X116361904Y-50126190D01*
X116600000Y-50126190D01*
%TO.C,J1*%
X94709523Y-117035714D02*
X95090476Y-117035714D01*
X94900000Y-117226190D02*
X94900000Y-116845238D01*
%TO.C,R6*%
X136912380Y-111006190D02*
X136626666Y-111006190D01*
X136769523Y-111006190D02*
X136769523Y-110506190D01*
X136721904Y-110577619D01*
X136674285Y-110625238D01*
X136626666Y-110649047D01*
X137221904Y-110506190D02*
X137269523Y-110506190D01*
X137317142Y-110530000D01*
X137340952Y-110553809D01*
X137364761Y-110601428D01*
X137388571Y-110696666D01*
X137388571Y-110815714D01*
X137364761Y-110910952D01*
X137340952Y-110958571D01*
X137317142Y-110982380D01*
X137269523Y-111006190D01*
X137221904Y-111006190D01*
X137174285Y-110982380D01*
X137150476Y-110958571D01*
X137126666Y-110910952D01*
X137102857Y-110815714D01*
X137102857Y-110696666D01*
X137126666Y-110601428D01*
X137150476Y-110553809D01*
X137174285Y-110530000D01*
X137221904Y-110506190D01*
X137602857Y-111006190D02*
X137602857Y-110506190D01*
X137650476Y-110815714D02*
X137793333Y-111006190D01*
X137793333Y-110672857D02*
X137602857Y-110863333D01*
%TO.C,R8*%
X69466666Y-69326190D02*
X69180952Y-69326190D01*
X69323809Y-69326190D02*
X69323809Y-68826190D01*
X69276190Y-68897619D01*
X69228571Y-68945238D01*
X69180952Y-68969047D01*
X69776190Y-68826190D02*
X69823809Y-68826190D01*
X69871428Y-68850000D01*
X69895238Y-68873809D01*
X69919047Y-68921428D01*
X69942857Y-69016666D01*
X69942857Y-69135714D01*
X69919047Y-69230952D01*
X69895238Y-69278571D01*
X69871428Y-69302380D01*
X69823809Y-69326190D01*
X69776190Y-69326190D01*
X69728571Y-69302380D01*
X69704761Y-69278571D01*
X69680952Y-69230952D01*
X69657142Y-69135714D01*
X69657142Y-69016666D01*
X69680952Y-68921428D01*
X69704761Y-68873809D01*
X69728571Y-68850000D01*
X69776190Y-68826190D01*
X70252380Y-68826190D02*
X70300000Y-68826190D01*
X70347619Y-68850000D01*
X70371428Y-68873809D01*
X70395238Y-68921428D01*
X70419047Y-69016666D01*
X70419047Y-69135714D01*
X70395238Y-69230952D01*
X70371428Y-69278571D01*
X70347619Y-69302380D01*
X70300000Y-69326190D01*
X70252380Y-69326190D01*
X70204761Y-69302380D01*
X70180952Y-69278571D01*
X70157142Y-69230952D01*
X70133333Y-69135714D01*
X70133333Y-69016666D01*
X70157142Y-68921428D01*
X70180952Y-68873809D01*
X70204761Y-68850000D01*
X70252380Y-68826190D01*
%TO.C,R42*%
X124564285Y-69126190D02*
X124278571Y-69126190D01*
X124421428Y-69126190D02*
X124421428Y-68626190D01*
X124373809Y-68697619D01*
X124326190Y-68745238D01*
X124278571Y-68769047D01*
X124873809Y-68626190D02*
X124921428Y-68626190D01*
X124969047Y-68650000D01*
X124992857Y-68673809D01*
X125016666Y-68721428D01*
X125040476Y-68816666D01*
X125040476Y-68935714D01*
X125016666Y-69030952D01*
X124992857Y-69078571D01*
X124969047Y-69102380D01*
X124921428Y-69126190D01*
X124873809Y-69126190D01*
X124826190Y-69102380D01*
X124802380Y-69078571D01*
X124778571Y-69030952D01*
X124754761Y-68935714D01*
X124754761Y-68816666D01*
X124778571Y-68721428D01*
X124802380Y-68673809D01*
X124826190Y-68650000D01*
X124873809Y-68626190D01*
X125350000Y-68626190D02*
X125397619Y-68626190D01*
X125445238Y-68650000D01*
X125469047Y-68673809D01*
X125492857Y-68721428D01*
X125516666Y-68816666D01*
X125516666Y-68935714D01*
X125492857Y-69030952D01*
X125469047Y-69078571D01*
X125445238Y-69102380D01*
X125397619Y-69126190D01*
X125350000Y-69126190D01*
X125302380Y-69102380D01*
X125278571Y-69078571D01*
X125254761Y-69030952D01*
X125230952Y-68935714D01*
X125230952Y-68816666D01*
X125254761Y-68721428D01*
X125278571Y-68673809D01*
X125302380Y-68650000D01*
X125350000Y-68626190D01*
X125730952Y-69126190D02*
X125730952Y-68626190D01*
X125778571Y-68935714D02*
X125921428Y-69126190D01*
X125921428Y-68792857D02*
X125730952Y-68983333D01*
%TO.C,R14*%
X161866666Y-69326190D02*
X161580952Y-69326190D01*
X161723809Y-69326190D02*
X161723809Y-68826190D01*
X161676190Y-68897619D01*
X161628571Y-68945238D01*
X161580952Y-68969047D01*
X162176190Y-68826190D02*
X162223809Y-68826190D01*
X162271428Y-68850000D01*
X162295238Y-68873809D01*
X162319047Y-68921428D01*
X162342857Y-69016666D01*
X162342857Y-69135714D01*
X162319047Y-69230952D01*
X162295238Y-69278571D01*
X162271428Y-69302380D01*
X162223809Y-69326190D01*
X162176190Y-69326190D01*
X162128571Y-69302380D01*
X162104761Y-69278571D01*
X162080952Y-69230952D01*
X162057142Y-69135714D01*
X162057142Y-69016666D01*
X162080952Y-68921428D01*
X162104761Y-68873809D01*
X162128571Y-68850000D01*
X162176190Y-68826190D01*
X162652380Y-68826190D02*
X162700000Y-68826190D01*
X162747619Y-68850000D01*
X162771428Y-68873809D01*
X162795238Y-68921428D01*
X162819047Y-69016666D01*
X162819047Y-69135714D01*
X162795238Y-69230952D01*
X162771428Y-69278571D01*
X162747619Y-69302380D01*
X162700000Y-69326190D01*
X162652380Y-69326190D01*
X162604761Y-69302380D01*
X162580952Y-69278571D01*
X162557142Y-69230952D01*
X162533333Y-69135714D01*
X162533333Y-69016666D01*
X162557142Y-68921428D01*
X162580952Y-68873809D01*
X162604761Y-68850000D01*
X162652380Y-68826190D01*
%TO.C,R38*%
X153136256Y-70549153D02*
X152993399Y-70301717D01*
X153064827Y-70425435D02*
X153497840Y-70175435D01*
X153412171Y-70169910D01*
X153347122Y-70152480D01*
X153302693Y-70123145D01*
X153724030Y-70567208D02*
X153747840Y-70608447D01*
X153751030Y-70661591D01*
X153742315Y-70694116D01*
X153712980Y-70738545D01*
X153642406Y-70806784D01*
X153539308Y-70866308D01*
X153444925Y-70893307D01*
X153391781Y-70896497D01*
X153359256Y-70887782D01*
X153314827Y-70858447D01*
X153291018Y-70817208D01*
X153287828Y-70764064D01*
X153296543Y-70731540D01*
X153325877Y-70687110D01*
X153396451Y-70618872D01*
X153499549Y-70559348D01*
X153593933Y-70532348D01*
X153647077Y-70529159D01*
X153679601Y-70537873D01*
X153724030Y-70567208D01*
X153962126Y-70979601D02*
X153985935Y-71020840D01*
X153989125Y-71073984D01*
X153980410Y-71106509D01*
X153951075Y-71150938D01*
X153880502Y-71219177D01*
X153777403Y-71278701D01*
X153683020Y-71305700D01*
X153629876Y-71308890D01*
X153597352Y-71300175D01*
X153552922Y-71270840D01*
X153529113Y-71229601D01*
X153525923Y-71176457D01*
X153534638Y-71143933D01*
X153563972Y-71099503D01*
X153634546Y-71031265D01*
X153737644Y-70971741D01*
X153832028Y-70944742D01*
X153885172Y-70941552D01*
X153917696Y-70950267D01*
X153962126Y-70979601D01*
X153719589Y-71559516D02*
X154152602Y-71309516D01*
X153908356Y-71505517D02*
X153814827Y-71724473D01*
X154103502Y-71557806D02*
X153843307Y-71488087D01*
%TO.C,R13*%
X176766666Y-69226190D02*
X176480952Y-69226190D01*
X176623809Y-69226190D02*
X176623809Y-68726190D01*
X176576190Y-68797619D01*
X176528571Y-68845238D01*
X176480952Y-68869047D01*
X177076190Y-68726190D02*
X177123809Y-68726190D01*
X177171428Y-68750000D01*
X177195238Y-68773809D01*
X177219047Y-68821428D01*
X177242857Y-68916666D01*
X177242857Y-69035714D01*
X177219047Y-69130952D01*
X177195238Y-69178571D01*
X177171428Y-69202380D01*
X177123809Y-69226190D01*
X177076190Y-69226190D01*
X177028571Y-69202380D01*
X177004761Y-69178571D01*
X176980952Y-69130952D01*
X176957142Y-69035714D01*
X176957142Y-68916666D01*
X176980952Y-68821428D01*
X177004761Y-68773809D01*
X177028571Y-68750000D01*
X177076190Y-68726190D01*
X177552380Y-68726190D02*
X177600000Y-68726190D01*
X177647619Y-68750000D01*
X177671428Y-68773809D01*
X177695238Y-68821428D01*
X177719047Y-68916666D01*
X177719047Y-69035714D01*
X177695238Y-69130952D01*
X177671428Y-69178571D01*
X177647619Y-69202380D01*
X177600000Y-69226190D01*
X177552380Y-69226190D01*
X177504761Y-69202380D01*
X177480952Y-69178571D01*
X177457142Y-69130952D01*
X177433333Y-69035714D01*
X177433333Y-68916666D01*
X177457142Y-68821428D01*
X177480952Y-68773809D01*
X177504761Y-68750000D01*
X177552380Y-68726190D01*
%TO.C,R4*%
X99726190Y-122959523D02*
X99726190Y-123245238D01*
X99726190Y-123102380D02*
X99226190Y-123102380D01*
X99297619Y-123150000D01*
X99345238Y-123197619D01*
X99369047Y-123245238D01*
X99726190Y-122745238D02*
X99226190Y-122745238D01*
X99535714Y-122697619D02*
X99726190Y-122554761D01*
X99392857Y-122554761D02*
X99583333Y-122745238D01*
%TO.C,R7*%
X147340476Y-81326190D02*
X147054761Y-81326190D01*
X147197619Y-81326190D02*
X147197619Y-80826190D01*
X147150000Y-80897619D01*
X147102380Y-80945238D01*
X147054761Y-80969047D01*
X147554761Y-81326190D02*
X147554761Y-80826190D01*
X147602380Y-81135714D02*
X147745238Y-81326190D01*
X147745238Y-80992857D02*
X147554761Y-81183333D01*
%TO.C,R15*%
X79066124Y-71864644D02*
X78923267Y-72112080D01*
X78994696Y-71988362D02*
X78561683Y-71738362D01*
X78599732Y-71815315D01*
X78617162Y-71880364D01*
X78613972Y-71933508D01*
X79173267Y-71679067D02*
X78740254Y-71429067D01*
X79032119Y-71542590D02*
X79268505Y-71514110D01*
X78979830Y-71347443D02*
X79049549Y-71607638D01*
%TO.C,D3*%
X145257142Y-73873809D02*
X145280952Y-73850000D01*
X145328571Y-73826190D01*
X145447619Y-73826190D01*
X145495238Y-73850000D01*
X145519047Y-73873809D01*
X145542857Y-73921428D01*
X145542857Y-73969047D01*
X145519047Y-74040476D01*
X145233333Y-74326190D01*
X145542857Y-74326190D01*
%TO.C,C10*%
X111490476Y-80426190D02*
X111204761Y-80426190D01*
X111347619Y-80426190D02*
X111347619Y-79926190D01*
X111300000Y-79997619D01*
X111252380Y-80045238D01*
X111204761Y-80069047D01*
X111800000Y-79926190D02*
X111847619Y-79926190D01*
X111895238Y-79950000D01*
X111919047Y-79973809D01*
X111942857Y-80021428D01*
X111966666Y-80116666D01*
X111966666Y-80235714D01*
X111942857Y-80330952D01*
X111919047Y-80378571D01*
X111895238Y-80402380D01*
X111847619Y-80426190D01*
X111800000Y-80426190D01*
X111752380Y-80402380D01*
X111728571Y-80378571D01*
X111704761Y-80330952D01*
X111680952Y-80235714D01*
X111680952Y-80116666D01*
X111704761Y-80021428D01*
X111728571Y-79973809D01*
X111752380Y-79950000D01*
X111800000Y-79926190D01*
X112276190Y-79926190D02*
X112323809Y-79926190D01*
X112371428Y-79950000D01*
X112395238Y-79973809D01*
X112419047Y-80021428D01*
X112442857Y-80116666D01*
X112442857Y-80235714D01*
X112419047Y-80330952D01*
X112395238Y-80378571D01*
X112371428Y-80402380D01*
X112323809Y-80426190D01*
X112276190Y-80426190D01*
X112228571Y-80402380D01*
X112204761Y-80378571D01*
X112180952Y-80330952D01*
X112157142Y-80235714D01*
X112157142Y-80116666D01*
X112180952Y-80021428D01*
X112204761Y-79973809D01*
X112228571Y-79950000D01*
X112276190Y-79926190D01*
X112657142Y-80092857D02*
X112657142Y-80592857D01*
X112895238Y-80354761D02*
X112919047Y-80402380D01*
X112966666Y-80426190D01*
X112657142Y-80354761D02*
X112680952Y-80402380D01*
X112728571Y-80426190D01*
X112823809Y-80426190D01*
X112871428Y-80402380D01*
X112895238Y-80354761D01*
X112895238Y-80092857D01*
X113347619Y-80164285D02*
X113180952Y-80164285D01*
X113180952Y-80426190D02*
X113180952Y-79926190D01*
X113419047Y-79926190D01*
%TO.C,D2*%
X147542857Y-74326190D02*
X147257142Y-74326190D01*
X147400000Y-74326190D02*
X147400000Y-73826190D01*
X147352380Y-73897619D01*
X147304761Y-73945238D01*
X147257142Y-73969047D01*
%TO.C,D4*%
X143233333Y-73826190D02*
X143542857Y-73826190D01*
X143376190Y-74016666D01*
X143447619Y-74016666D01*
X143495238Y-74040476D01*
X143519047Y-74064285D01*
X143542857Y-74111904D01*
X143542857Y-74230952D01*
X143519047Y-74278571D01*
X143495238Y-74302380D01*
X143447619Y-74326190D01*
X143304761Y-74326190D01*
X143257142Y-74302380D01*
X143233333Y-74278571D01*
%TO.C,D5*%
X141495238Y-73992857D02*
X141495238Y-74326190D01*
X141376190Y-73802380D02*
X141257142Y-74159523D01*
X141566666Y-74159523D01*
%TO.C,C8*%
X100690476Y-80026190D02*
X100404761Y-80026190D01*
X100547619Y-80026190D02*
X100547619Y-79526190D01*
X100500000Y-79597619D01*
X100452380Y-79645238D01*
X100404761Y-79669047D01*
X101000000Y-79526190D02*
X101047619Y-79526190D01*
X101095238Y-79550000D01*
X101119047Y-79573809D01*
X101142857Y-79621428D01*
X101166666Y-79716666D01*
X101166666Y-79835714D01*
X101142857Y-79930952D01*
X101119047Y-79978571D01*
X101095238Y-80002380D01*
X101047619Y-80026190D01*
X101000000Y-80026190D01*
X100952380Y-80002380D01*
X100928571Y-79978571D01*
X100904761Y-79930952D01*
X100880952Y-79835714D01*
X100880952Y-79716666D01*
X100904761Y-79621428D01*
X100928571Y-79573809D01*
X100952380Y-79550000D01*
X101000000Y-79526190D01*
X101476190Y-79526190D02*
X101523809Y-79526190D01*
X101571428Y-79550000D01*
X101595238Y-79573809D01*
X101619047Y-79621428D01*
X101642857Y-79716666D01*
X101642857Y-79835714D01*
X101619047Y-79930952D01*
X101595238Y-79978571D01*
X101571428Y-80002380D01*
X101523809Y-80026190D01*
X101476190Y-80026190D01*
X101428571Y-80002380D01*
X101404761Y-79978571D01*
X101380952Y-79930952D01*
X101357142Y-79835714D01*
X101357142Y-79716666D01*
X101380952Y-79621428D01*
X101404761Y-79573809D01*
X101428571Y-79550000D01*
X101476190Y-79526190D01*
X101857142Y-79692857D02*
X101857142Y-80192857D01*
X102095238Y-79954761D02*
X102119047Y-80002380D01*
X102166666Y-80026190D01*
X101857142Y-79954761D02*
X101880952Y-80002380D01*
X101928571Y-80026190D01*
X102023809Y-80026190D01*
X102071428Y-80002380D01*
X102095238Y-79954761D01*
X102095238Y-79692857D01*
X102547619Y-79764285D02*
X102380952Y-79764285D01*
X102380952Y-80026190D02*
X102380952Y-79526190D01*
X102619047Y-79526190D01*
%TO.C,LS1*%
D17*
X135171428Y-82080952D02*
X135171428Y-81319047D01*
X135552380Y-81700000D02*
X134790476Y-81700000D01*
%TO.C,R3*%
D16*
X96102380Y-92226190D02*
X95816666Y-92226190D01*
X95959523Y-92226190D02*
X95959523Y-91726190D01*
X95911904Y-91797619D01*
X95864285Y-91845238D01*
X95816666Y-91869047D01*
X96411904Y-91726190D02*
X96459523Y-91726190D01*
X96507142Y-91750000D01*
X96530952Y-91773809D01*
X96554761Y-91821428D01*
X96578571Y-91916666D01*
X96578571Y-92035714D01*
X96554761Y-92130952D01*
X96530952Y-92178571D01*
X96507142Y-92202380D01*
X96459523Y-92226190D01*
X96411904Y-92226190D01*
X96364285Y-92202380D01*
X96340476Y-92178571D01*
X96316666Y-92130952D01*
X96292857Y-92035714D01*
X96292857Y-91916666D01*
X96316666Y-91821428D01*
X96340476Y-91773809D01*
X96364285Y-91750000D01*
X96411904Y-91726190D01*
X96792857Y-92226190D02*
X96792857Y-91726190D01*
X96840476Y-92035714D02*
X96983333Y-92226190D01*
X96983333Y-91892857D02*
X96792857Y-92083333D01*
%TO.C,R5*%
X141712380Y-111006190D02*
X141426666Y-111006190D01*
X141569523Y-111006190D02*
X141569523Y-110506190D01*
X141521904Y-110577619D01*
X141474285Y-110625238D01*
X141426666Y-110649047D01*
X142021904Y-110506190D02*
X142069523Y-110506190D01*
X142117142Y-110530000D01*
X142140952Y-110553809D01*
X142164761Y-110601428D01*
X142188571Y-110696666D01*
X142188571Y-110815714D01*
X142164761Y-110910952D01*
X142140952Y-110958571D01*
X142117142Y-110982380D01*
X142069523Y-111006190D01*
X142021904Y-111006190D01*
X141974285Y-110982380D01*
X141950476Y-110958571D01*
X141926666Y-110910952D01*
X141902857Y-110815714D01*
X141902857Y-110696666D01*
X141926666Y-110601428D01*
X141950476Y-110553809D01*
X141974285Y-110530000D01*
X142021904Y-110506190D01*
X142402857Y-111006190D02*
X142402857Y-110506190D01*
X142450476Y-110815714D02*
X142593333Y-111006190D01*
X142593333Y-110672857D02*
X142402857Y-110863333D01*
%TO.C,R1*%
X96402380Y-118226190D02*
X96116666Y-118226190D01*
X96259523Y-118226190D02*
X96259523Y-117726190D01*
X96211904Y-117797619D01*
X96164285Y-117845238D01*
X96116666Y-117869047D01*
X96711904Y-117726190D02*
X96759523Y-117726190D01*
X96807142Y-117750000D01*
X96830952Y-117773809D01*
X96854761Y-117821428D01*
X96878571Y-117916666D01*
X96878571Y-118035714D01*
X96854761Y-118130952D01*
X96830952Y-118178571D01*
X96807142Y-118202380D01*
X96759523Y-118226190D01*
X96711904Y-118226190D01*
X96664285Y-118202380D01*
X96640476Y-118178571D01*
X96616666Y-118130952D01*
X96592857Y-118035714D01*
X96592857Y-117916666D01*
X96616666Y-117821428D01*
X96640476Y-117773809D01*
X96664285Y-117750000D01*
X96711904Y-117726190D01*
X97092857Y-118226190D02*
X97092857Y-117726190D01*
X97140476Y-118035714D02*
X97283333Y-118226190D01*
X97283333Y-117892857D02*
X97092857Y-118083333D01*
%TO.C,R43*%
X103349492Y-90870389D02*
X103147461Y-91072419D01*
X103248477Y-90971404D02*
X102894923Y-90617851D01*
X102911759Y-90702030D01*
X102911759Y-90769374D01*
X102894923Y-90819881D01*
X103214805Y-90297969D02*
X103248477Y-90264297D01*
X103298984Y-90247461D01*
X103332656Y-90247461D01*
X103383164Y-90264297D01*
X103467343Y-90314805D01*
X103551522Y-90398984D01*
X103602030Y-90483164D01*
X103618866Y-90533671D01*
X103618866Y-90567343D01*
X103602030Y-90617851D01*
X103568358Y-90651522D01*
X103517851Y-90668358D01*
X103484179Y-90668358D01*
X103433671Y-90651522D01*
X103349492Y-90601015D01*
X103265312Y-90516835D01*
X103214805Y-90432656D01*
X103197969Y-90382148D01*
X103197969Y-90348477D01*
X103214805Y-90297969D01*
X103837732Y-90382148D02*
X103484179Y-90028595D01*
X103736717Y-90213790D02*
X103972419Y-90247461D01*
X103736717Y-90011759D02*
X103736717Y-90281133D01*
%TO.C,R40*%
X127619047Y-72192857D02*
X127619047Y-72526190D01*
X127500000Y-72002380D02*
X127380952Y-72359523D01*
X127690476Y-72359523D01*
X127833333Y-72026190D02*
X128166666Y-72026190D01*
X127952380Y-72526190D01*
X128452380Y-72026190D02*
X128500000Y-72026190D01*
X128547619Y-72050000D01*
X128571428Y-72073809D01*
X128595238Y-72121428D01*
X128619047Y-72216666D01*
X128619047Y-72335714D01*
X128595238Y-72430952D01*
X128571428Y-72478571D01*
X128547619Y-72502380D01*
X128500000Y-72526190D01*
X128452380Y-72526190D01*
X128404761Y-72502380D01*
X128380952Y-72478571D01*
X128357142Y-72430952D01*
X128333333Y-72335714D01*
X128333333Y-72216666D01*
X128357142Y-72121428D01*
X128380952Y-72073809D01*
X128404761Y-72050000D01*
X128452380Y-72026190D01*
%TO.C,R9*%
X123619047Y-79792857D02*
X123619047Y-80126190D01*
X123500000Y-79602380D02*
X123380952Y-79959523D01*
X123690476Y-79959523D01*
X123833333Y-79626190D02*
X124166666Y-79626190D01*
X123952380Y-80126190D01*
X124452380Y-79626190D02*
X124500000Y-79626190D01*
X124547619Y-79650000D01*
X124571428Y-79673809D01*
X124595238Y-79721428D01*
X124619047Y-79816666D01*
X124619047Y-79935714D01*
X124595238Y-80030952D01*
X124571428Y-80078571D01*
X124547619Y-80102380D01*
X124500000Y-80126190D01*
X124452380Y-80126190D01*
X124404761Y-80102380D01*
X124380952Y-80078571D01*
X124357142Y-80030952D01*
X124333333Y-79935714D01*
X124333333Y-79816666D01*
X124357142Y-79721428D01*
X124380952Y-79673809D01*
X124404761Y-79650000D01*
X124452380Y-79626190D01*
%TO.C,R39*%
X77716735Y-73676343D02*
X78005410Y-73843009D01*
X77492254Y-73684203D02*
X77742025Y-73965872D01*
X77896787Y-73697817D01*
X77679540Y-73407432D02*
X77846207Y-73118757D01*
X78172077Y-73554334D01*
X77989064Y-72871321D02*
X78012873Y-72830082D01*
X78057303Y-72800747D01*
X78089827Y-72792033D01*
X78142971Y-72795222D01*
X78237355Y-72822222D01*
X78340453Y-72881746D01*
X78411027Y-72949984D01*
X78440361Y-72994414D01*
X78449076Y-73026938D01*
X78445886Y-73080082D01*
X78422077Y-73121321D01*
X78377647Y-73150656D01*
X78345123Y-73159371D01*
X78291979Y-73156181D01*
X78197596Y-73129182D01*
X78094497Y-73069658D01*
X78023924Y-73001419D01*
X77994589Y-72956990D01*
X77985874Y-72924465D01*
X77989064Y-72871321D01*
%TO.C,R36*%
X141340476Y-81326190D02*
X141054761Y-81326190D01*
X141197619Y-81326190D02*
X141197619Y-80826190D01*
X141150000Y-80897619D01*
X141102380Y-80945238D01*
X141054761Y-80969047D01*
X141554761Y-81326190D02*
X141554761Y-80826190D01*
X141602380Y-81135714D02*
X141745238Y-81326190D01*
X141745238Y-80992857D02*
X141554761Y-81183333D01*
%TO.C,R35*%
X143340476Y-81326190D02*
X143054761Y-81326190D01*
X143197619Y-81326190D02*
X143197619Y-80826190D01*
X143150000Y-80897619D01*
X143102380Y-80945238D01*
X143054761Y-80969047D01*
X143554761Y-81326190D02*
X143554761Y-80826190D01*
X143602380Y-81135714D02*
X143745238Y-81326190D01*
X143745238Y-80992857D02*
X143554761Y-81183333D01*
%TO.C,R34*%
X145340476Y-81326190D02*
X145054761Y-81326190D01*
X145197619Y-81326190D02*
X145197619Y-80826190D01*
X145150000Y-80897619D01*
X145102380Y-80945238D01*
X145054761Y-80969047D01*
X145554761Y-81326190D02*
X145554761Y-80826190D01*
X145602380Y-81135714D02*
X145745238Y-81326190D01*
X145745238Y-80992857D02*
X145554761Y-81183333D01*
%TO.C,R12*%
X155374352Y-74561546D02*
X155231495Y-74314110D01*
X155302923Y-74437828D02*
X155735936Y-74187828D01*
X155650268Y-74182303D01*
X155585219Y-74164873D01*
X155540790Y-74135538D01*
X155481495Y-74747122D02*
X155914507Y-74497122D01*
X155670261Y-74693124D02*
X155576733Y-74912080D01*
X155865408Y-74745413D02*
X155605213Y-74675694D01*
%TO.C,R37*%
X154402312Y-72216514D02*
X154113637Y-72383180D01*
X154507745Y-72018177D02*
X154138927Y-72093650D01*
X154293688Y-72361706D01*
X154653792Y-72318757D02*
X154820459Y-72607432D01*
X154280303Y-72671855D01*
X154963316Y-72854868D02*
X154987126Y-72896107D01*
X154990315Y-72949252D01*
X154981600Y-72981776D01*
X154952266Y-73026205D01*
X154881692Y-73094444D01*
X154778594Y-73153968D01*
X154684210Y-73180967D01*
X154631066Y-73184157D01*
X154598542Y-73175442D01*
X154554113Y-73146107D01*
X154530303Y-73104868D01*
X154527113Y-73051724D01*
X154535828Y-73019200D01*
X154565163Y-72974770D01*
X154635737Y-72906532D01*
X154738835Y-72847008D01*
X154833218Y-72820009D01*
X154886362Y-72816819D01*
X154918887Y-72825534D01*
X154963316Y-72854868D01*
%TO.C,R11*%
X54466666Y-69226190D02*
X54180952Y-69226190D01*
X54323809Y-69226190D02*
X54323809Y-68726190D01*
X54276190Y-68797619D01*
X54228571Y-68845238D01*
X54180952Y-68869047D01*
X54776190Y-68726190D02*
X54823809Y-68726190D01*
X54871428Y-68750000D01*
X54895238Y-68773809D01*
X54919047Y-68821428D01*
X54942857Y-68916666D01*
X54942857Y-69035714D01*
X54919047Y-69130952D01*
X54895238Y-69178571D01*
X54871428Y-69202380D01*
X54823809Y-69226190D01*
X54776190Y-69226190D01*
X54728571Y-69202380D01*
X54704761Y-69178571D01*
X54680952Y-69130952D01*
X54657142Y-69035714D01*
X54657142Y-68916666D01*
X54680952Y-68821428D01*
X54704761Y-68773809D01*
X54728571Y-68750000D01*
X54776190Y-68726190D01*
X55252380Y-68726190D02*
X55300000Y-68726190D01*
X55347619Y-68750000D01*
X55371428Y-68773809D01*
X55395238Y-68821428D01*
X55419047Y-68916666D01*
X55419047Y-69035714D01*
X55395238Y-69130952D01*
X55371428Y-69178571D01*
X55347619Y-69202380D01*
X55300000Y-69226190D01*
X55252380Y-69226190D01*
X55204761Y-69202380D01*
X55180952Y-69178571D01*
X55157142Y-69130952D01*
X55133333Y-69035714D01*
X55133333Y-68916666D01*
X55157142Y-68821428D01*
X55180952Y-68773809D01*
X55204761Y-68750000D01*
X55252380Y-68726190D01*
%TO.C,R2*%
X93716666Y-91773809D02*
X93740476Y-91750000D01*
X93788095Y-91726190D01*
X93907142Y-91726190D01*
X93954761Y-91750000D01*
X93978571Y-91773809D01*
X94002380Y-91821428D01*
X94002380Y-91869047D01*
X93978571Y-91940476D01*
X93692857Y-92226190D01*
X94002380Y-92226190D01*
X94311904Y-91726190D02*
X94359523Y-91726190D01*
X94407142Y-91750000D01*
X94430952Y-91773809D01*
X94454761Y-91821428D01*
X94478571Y-91916666D01*
X94478571Y-92035714D01*
X94454761Y-92130952D01*
X94430952Y-92178571D01*
X94407142Y-92202380D01*
X94359523Y-92226190D01*
X94311904Y-92226190D01*
X94264285Y-92202380D01*
X94240476Y-92178571D01*
X94216666Y-92130952D01*
X94192857Y-92035714D01*
X94192857Y-91916666D01*
X94216666Y-91821428D01*
X94240476Y-91773809D01*
X94264285Y-91750000D01*
X94311904Y-91726190D01*
X94692857Y-92226190D02*
X94692857Y-91726190D01*
X94740476Y-92035714D02*
X94883333Y-92226190D01*
X94883333Y-91892857D02*
X94692857Y-92083333D01*
%TO.C,R41*%
X76828029Y-75577037D02*
X76685172Y-75824473D01*
X76756600Y-75700755D02*
X76323588Y-75450755D01*
X76361637Y-75527708D01*
X76379067Y-75592757D01*
X76375877Y-75645901D01*
X76549778Y-75058981D02*
X76573588Y-75017742D01*
X76618017Y-74988408D01*
X76650541Y-74979693D01*
X76703685Y-74982883D01*
X76798069Y-75009882D01*
X76901167Y-75069406D01*
X76971741Y-75137644D01*
X77001075Y-75182074D01*
X77009790Y-75214598D01*
X77006600Y-75267742D01*
X76982791Y-75308981D01*
X76938362Y-75338316D01*
X76905837Y-75347031D01*
X76852693Y-75343841D01*
X76758310Y-75316842D01*
X76655212Y-75257318D01*
X76584638Y-75189079D01*
X76555303Y-75144650D01*
X76546588Y-75112126D01*
X76549778Y-75058981D01*
X76787873Y-74646588D02*
X76811683Y-74605349D01*
X76856112Y-74576015D01*
X76888637Y-74567300D01*
X76941781Y-74570490D01*
X77036164Y-74597489D01*
X77139262Y-74657013D01*
X77209836Y-74725251D01*
X77239171Y-74769681D01*
X77247886Y-74802205D01*
X77244696Y-74855349D01*
X77220886Y-74896588D01*
X77176457Y-74925923D01*
X77143933Y-74934638D01*
X77090789Y-74931448D01*
X76996405Y-74904449D01*
X76893307Y-74844925D01*
X76822733Y-74776686D01*
X76793399Y-74732257D01*
X76784684Y-74699732D01*
X76787873Y-74646588D01*
X77411362Y-74566674D02*
X76978350Y-74316674D01*
X77270215Y-74430197D02*
X77506600Y-74401717D01*
X77217925Y-74235050D02*
X77287644Y-74495245D01*
%TO.C,R10*%
X125364285Y-85126190D02*
X125078571Y-85126190D01*
X125221428Y-85126190D02*
X125221428Y-84626190D01*
X125173809Y-84697619D01*
X125126190Y-84745238D01*
X125078571Y-84769047D01*
X125673809Y-84626190D02*
X125721428Y-84626190D01*
X125769047Y-84650000D01*
X125792857Y-84673809D01*
X125816666Y-84721428D01*
X125840476Y-84816666D01*
X125840476Y-84935714D01*
X125816666Y-85030952D01*
X125792857Y-85078571D01*
X125769047Y-85102380D01*
X125721428Y-85126190D01*
X125673809Y-85126190D01*
X125626190Y-85102380D01*
X125602380Y-85078571D01*
X125578571Y-85030952D01*
X125554761Y-84935714D01*
X125554761Y-84816666D01*
X125578571Y-84721428D01*
X125602380Y-84673809D01*
X125626190Y-84650000D01*
X125673809Y-84626190D01*
X126150000Y-84626190D02*
X126197619Y-84626190D01*
X126245238Y-84650000D01*
X126269047Y-84673809D01*
X126292857Y-84721428D01*
X126316666Y-84816666D01*
X126316666Y-84935714D01*
X126292857Y-85030952D01*
X126269047Y-85078571D01*
X126245238Y-85102380D01*
X126197619Y-85126190D01*
X126150000Y-85126190D01*
X126102380Y-85102380D01*
X126078571Y-85078571D01*
X126054761Y-85030952D01*
X126030952Y-84935714D01*
X126030952Y-84816666D01*
X126054761Y-84721428D01*
X126078571Y-84673809D01*
X126102380Y-84650000D01*
X126150000Y-84626190D01*
X126530952Y-85126190D02*
X126530952Y-84626190D01*
X126578571Y-84935714D02*
X126721428Y-85126190D01*
X126721428Y-84792857D02*
X126530952Y-84983333D01*
%TO.C,C21*%
X103500295Y-92512478D02*
X103533967Y-92478807D01*
X103584475Y-92461971D01*
X103618147Y-92461971D01*
X103668654Y-92478807D01*
X103752834Y-92529314D01*
X103837013Y-92613494D01*
X103887521Y-92697673D01*
X103904356Y-92748181D01*
X103904356Y-92781852D01*
X103887521Y-92832360D01*
X103853849Y-92866032D01*
X103803341Y-92882868D01*
X103769669Y-92882868D01*
X103719162Y-92866032D01*
X103634982Y-92815524D01*
X103550803Y-92731345D01*
X103500295Y-92647165D01*
X103483460Y-92596658D01*
X103483460Y-92562986D01*
X103500295Y-92512478D01*
X104089551Y-92562986D02*
X104123223Y-92562986D01*
X104123223Y-92596658D01*
X104089551Y-92596658D01*
X104089551Y-92562986D01*
X104123223Y-92596658D01*
X104476776Y-92243104D02*
X104274746Y-92445135D01*
X104375761Y-92344120D02*
X104022208Y-91990566D01*
X104039043Y-92074746D01*
X104039043Y-92142089D01*
X104022208Y-92192597D01*
X104392597Y-91855879D02*
X104746150Y-92209433D01*
X104746150Y-91872715D02*
X104796658Y-91889551D01*
X104847165Y-91872715D01*
X104577791Y-92041074D02*
X104628299Y-92057910D01*
X104678807Y-92041074D01*
X104746150Y-91973730D01*
X104762986Y-91923223D01*
X104746150Y-91872715D01*
X104560956Y-91687521D01*
X104931345Y-91418147D02*
X104813494Y-91535998D01*
X104998688Y-91721192D02*
X104645135Y-91367639D01*
X104813494Y-91199280D01*
%TO.C,C20*%
X104649788Y-93630330D02*
X104649788Y-93596658D01*
X104666624Y-93546150D01*
X104750803Y-93461971D01*
X104801311Y-93445135D01*
X104834982Y-93445135D01*
X104885490Y-93461971D01*
X104919162Y-93495643D01*
X104952834Y-93562986D01*
X104952834Y-93967047D01*
X105171700Y-93748181D01*
X105289551Y-93562986D02*
X105323223Y-93562986D01*
X105323223Y-93596658D01*
X105289551Y-93596658D01*
X105289551Y-93562986D01*
X105323223Y-93596658D01*
X105154864Y-93125253D02*
X105154864Y-93091582D01*
X105171700Y-93041074D01*
X105255879Y-92956895D01*
X105306387Y-92940059D01*
X105340059Y-92940059D01*
X105390566Y-92956895D01*
X105424238Y-92990566D01*
X105457910Y-93057910D01*
X105457910Y-93461971D01*
X105676776Y-93243104D01*
X105592597Y-92855879D02*
X105946150Y-93209433D01*
X105946150Y-92872715D02*
X105996658Y-92889551D01*
X106047165Y-92872715D01*
X105777791Y-93041074D02*
X105828299Y-93057910D01*
X105878807Y-93041074D01*
X105946150Y-92973730D01*
X105962986Y-92923223D01*
X105946150Y-92872715D01*
X105760956Y-92687521D01*
X106131345Y-92418147D02*
X106013494Y-92535998D01*
X106198688Y-92721192D02*
X105845135Y-92367639D01*
X106013494Y-92199280D01*
%TO.C,C19*%
X110100295Y-86412478D02*
X110133967Y-86378807D01*
X110184475Y-86361971D01*
X110218147Y-86361971D01*
X110268654Y-86378807D01*
X110352834Y-86429314D01*
X110437013Y-86513494D01*
X110487521Y-86597673D01*
X110504356Y-86648181D01*
X110504356Y-86681852D01*
X110487521Y-86732360D01*
X110453849Y-86766032D01*
X110403341Y-86782868D01*
X110369669Y-86782868D01*
X110319162Y-86766032D01*
X110234982Y-86715524D01*
X110150803Y-86631345D01*
X110100295Y-86547165D01*
X110083460Y-86496658D01*
X110083460Y-86462986D01*
X110100295Y-86412478D01*
X110689551Y-86462986D02*
X110723223Y-86462986D01*
X110723223Y-86496658D01*
X110689551Y-86496658D01*
X110689551Y-86462986D01*
X110723223Y-86496658D01*
X111076776Y-86143104D02*
X110874746Y-86345135D01*
X110975761Y-86244120D02*
X110622208Y-85890566D01*
X110639043Y-85974746D01*
X110639043Y-86042089D01*
X110622208Y-86092597D01*
X110992597Y-85755879D02*
X111346150Y-86109433D01*
X111346150Y-85772715D02*
X111396658Y-85789551D01*
X111447165Y-85772715D01*
X111177791Y-85941074D02*
X111228299Y-85957910D01*
X111278807Y-85941074D01*
X111346150Y-85873730D01*
X111362986Y-85823223D01*
X111346150Y-85772715D01*
X111160956Y-85587521D01*
X111531345Y-85318147D02*
X111413494Y-85435998D01*
X111598688Y-85621192D02*
X111245135Y-85267639D01*
X111413494Y-85099280D01*
%TO.C,C18*%
X117087521Y-83600295D02*
X117121192Y-83633967D01*
X117138028Y-83684475D01*
X117138028Y-83718147D01*
X117121192Y-83768654D01*
X117070685Y-83852834D01*
X116986505Y-83937013D01*
X116902326Y-83987521D01*
X116851818Y-84004356D01*
X116818147Y-84004356D01*
X116767639Y-83987521D01*
X116733967Y-83953849D01*
X116717131Y-83903341D01*
X116717131Y-83869669D01*
X116733967Y-83819162D01*
X116784475Y-83734982D01*
X116868654Y-83650803D01*
X116952834Y-83600295D01*
X117003341Y-83583460D01*
X117037013Y-83583460D01*
X117087521Y-83600295D01*
X117037013Y-84189551D02*
X117037013Y-84223223D01*
X117003341Y-84223223D01*
X117003341Y-84189551D01*
X117037013Y-84189551D01*
X117003341Y-84223223D01*
X117356895Y-84576776D02*
X117154864Y-84374746D01*
X117255879Y-84475761D02*
X117609433Y-84122208D01*
X117525253Y-84139043D01*
X117457910Y-84139043D01*
X117407402Y-84122208D01*
X117744120Y-84492597D02*
X117390566Y-84846150D01*
X117727284Y-84846150D02*
X117710448Y-84896658D01*
X117727284Y-84947165D01*
X117558925Y-84677791D02*
X117542089Y-84728299D01*
X117558925Y-84778807D01*
X117626269Y-84846150D01*
X117676776Y-84862986D01*
X117727284Y-84846150D01*
X117912478Y-84660956D01*
X118181852Y-85031345D02*
X118064001Y-84913494D01*
X117878807Y-85098688D02*
X118232360Y-84745135D01*
X118400719Y-84913494D01*
%TO.C,C17*%
X118404356Y-83624238D02*
X118202326Y-83422208D01*
X118303341Y-83523223D02*
X118656895Y-83169669D01*
X118572715Y-83186505D01*
X118505372Y-83186505D01*
X118454864Y-83169669D01*
X118791582Y-83540059D02*
X118438028Y-83893612D01*
X118774746Y-83893612D02*
X118757910Y-83944120D01*
X118774746Y-83994627D01*
X118606387Y-83725253D02*
X118589551Y-83775761D01*
X118606387Y-83826269D01*
X118673730Y-83893612D01*
X118724238Y-83910448D01*
X118774746Y-83893612D01*
X118959940Y-83708417D01*
X119229314Y-84078807D02*
X119111463Y-83960956D01*
X118926269Y-84146150D02*
X119279822Y-83792597D01*
X119448181Y-83960956D01*
%TO.C,C26*%
X115042857Y-108326190D02*
X115090476Y-108326190D01*
X115138095Y-108350000D01*
X115161904Y-108373809D01*
X115185714Y-108421428D01*
X115209523Y-108516666D01*
X115209523Y-108635714D01*
X115185714Y-108730952D01*
X115161904Y-108778571D01*
X115138095Y-108802380D01*
X115090476Y-108826190D01*
X115042857Y-108826190D01*
X114995238Y-108802380D01*
X114971428Y-108778571D01*
X114947619Y-108730952D01*
X114923809Y-108635714D01*
X114923809Y-108516666D01*
X114947619Y-108421428D01*
X114971428Y-108373809D01*
X114995238Y-108350000D01*
X115042857Y-108326190D01*
X115423809Y-108778571D02*
X115447619Y-108802380D01*
X115423809Y-108826190D01*
X115400000Y-108802380D01*
X115423809Y-108778571D01*
X115423809Y-108826190D01*
X115923809Y-108826190D02*
X115638095Y-108826190D01*
X115780952Y-108826190D02*
X115780952Y-108326190D01*
X115733333Y-108397619D01*
X115685714Y-108445238D01*
X115638095Y-108469047D01*
X116138095Y-108492857D02*
X116138095Y-108992857D01*
X116376190Y-108754761D02*
X116400000Y-108802380D01*
X116447619Y-108826190D01*
X116138095Y-108754761D02*
X116161904Y-108802380D01*
X116209523Y-108826190D01*
X116304761Y-108826190D01*
X116352380Y-108802380D01*
X116376190Y-108754761D01*
X116376190Y-108492857D01*
X116828571Y-108564285D02*
X116661904Y-108564285D01*
X116661904Y-108826190D02*
X116661904Y-108326190D01*
X116900000Y-108326190D01*
%TO.C,C25*%
X114204761Y-101926190D02*
X114252380Y-101926190D01*
X114300000Y-101950000D01*
X114323809Y-101973809D01*
X114347619Y-102021428D01*
X114371428Y-102116666D01*
X114371428Y-102235714D01*
X114347619Y-102330952D01*
X114323809Y-102378571D01*
X114300000Y-102402380D01*
X114252380Y-102426190D01*
X114204761Y-102426190D01*
X114157142Y-102402380D01*
X114133333Y-102378571D01*
X114109523Y-102330952D01*
X114085714Y-102235714D01*
X114085714Y-102116666D01*
X114109523Y-102021428D01*
X114133333Y-101973809D01*
X114157142Y-101950000D01*
X114204761Y-101926190D01*
X114585714Y-102378571D02*
X114609523Y-102402380D01*
X114585714Y-102426190D01*
X114561904Y-102402380D01*
X114585714Y-102378571D01*
X114585714Y-102426190D01*
X114919047Y-101926190D02*
X114966666Y-101926190D01*
X115014285Y-101950000D01*
X115038095Y-101973809D01*
X115061904Y-102021428D01*
X115085714Y-102116666D01*
X115085714Y-102235714D01*
X115061904Y-102330952D01*
X115038095Y-102378571D01*
X115014285Y-102402380D01*
X114966666Y-102426190D01*
X114919047Y-102426190D01*
X114871428Y-102402380D01*
X114847619Y-102378571D01*
X114823809Y-102330952D01*
X114800000Y-102235714D01*
X114800000Y-102116666D01*
X114823809Y-102021428D01*
X114847619Y-101973809D01*
X114871428Y-101950000D01*
X114919047Y-101926190D01*
X115561904Y-102426190D02*
X115276190Y-102426190D01*
X115419047Y-102426190D02*
X115419047Y-101926190D01*
X115371428Y-101997619D01*
X115323809Y-102045238D01*
X115276190Y-102069047D01*
X115776190Y-102092857D02*
X115776190Y-102592857D01*
X116014285Y-102354761D02*
X116038095Y-102402380D01*
X116085714Y-102426190D01*
X115776190Y-102354761D02*
X115800000Y-102402380D01*
X115847619Y-102426190D01*
X115942857Y-102426190D01*
X115990476Y-102402380D01*
X116014285Y-102354761D01*
X116014285Y-102092857D01*
X116466666Y-102164285D02*
X116300000Y-102164285D01*
X116300000Y-102426190D02*
X116300000Y-101926190D01*
X116538095Y-101926190D01*
%TO.C,C3*%
X121242857Y-119526190D02*
X121290476Y-119526190D01*
X121338095Y-119550000D01*
X121361904Y-119573809D01*
X121385714Y-119621428D01*
X121409523Y-119716666D01*
X121409523Y-119835714D01*
X121385714Y-119930952D01*
X121361904Y-119978571D01*
X121338095Y-120002380D01*
X121290476Y-120026190D01*
X121242857Y-120026190D01*
X121195238Y-120002380D01*
X121171428Y-119978571D01*
X121147619Y-119930952D01*
X121123809Y-119835714D01*
X121123809Y-119716666D01*
X121147619Y-119621428D01*
X121171428Y-119573809D01*
X121195238Y-119550000D01*
X121242857Y-119526190D01*
X121623809Y-119978571D02*
X121647619Y-120002380D01*
X121623809Y-120026190D01*
X121600000Y-120002380D01*
X121623809Y-119978571D01*
X121623809Y-120026190D01*
X122123809Y-120026190D02*
X121838095Y-120026190D01*
X121980952Y-120026190D02*
X121980952Y-119526190D01*
X121933333Y-119597619D01*
X121885714Y-119645238D01*
X121838095Y-119669047D01*
X122338095Y-119692857D02*
X122338095Y-120192857D01*
X122576190Y-119954761D02*
X122600000Y-120002380D01*
X122647619Y-120026190D01*
X122338095Y-119954761D02*
X122361904Y-120002380D01*
X122409523Y-120026190D01*
X122504761Y-120026190D01*
X122552380Y-120002380D01*
X122576190Y-119954761D01*
X122576190Y-119692857D01*
X123028571Y-119764285D02*
X122861904Y-119764285D01*
X122861904Y-120026190D02*
X122861904Y-119526190D01*
X123100000Y-119526190D01*
%TO.C,C15*%
X107742857Y-112926190D02*
X107790476Y-112926190D01*
X107838095Y-112950000D01*
X107861904Y-112973809D01*
X107885714Y-113021428D01*
X107909523Y-113116666D01*
X107909523Y-113235714D01*
X107885714Y-113330952D01*
X107861904Y-113378571D01*
X107838095Y-113402380D01*
X107790476Y-113426190D01*
X107742857Y-113426190D01*
X107695238Y-113402380D01*
X107671428Y-113378571D01*
X107647619Y-113330952D01*
X107623809Y-113235714D01*
X107623809Y-113116666D01*
X107647619Y-113021428D01*
X107671428Y-112973809D01*
X107695238Y-112950000D01*
X107742857Y-112926190D01*
X108123809Y-113378571D02*
X108147619Y-113402380D01*
X108123809Y-113426190D01*
X108100000Y-113402380D01*
X108123809Y-113378571D01*
X108123809Y-113426190D01*
X108623809Y-113426190D02*
X108338095Y-113426190D01*
X108480952Y-113426190D02*
X108480952Y-112926190D01*
X108433333Y-112997619D01*
X108385714Y-113045238D01*
X108338095Y-113069047D01*
X108838095Y-113092857D02*
X108838095Y-113592857D01*
X109076190Y-113354761D02*
X109100000Y-113402380D01*
X109147619Y-113426190D01*
X108838095Y-113354761D02*
X108861904Y-113402380D01*
X108909523Y-113426190D01*
X109004761Y-113426190D01*
X109052380Y-113402380D01*
X109076190Y-113354761D01*
X109076190Y-113092857D01*
X109528571Y-113164285D02*
X109361904Y-113164285D01*
X109361904Y-113426190D02*
X109361904Y-112926190D01*
X109600000Y-112926190D01*
%TO.C,C6*%
X110228571Y-113426190D02*
X109942857Y-113426190D01*
X110085714Y-113426190D02*
X110085714Y-112926190D01*
X110038095Y-112997619D01*
X109990476Y-113045238D01*
X109942857Y-113069047D01*
X110538095Y-112926190D02*
X110585714Y-112926190D01*
X110633333Y-112950000D01*
X110657142Y-112973809D01*
X110680952Y-113021428D01*
X110704761Y-113116666D01*
X110704761Y-113235714D01*
X110680952Y-113330952D01*
X110657142Y-113378571D01*
X110633333Y-113402380D01*
X110585714Y-113426190D01*
X110538095Y-113426190D01*
X110490476Y-113402380D01*
X110466666Y-113378571D01*
X110442857Y-113330952D01*
X110419047Y-113235714D01*
X110419047Y-113116666D01*
X110442857Y-113021428D01*
X110466666Y-112973809D01*
X110490476Y-112950000D01*
X110538095Y-112926190D01*
X110919047Y-113092857D02*
X110919047Y-113592857D01*
X111157142Y-113354761D02*
X111180952Y-113402380D01*
X111228571Y-113426190D01*
X110919047Y-113354761D02*
X110942857Y-113402380D01*
X110990476Y-113426190D01*
X111085714Y-113426190D01*
X111133333Y-113402380D01*
X111157142Y-113354761D01*
X111157142Y-113092857D01*
X111609523Y-113164285D02*
X111442857Y-113164285D01*
X111442857Y-113426190D02*
X111442857Y-112926190D01*
X111680952Y-112926190D01*
%TO.C,C12*%
X121700295Y-97812478D02*
X121733967Y-97778807D01*
X121784475Y-97761971D01*
X121818147Y-97761971D01*
X121868654Y-97778807D01*
X121952834Y-97829314D01*
X122037013Y-97913494D01*
X122087521Y-97997673D01*
X122104356Y-98048181D01*
X122104356Y-98081852D01*
X122087521Y-98132360D01*
X122053849Y-98166032D01*
X122003341Y-98182868D01*
X121969669Y-98182868D01*
X121919162Y-98166032D01*
X121834982Y-98115524D01*
X121750803Y-98031345D01*
X121700295Y-97947165D01*
X121683460Y-97896658D01*
X121683460Y-97862986D01*
X121700295Y-97812478D01*
X122289551Y-97862986D02*
X122323223Y-97862986D01*
X122323223Y-97896658D01*
X122289551Y-97896658D01*
X122289551Y-97862986D01*
X122323223Y-97896658D01*
X122676776Y-97543104D02*
X122474746Y-97745135D01*
X122575761Y-97644120D02*
X122222208Y-97290566D01*
X122239043Y-97374746D01*
X122239043Y-97442089D01*
X122222208Y-97492597D01*
X122592597Y-97155879D02*
X122946150Y-97509433D01*
X122946150Y-97172715D02*
X122996658Y-97189551D01*
X123047165Y-97172715D01*
X122777791Y-97341074D02*
X122828299Y-97357910D01*
X122878807Y-97341074D01*
X122946150Y-97273730D01*
X122962986Y-97223223D01*
X122946150Y-97172715D01*
X122760956Y-96987521D01*
X123131345Y-96718147D02*
X123013494Y-96835998D01*
X123198688Y-97021192D02*
X122845135Y-96667639D01*
X123013494Y-96499280D01*
%TO.C,C11*%
X123355879Y-98964000D02*
X123153849Y-99166031D01*
X123254864Y-99065016D02*
X122901311Y-98711462D01*
X122918147Y-98795642D01*
X122918147Y-98862985D01*
X122901311Y-98913493D01*
X123221192Y-98391581D02*
X123254864Y-98357909D01*
X123305372Y-98341073D01*
X123339043Y-98341073D01*
X123389551Y-98357909D01*
X123473730Y-98408416D01*
X123557910Y-98492596D01*
X123608417Y-98576775D01*
X123625253Y-98627283D01*
X123625253Y-98660955D01*
X123608417Y-98711462D01*
X123574746Y-98745134D01*
X123524238Y-98761970D01*
X123490566Y-98761970D01*
X123440059Y-98745134D01*
X123355879Y-98694626D01*
X123271700Y-98610447D01*
X123221192Y-98526268D01*
X123204356Y-98475760D01*
X123204356Y-98442088D01*
X123221192Y-98391581D01*
X123608417Y-98240058D02*
X123961971Y-98593611D01*
X123961971Y-98256894D02*
X124012478Y-98273729D01*
X124062986Y-98256894D01*
X123793612Y-98425252D02*
X123844120Y-98442088D01*
X123894627Y-98425252D01*
X123961971Y-98357909D01*
X123978807Y-98307401D01*
X123961971Y-98256894D01*
X123776776Y-98071699D01*
X124147165Y-97802325D02*
X124029314Y-97920176D01*
X124214509Y-98105371D02*
X123860956Y-97751817D01*
X124029314Y-97583459D01*
%TO.C,C4*%
X123728571Y-120026190D02*
X123442857Y-120026190D01*
X123585714Y-120026190D02*
X123585714Y-119526190D01*
X123538095Y-119597619D01*
X123490476Y-119645238D01*
X123442857Y-119669047D01*
X124038095Y-119526190D02*
X124085714Y-119526190D01*
X124133333Y-119550000D01*
X124157142Y-119573809D01*
X124180952Y-119621428D01*
X124204761Y-119716666D01*
X124204761Y-119835714D01*
X124180952Y-119930952D01*
X124157142Y-119978571D01*
X124133333Y-120002380D01*
X124085714Y-120026190D01*
X124038095Y-120026190D01*
X123990476Y-120002380D01*
X123966666Y-119978571D01*
X123942857Y-119930952D01*
X123919047Y-119835714D01*
X123919047Y-119716666D01*
X123942857Y-119621428D01*
X123966666Y-119573809D01*
X123990476Y-119550000D01*
X124038095Y-119526190D01*
X124419047Y-119692857D02*
X124419047Y-120192857D01*
X124657142Y-119954761D02*
X124680952Y-120002380D01*
X124728571Y-120026190D01*
X124419047Y-119954761D02*
X124442857Y-120002380D01*
X124490476Y-120026190D01*
X124585714Y-120026190D01*
X124633333Y-120002380D01*
X124657142Y-119954761D01*
X124657142Y-119692857D01*
X125109523Y-119764285D02*
X124942857Y-119764285D01*
X124942857Y-120026190D02*
X124942857Y-119526190D01*
X125180952Y-119526190D01*
%TO.C,C5*%
X111642857Y-105426190D02*
X111690476Y-105426190D01*
X111738095Y-105450000D01*
X111761904Y-105473809D01*
X111785714Y-105521428D01*
X111809523Y-105616666D01*
X111809523Y-105735714D01*
X111785714Y-105830952D01*
X111761904Y-105878571D01*
X111738095Y-105902380D01*
X111690476Y-105926190D01*
X111642857Y-105926190D01*
X111595238Y-105902380D01*
X111571428Y-105878571D01*
X111547619Y-105830952D01*
X111523809Y-105735714D01*
X111523809Y-105616666D01*
X111547619Y-105521428D01*
X111571428Y-105473809D01*
X111595238Y-105450000D01*
X111642857Y-105426190D01*
X112023809Y-105878571D02*
X112047619Y-105902380D01*
X112023809Y-105926190D01*
X112000000Y-105902380D01*
X112023809Y-105878571D01*
X112023809Y-105926190D01*
X112523809Y-105926190D02*
X112238095Y-105926190D01*
X112380952Y-105926190D02*
X112380952Y-105426190D01*
X112333333Y-105497619D01*
X112285714Y-105545238D01*
X112238095Y-105569047D01*
X112738095Y-105592857D02*
X112738095Y-106092857D01*
X112976190Y-105854761D02*
X113000000Y-105902380D01*
X113047619Y-105926190D01*
X112738095Y-105854761D02*
X112761904Y-105902380D01*
X112809523Y-105926190D01*
X112904761Y-105926190D01*
X112952380Y-105902380D01*
X112976190Y-105854761D01*
X112976190Y-105592857D01*
X113428571Y-105664285D02*
X113261904Y-105664285D01*
X113261904Y-105926190D02*
X113261904Y-105426190D01*
X113500000Y-105426190D01*
%TO.C,C14*%
X108969669Y-99849788D02*
X109003341Y-99849788D01*
X109053849Y-99866624D01*
X109138028Y-99950803D01*
X109154864Y-100001311D01*
X109154864Y-100034982D01*
X109138028Y-100085490D01*
X109104356Y-100119162D01*
X109037013Y-100152834D01*
X108632952Y-100152834D01*
X108851818Y-100371700D01*
X109037013Y-100489551D02*
X109037013Y-100523223D01*
X109003341Y-100523223D01*
X109003341Y-100489551D01*
X109037013Y-100489551D01*
X109003341Y-100523223D01*
X109474746Y-100354864D02*
X109508417Y-100354864D01*
X109558925Y-100371700D01*
X109643104Y-100455879D01*
X109659940Y-100506387D01*
X109659940Y-100540059D01*
X109643104Y-100590566D01*
X109609433Y-100624238D01*
X109542089Y-100657910D01*
X109138028Y-100657910D01*
X109356895Y-100876776D01*
X109744120Y-100792597D02*
X109390566Y-101146150D01*
X109727284Y-101146150D02*
X109710448Y-101196658D01*
X109727284Y-101247165D01*
X109558925Y-100977791D02*
X109542089Y-101028299D01*
X109558925Y-101078807D01*
X109626269Y-101146150D01*
X109676776Y-101162986D01*
X109727284Y-101146150D01*
X109912478Y-100960956D01*
X110181852Y-101331345D02*
X110064001Y-101213494D01*
X109878807Y-101398688D02*
X110232360Y-101045135D01*
X110400719Y-101213494D01*
%TO.C,C7*%
X98542857Y-80826190D02*
X98590476Y-80826190D01*
X98638095Y-80850000D01*
X98661904Y-80873809D01*
X98685714Y-80921428D01*
X98709523Y-81016666D01*
X98709523Y-81135714D01*
X98685714Y-81230952D01*
X98661904Y-81278571D01*
X98638095Y-81302380D01*
X98590476Y-81326190D01*
X98542857Y-81326190D01*
X98495238Y-81302380D01*
X98471428Y-81278571D01*
X98447619Y-81230952D01*
X98423809Y-81135714D01*
X98423809Y-81016666D01*
X98447619Y-80921428D01*
X98471428Y-80873809D01*
X98495238Y-80850000D01*
X98542857Y-80826190D01*
X98923809Y-81278571D02*
X98947619Y-81302380D01*
X98923809Y-81326190D01*
X98900000Y-81302380D01*
X98923809Y-81278571D01*
X98923809Y-81326190D01*
X99423809Y-81326190D02*
X99138095Y-81326190D01*
X99280952Y-81326190D02*
X99280952Y-80826190D01*
X99233333Y-80897619D01*
X99185714Y-80945238D01*
X99138095Y-80969047D01*
X99638095Y-80992857D02*
X99638095Y-81492857D01*
X99876190Y-81254761D02*
X99900000Y-81302380D01*
X99947619Y-81326190D01*
X99638095Y-81254761D02*
X99661904Y-81302380D01*
X99709523Y-81326190D01*
X99804761Y-81326190D01*
X99852380Y-81302380D01*
X99876190Y-81254761D01*
X99876190Y-80992857D01*
X100328571Y-81064285D02*
X100161904Y-81064285D01*
X100161904Y-81326190D02*
X100161904Y-80826190D01*
X100400000Y-80826190D01*
%TO.C,C16*%
X134442857Y-87126190D02*
X134490476Y-87126190D01*
X134538095Y-87150000D01*
X134561904Y-87173809D01*
X134585714Y-87221428D01*
X134609523Y-87316666D01*
X134609523Y-87435714D01*
X134585714Y-87530952D01*
X134561904Y-87578571D01*
X134538095Y-87602380D01*
X134490476Y-87626190D01*
X134442857Y-87626190D01*
X134395238Y-87602380D01*
X134371428Y-87578571D01*
X134347619Y-87530952D01*
X134323809Y-87435714D01*
X134323809Y-87316666D01*
X134347619Y-87221428D01*
X134371428Y-87173809D01*
X134395238Y-87150000D01*
X134442857Y-87126190D01*
X134823809Y-87578571D02*
X134847619Y-87602380D01*
X134823809Y-87626190D01*
X134800000Y-87602380D01*
X134823809Y-87578571D01*
X134823809Y-87626190D01*
X135323809Y-87626190D02*
X135038095Y-87626190D01*
X135180952Y-87626190D02*
X135180952Y-87126190D01*
X135133333Y-87197619D01*
X135085714Y-87245238D01*
X135038095Y-87269047D01*
X135538095Y-87292857D02*
X135538095Y-87792857D01*
X135776190Y-87554761D02*
X135800000Y-87602380D01*
X135847619Y-87626190D01*
X135538095Y-87554761D02*
X135561904Y-87602380D01*
X135609523Y-87626190D01*
X135704761Y-87626190D01*
X135752380Y-87602380D01*
X135776190Y-87554761D01*
X135776190Y-87292857D01*
X136228571Y-87364285D02*
X136061904Y-87364285D01*
X136061904Y-87626190D02*
X136061904Y-87126190D01*
X136300000Y-87126190D01*
%TO.C,C2*%
X89342857Y-84626190D02*
X89390476Y-84626190D01*
X89438095Y-84650000D01*
X89461904Y-84673809D01*
X89485714Y-84721428D01*
X89509523Y-84816666D01*
X89509523Y-84935714D01*
X89485714Y-85030952D01*
X89461904Y-85078571D01*
X89438095Y-85102380D01*
X89390476Y-85126190D01*
X89342857Y-85126190D01*
X89295238Y-85102380D01*
X89271428Y-85078571D01*
X89247619Y-85030952D01*
X89223809Y-84935714D01*
X89223809Y-84816666D01*
X89247619Y-84721428D01*
X89271428Y-84673809D01*
X89295238Y-84650000D01*
X89342857Y-84626190D01*
X89723809Y-85078571D02*
X89747619Y-85102380D01*
X89723809Y-85126190D01*
X89700000Y-85102380D01*
X89723809Y-85078571D01*
X89723809Y-85126190D01*
X90223809Y-85126190D02*
X89938095Y-85126190D01*
X90080952Y-85126190D02*
X90080952Y-84626190D01*
X90033333Y-84697619D01*
X89985714Y-84745238D01*
X89938095Y-84769047D01*
X90438095Y-84792857D02*
X90438095Y-85292857D01*
X90676190Y-85054761D02*
X90700000Y-85102380D01*
X90747619Y-85126190D01*
X90438095Y-85054761D02*
X90461904Y-85102380D01*
X90509523Y-85126190D01*
X90604761Y-85126190D01*
X90652380Y-85102380D01*
X90676190Y-85054761D01*
X90676190Y-84792857D01*
X91128571Y-84864285D02*
X90961904Y-84864285D01*
X90961904Y-85126190D02*
X90961904Y-84626190D01*
X91200000Y-84626190D01*
%TO.C,C9*%
X109442857Y-80726190D02*
X109490476Y-80726190D01*
X109538095Y-80750000D01*
X109561904Y-80773809D01*
X109585714Y-80821428D01*
X109609523Y-80916666D01*
X109609523Y-81035714D01*
X109585714Y-81130952D01*
X109561904Y-81178571D01*
X109538095Y-81202380D01*
X109490476Y-81226190D01*
X109442857Y-81226190D01*
X109395238Y-81202380D01*
X109371428Y-81178571D01*
X109347619Y-81130952D01*
X109323809Y-81035714D01*
X109323809Y-80916666D01*
X109347619Y-80821428D01*
X109371428Y-80773809D01*
X109395238Y-80750000D01*
X109442857Y-80726190D01*
X109823809Y-81178571D02*
X109847619Y-81202380D01*
X109823809Y-81226190D01*
X109800000Y-81202380D01*
X109823809Y-81178571D01*
X109823809Y-81226190D01*
X110323809Y-81226190D02*
X110038095Y-81226190D01*
X110180952Y-81226190D02*
X110180952Y-80726190D01*
X110133333Y-80797619D01*
X110085714Y-80845238D01*
X110038095Y-80869047D01*
X110538095Y-80892857D02*
X110538095Y-81392857D01*
X110776190Y-81154761D02*
X110800000Y-81202380D01*
X110847619Y-81226190D01*
X110538095Y-81154761D02*
X110561904Y-81202380D01*
X110609523Y-81226190D01*
X110704761Y-81226190D01*
X110752380Y-81202380D01*
X110776190Y-81154761D01*
X110776190Y-80892857D01*
X111228571Y-80964285D02*
X111061904Y-80964285D01*
X111061904Y-81226190D02*
X111061904Y-80726190D01*
X111300000Y-80726190D01*
%TO.C,S1*%
X86226190Y-121509523D02*
X86226190Y-121414285D01*
X86250000Y-121366666D01*
X86297619Y-121319047D01*
X86392857Y-121295238D01*
X86559523Y-121295238D01*
X86654761Y-121319047D01*
X86702380Y-121366666D01*
X86726190Y-121414285D01*
X86726190Y-121509523D01*
X86702380Y-121557142D01*
X86654761Y-121604761D01*
X86559523Y-121628571D01*
X86392857Y-121628571D01*
X86297619Y-121604761D01*
X86250000Y-121557142D01*
X86226190Y-121509523D01*
X86726190Y-121080952D02*
X86226190Y-121080952D01*
X86726190Y-120795238D01*
X86226190Y-120795238D01*
%TO.C,C13*%
X112687521Y-100200295D02*
X112721192Y-100233967D01*
X112738028Y-100284475D01*
X112738028Y-100318147D01*
X112721192Y-100368654D01*
X112670685Y-100452834D01*
X112586505Y-100537013D01*
X112502326Y-100587521D01*
X112451818Y-100604356D01*
X112418147Y-100604356D01*
X112367639Y-100587521D01*
X112333967Y-100553849D01*
X112317131Y-100503341D01*
X112317131Y-100469669D01*
X112333967Y-100419162D01*
X112384475Y-100334982D01*
X112468654Y-100250803D01*
X112552834Y-100200295D01*
X112603341Y-100183460D01*
X112637013Y-100183460D01*
X112687521Y-100200295D01*
X112637013Y-100789551D02*
X112637013Y-100823223D01*
X112603341Y-100823223D01*
X112603341Y-100789551D01*
X112637013Y-100789551D01*
X112603341Y-100823223D01*
X112956895Y-101176776D02*
X112754864Y-100974746D01*
X112855879Y-101075761D02*
X113209433Y-100722208D01*
X113125253Y-100739043D01*
X113057910Y-100739043D01*
X113007402Y-100722208D01*
X113344120Y-101092597D02*
X112990566Y-101446150D01*
X113327284Y-101446150D02*
X113310448Y-101496658D01*
X113327284Y-101547165D01*
X113158925Y-101277791D02*
X113142089Y-101328299D01*
X113158925Y-101378807D01*
X113226269Y-101446150D01*
X113276776Y-101462986D01*
X113327284Y-101446150D01*
X113512478Y-101260956D01*
X113781852Y-101631345D02*
X113664001Y-101513494D01*
X113478807Y-101698688D02*
X113832360Y-101345135D01*
X114000719Y-101513494D01*
%TO.C,C1*%
X83935714Y-85990476D02*
X83935714Y-85609523D01*
X84126190Y-85800000D02*
X83745238Y-85800000D01*
%TD*%
M02*
