M48
; DRILL file {KiCad (5.1.8)-1} date 07/29/23 11:15:11
; FORMAT={-:-/ absolute / metric / decimal}
; #@! TF.CreationDate,2023-07-29T11:15:11+09:00
; #@! TF.GenerationSoftware,Kicad,Pcbnew,(5.1.8)-1
; #@! TF.FileFunction,Plated,1,2,PTH
FMAT,2
METRIC
T1C0.300
T2C0.400
T3C0.500
T4C0.800
T5C0.850
T6C1.000
T7C1.500
%
G90
G05
T1
X50.1Y-70.2
X54.8Y-73.5
X64.4Y-71.3
X65.0Y-70.3
X69.8Y-73.5
X73.4Y-70.5
X78.071Y-72.367
X80.671Y-77.367
X82.771Y-73.967
X82.79Y-38.92
X83.8Y-73.5
X84.2Y-75.1
X85.49Y-36.12
X85.79Y-40.02
X88.357Y-37.087
X93.95Y-35.56
X96.89Y-37.12
X97.09Y-33.02
X99.6Y-81.9
X99.885Y-34.315
X101.5Y-80.6
X102.89Y-32.02
X104.05Y-105.1
X104.3Y-89.7
X104.675Y-106.2
X105.3Y-107.3
X105.487Y-33.517
X105.5Y-91.0
X105.6Y-85.8
X106.0Y-108.4
X106.6Y-92.0
X106.6Y-94.491
X106.7Y-109.2
X107.4Y-109.876
X107.747Y-88.753
X107.99Y-35.52
X108.79Y-31.32
X109.9Y-102.7
X110.4Y-81.8
X110.7Y-87.7
X110.9Y-100.3
X111.107Y-99.307
X111.19Y-33.12
X111.3Y-91.9
X112.162Y-100.062
X113.3Y-85.785
X113.6Y-119.9
X113.9Y-81.5
X114.1Y-84.3
X114.3Y-119.0
X114.9Y-119.9
X115.0Y-88.0
X116.8Y-89.4
X116.8Y-90.2
X116.8Y-91.0
X116.8Y-91.8
X116.8Y-92.6
X116.8Y-93.4
X116.8Y-94.2
X117.163Y-96.048
X117.5Y-119.9
X117.8Y-75.0
X117.8Y-76.0
X117.8Y-77.0
X117.8Y-78.0
X117.8Y-79.0
X117.8Y-80.0
X117.8Y-81.0
X117.8Y-82.0
X118.2Y-119.0
X118.75Y-119.917
X119.6Y-99.7
X119.624Y-104.3
X119.8Y-105.2
X120.224Y-101.576
X120.69Y-31.22
X120.8Y-68.7
X122.0Y-89.4
X122.5Y-74.2
X122.7Y-85.8
X122.998Y-33.212
X124.0Y-85.8
X124.3Y-110.5
X124.425Y-92.321
X124.7Y-94.491
X125.088Y-36.134
X125.7Y-98.4
X125.8Y-114.1
X125.9Y-79.8
X126.0Y-84.2
X126.4Y-68.9
X126.79Y-31.72
X128.912Y-33.842
X130.191Y-37.01
X132.69Y-32.62
X134.704Y-34.806
X135.3Y-90.9
X135.4Y-93.1
X137.6Y-113.6
X138.2Y-85.9
X138.59Y-33.72
X139.5Y-93.58
X139.6Y-88.6
X140.416Y-36.146
X141.209Y-39.956
X142.4Y-113.6
X144.19Y-35.32
X144.5Y-97.7
X145.969Y-37.841
X148.7Y-97.7
X149.89Y-37.32
X150.042Y-73.056
X151.49Y-39.92
X151.735Y-78.765
X151.9Y-76.6
X152.824Y-79.789
X155.6Y-73.3
X157.1Y-74.6
X163.3Y-70.2
X178.3Y-70.2
X182.0Y-72.0
T2
X79.89Y-38.12
X91.19Y-34.32
X91.7Y-87.4
X95.1Y-122.9
X96.4Y-92.9
X107.0Y-58.6
X107.3Y-49.6
X107.3Y-54.3
X108.6Y-58.6
X108.9Y-114.1
X110.5Y-114.1
X112.19Y-34.62
X112.9Y-74.7
X112.9Y-104.4
X113.8Y-108.1
X114.0Y-115.6
X114.4Y-123.3
X115.4Y-54.1
X115.6Y-47.9
X115.9Y-106.3
X116.519Y-88.545
X116.594Y-98.824
X116.6Y-58.5
X116.8Y-103.2
X117.1Y-55.7
X117.2Y-57.1
X117.3Y-47.3
X117.7Y-109.6
X117.9Y-115.6
X118.1Y-58.5
X118.9Y-47.3
X119.5Y-51.1
X119.6Y-54.1
X121.1Y-53.0
X122.3Y-120.7
X123.8Y-120.7
X126.575Y-49.3
X127.3Y-54.7
X127.725Y-59.175
X128.025Y-48.6
X128.488Y-57.937
X132.0Y-51.4
X133.3Y-54.3
X133.8Y-48.53
X134.301Y-55.301
X162.1Y-73.875
X167.0Y-70.4
X167.0Y-72.1
T3
X95.3Y-77.6
X106.1Y-77.6
T4
X130.0Y-80.3
X135.0Y-80.3
T5
X83.9Y-79.5
X83.9Y-84.5
X88.5Y-119.6
X88.5Y-122.8
X91.0Y-119.6
X91.0Y-122.8
X93.5Y-119.6
X93.5Y-122.8
T6
X88.9Y-90.1
X88.9Y-92.64
X88.9Y-95.18
X91.44Y-90.1
X91.44Y-92.64
X91.44Y-95.18
X88.6Y-116.9
X90.6Y-116.9
X92.6Y-116.9
X90.6Y-75.52
X90.6Y-78.06
X90.6Y-80.6
X90.6Y-83.14
X102.6Y-49.87
X102.6Y-52.41
X102.6Y-54.95
X102.6Y-57.49
X99.7Y-49.88
X99.7Y-52.42
X99.7Y-54.96
X99.7Y-57.5
X140.9Y-90.3
X140.9Y-92.84
X140.9Y-95.38
X143.44Y-90.3
X143.44Y-92.84
X143.44Y-95.38
T7
X138.5Y-115.5
X138.5Y-122.0
X143.3Y-115.5
X143.3Y-122.0
T0
M30
