%TF.GenerationSoftware,KiCad,Pcbnew,(5.1.8)-1*%
%TF.CreationDate,2023-07-29T11:14:22+09:00*%
%TF.ProjectId,Tracer,54726163-6572-42e6-9b69-6361645f7063,rev?*%
%TF.SameCoordinates,Original*%
%TF.FileFunction,Paste,Top*%
%TF.FilePolarity,Positive*%
%FSLAX46Y46*%
G04 Gerber Fmt 4.6, Leading zero omitted, Abs format (unit mm)*
G04 Created by KiCad (PCBNEW (5.1.8)-1) date 2023-07-29 11:14:22*
%MOMM*%
%LPD*%
G01*
G04 APERTURE LIST*
%ADD10R,1.470000X1.040000*%
%ADD11R,0.300000X1.000000*%
%ADD12R,0.300000X0.700000*%
%ADD13C,0.100000*%
%ADD14R,1.050000X0.650000*%
%ADD15R,6.000000X6.000000*%
%ADD16R,2.500000X2.000000*%
%ADD17R,1.820000X1.070000*%
%ADD18R,0.940000X0.750000*%
%ADD19O,0.900000X1.200000*%
%ADD20O,0.900000X1.400000*%
%ADD21O,1.400000X0.900000*%
%ADD22R,1.040000X1.470000*%
%ADD23R,1.750000X1.590000*%
%ADD24R,0.750000X0.200000*%
%ADD25R,0.200000X0.750000*%
%ADD26R,0.650000X1.050000*%
%ADD27R,2.000000X2.500000*%
%ADD28R,0.450000X1.525000*%
%ADD29R,0.750000X0.940000*%
%ADD30R,0.700000X1.525000*%
%ADD31R,0.600000X1.300000*%
G04 APERTURE END LIST*
D10*
%TO.C,R45*%
X111600000Y-58720000D03*
X111600000Y-60600000D03*
%TD*%
%TO.C,R44*%
X113500000Y-58720000D03*
X113500000Y-60600000D03*
%TD*%
D11*
%TO.C,J5*%
X119530000Y-37270000D03*
X112450000Y-37270000D03*
D12*
X118740000Y-34620000D03*
X118240000Y-34620000D03*
X117740000Y-34620000D03*
X117240000Y-34620000D03*
X116740000Y-34620000D03*
X116240000Y-34620000D03*
X115740000Y-34620000D03*
X115240000Y-34620000D03*
X114740000Y-34620000D03*
X114240000Y-34620000D03*
X113740000Y-34620000D03*
X113240000Y-34620000D03*
%TD*%
%TO.C,D6*%
G36*
G01*
X114656250Y-47250000D02*
X113743750Y-47250000D01*
G75*
G02*
X113500000Y-47006250I0J243750D01*
G01*
X113500000Y-46518750D01*
G75*
G02*
X113743750Y-46275000I243750J0D01*
G01*
X114656250Y-46275000D01*
G75*
G02*
X114900000Y-46518750I0J-243750D01*
G01*
X114900000Y-47006250D01*
G75*
G02*
X114656250Y-47250000I-243750J0D01*
G01*
G37*
G36*
G01*
X114656250Y-49125000D02*
X113743750Y-49125000D01*
G75*
G02*
X113500000Y-48881250I0J243750D01*
G01*
X113500000Y-48393750D01*
G75*
G02*
X113743750Y-48150000I243750J0D01*
G01*
X114656250Y-48150000D01*
G75*
G02*
X114900000Y-48393750I0J-243750D01*
G01*
X114900000Y-48881250D01*
G75*
G02*
X114656250Y-49125000I-243750J0D01*
G01*
G37*
%TD*%
D13*
%TO.C,R26*%
G36*
X104851267Y-32179582D02*
G01*
X103392539Y-32361276D01*
X103263993Y-31329250D01*
X104722721Y-31147556D01*
X104851267Y-32179582D01*
G37*
G36*
X105083637Y-34045166D02*
G01*
X103624909Y-34226860D01*
X103496363Y-33194834D01*
X104955091Y-33013140D01*
X105083637Y-34045166D01*
G37*
%TD*%
%TO.C,R27*%
G36*
X99059713Y-33047182D02*
G01*
X97615272Y-33320112D01*
X97422179Y-32298194D01*
X98866620Y-32025264D01*
X99059713Y-33047182D01*
G37*
G36*
X99408767Y-34894494D02*
G01*
X97964326Y-35167424D01*
X97771233Y-34145506D01*
X99215674Y-33872576D01*
X99408767Y-34894494D01*
G37*
%TD*%
%TO.C,R29*%
G36*
X87471417Y-35899924D02*
G01*
X86072574Y-36351738D01*
X85752923Y-35362080D01*
X87151766Y-34910266D01*
X87471417Y-35899924D01*
G37*
G36*
X88049247Y-37688922D02*
G01*
X86650404Y-38140736D01*
X86330753Y-37151078D01*
X87729596Y-36699264D01*
X88049247Y-37688922D01*
G37*
%TD*%
%TO.C,R28*%
G36*
X93166308Y-34320594D02*
G01*
X91741855Y-34683682D01*
X91484976Y-33675906D01*
X92909429Y-33312818D01*
X93166308Y-34320594D01*
G37*
G36*
X93630666Y-36142344D02*
G01*
X92206213Y-36505432D01*
X91949334Y-35497656D01*
X93373787Y-35134568D01*
X93630666Y-36142344D01*
G37*
%TD*%
%TO.C,R19*%
G36*
X140338145Y-34683682D02*
G01*
X138913692Y-34320594D01*
X139170571Y-33312818D01*
X140595024Y-33675906D01*
X140338145Y-34683682D01*
G37*
G36*
X139873787Y-36505432D02*
G01*
X138449334Y-36142344D01*
X138706213Y-35134568D01*
X140130666Y-35497656D01*
X139873787Y-36505432D01*
G37*
%TD*%
%TO.C,R17*%
G36*
X128571276Y-32394068D02*
G01*
X127112548Y-32212374D01*
X127241094Y-31180348D01*
X128699822Y-31362042D01*
X128571276Y-32394068D01*
G37*
G36*
X128338906Y-34259652D02*
G01*
X126880178Y-34077958D01*
X127008724Y-33045932D01*
X128467452Y-33227626D01*
X128338906Y-34259652D01*
G37*
%TD*%
%TO.C,R20*%
G36*
X145918511Y-36346237D02*
G01*
X144519668Y-35894423D01*
X144839319Y-34904765D01*
X146238162Y-35356579D01*
X145918511Y-36346237D01*
G37*
G36*
X145340681Y-38135235D02*
G01*
X143941838Y-37683421D01*
X144261489Y-36693763D01*
X145660332Y-37145577D01*
X145340681Y-38135235D01*
G37*
%TD*%
%TO.C,R18*%
G36*
X134490201Y-33343768D02*
G01*
X133045760Y-33070838D01*
X133238853Y-32048920D01*
X134683294Y-32321850D01*
X134490201Y-33343768D01*
G37*
G36*
X134141147Y-35191080D02*
G01*
X132696706Y-34918150D01*
X132889799Y-33896232D01*
X134334240Y-34169162D01*
X134141147Y-35191080D01*
G37*
%TD*%
%TO.C,R30*%
G36*
X81878094Y-37785581D02*
G01*
X80509442Y-38321949D01*
X80129970Y-37353651D01*
X81498622Y-36817283D01*
X81878094Y-37785581D01*
G37*
G36*
X82564062Y-39535965D02*
G01*
X81195410Y-40072333D01*
X80815938Y-39104035D01*
X82184590Y-38567667D01*
X82564062Y-39535965D01*
G37*
%TD*%
%TO.C,R21*%
G36*
X151470558Y-38421949D02*
G01*
X150101906Y-37885581D01*
X150481378Y-36917283D01*
X151850030Y-37453651D01*
X151470558Y-38421949D01*
G37*
G36*
X150784590Y-40172333D02*
G01*
X149415938Y-39635965D01*
X149795410Y-38667667D01*
X151164062Y-39204035D01*
X150784590Y-40172333D01*
G37*
%TD*%
%TO.C,R25*%
G36*
X110738155Y-31716533D02*
G01*
X109271055Y-31808835D01*
X109205753Y-30770887D01*
X110672853Y-30678585D01*
X110738155Y-31716533D01*
G37*
G36*
X110856201Y-33592823D02*
G01*
X109389101Y-33685125D01*
X109323799Y-32647177D01*
X110790899Y-32554875D01*
X110856201Y-33592823D01*
G37*
%TD*%
%TO.C,R16*%
G36*
X122590899Y-31785125D02*
G01*
X121123799Y-31692823D01*
X121189101Y-30654875D01*
X122656201Y-30747177D01*
X122590899Y-31785125D01*
G37*
G36*
X122472853Y-33661415D02*
G01*
X121005753Y-33569113D01*
X121071055Y-32531165D01*
X122538155Y-32623467D01*
X122472853Y-33661415D01*
G37*
%TD*%
D10*
%TO.C,R46*%
X112100000Y-46800000D03*
X112100000Y-48680000D03*
%TD*%
D14*
%TO.C,S2*%
X109900000Y-60700000D03*
X105750000Y-60700000D03*
X109900000Y-58550000D03*
X105750000Y-58550000D03*
%TD*%
%TO.C,S4*%
X120275000Y-48875000D03*
X116125000Y-48875000D03*
X120275000Y-46725000D03*
X116125000Y-46725000D03*
%TD*%
D15*
%TO.C,IC23*%
X107400000Y-54100000D03*
D16*
X113650000Y-51800000D03*
X113650000Y-56400000D03*
%TD*%
D17*
%TO.C,C24*%
X117900000Y-54100000D03*
X117900000Y-51340000D03*
%TD*%
D14*
%TO.C,S3*%
X119400000Y-60650000D03*
X115250000Y-60650000D03*
X119400000Y-58500000D03*
X115250000Y-58500000D03*
%TD*%
D18*
%TO.C,C22*%
X115900000Y-57100000D03*
X115900000Y-55700000D03*
%TD*%
D19*
%TO.C,U1*%
X133745000Y-60535000D03*
X132475000Y-60535000D03*
D20*
X131205000Y-60435000D03*
X129935000Y-60435000D03*
X128665000Y-60435000D03*
X127395000Y-60435000D03*
X126125000Y-60435000D03*
X124855000Y-60435000D03*
D21*
X122565000Y-58145000D03*
X122565000Y-56875000D03*
X122565000Y-55605000D03*
X122565000Y-54335000D03*
X122565000Y-53065000D03*
X122565000Y-51795000D03*
X122565000Y-50525000D03*
X122565000Y-49255000D03*
D20*
X124855000Y-46965000D03*
X126125000Y-46965000D03*
X127395000Y-46965000D03*
X128665000Y-46965000D03*
X129935000Y-46965000D03*
X131205000Y-46965000D03*
X132475000Y-46965000D03*
X133745000Y-46965000D03*
D21*
X136035000Y-49255000D03*
X136035000Y-50525000D03*
X136035000Y-51795000D03*
X136035000Y-53065000D03*
X136035000Y-54335000D03*
X136035000Y-55605000D03*
X136035000Y-56875000D03*
X136035000Y-58145000D03*
%TD*%
D18*
%TO.C,C23*%
X116000000Y-52600000D03*
X116000000Y-51200000D03*
%TD*%
%TO.C,D1*%
G36*
G01*
X97850000Y-123356250D02*
X97850000Y-122443750D01*
G75*
G02*
X98093750Y-122200000I243750J0D01*
G01*
X98581250Y-122200000D01*
G75*
G02*
X98825000Y-122443750I0J-243750D01*
G01*
X98825000Y-123356250D01*
G75*
G02*
X98581250Y-123600000I-243750J0D01*
G01*
X98093750Y-123600000D01*
G75*
G02*
X97850000Y-123356250I0J243750D01*
G01*
G37*
G36*
G01*
X95975000Y-123356250D02*
X95975000Y-122443750D01*
G75*
G02*
X96218750Y-122200000I243750J0D01*
G01*
X96706250Y-122200000D01*
G75*
G02*
X96950000Y-122443750I0J-243750D01*
G01*
X96950000Y-123356250D01*
G75*
G02*
X96706250Y-123600000I-243750J0D01*
G01*
X96218750Y-123600000D01*
G75*
G02*
X95975000Y-123356250I0J243750D01*
G01*
G37*
%TD*%
D22*
%TO.C,R6*%
X137560000Y-112100000D03*
X139440000Y-112100000D03*
%TD*%
D10*
%TO.C,R8*%
X69800000Y-70260000D03*
X69800000Y-72140000D03*
%TD*%
D22*
%TO.C,R42*%
X124520000Y-70300000D03*
X126400000Y-70300000D03*
%TD*%
D10*
%TO.C,R14*%
X162100000Y-70260000D03*
X162100000Y-72140000D03*
%TD*%
D13*
%TO.C,R38*%
G36*
X152517167Y-72496529D02*
G01*
X151782167Y-71223471D01*
X152682833Y-70703471D01*
X153417833Y-71976529D01*
X152517167Y-72496529D01*
G37*
G36*
X150889039Y-73436529D02*
G01*
X150154039Y-72163471D01*
X151054705Y-71643471D01*
X151789705Y-72916529D01*
X150889039Y-73436529D01*
G37*
%TD*%
D10*
%TO.C,R13*%
X177100000Y-70160000D03*
X177100000Y-72040000D03*
%TD*%
D22*
%TO.C,R4*%
X102580000Y-122900000D03*
X100700000Y-122900000D03*
%TD*%
D10*
%TO.C,R7*%
X147400000Y-84080000D03*
X147400000Y-82200000D03*
%TD*%
D13*
%TO.C,R15*%
G36*
X80882167Y-73676529D02*
G01*
X81617167Y-72403471D01*
X82517833Y-72923471D01*
X81782833Y-74196529D01*
X80882167Y-73676529D01*
G37*
G36*
X79254039Y-72736529D02*
G01*
X79989039Y-71463471D01*
X80889705Y-71983471D01*
X80154705Y-73256529D01*
X79254039Y-72736529D01*
G37*
%TD*%
D23*
%TO.C,IC5*%
X115900000Y-106300000D03*
D24*
X117400000Y-105300000D03*
X117400000Y-105700000D03*
X117400000Y-106100000D03*
X117400000Y-106500000D03*
X117400000Y-106900000D03*
X117400000Y-107300000D03*
D25*
X116900000Y-107800000D03*
X116500000Y-107800000D03*
X116100000Y-107800000D03*
X115700000Y-107800000D03*
X115300000Y-107800000D03*
X114900000Y-107800000D03*
D24*
X114400000Y-107300000D03*
X114400000Y-106900000D03*
X114400000Y-106500000D03*
X114400000Y-106100000D03*
X114400000Y-105700000D03*
X114400000Y-105300000D03*
D25*
X114900000Y-104800000D03*
X115300000Y-104800000D03*
X115700000Y-104800000D03*
X116100000Y-104800000D03*
X116500000Y-104800000D03*
X116900000Y-104800000D03*
%TD*%
D13*
%TO.C,IC6*%
G36*
X122093604Y-94191006D02*
G01*
X123136586Y-95233988D01*
X122924454Y-95446120D01*
X121881472Y-94403138D01*
X122093604Y-94191006D01*
G37*
G36*
X121740051Y-94544560D02*
G01*
X122783033Y-95587542D01*
X122570901Y-95799674D01*
X121527919Y-94756692D01*
X121740051Y-94544560D01*
G37*
G36*
X121386497Y-94898113D02*
G01*
X122429479Y-95941095D01*
X122217347Y-96153227D01*
X121174365Y-95110245D01*
X121386497Y-94898113D01*
G37*
G36*
X121032944Y-95251666D02*
G01*
X122075926Y-96294648D01*
X121863794Y-96506780D01*
X120820812Y-95463798D01*
X121032944Y-95251666D01*
G37*
G36*
X120679391Y-95605220D02*
G01*
X121722373Y-96648202D01*
X121510241Y-96860334D01*
X120467259Y-95817352D01*
X120679391Y-95605220D01*
G37*
G36*
X120325837Y-95958773D02*
G01*
X121368819Y-97001755D01*
X121156687Y-97213887D01*
X120113705Y-96170905D01*
X120325837Y-95958773D01*
G37*
G36*
X119972284Y-96312327D02*
G01*
X121015266Y-97355309D01*
X120803134Y-97567441D01*
X119760152Y-96524459D01*
X119972284Y-96312327D01*
G37*
G36*
X119618730Y-96665880D02*
G01*
X120661712Y-97708862D01*
X120449580Y-97920994D01*
X119406598Y-96878012D01*
X119618730Y-96665880D01*
G37*
G36*
X119265177Y-97019433D02*
G01*
X120308159Y-98062415D01*
X120096027Y-98274547D01*
X119053045Y-97231565D01*
X119265177Y-97019433D01*
G37*
G36*
X118911624Y-97372987D02*
G01*
X119954606Y-98415969D01*
X119742474Y-98628101D01*
X118699492Y-97585119D01*
X118911624Y-97372987D01*
G37*
G36*
X118558070Y-97726540D02*
G01*
X119601052Y-98769522D01*
X119388920Y-98981654D01*
X118345938Y-97938672D01*
X118558070Y-97726540D01*
G37*
G36*
X118204517Y-98080094D02*
G01*
X119247499Y-99123076D01*
X119035367Y-99335208D01*
X117992385Y-98292226D01*
X118204517Y-98080094D01*
G37*
G36*
X117850963Y-98433647D02*
G01*
X118893945Y-99476629D01*
X118681813Y-99688761D01*
X117638831Y-98645779D01*
X117850963Y-98433647D01*
G37*
G36*
X117497410Y-98787200D02*
G01*
X118540392Y-99830182D01*
X118328260Y-100042314D01*
X117285278Y-98999332D01*
X117497410Y-98787200D01*
G37*
G36*
X117143857Y-99140754D02*
G01*
X118186839Y-100183736D01*
X117974707Y-100395868D01*
X116931725Y-99352886D01*
X117143857Y-99140754D01*
G37*
G36*
X116790303Y-99494307D02*
G01*
X117833285Y-100537289D01*
X117621153Y-100749421D01*
X116578171Y-99706439D01*
X116790303Y-99494307D01*
G37*
G36*
X113766715Y-100537289D02*
G01*
X114809697Y-99494307D01*
X115021829Y-99706439D01*
X113978847Y-100749421D01*
X113766715Y-100537289D01*
G37*
G36*
X113413161Y-100183736D02*
G01*
X114456143Y-99140754D01*
X114668275Y-99352886D01*
X113625293Y-100395868D01*
X113413161Y-100183736D01*
G37*
G36*
X113059608Y-99830182D02*
G01*
X114102590Y-98787200D01*
X114314722Y-98999332D01*
X113271740Y-100042314D01*
X113059608Y-99830182D01*
G37*
G36*
X112706055Y-99476629D02*
G01*
X113749037Y-98433647D01*
X113961169Y-98645779D01*
X112918187Y-99688761D01*
X112706055Y-99476629D01*
G37*
G36*
X112352501Y-99123076D02*
G01*
X113395483Y-98080094D01*
X113607615Y-98292226D01*
X112564633Y-99335208D01*
X112352501Y-99123076D01*
G37*
G36*
X111998948Y-98769522D02*
G01*
X113041930Y-97726540D01*
X113254062Y-97938672D01*
X112211080Y-98981654D01*
X111998948Y-98769522D01*
G37*
G36*
X111645394Y-98415969D02*
G01*
X112688376Y-97372987D01*
X112900508Y-97585119D01*
X111857526Y-98628101D01*
X111645394Y-98415969D01*
G37*
G36*
X111291841Y-98062415D02*
G01*
X112334823Y-97019433D01*
X112546955Y-97231565D01*
X111503973Y-98274547D01*
X111291841Y-98062415D01*
G37*
G36*
X110938288Y-97708862D02*
G01*
X111981270Y-96665880D01*
X112193402Y-96878012D01*
X111150420Y-97920994D01*
X110938288Y-97708862D01*
G37*
G36*
X110584734Y-97355309D02*
G01*
X111627716Y-96312327D01*
X111839848Y-96524459D01*
X110796866Y-97567441D01*
X110584734Y-97355309D01*
G37*
G36*
X110231181Y-97001755D02*
G01*
X111274163Y-95958773D01*
X111486295Y-96170905D01*
X110443313Y-97213887D01*
X110231181Y-97001755D01*
G37*
G36*
X109877627Y-96648202D02*
G01*
X110920609Y-95605220D01*
X111132741Y-95817352D01*
X110089759Y-96860334D01*
X109877627Y-96648202D01*
G37*
G36*
X109524074Y-96294648D02*
G01*
X110567056Y-95251666D01*
X110779188Y-95463798D01*
X109736206Y-96506780D01*
X109524074Y-96294648D01*
G37*
G36*
X109170521Y-95941095D02*
G01*
X110213503Y-94898113D01*
X110425635Y-95110245D01*
X109382653Y-96153227D01*
X109170521Y-95941095D01*
G37*
G36*
X108816967Y-95587542D02*
G01*
X109859949Y-94544560D01*
X110072081Y-94756692D01*
X109029099Y-95799674D01*
X108816967Y-95587542D01*
G37*
G36*
X108463414Y-95233988D02*
G01*
X109506396Y-94191006D01*
X109718528Y-94403138D01*
X108675546Y-95446120D01*
X108463414Y-95233988D01*
G37*
G36*
X108675546Y-91379550D02*
G01*
X109718528Y-92422532D01*
X109506396Y-92634664D01*
X108463414Y-91591682D01*
X108675546Y-91379550D01*
G37*
G36*
X109029099Y-91025996D02*
G01*
X110072081Y-92068978D01*
X109859949Y-92281110D01*
X108816967Y-91238128D01*
X109029099Y-91025996D01*
G37*
G36*
X109382653Y-90672443D02*
G01*
X110425635Y-91715425D01*
X110213503Y-91927557D01*
X109170521Y-90884575D01*
X109382653Y-90672443D01*
G37*
G36*
X109736206Y-90318890D02*
G01*
X110779188Y-91361872D01*
X110567056Y-91574004D01*
X109524074Y-90531022D01*
X109736206Y-90318890D01*
G37*
G36*
X110089759Y-89965336D02*
G01*
X111132741Y-91008318D01*
X110920609Y-91220450D01*
X109877627Y-90177468D01*
X110089759Y-89965336D01*
G37*
G36*
X110443313Y-89611783D02*
G01*
X111486295Y-90654765D01*
X111274163Y-90866897D01*
X110231181Y-89823915D01*
X110443313Y-89611783D01*
G37*
G36*
X110796866Y-89258229D02*
G01*
X111839848Y-90301211D01*
X111627716Y-90513343D01*
X110584734Y-89470361D01*
X110796866Y-89258229D01*
G37*
G36*
X111150420Y-88904676D02*
G01*
X112193402Y-89947658D01*
X111981270Y-90159790D01*
X110938288Y-89116808D01*
X111150420Y-88904676D01*
G37*
G36*
X111503973Y-88551123D02*
G01*
X112546955Y-89594105D01*
X112334823Y-89806237D01*
X111291841Y-88763255D01*
X111503973Y-88551123D01*
G37*
G36*
X111857526Y-88197569D02*
G01*
X112900508Y-89240551D01*
X112688376Y-89452683D01*
X111645394Y-88409701D01*
X111857526Y-88197569D01*
G37*
G36*
X112211080Y-87844016D02*
G01*
X113254062Y-88886998D01*
X113041930Y-89099130D01*
X111998948Y-88056148D01*
X112211080Y-87844016D01*
G37*
G36*
X112564633Y-87490462D02*
G01*
X113607615Y-88533444D01*
X113395483Y-88745576D01*
X112352501Y-87702594D01*
X112564633Y-87490462D01*
G37*
G36*
X112918187Y-87136909D02*
G01*
X113961169Y-88179891D01*
X113749037Y-88392023D01*
X112706055Y-87349041D01*
X112918187Y-87136909D01*
G37*
G36*
X113271740Y-86783356D02*
G01*
X114314722Y-87826338D01*
X114102590Y-88038470D01*
X113059608Y-86995488D01*
X113271740Y-86783356D01*
G37*
G36*
X113625293Y-86429802D02*
G01*
X114668275Y-87472784D01*
X114456143Y-87684916D01*
X113413161Y-86641934D01*
X113625293Y-86429802D01*
G37*
G36*
X113978847Y-86076249D02*
G01*
X115021829Y-87119231D01*
X114809697Y-87331363D01*
X113766715Y-86288381D01*
X113978847Y-86076249D01*
G37*
G36*
X116578171Y-87119231D02*
G01*
X117621153Y-86076249D01*
X117833285Y-86288381D01*
X116790303Y-87331363D01*
X116578171Y-87119231D01*
G37*
G36*
X116931725Y-87472784D02*
G01*
X117974707Y-86429802D01*
X118186839Y-86641934D01*
X117143857Y-87684916D01*
X116931725Y-87472784D01*
G37*
G36*
X117285278Y-87826338D02*
G01*
X118328260Y-86783356D01*
X118540392Y-86995488D01*
X117497410Y-88038470D01*
X117285278Y-87826338D01*
G37*
G36*
X117638831Y-88179891D02*
G01*
X118681813Y-87136909D01*
X118893945Y-87349041D01*
X117850963Y-88392023D01*
X117638831Y-88179891D01*
G37*
G36*
X117992385Y-88533444D02*
G01*
X119035367Y-87490462D01*
X119247499Y-87702594D01*
X118204517Y-88745576D01*
X117992385Y-88533444D01*
G37*
G36*
X118345938Y-88886998D02*
G01*
X119388920Y-87844016D01*
X119601052Y-88056148D01*
X118558070Y-89099130D01*
X118345938Y-88886998D01*
G37*
G36*
X118699492Y-89240551D02*
G01*
X119742474Y-88197569D01*
X119954606Y-88409701D01*
X118911624Y-89452683D01*
X118699492Y-89240551D01*
G37*
G36*
X119053045Y-89594105D02*
G01*
X120096027Y-88551123D01*
X120308159Y-88763255D01*
X119265177Y-89806237D01*
X119053045Y-89594105D01*
G37*
G36*
X119406598Y-89947658D02*
G01*
X120449580Y-88904676D01*
X120661712Y-89116808D01*
X119618730Y-90159790D01*
X119406598Y-89947658D01*
G37*
G36*
X119760152Y-90301211D02*
G01*
X120803134Y-89258229D01*
X121015266Y-89470361D01*
X119972284Y-90513343D01*
X119760152Y-90301211D01*
G37*
G36*
X120113705Y-90654765D02*
G01*
X121156687Y-89611783D01*
X121368819Y-89823915D01*
X120325837Y-90866897D01*
X120113705Y-90654765D01*
G37*
G36*
X120467259Y-91008318D02*
G01*
X121510241Y-89965336D01*
X121722373Y-90177468D01*
X120679391Y-91220450D01*
X120467259Y-91008318D01*
G37*
G36*
X120820812Y-91361872D02*
G01*
X121863794Y-90318890D01*
X122075926Y-90531022D01*
X121032944Y-91574004D01*
X120820812Y-91361872D01*
G37*
G36*
X121174365Y-91715425D02*
G01*
X122217347Y-90672443D01*
X122429479Y-90884575D01*
X121386497Y-91927557D01*
X121174365Y-91715425D01*
G37*
G36*
X121527919Y-92068978D02*
G01*
X122570901Y-91025996D01*
X122783033Y-91238128D01*
X121740051Y-92281110D01*
X121527919Y-92068978D01*
G37*
G36*
X121881472Y-92422532D02*
G01*
X122924454Y-91379550D01*
X123136586Y-91591682D01*
X122093604Y-92634664D01*
X121881472Y-92422532D01*
G37*
%TD*%
D26*
%TO.C,S5*%
X136525000Y-92875000D03*
X136525000Y-88725000D03*
X138675000Y-92875000D03*
X138675000Y-88725000D03*
%TD*%
%TO.C,D3*%
G36*
G01*
X145856250Y-75812500D02*
X144943750Y-75812500D01*
G75*
G02*
X144700000Y-75568750I0J243750D01*
G01*
X144700000Y-75081250D01*
G75*
G02*
X144943750Y-74837500I243750J0D01*
G01*
X145856250Y-74837500D01*
G75*
G02*
X146100000Y-75081250I0J-243750D01*
G01*
X146100000Y-75568750D01*
G75*
G02*
X145856250Y-75812500I-243750J0D01*
G01*
G37*
G36*
G01*
X145856250Y-77687500D02*
X144943750Y-77687500D01*
G75*
G02*
X144700000Y-77443750I0J243750D01*
G01*
X144700000Y-76956250D01*
G75*
G02*
X144943750Y-76712500I243750J0D01*
G01*
X145856250Y-76712500D01*
G75*
G02*
X146100000Y-76956250I0J-243750D01*
G01*
X146100000Y-77443750D01*
G75*
G02*
X145856250Y-77687500I-243750J0D01*
G01*
G37*
%TD*%
D17*
%TO.C,C10*%
X112300000Y-81440000D03*
X112300000Y-84200000D03*
%TD*%
D15*
%TO.C,IC3*%
X95400000Y-77600000D03*
D27*
X97700000Y-83850000D03*
X93100000Y-83850000D03*
%TD*%
%TO.C,D2*%
G36*
G01*
X147856250Y-75787500D02*
X146943750Y-75787500D01*
G75*
G02*
X146700000Y-75543750I0J243750D01*
G01*
X146700000Y-75056250D01*
G75*
G02*
X146943750Y-74812500I243750J0D01*
G01*
X147856250Y-74812500D01*
G75*
G02*
X148100000Y-75056250I0J-243750D01*
G01*
X148100000Y-75543750D01*
G75*
G02*
X147856250Y-75787500I-243750J0D01*
G01*
G37*
G36*
G01*
X147856250Y-77662500D02*
X146943750Y-77662500D01*
G75*
G02*
X146700000Y-77418750I0J243750D01*
G01*
X146700000Y-76931250D01*
G75*
G02*
X146943750Y-76687500I243750J0D01*
G01*
X147856250Y-76687500D01*
G75*
G02*
X148100000Y-76931250I0J-243750D01*
G01*
X148100000Y-77418750D01*
G75*
G02*
X147856250Y-77662500I-243750J0D01*
G01*
G37*
%TD*%
%TO.C,D4*%
G36*
G01*
X143856250Y-75787500D02*
X142943750Y-75787500D01*
G75*
G02*
X142700000Y-75543750I0J243750D01*
G01*
X142700000Y-75056250D01*
G75*
G02*
X142943750Y-74812500I243750J0D01*
G01*
X143856250Y-74812500D01*
G75*
G02*
X144100000Y-75056250I0J-243750D01*
G01*
X144100000Y-75543750D01*
G75*
G02*
X143856250Y-75787500I-243750J0D01*
G01*
G37*
G36*
G01*
X143856250Y-77662500D02*
X142943750Y-77662500D01*
G75*
G02*
X142700000Y-77418750I0J243750D01*
G01*
X142700000Y-76931250D01*
G75*
G02*
X142943750Y-76687500I243750J0D01*
G01*
X143856250Y-76687500D01*
G75*
G02*
X144100000Y-76931250I0J-243750D01*
G01*
X144100000Y-77418750D01*
G75*
G02*
X143856250Y-77662500I-243750J0D01*
G01*
G37*
%TD*%
D15*
%TO.C,IC4*%
X106100000Y-77600000D03*
D27*
X108400000Y-83850000D03*
X103800000Y-83850000D03*
%TD*%
%TO.C,D5*%
G36*
G01*
X141856250Y-75787500D02*
X140943750Y-75787500D01*
G75*
G02*
X140700000Y-75543750I0J243750D01*
G01*
X140700000Y-75056250D01*
G75*
G02*
X140943750Y-74812500I243750J0D01*
G01*
X141856250Y-74812500D01*
G75*
G02*
X142100000Y-75056250I0J-243750D01*
G01*
X142100000Y-75543750D01*
G75*
G02*
X141856250Y-75787500I-243750J0D01*
G01*
G37*
G36*
G01*
X141856250Y-77662500D02*
X140943750Y-77662500D01*
G75*
G02*
X140700000Y-77418750I0J243750D01*
G01*
X140700000Y-76931250D01*
G75*
G02*
X140943750Y-76687500I243750J0D01*
G01*
X141856250Y-76687500D01*
G75*
G02*
X142100000Y-76931250I0J-243750D01*
G01*
X142100000Y-77418750D01*
G75*
G02*
X141856250Y-77662500I-243750J0D01*
G01*
G37*
%TD*%
D17*
%TO.C,C8*%
X101500000Y-81640000D03*
X101500000Y-84400000D03*
%TD*%
D10*
%TO.C,R3*%
X96400000Y-94260000D03*
X96400000Y-96140000D03*
%TD*%
D22*
%TO.C,R5*%
X142360000Y-112100000D03*
X144240000Y-112100000D03*
%TD*%
D10*
%TO.C,R1*%
X96700000Y-119200000D03*
X96700000Y-121080000D03*
%TD*%
D13*
%TO.C,R43*%
G36*
X105118612Y-87841941D02*
G01*
X106158059Y-88881388D01*
X105422668Y-89616779D01*
X104383221Y-88577332D01*
X105118612Y-87841941D01*
G37*
G36*
X106447972Y-86512581D02*
G01*
X107487419Y-87552028D01*
X106752028Y-88287419D01*
X105712581Y-87247972D01*
X106447972Y-86512581D01*
G37*
%TD*%
D22*
%TO.C,R40*%
X124520000Y-72300000D03*
X126400000Y-72300000D03*
%TD*%
D10*
%TO.C,R9*%
X124000000Y-81020000D03*
X124000000Y-82900000D03*
%TD*%
D13*
%TO.C,R39*%
G36*
X79907306Y-73665428D02*
G01*
X79172306Y-74938486D01*
X78271640Y-74418486D01*
X79006640Y-73145428D01*
X79907306Y-73665428D01*
G37*
G36*
X81535434Y-74605428D02*
G01*
X80800434Y-75878486D01*
X79899768Y-75358486D01*
X80634768Y-74085428D01*
X81535434Y-74605428D01*
G37*
%TD*%
D10*
%TO.C,R36*%
X141400000Y-84100000D03*
X141400000Y-82220000D03*
%TD*%
%TO.C,R35*%
X143400000Y-84100000D03*
X143400000Y-82220000D03*
%TD*%
%TO.C,R34*%
X145400000Y-84100000D03*
X145400000Y-82220000D03*
%TD*%
D13*
%TO.C,R12*%
G36*
X153054705Y-75103471D02*
G01*
X153789705Y-76376529D01*
X152889039Y-76896529D01*
X152154039Y-75623471D01*
X153054705Y-75103471D01*
G37*
G36*
X154682833Y-74163471D02*
G01*
X155417833Y-75436529D01*
X154517167Y-75956529D01*
X153782167Y-74683471D01*
X154682833Y-74163471D01*
G37*
%TD*%
%TO.C,R37*%
G36*
X153517167Y-74196529D02*
G01*
X152782167Y-72923471D01*
X153682833Y-72403471D01*
X154417833Y-73676529D01*
X153517167Y-74196529D01*
G37*
G36*
X151889039Y-75136529D02*
G01*
X151154039Y-73863471D01*
X152054705Y-73343471D01*
X152789705Y-74616529D01*
X151889039Y-75136529D01*
G37*
%TD*%
D10*
%TO.C,R11*%
X54800000Y-70220000D03*
X54800000Y-72100000D03*
%TD*%
%TO.C,R2*%
X94300000Y-94260000D03*
X94300000Y-96140000D03*
%TD*%
D13*
%TO.C,R41*%
G36*
X78889705Y-75383471D02*
G01*
X78154705Y-76656529D01*
X77254039Y-76136529D01*
X77989039Y-74863471D01*
X78889705Y-75383471D01*
G37*
G36*
X80517833Y-76323471D02*
G01*
X79782833Y-77596529D01*
X78882167Y-77076529D01*
X79617167Y-75803471D01*
X80517833Y-76323471D01*
G37*
%TD*%
D10*
%TO.C,R10*%
X126000000Y-81000000D03*
X126000000Y-82880000D03*
%TD*%
D13*
%TO.C,C21*%
G36*
X106232825Y-89602495D02*
G01*
X106897505Y-90267175D01*
X106367175Y-90797505D01*
X105702495Y-90132825D01*
X106232825Y-89602495D01*
G37*
G36*
X107222775Y-88612545D02*
G01*
X107887455Y-89277225D01*
X107357125Y-89807555D01*
X106692445Y-89142875D01*
X107222775Y-88612545D01*
G37*
%TD*%
%TO.C,C20*%
G36*
X107242875Y-90592445D02*
G01*
X107907555Y-91257125D01*
X107377225Y-91787455D01*
X106712545Y-91122775D01*
X107242875Y-90592445D01*
G37*
G36*
X108232825Y-89602495D02*
G01*
X108897505Y-90267175D01*
X108367175Y-90797505D01*
X107702495Y-90132825D01*
X108232825Y-89602495D01*
G37*
%TD*%
%TO.C,C19*%
G36*
X111237850Y-86497470D02*
G01*
X111902530Y-87162150D01*
X111372200Y-87692480D01*
X110707520Y-87027800D01*
X111237850Y-86497470D01*
G37*
G36*
X112227800Y-85507520D02*
G01*
X112892480Y-86172200D01*
X112362150Y-86702530D01*
X111697470Y-86037850D01*
X112227800Y-85507520D01*
G37*
%TD*%
%TO.C,C18*%
G36*
X119092445Y-86657125D02*
G01*
X119757125Y-85992445D01*
X120287455Y-86522775D01*
X119622775Y-87187455D01*
X119092445Y-86657125D01*
G37*
G36*
X118102495Y-85667175D02*
G01*
X118767175Y-85002495D01*
X119297505Y-85532825D01*
X118632825Y-86197505D01*
X118102495Y-85667175D01*
G37*
%TD*%
%TO.C,C17*%
G36*
X120092445Y-85757125D02*
G01*
X120757125Y-85092445D01*
X121287455Y-85622775D01*
X120622775Y-86287455D01*
X120092445Y-85757125D01*
G37*
G36*
X119102495Y-84767175D02*
G01*
X119767175Y-84102495D01*
X120297505Y-84632825D01*
X119632825Y-85297505D01*
X119102495Y-84767175D01*
G37*
%TD*%
D28*
%TO.C,IC1*%
X119475000Y-121462000D03*
X118825000Y-121462000D03*
X118175000Y-121462000D03*
X117525000Y-121462000D03*
X116875000Y-121462000D03*
X116225000Y-121462000D03*
X115575000Y-121462000D03*
X114925000Y-121462000D03*
X114275000Y-121462000D03*
X113625000Y-121462000D03*
X112975000Y-121462000D03*
X112325000Y-121462000D03*
X112325000Y-114338000D03*
X112975000Y-114338000D03*
X113625000Y-114338000D03*
X114275000Y-114338000D03*
X114925000Y-114338000D03*
X115575000Y-114338000D03*
X116225000Y-114338000D03*
X116875000Y-114338000D03*
X117525000Y-114338000D03*
X118175000Y-114338000D03*
X118825000Y-114338000D03*
X119475000Y-114338000D03*
%TD*%
D29*
%TO.C,C26*%
X116600000Y-109600000D03*
X115200000Y-109600000D03*
%TD*%
%TO.C,C25*%
X115600000Y-103200000D03*
X114200000Y-103200000D03*
%TD*%
D18*
%TO.C,C3*%
X122300000Y-121800000D03*
X122300000Y-123200000D03*
%TD*%
%TO.C,C15*%
X108900000Y-115300000D03*
X108900000Y-116700000D03*
%TD*%
%TO.C,C6*%
X110500000Y-115300000D03*
X110500000Y-116700000D03*
%TD*%
D13*
%TO.C,C12*%
G36*
X123605139Y-95661814D02*
G01*
X124269819Y-96326494D01*
X123739489Y-96856824D01*
X123074809Y-96192144D01*
X123605139Y-95661814D01*
G37*
G36*
X124595089Y-94671864D02*
G01*
X125259769Y-95336544D01*
X124729439Y-95866874D01*
X124064759Y-95202194D01*
X124595089Y-94671864D01*
G37*
%TD*%
%TO.C,C11*%
G36*
X124595088Y-96651764D02*
G01*
X125259768Y-97316444D01*
X124729438Y-97846774D01*
X124064758Y-97182094D01*
X124595088Y-96651764D01*
G37*
G36*
X125585038Y-95661814D02*
G01*
X126249718Y-96326494D01*
X125719388Y-96856824D01*
X125054708Y-96192144D01*
X125585038Y-95661814D01*
G37*
%TD*%
D18*
%TO.C,C4*%
X123800000Y-121800000D03*
X123800000Y-123200000D03*
%TD*%
%TO.C,C5*%
X112500000Y-108100000D03*
X112500000Y-106700000D03*
%TD*%
D13*
%TO.C,C14*%
G36*
X112238186Y-102885038D02*
G01*
X111573506Y-103549718D01*
X111043176Y-103019388D01*
X111707856Y-102354708D01*
X112238186Y-102885038D01*
G37*
G36*
X111248236Y-101895088D02*
G01*
X110583556Y-102559768D01*
X110053226Y-102029438D01*
X110717906Y-101364758D01*
X111248236Y-101895088D01*
G37*
%TD*%
D18*
%TO.C,C7*%
X99600000Y-83000000D03*
X99600000Y-84400000D03*
%TD*%
%TO.C,C16*%
X135300000Y-89800000D03*
X135300000Y-88400000D03*
%TD*%
%TO.C,C2*%
X90200000Y-87400000D03*
X90200000Y-86000000D03*
%TD*%
%TO.C,C9*%
X110400000Y-82800000D03*
X110400000Y-84200000D03*
%TD*%
D30*
%TO.C,IC2*%
X98660000Y-119500000D03*
X99930000Y-119500000D03*
X101200000Y-119500000D03*
X102470000Y-119500000D03*
X102470000Y-114076000D03*
X101200000Y-114076000D03*
X99930000Y-114076000D03*
X98660000Y-114076000D03*
%TD*%
D13*
%TO.C,C13*%
G36*
X113228136Y-101895089D02*
G01*
X112563456Y-102559769D01*
X112033126Y-102029439D01*
X112697806Y-101364759D01*
X113228136Y-101895089D01*
G37*
G36*
X112238186Y-100905139D02*
G01*
X111573506Y-101569819D01*
X111043176Y-101039489D01*
X111707856Y-100374809D01*
X112238186Y-100905139D01*
G37*
%TD*%
D11*
%TO.C,J4*%
X112360000Y-69800000D03*
X119440000Y-69800000D03*
D12*
X113150000Y-72450000D03*
X113650000Y-72450000D03*
X114150000Y-72450000D03*
X114650000Y-72450000D03*
X115150000Y-72450000D03*
X115650000Y-72450000D03*
X116150000Y-72450000D03*
X116650000Y-72450000D03*
X117150000Y-72450000D03*
X117650000Y-72450000D03*
X118150000Y-72450000D03*
X118650000Y-72450000D03*
%TD*%
D13*
%TO.C,Q3*%
G36*
X76812917Y-73465192D02*
G01*
X76512917Y-73984808D01*
X75387083Y-73334808D01*
X75687083Y-72815192D01*
X76812917Y-73465192D01*
G37*
G36*
X77762917Y-71819744D02*
G01*
X77462917Y-72339360D01*
X76337083Y-71689360D01*
X76637083Y-71169744D01*
X77762917Y-71819744D01*
G37*
G36*
X75469263Y-71592468D02*
G01*
X75169263Y-72112084D01*
X74043429Y-71462084D01*
X74343429Y-70942468D01*
X75469263Y-71592468D01*
G37*
%TD*%
D31*
%TO.C,Q1*%
X123950000Y-78650000D03*
X125850000Y-78650000D03*
X124900000Y-76550000D03*
%TD*%
D13*
%TO.C,Q2*%
G36*
X155418429Y-71587084D02*
G01*
X155118429Y-71067468D01*
X156244263Y-70417468D01*
X156544263Y-70937084D01*
X155418429Y-71587084D01*
G37*
G36*
X156368429Y-73232532D02*
G01*
X156068429Y-72712916D01*
X157194263Y-72062916D01*
X157494263Y-72582532D01*
X156368429Y-73232532D01*
G37*
G36*
X157712083Y-71359808D02*
G01*
X157412083Y-70840192D01*
X158537917Y-70190192D01*
X158837917Y-70709808D01*
X157712083Y-71359808D01*
G37*
%TD*%
D31*
%TO.C,Q4*%
X122750000Y-70250000D03*
X120850000Y-70250000D03*
X121800000Y-72350000D03*
%TD*%
M02*
