%TF.GenerationSoftware,KiCad,Pcbnew,(5.1.8)-1*%
%TF.CreationDate,2023-07-29T11:14:22+09:00*%
%TF.ProjectId,Tracer,54726163-6572-42e6-9b69-6361645f7063,rev?*%
%TF.SameCoordinates,Original*%
%TF.FileFunction,Copper,L1,Top*%
%TF.FilePolarity,Positive*%
%FSLAX46Y46*%
G04 Gerber Fmt 4.6, Leading zero omitted, Abs format (unit mm)*
G04 Created by KiCad (PCBNEW (5.1.8)-1) date 2023-07-29 11:14:22*
%MOMM*%
%LPD*%
G01*
G04 APERTURE LIST*
%TA.AperFunction,SMDPad,CuDef*%
%ADD10R,1.470000X1.040000*%
%TD*%
%TA.AperFunction,SMDPad,CuDef*%
%ADD11R,0.300000X1.000000*%
%TD*%
%TA.AperFunction,SMDPad,CuDef*%
%ADD12R,0.300000X0.700000*%
%TD*%
%TA.AperFunction,SMDPad,CuDef*%
%ADD13C,0.100000*%
%TD*%
%TA.AperFunction,SMDPad,CuDef*%
%ADD14R,1.050000X0.650000*%
%TD*%
%TA.AperFunction,SMDPad,CuDef*%
%ADD15R,6.000000X6.000000*%
%TD*%
%TA.AperFunction,SMDPad,CuDef*%
%ADD16R,2.500000X2.000000*%
%TD*%
%TA.AperFunction,SMDPad,CuDef*%
%ADD17R,1.820000X1.070000*%
%TD*%
%TA.AperFunction,SMDPad,CuDef*%
%ADD18R,0.940000X0.750000*%
%TD*%
%TA.AperFunction,SMDPad,CuDef*%
%ADD19O,0.900000X1.200000*%
%TD*%
%TA.AperFunction,SMDPad,CuDef*%
%ADD20O,0.900000X1.400000*%
%TD*%
%TA.AperFunction,SMDPad,CuDef*%
%ADD21O,1.400000X0.900000*%
%TD*%
%TA.AperFunction,ComponentPad*%
%ADD22O,1.700000X1.700000*%
%TD*%
%TA.AperFunction,ComponentPad*%
%ADD23R,1.700000X1.700000*%
%TD*%
%TA.AperFunction,ComponentPad*%
%ADD24C,1.500000*%
%TD*%
%TA.AperFunction,SMDPad,CuDef*%
%ADD25R,1.040000X1.470000*%
%TD*%
%TA.AperFunction,ComponentPad*%
%ADD26C,2.500000*%
%TD*%
%TA.AperFunction,SMDPad,CuDef*%
%ADD27R,1.750000X1.590000*%
%TD*%
%TA.AperFunction,SMDPad,CuDef*%
%ADD28R,0.750000X0.200000*%
%TD*%
%TA.AperFunction,SMDPad,CuDef*%
%ADD29R,0.200000X0.750000*%
%TD*%
%TA.AperFunction,SMDPad,CuDef*%
%ADD30R,0.650000X1.050000*%
%TD*%
%TA.AperFunction,SMDPad,CuDef*%
%ADD31R,2.000000X2.500000*%
%TD*%
%TA.AperFunction,ComponentPad*%
%ADD32C,1.300000*%
%TD*%
%TA.AperFunction,SMDPad,CuDef*%
%ADD33R,0.450000X1.525000*%
%TD*%
%TA.AperFunction,SMDPad,CuDef*%
%ADD34R,0.750000X0.940000*%
%TD*%
%TA.AperFunction,SMDPad,CuDef*%
%ADD35R,0.700000X1.525000*%
%TD*%
%TA.AperFunction,ComponentPad*%
%ADD36C,1.358000*%
%TD*%
%TA.AperFunction,ComponentPad*%
%ADD37R,1.358000X1.358000*%
%TD*%
%TA.AperFunction,SMDPad,CuDef*%
%ADD38R,0.600000X1.300000*%
%TD*%
%TA.AperFunction,ComponentPad*%
%ADD39C,1.275000*%
%TD*%
%TA.AperFunction,ComponentPad*%
%ADD40R,1.275000X1.275000*%
%TD*%
%TA.AperFunction,ViaPad*%
%ADD41C,0.800000*%
%TD*%
%TA.AperFunction,ViaPad*%
%ADD42C,0.600000*%
%TD*%
%TA.AperFunction,ViaPad*%
%ADD43C,1.000000*%
%TD*%
%TA.AperFunction,Conductor*%
%ADD44C,0.250000*%
%TD*%
%TA.AperFunction,Conductor*%
%ADD45C,0.200000*%
%TD*%
%TA.AperFunction,Conductor*%
%ADD46C,0.800000*%
%TD*%
%TA.AperFunction,Conductor*%
%ADD47C,2.000000*%
%TD*%
%TA.AperFunction,Conductor*%
%ADD48C,1.000000*%
%TD*%
%TA.AperFunction,Conductor*%
%ADD49C,0.500000*%
%TD*%
G04 APERTURE END LIST*
D10*
%TO.P,R45,2*%
%TO.N,+3.3V_1*%
X111600000Y-58720000D03*
%TO.P,R45,1*%
%TO.N,Boot1*%
X111600000Y-60600000D03*
%TD*%
%TO.P,R44,2*%
%TO.N,+3.3V_1*%
X113500000Y-58720000D03*
%TO.P,R44,1*%
%TO.N,SW2*%
X113500000Y-60600000D03*
%TD*%
D11*
%TO.P,J5,MP2*%
%TO.N,Net-(J5-PadMP2)*%
X119530000Y-37270000D03*
%TO.P,J5,MP1*%
%TO.N,Net-(J5-PadMP1)*%
X112450000Y-37270000D03*
D12*
%TO.P,J5,12*%
%TO.N,+3.3V1*%
X118740000Y-34620000D03*
%TO.P,J5,11*%
X118240000Y-34620000D03*
%TO.P,J5,10*%
%TO.N,R1_S*%
X117740000Y-34620000D03*
%TO.P,J5,9*%
%TO.N,R2_S*%
X117240000Y-34620000D03*
%TO.P,J5,8*%
%TO.N,R3_S*%
X116740000Y-34620000D03*
%TO.P,J5,7*%
%TO.N,Net-(J5-Pad7)*%
X116240000Y-34620000D03*
%TO.P,J5,6*%
%TO.N,Net-(J5-Pad6)*%
X115740000Y-34620000D03*
%TO.P,J5,5*%
%TO.N,L3_S*%
X115240000Y-34620000D03*
%TO.P,J5,4*%
%TO.N,L2_S*%
X114740000Y-34620000D03*
%TO.P,J5,3*%
%TO.N,L1_S*%
X114240000Y-34620000D03*
%TO.P,J5,2*%
%TO.N,GND1*%
X113740000Y-34620000D03*
%TO.P,J5,1*%
X113240000Y-34620000D03*
%TD*%
%TO.P,D6,2*%
%TO.N,Net-(D6-Pad2)*%
%TA.AperFunction,SMDPad,CuDef*%
G36*
G01*
X114656250Y-47250000D02*
X113743750Y-47250000D01*
G75*
G02*
X113500000Y-47006250I0J243750D01*
G01*
X113500000Y-46518750D01*
G75*
G02*
X113743750Y-46275000I243750J0D01*
G01*
X114656250Y-46275000D01*
G75*
G02*
X114900000Y-46518750I0J-243750D01*
G01*
X114900000Y-47006250D01*
G75*
G02*
X114656250Y-47250000I-243750J0D01*
G01*
G37*
%TD.AperFunction*%
%TO.P,D6,1*%
%TO.N,GND2*%
%TA.AperFunction,SMDPad,CuDef*%
G36*
G01*
X114656250Y-49125000D02*
X113743750Y-49125000D01*
G75*
G02*
X113500000Y-48881250I0J243750D01*
G01*
X113500000Y-48393750D01*
G75*
G02*
X113743750Y-48150000I243750J0D01*
G01*
X114656250Y-48150000D01*
G75*
G02*
X114900000Y-48393750I0J-243750D01*
G01*
X114900000Y-48881250D01*
G75*
G02*
X114656250Y-49125000I-243750J0D01*
G01*
G37*
%TD.AperFunction*%
%TD*%
%TA.AperFunction,SMDPad,CuDef*%
D13*
%TO.P,R26,2*%
%TO.N,Net-(IC18-Pad1)*%
G36*
X104851267Y-32179582D02*
G01*
X103392539Y-32361276D01*
X103263993Y-31329250D01*
X104722721Y-31147556D01*
X104851267Y-32179582D01*
G37*
%TD.AperFunction*%
%TA.AperFunction,SMDPad,CuDef*%
%TO.P,R26,1*%
%TO.N,+3.3V1*%
G36*
X105083637Y-34045166D02*
G01*
X103624909Y-34226860D01*
X103496363Y-33194834D01*
X104955091Y-33013140D01*
X105083637Y-34045166D01*
G37*
%TD.AperFunction*%
%TD*%
%TA.AperFunction,SMDPad,CuDef*%
%TO.P,R27,2*%
%TO.N,Net-(IC19-Pad1)*%
G36*
X99059713Y-33047182D02*
G01*
X97615272Y-33320112D01*
X97422179Y-32298194D01*
X98866620Y-32025264D01*
X99059713Y-33047182D01*
G37*
%TD.AperFunction*%
%TA.AperFunction,SMDPad,CuDef*%
%TO.P,R27,1*%
%TO.N,+3.3V1*%
G36*
X99408767Y-34894494D02*
G01*
X97964326Y-35167424D01*
X97771233Y-34145506D01*
X99215674Y-33872576D01*
X99408767Y-34894494D01*
G37*
%TD.AperFunction*%
%TD*%
%TA.AperFunction,SMDPad,CuDef*%
%TO.P,R29,2*%
%TO.N,Net-(IC21-Pad1)*%
G36*
X87471417Y-35899924D02*
G01*
X86072574Y-36351738D01*
X85752923Y-35362080D01*
X87151766Y-34910266D01*
X87471417Y-35899924D01*
G37*
%TD.AperFunction*%
%TA.AperFunction,SMDPad,CuDef*%
%TO.P,R29,1*%
%TO.N,+3.3V1*%
G36*
X88049247Y-37688922D02*
G01*
X86650404Y-38140736D01*
X86330753Y-37151078D01*
X87729596Y-36699264D01*
X88049247Y-37688922D01*
G37*
%TD.AperFunction*%
%TD*%
%TA.AperFunction,SMDPad,CuDef*%
%TO.P,R28,2*%
%TO.N,Net-(IC20-Pad1)*%
G36*
X93166308Y-34320594D02*
G01*
X91741855Y-34683682D01*
X91484976Y-33675906D01*
X92909429Y-33312818D01*
X93166308Y-34320594D01*
G37*
%TD.AperFunction*%
%TA.AperFunction,SMDPad,CuDef*%
%TO.P,R28,1*%
%TO.N,+3.3V1*%
G36*
X93630666Y-36142344D02*
G01*
X92206213Y-36505432D01*
X91949334Y-35497656D01*
X93373787Y-35134568D01*
X93630666Y-36142344D01*
G37*
%TD.AperFunction*%
%TD*%
%TA.AperFunction,SMDPad,CuDef*%
%TO.P,R19,2*%
%TO.N,Net-(IC14-Pad1)*%
G36*
X140338145Y-34683682D02*
G01*
X138913692Y-34320594D01*
X139170571Y-33312818D01*
X140595024Y-33675906D01*
X140338145Y-34683682D01*
G37*
%TD.AperFunction*%
%TA.AperFunction,SMDPad,CuDef*%
%TO.P,R19,1*%
%TO.N,+3.3V1*%
G36*
X139873787Y-36505432D02*
G01*
X138449334Y-36142344D01*
X138706213Y-35134568D01*
X140130666Y-35497656D01*
X139873787Y-36505432D01*
G37*
%TD.AperFunction*%
%TD*%
%TA.AperFunction,SMDPad,CuDef*%
%TO.P,R17,2*%
%TO.N,Net-(IC12-Pad1)*%
G36*
X128571276Y-32394068D02*
G01*
X127112548Y-32212374D01*
X127241094Y-31180348D01*
X128699822Y-31362042D01*
X128571276Y-32394068D01*
G37*
%TD.AperFunction*%
%TA.AperFunction,SMDPad,CuDef*%
%TO.P,R17,1*%
%TO.N,+3.3V1*%
G36*
X128338906Y-34259652D02*
G01*
X126880178Y-34077958D01*
X127008724Y-33045932D01*
X128467452Y-33227626D01*
X128338906Y-34259652D01*
G37*
%TD.AperFunction*%
%TD*%
%TA.AperFunction,SMDPad,CuDef*%
%TO.P,R20,2*%
%TO.N,Net-(IC15-Pad1)*%
G36*
X145918511Y-36346237D02*
G01*
X144519668Y-35894423D01*
X144839319Y-34904765D01*
X146238162Y-35356579D01*
X145918511Y-36346237D01*
G37*
%TD.AperFunction*%
%TA.AperFunction,SMDPad,CuDef*%
%TO.P,R20,1*%
%TO.N,+3.3V1*%
G36*
X145340681Y-38135235D02*
G01*
X143941838Y-37683421D01*
X144261489Y-36693763D01*
X145660332Y-37145577D01*
X145340681Y-38135235D01*
G37*
%TD.AperFunction*%
%TD*%
%TA.AperFunction,SMDPad,CuDef*%
%TO.P,R18,2*%
%TO.N,Net-(IC13-Pad1)*%
G36*
X134490201Y-33343768D02*
G01*
X133045760Y-33070838D01*
X133238853Y-32048920D01*
X134683294Y-32321850D01*
X134490201Y-33343768D01*
G37*
%TD.AperFunction*%
%TA.AperFunction,SMDPad,CuDef*%
%TO.P,R18,1*%
%TO.N,+3.3V1*%
G36*
X134141147Y-35191080D02*
G01*
X132696706Y-34918150D01*
X132889799Y-33896232D01*
X134334240Y-34169162D01*
X134141147Y-35191080D01*
G37*
%TD.AperFunction*%
%TD*%
%TA.AperFunction,SMDPad,CuDef*%
%TO.P,R30,2*%
%TO.N,Net-(IC22-Pad1)*%
G36*
X81878094Y-37785581D02*
G01*
X80509442Y-38321949D01*
X80129970Y-37353651D01*
X81498622Y-36817283D01*
X81878094Y-37785581D01*
G37*
%TD.AperFunction*%
%TA.AperFunction,SMDPad,CuDef*%
%TO.P,R30,1*%
%TO.N,+3.3V1*%
G36*
X82564062Y-39535965D02*
G01*
X81195410Y-40072333D01*
X80815938Y-39104035D01*
X82184590Y-38567667D01*
X82564062Y-39535965D01*
G37*
%TD.AperFunction*%
%TD*%
%TA.AperFunction,SMDPad,CuDef*%
%TO.P,R21,2*%
%TO.N,Net-(IC16-Pad1)*%
G36*
X151470558Y-38421949D02*
G01*
X150101906Y-37885581D01*
X150481378Y-36917283D01*
X151850030Y-37453651D01*
X151470558Y-38421949D01*
G37*
%TD.AperFunction*%
%TA.AperFunction,SMDPad,CuDef*%
%TO.P,R21,1*%
%TO.N,+3.3V1*%
G36*
X150784590Y-40172333D02*
G01*
X149415938Y-39635965D01*
X149795410Y-38667667D01*
X151164062Y-39204035D01*
X150784590Y-40172333D01*
G37*
%TD.AperFunction*%
%TD*%
%TA.AperFunction,SMDPad,CuDef*%
%TO.P,R25,2*%
%TO.N,Net-(IC17-Pad1)*%
G36*
X110738155Y-31716533D02*
G01*
X109271055Y-31808835D01*
X109205753Y-30770887D01*
X110672853Y-30678585D01*
X110738155Y-31716533D01*
G37*
%TD.AperFunction*%
%TA.AperFunction,SMDPad,CuDef*%
%TO.P,R25,1*%
%TO.N,+3.3V1*%
G36*
X110856201Y-33592823D02*
G01*
X109389101Y-33685125D01*
X109323799Y-32647177D01*
X110790899Y-32554875D01*
X110856201Y-33592823D01*
G37*
%TD.AperFunction*%
%TD*%
%TA.AperFunction,SMDPad,CuDef*%
%TO.P,R16,2*%
%TO.N,Net-(IC11-Pad1)*%
G36*
X122590899Y-31785125D02*
G01*
X121123799Y-31692823D01*
X121189101Y-30654875D01*
X122656201Y-30747177D01*
X122590899Y-31785125D01*
G37*
%TD.AperFunction*%
%TA.AperFunction,SMDPad,CuDef*%
%TO.P,R16,1*%
%TO.N,+3.3V1*%
G36*
X122472853Y-33661415D02*
G01*
X121005753Y-33569113D01*
X121071055Y-32531165D01*
X122538155Y-32623467D01*
X122472853Y-33661415D01*
G37*
%TD.AperFunction*%
%TD*%
D10*
%TO.P,R46,2*%
%TO.N,Net-(D6-Pad2)*%
X112100000Y-46800000D03*
%TO.P,R46,1*%
%TO.N,+3.3V_1*%
X112100000Y-48680000D03*
%TD*%
D14*
%TO.P,S2,2*%
%TO.N,Boot1*%
X109900000Y-60700000D03*
X105750000Y-60700000D03*
%TO.P,S2,1*%
%TO.N,GND2*%
X109900000Y-58550000D03*
X105750000Y-58550000D03*
%TD*%
%TO.P,S4,2*%
%TO.N,Net-(S4-Pad2)*%
X120275000Y-48875000D03*
X116125000Y-48875000D03*
%TO.P,S4,1*%
%TO.N,GND2*%
X120275000Y-46725000D03*
X116125000Y-46725000D03*
%TD*%
D15*
%TO.P,IC23,3*%
%TO.N,GND2*%
X107400000Y-54100000D03*
D16*
%TO.P,IC23,2*%
%TO.N,+3.3V_1*%
X113650000Y-51800000D03*
%TO.P,IC23,1*%
%TO.N,+5V1*%
X113650000Y-56400000D03*
%TD*%
D17*
%TO.P,C24,2*%
%TO.N,GND2*%
X117900000Y-54100000D03*
%TO.P,C24,1*%
%TO.N,+3.3V_1*%
X117900000Y-51340000D03*
%TD*%
D14*
%TO.P,S3,2*%
%TO.N,SW2*%
X119400000Y-60650000D03*
X115250000Y-60650000D03*
%TO.P,S3,1*%
%TO.N,GND2*%
X119400000Y-58500000D03*
X115250000Y-58500000D03*
%TD*%
D18*
%TO.P,C22,2*%
%TO.N,GND2*%
X115900000Y-57100000D03*
%TO.P,C22,1*%
%TO.N,+5V1*%
X115900000Y-55700000D03*
%TD*%
D19*
%TO.P,U1,32*%
%TO.N,GND2*%
X133745000Y-60535000D03*
%TO.P,U1,31*%
X132475000Y-60535000D03*
D20*
%TO.P,U1,30*%
X131205000Y-60435000D03*
%TO.P,U1,29*%
%TO.N,Net-(U1-Pad29)*%
X129935000Y-60435000D03*
%TO.P,U1,28*%
%TO.N,GND2*%
X128665000Y-60435000D03*
%TO.P,U1,27*%
%TO.N,Net-(U1-Pad27)*%
X127395000Y-60435000D03*
%TO.P,U1,26*%
%TO.N,Net-(U1-Pad26)*%
X126125000Y-60435000D03*
%TO.P,U1,25*%
%TO.N,Net-(U1-Pad25)*%
X124855000Y-60435000D03*
D21*
%TO.P,U1,24*%
%TO.N,Net-(U1-Pad24)*%
X122565000Y-58145000D03*
%TO.P,U1,23*%
%TO.N,Net-(U1-Pad23)*%
X122565000Y-56875000D03*
%TO.P,U1,22*%
%TO.N,Net-(U1-Pad22)*%
X122565000Y-55605000D03*
%TO.P,U1,21*%
%TO.N,Net-(S4-Pad2)*%
X122565000Y-54335000D03*
%TO.P,U1,20*%
%TO.N,GND2*%
X122565000Y-53065000D03*
%TO.P,U1,19*%
%TO.N,Net-(U1-Pad19)*%
X122565000Y-51795000D03*
%TO.P,U1,18*%
%TO.N,Net-(U1-Pad18)*%
X122565000Y-50525000D03*
%TO.P,U1,17*%
%TO.N,SDA*%
X122565000Y-49255000D03*
D20*
%TO.P,U1,16*%
%TO.N,Net-(U1-Pad16)*%
X124855000Y-46965000D03*
%TO.P,U1,15*%
%TO.N,Net-(U1-Pad15)*%
X126125000Y-46965000D03*
%TO.P,U1,14*%
%TO.N,SCL*%
X127395000Y-46965000D03*
%TO.P,U1,13*%
%TO.N,Net-(U1-Pad13)*%
X128665000Y-46965000D03*
%TO.P,U1,12*%
%TO.N,Net-(U1-Pad12)*%
X129935000Y-46965000D03*
%TO.P,U1,11*%
%TO.N,Net-(U1-Pad11)*%
X131205000Y-46965000D03*
%TO.P,U1,10*%
%TO.N,Net-(U1-Pad10)*%
X132475000Y-46965000D03*
%TO.P,U1,9*%
%TO.N,USART_RX*%
X133745000Y-46965000D03*
D21*
%TO.P,U1,8*%
%TO.N,USART_TX*%
X136035000Y-49255000D03*
%TO.P,U1,7*%
%TO.N,Net-(U1-Pad7)*%
X136035000Y-50525000D03*
%TO.P,U1,6*%
%TO.N,Net-(U1-Pad6)*%
X136035000Y-51795000D03*
%TO.P,U1,5*%
%TO.N,+3.3V_1*%
X136035000Y-53065000D03*
%TO.P,U1,4*%
%TO.N,SW2*%
X136035000Y-54335000D03*
%TO.P,U1,3*%
%TO.N,Boot1*%
X136035000Y-55605000D03*
%TO.P,U1,2*%
X136035000Y-56875000D03*
%TO.P,U1,1*%
%TO.N,Net-(U1-Pad1)*%
X136035000Y-58145000D03*
%TD*%
D18*
%TO.P,C23,2*%
%TO.N,GND2*%
X116000000Y-52600000D03*
%TO.P,C23,1*%
%TO.N,+3.3V_1*%
X116000000Y-51200000D03*
%TD*%
D22*
%TO.P,J7,4*%
%TO.N,USART_RX*%
X99700000Y-49880000D03*
%TO.P,J7,3*%
%TO.N,USART_TX*%
X99700000Y-52420000D03*
%TO.P,J7,2*%
%TO.N,GND2*%
X99700000Y-54960000D03*
D23*
%TO.P,J7,1*%
%TO.N,+5V1*%
X99700000Y-57500000D03*
%TD*%
D22*
%TO.P,J8,4*%
%TO.N,SDA*%
X102600000Y-57490000D03*
%TO.P,J8,3*%
%TO.N,SCL*%
X102600000Y-54950000D03*
%TO.P,J8,2*%
%TO.N,+5V1*%
X102600000Y-52410000D03*
D23*
%TO.P,J8,1*%
%TO.N,GND2*%
X102600000Y-49870000D03*
%TD*%
%TO.P,D1,2*%
%TO.N,Net-(D1-Pad2)*%
%TA.AperFunction,SMDPad,CuDef*%
G36*
G01*
X97850000Y-123356250D02*
X97850000Y-122443750D01*
G75*
G02*
X98093750Y-122200000I243750J0D01*
G01*
X98581250Y-122200000D01*
G75*
G02*
X98825000Y-122443750I0J-243750D01*
G01*
X98825000Y-123356250D01*
G75*
G02*
X98581250Y-123600000I-243750J0D01*
G01*
X98093750Y-123600000D01*
G75*
G02*
X97850000Y-123356250I0J243750D01*
G01*
G37*
%TD.AperFunction*%
%TO.P,D1,1*%
%TO.N,GND*%
%TA.AperFunction,SMDPad,CuDef*%
G36*
G01*
X95975000Y-123356250D02*
X95975000Y-122443750D01*
G75*
G02*
X96218750Y-122200000I243750J0D01*
G01*
X96706250Y-122200000D01*
G75*
G02*
X96950000Y-122443750I0J-243750D01*
G01*
X96950000Y-123356250D01*
G75*
G02*
X96706250Y-123600000I-243750J0D01*
G01*
X96218750Y-123600000D01*
G75*
G02*
X95975000Y-123356250I0J243750D01*
G01*
G37*
%TD.AperFunction*%
%TD*%
D24*
%TO.P,J1,3*%
%TO.N,Net-(IC2-Pad1)*%
X92600000Y-116900000D03*
%TO.P,J1,2*%
%TO.N,Net-(J1-Pad2)*%
X90600000Y-116900000D03*
%TO.P,J1,1*%
%TO.N,GND*%
X88600000Y-116900000D03*
%TD*%
D25*
%TO.P,R6,2*%
%TO.N,GND*%
X137560000Y-112100000D03*
%TO.P,R6,1*%
%TO.N,Boot*%
X139440000Y-112100000D03*
%TD*%
D26*
%TO.P,SW2,2*%
%TO.N,Switch1*%
X143300000Y-115500000D03*
%TO.P,SW2,1*%
%TO.N,+3V3*%
X143300000Y-122000000D03*
%TD*%
D10*
%TO.P,R8,2*%
%TO.N,Net-(IC9-Pad1)*%
X69800000Y-70260000D03*
%TO.P,R8,1*%
%TO.N,+3V3*%
X69800000Y-72140000D03*
%TD*%
D25*
%TO.P,R42,2*%
%TO.N,Net-(Q4-Pad1)*%
X124520000Y-70300000D03*
%TO.P,R42,1*%
%TO.N,GND*%
X126400000Y-70300000D03*
%TD*%
D26*
%TO.P,SW3,2*%
%TO.N,Boot*%
X138500000Y-115500000D03*
%TO.P,SW3,1*%
%TO.N,+3V3*%
X138500000Y-122000000D03*
%TD*%
D10*
%TO.P,R14,2*%
%TO.N,Net-(IC8-Pad1)*%
X162100000Y-70260000D03*
%TO.P,R14,1*%
%TO.N,+3V3*%
X162100000Y-72140000D03*
%TD*%
%TA.AperFunction,SMDPad,CuDef*%
D13*
%TO.P,R38,2*%
%TO.N,Net-(Q2-Pad1)*%
G36*
X152517167Y-72496529D02*
G01*
X151782167Y-71223471D01*
X152682833Y-70703471D01*
X153417833Y-71976529D01*
X152517167Y-72496529D01*
G37*
%TD.AperFunction*%
%TA.AperFunction,SMDPad,CuDef*%
%TO.P,R38,1*%
%TO.N,GND*%
G36*
X150889039Y-73436529D02*
G01*
X150154039Y-72163471D01*
X151054705Y-71643471D01*
X151789705Y-72916529D01*
X150889039Y-73436529D01*
G37*
%TD.AperFunction*%
%TD*%
D10*
%TO.P,R13,2*%
%TO.N,Net-(IC7-Pad1)*%
X177100000Y-70160000D03*
%TO.P,R13,1*%
%TO.N,+3V3*%
X177100000Y-72040000D03*
%TD*%
D25*
%TO.P,R4,1*%
%TO.N,+5V*%
X102580000Y-122900000D03*
%TO.P,R4,2*%
%TO.N,Net-(D1-Pad2)*%
X100700000Y-122900000D03*
%TD*%
D10*
%TO.P,R7,2*%
%TO.N,LED1*%
X147400000Y-84080000D03*
%TO.P,R7,1*%
%TO.N,Net-(D2-Pad1)*%
X147400000Y-82200000D03*
%TD*%
%TA.AperFunction,SMDPad,CuDef*%
D13*
%TO.P,R15,2*%
%TO.N,GND*%
G36*
X80882167Y-73676529D02*
G01*
X81617167Y-72403471D01*
X82517833Y-72923471D01*
X81782833Y-74196529D01*
X80882167Y-73676529D01*
G37*
%TD.AperFunction*%
%TA.AperFunction,SMDPad,CuDef*%
%TO.P,R15,1*%
%TO.N,C_Sens*%
G36*
X79254039Y-72736529D02*
G01*
X79989039Y-71463471D01*
X80889705Y-71983471D01*
X80154705Y-73256529D01*
X79254039Y-72736529D01*
G37*
%TD.AperFunction*%
%TD*%
D27*
%TO.P,IC5,25*%
%TO.N,GND*%
X115900000Y-106300000D03*
D28*
%TO.P,IC5,24*%
%TO.N,gyro_mosi*%
X117400000Y-105300000D03*
%TO.P,IC5,23*%
%TO.N,gyro_clk*%
X117400000Y-105700000D03*
%TO.P,IC5,22*%
%TO.N,mpu_cs*%
X117400000Y-106100000D03*
%TO.P,IC5,21*%
%TO.N,Net-(IC5-Pad21)*%
X117400000Y-106500000D03*
%TO.P,IC5,20*%
%TO.N,GND*%
X117400000Y-106900000D03*
%TO.P,IC5,19*%
%TO.N,Net-(IC5-Pad19)*%
X117400000Y-107300000D03*
D29*
%TO.P,IC5,18*%
%TO.N,GND*%
X116900000Y-107800000D03*
%TO.P,IC5,17*%
%TO.N,Net-(IC5-Pad17)*%
X116500000Y-107800000D03*
%TO.P,IC5,16*%
%TO.N,Net-(IC5-Pad16)*%
X116100000Y-107800000D03*
%TO.P,IC5,15*%
%TO.N,Net-(IC5-Pad15)*%
X115700000Y-107800000D03*
%TO.P,IC5,14*%
%TO.N,Net-(IC5-Pad14)*%
X115300000Y-107800000D03*
%TO.P,IC5,13*%
%TO.N,+3V3*%
X114900000Y-107800000D03*
D28*
%TO.P,IC5,12*%
%TO.N,Net-(IC5-Pad12)*%
X114400000Y-107300000D03*
%TO.P,IC5,11*%
%TO.N,GND*%
X114400000Y-106900000D03*
%TO.P,IC5,10*%
%TO.N,Net-(C5-Pad1)*%
X114400000Y-106500000D03*
%TO.P,IC5,9*%
%TO.N,gyro_miso*%
X114400000Y-106100000D03*
%TO.P,IC5,8*%
%TO.N,+3V3*%
X114400000Y-105700000D03*
%TO.P,IC5,7*%
%TO.N,Net-(IC5-Pad7)*%
X114400000Y-105300000D03*
D29*
%TO.P,IC5,6*%
%TO.N,Net-(IC5-Pad6)*%
X114900000Y-104800000D03*
%TO.P,IC5,5*%
%TO.N,Net-(IC5-Pad5)*%
X115300000Y-104800000D03*
%TO.P,IC5,4*%
%TO.N,Net-(IC5-Pad4)*%
X115700000Y-104800000D03*
%TO.P,IC5,3*%
%TO.N,Net-(IC5-Pad3)*%
X116100000Y-104800000D03*
%TO.P,IC5,2*%
%TO.N,Net-(IC5-Pad2)*%
X116500000Y-104800000D03*
%TO.P,IC5,1*%
%TO.N,Net-(IC5-Pad1)*%
X116900000Y-104800000D03*
%TD*%
%TA.AperFunction,SMDPad,CuDef*%
D13*
%TO.P,IC6,64*%
%TO.N,+3V3*%
G36*
X122093604Y-94191006D02*
G01*
X123136586Y-95233988D01*
X122924454Y-95446120D01*
X121881472Y-94403138D01*
X122093604Y-94191006D01*
G37*
%TD.AperFunction*%
%TA.AperFunction,SMDPad,CuDef*%
%TO.P,IC6,63*%
%TO.N,GND*%
G36*
X121740051Y-94544560D02*
G01*
X122783033Y-95587542D01*
X122570901Y-95799674D01*
X121527919Y-94756692D01*
X121740051Y-94544560D01*
G37*
%TD.AperFunction*%
%TA.AperFunction,SMDPad,CuDef*%
%TO.P,IC6,62*%
%TO.N,Switch1*%
G36*
X121386497Y-94898113D02*
G01*
X122429479Y-95941095D01*
X122217347Y-96153227D01*
X121174365Y-95110245D01*
X121386497Y-94898113D01*
G37*
%TD.AperFunction*%
%TA.AperFunction,SMDPad,CuDef*%
%TO.P,IC6,61*%
%TO.N,Boot*%
G36*
X121032944Y-95251666D02*
G01*
X122075926Y-96294648D01*
X121863794Y-96506780D01*
X120820812Y-95463798D01*
X121032944Y-95251666D01*
G37*
%TD.AperFunction*%
%TA.AperFunction,SMDPad,CuDef*%
%TO.P,IC6,60*%
G36*
X120679391Y-95605220D02*
G01*
X121722373Y-96648202D01*
X121510241Y-96860334D01*
X120467259Y-95817352D01*
X120679391Y-95605220D01*
G37*
%TD.AperFunction*%
%TA.AperFunction,SMDPad,CuDef*%
%TO.P,IC6,59*%
%TO.N,outB_R*%
G36*
X120325837Y-95958773D02*
G01*
X121368819Y-97001755D01*
X121156687Y-97213887D01*
X120113705Y-96170905D01*
X120325837Y-95958773D01*
G37*
%TD.AperFunction*%
%TA.AperFunction,SMDPad,CuDef*%
%TO.P,IC6,58*%
%TO.N,outA_R*%
G36*
X119972284Y-96312327D02*
G01*
X121015266Y-97355309D01*
X120803134Y-97567441D01*
X119760152Y-96524459D01*
X119972284Y-96312327D01*
G37*
%TD.AperFunction*%
%TA.AperFunction,SMDPad,CuDef*%
%TO.P,IC6,57*%
%TO.N,outB_L*%
G36*
X119618730Y-96665880D02*
G01*
X120661712Y-97708862D01*
X120449580Y-97920994D01*
X119406598Y-96878012D01*
X119618730Y-96665880D01*
G37*
%TD.AperFunction*%
%TA.AperFunction,SMDPad,CuDef*%
%TO.P,IC6,56*%
%TO.N,outA_L*%
G36*
X119265177Y-97019433D02*
G01*
X120308159Y-98062415D01*
X120096027Y-98274547D01*
X119053045Y-97231565D01*
X119265177Y-97019433D01*
G37*
%TD.AperFunction*%
%TA.AperFunction,SMDPad,CuDef*%
%TO.P,IC6,55*%
%TO.N,BUZZER*%
G36*
X118911624Y-97372987D02*
G01*
X119954606Y-98415969D01*
X119742474Y-98628101D01*
X118699492Y-97585119D01*
X118911624Y-97372987D01*
G37*
%TD.AperFunction*%
%TA.AperFunction,SMDPad,CuDef*%
%TO.P,IC6,54*%
%TO.N,Net-(IC6-Pad54)*%
G36*
X118558070Y-97726540D02*
G01*
X119601052Y-98769522D01*
X119388920Y-98981654D01*
X118345938Y-97938672D01*
X118558070Y-97726540D01*
G37*
%TD.AperFunction*%
%TA.AperFunction,SMDPad,CuDef*%
%TO.P,IC6,53*%
%TO.N,gyro_mosi*%
G36*
X118204517Y-98080094D02*
G01*
X119247499Y-99123076D01*
X119035367Y-99335208D01*
X117992385Y-98292226D01*
X118204517Y-98080094D01*
G37*
%TD.AperFunction*%
%TA.AperFunction,SMDPad,CuDef*%
%TO.P,IC6,52*%
%TO.N,gyro_miso*%
G36*
X117850963Y-98433647D02*
G01*
X118893945Y-99476629D01*
X118681813Y-99688761D01*
X117638831Y-98645779D01*
X117850963Y-98433647D01*
G37*
%TD.AperFunction*%
%TA.AperFunction,SMDPad,CuDef*%
%TO.P,IC6,51*%
%TO.N,gyro_clk*%
G36*
X117497410Y-98787200D02*
G01*
X118540392Y-99830182D01*
X118328260Y-100042314D01*
X117285278Y-98999332D01*
X117497410Y-98787200D01*
G37*
%TD.AperFunction*%
%TA.AperFunction,SMDPad,CuDef*%
%TO.P,IC6,50*%
%TO.N,mpu_cs*%
G36*
X117143857Y-99140754D02*
G01*
X118186839Y-100183736D01*
X117974707Y-100395868D01*
X116931725Y-99352886D01*
X117143857Y-99140754D01*
G37*
%TD.AperFunction*%
%TA.AperFunction,SMDPad,CuDef*%
%TO.P,IC6,49*%
%TO.N,Net-(IC6-Pad49)*%
G36*
X116790303Y-99494307D02*
G01*
X117833285Y-100537289D01*
X117621153Y-100749421D01*
X116578171Y-99706439D01*
X116790303Y-99494307D01*
G37*
%TD.AperFunction*%
%TA.AperFunction,SMDPad,CuDef*%
%TO.P,IC6,48*%
%TO.N,+3V3*%
G36*
X113766715Y-100537289D02*
G01*
X114809697Y-99494307D01*
X115021829Y-99706439D01*
X113978847Y-100749421D01*
X113766715Y-100537289D01*
G37*
%TD.AperFunction*%
%TA.AperFunction,SMDPad,CuDef*%
%TO.P,IC6,47*%
%TO.N,Net-(C14-Pad1)*%
G36*
X113413161Y-100183736D02*
G01*
X114456143Y-99140754D01*
X114668275Y-99352886D01*
X113625293Y-100395868D01*
X113413161Y-100183736D01*
G37*
%TD.AperFunction*%
%TA.AperFunction,SMDPad,CuDef*%
%TO.P,IC6,46*%
%TO.N,Net-(IC6-Pad46)*%
G36*
X113059608Y-99830182D02*
G01*
X114102590Y-98787200D01*
X114314722Y-98999332D01*
X113271740Y-100042314D01*
X113059608Y-99830182D01*
G37*
%TD.AperFunction*%
%TA.AperFunction,SMDPad,CuDef*%
%TO.P,IC6,45*%
%TO.N,Net-(IC6-Pad45)*%
G36*
X112706055Y-99476629D02*
G01*
X113749037Y-98433647D01*
X113961169Y-98645779D01*
X112918187Y-99688761D01*
X112706055Y-99476629D01*
G37*
%TD.AperFunction*%
%TA.AperFunction,SMDPad,CuDef*%
%TO.P,IC6,44*%
%TO.N,Corner_S*%
G36*
X112352501Y-99123076D02*
G01*
X113395483Y-98080094D01*
X113607615Y-98292226D01*
X112564633Y-99335208D01*
X112352501Y-99123076D01*
G37*
%TD.AperFunction*%
%TA.AperFunction,SMDPad,CuDef*%
%TO.P,IC6,43*%
%TO.N,USART1_RX*%
G36*
X111998948Y-98769522D02*
G01*
X113041930Y-97726540D01*
X113254062Y-97938672D01*
X112211080Y-98981654D01*
X111998948Y-98769522D01*
G37*
%TD.AperFunction*%
%TA.AperFunction,SMDPad,CuDef*%
%TO.P,IC6,42*%
%TO.N,USART1_TX*%
G36*
X111645394Y-98415969D02*
G01*
X112688376Y-97372987D01*
X112900508Y-97585119D01*
X111857526Y-98628101D01*
X111645394Y-98415969D01*
G37*
%TD.AperFunction*%
%TA.AperFunction,SMDPad,CuDef*%
%TO.P,IC6,41*%
%TO.N,in1_R*%
G36*
X111291841Y-98062415D02*
G01*
X112334823Y-97019433D01*
X112546955Y-97231565D01*
X111503973Y-98274547D01*
X111291841Y-98062415D01*
G37*
%TD.AperFunction*%
%TA.AperFunction,SMDPad,CuDef*%
%TO.P,IC6,40*%
%TO.N,in2_R*%
G36*
X110938288Y-97708862D02*
G01*
X111981270Y-96665880D01*
X112193402Y-96878012D01*
X111150420Y-97920994D01*
X110938288Y-97708862D01*
G37*
%TD.AperFunction*%
%TA.AperFunction,SMDPad,CuDef*%
%TO.P,IC6,39*%
%TO.N,pwm_R*%
G36*
X110584734Y-97355309D02*
G01*
X111627716Y-96312327D01*
X111839848Y-96524459D01*
X110796866Y-97567441D01*
X110584734Y-97355309D01*
G37*
%TD.AperFunction*%
%TA.AperFunction,SMDPad,CuDef*%
%TO.P,IC6,38*%
%TO.N,pwm_L*%
G36*
X110231181Y-97001755D02*
G01*
X111274163Y-95958773D01*
X111486295Y-96170905D01*
X110443313Y-97213887D01*
X110231181Y-97001755D01*
G37*
%TD.AperFunction*%
%TA.AperFunction,SMDPad,CuDef*%
%TO.P,IC6,37*%
%TO.N,Net-(IC6-Pad37)*%
G36*
X109877627Y-96648202D02*
G01*
X110920609Y-95605220D01*
X111132741Y-95817352D01*
X110089759Y-96860334D01*
X109877627Y-96648202D01*
G37*
%TD.AperFunction*%
%TA.AperFunction,SMDPad,CuDef*%
%TO.P,IC6,36*%
%TO.N,in2_L*%
G36*
X109524074Y-96294648D02*
G01*
X110567056Y-95251666D01*
X110779188Y-95463798D01*
X109736206Y-96506780D01*
X109524074Y-96294648D01*
G37*
%TD.AperFunction*%
%TA.AperFunction,SMDPad,CuDef*%
%TO.P,IC6,35*%
%TO.N,in1_L*%
G36*
X109170521Y-95941095D02*
G01*
X110213503Y-94898113D01*
X110425635Y-95110245D01*
X109382653Y-96153227D01*
X109170521Y-95941095D01*
G37*
%TD.AperFunction*%
%TA.AperFunction,SMDPad,CuDef*%
%TO.P,IC6,34*%
%TO.N,Net-(IC6-Pad34)*%
G36*
X108816967Y-95587542D02*
G01*
X109859949Y-94544560D01*
X110072081Y-94756692D01*
X109029099Y-95799674D01*
X108816967Y-95587542D01*
G37*
%TD.AperFunction*%
%TA.AperFunction,SMDPad,CuDef*%
%TO.P,IC6,33*%
%TO.N,Net-(IC6-Pad33)*%
G36*
X108463414Y-95233988D02*
G01*
X109506396Y-94191006D01*
X109718528Y-94403138D01*
X108675546Y-95446120D01*
X108463414Y-95233988D01*
G37*
%TD.AperFunction*%
%TA.AperFunction,SMDPad,CuDef*%
%TO.P,IC6,32*%
%TO.N,+3V3*%
G36*
X108675546Y-91379550D02*
G01*
X109718528Y-92422532D01*
X109506396Y-92634664D01*
X108463414Y-91591682D01*
X108675546Y-91379550D01*
G37*
%TD.AperFunction*%
%TA.AperFunction,SMDPad,CuDef*%
%TO.P,IC6,31*%
%TO.N,Net-(C20-Pad1)*%
G36*
X109029099Y-91025996D02*
G01*
X110072081Y-92068978D01*
X109859949Y-92281110D01*
X108816967Y-91238128D01*
X109029099Y-91025996D01*
G37*
%TD.AperFunction*%
%TA.AperFunction,SMDPad,CuDef*%
%TO.P,IC6,30*%
%TO.N,Net-(IC6-Pad30)*%
G36*
X109382653Y-90672443D02*
G01*
X110425635Y-91715425D01*
X110213503Y-91927557D01*
X109170521Y-90884575D01*
X109382653Y-90672443D01*
G37*
%TD.AperFunction*%
%TA.AperFunction,SMDPad,CuDef*%
%TO.P,IC6,29*%
%TO.N,Net-(IC6-Pad29)*%
G36*
X109736206Y-90318890D02*
G01*
X110779188Y-91361872D01*
X110567056Y-91574004D01*
X109524074Y-90531022D01*
X109736206Y-90318890D01*
G37*
%TD.AperFunction*%
%TA.AperFunction,SMDPad,CuDef*%
%TO.P,IC6,28*%
%TO.N,Net-(IC6-Pad28)*%
G36*
X110089759Y-89965336D02*
G01*
X111132741Y-91008318D01*
X110920609Y-91220450D01*
X109877627Y-90177468D01*
X110089759Y-89965336D01*
G37*
%TD.AperFunction*%
%TA.AperFunction,SMDPad,CuDef*%
%TO.P,IC6,27*%
%TO.N,Battery_AD*%
G36*
X110443313Y-89611783D02*
G01*
X111486295Y-90654765D01*
X111274163Y-90866897D01*
X110231181Y-89823915D01*
X110443313Y-89611783D01*
G37*
%TD.AperFunction*%
%TA.AperFunction,SMDPad,CuDef*%
%TO.P,IC6,26*%
%TO.N,R1_Sens*%
G36*
X110796866Y-89258229D02*
G01*
X111839848Y-90301211D01*
X111627716Y-90513343D01*
X110584734Y-89470361D01*
X110796866Y-89258229D01*
G37*
%TD.AperFunction*%
%TA.AperFunction,SMDPad,CuDef*%
%TO.P,IC6,25*%
%TO.N,R2_Sens*%
G36*
X111150420Y-88904676D02*
G01*
X112193402Y-89947658D01*
X111981270Y-90159790D01*
X110938288Y-89116808D01*
X111150420Y-88904676D01*
G37*
%TD.AperFunction*%
%TA.AperFunction,SMDPad,CuDef*%
%TO.P,IC6,24*%
%TO.N,R3_Sens*%
G36*
X111503973Y-88551123D02*
G01*
X112546955Y-89594105D01*
X112334823Y-89806237D01*
X111291841Y-88763255D01*
X111503973Y-88551123D01*
G37*
%TD.AperFunction*%
%TA.AperFunction,SMDPad,CuDef*%
%TO.P,IC6,23*%
%TO.N,R4_Sens*%
G36*
X111857526Y-88197569D02*
G01*
X112900508Y-89240551D01*
X112688376Y-89452683D01*
X111645394Y-88409701D01*
X111857526Y-88197569D01*
G37*
%TD.AperFunction*%
%TA.AperFunction,SMDPad,CuDef*%
%TO.P,IC6,22*%
%TO.N,L4_Sens*%
G36*
X112211080Y-87844016D02*
G01*
X113254062Y-88886998D01*
X113041930Y-89099130D01*
X111998948Y-88056148D01*
X112211080Y-87844016D01*
G37*
%TD.AperFunction*%
%TA.AperFunction,SMDPad,CuDef*%
%TO.P,IC6,21*%
%TO.N,L3_Sens*%
G36*
X112564633Y-87490462D02*
G01*
X113607615Y-88533444D01*
X113395483Y-88745576D01*
X112352501Y-87702594D01*
X112564633Y-87490462D01*
G37*
%TD.AperFunction*%
%TA.AperFunction,SMDPad,CuDef*%
%TO.P,IC6,20*%
%TO.N,L2_Sens*%
G36*
X112918187Y-87136909D02*
G01*
X113961169Y-88179891D01*
X113749037Y-88392023D01*
X112706055Y-87349041D01*
X112918187Y-87136909D01*
G37*
%TD.AperFunction*%
%TA.AperFunction,SMDPad,CuDef*%
%TO.P,IC6,19*%
%TO.N,+3V3*%
G36*
X113271740Y-86783356D02*
G01*
X114314722Y-87826338D01*
X114102590Y-88038470D01*
X113059608Y-86995488D01*
X113271740Y-86783356D01*
G37*
%TD.AperFunction*%
%TA.AperFunction,SMDPad,CuDef*%
%TO.P,IC6,18*%
%TO.N,GND*%
G36*
X113625293Y-86429802D02*
G01*
X114668275Y-87472784D01*
X114456143Y-87684916D01*
X113413161Y-86641934D01*
X113625293Y-86429802D01*
G37*
%TD.AperFunction*%
%TA.AperFunction,SMDPad,CuDef*%
%TO.P,IC6,17*%
%TO.N,L1_Sens*%
G36*
X113978847Y-86076249D02*
G01*
X115021829Y-87119231D01*
X114809697Y-87331363D01*
X113766715Y-86288381D01*
X113978847Y-86076249D01*
G37*
%TD.AperFunction*%
%TA.AperFunction,SMDPad,CuDef*%
%TO.P,IC6,16*%
%TO.N,C_Sens*%
G36*
X116578171Y-87119231D02*
G01*
X117621153Y-86076249D01*
X117833285Y-86288381D01*
X116790303Y-87331363D01*
X116578171Y-87119231D01*
G37*
%TD.AperFunction*%
%TA.AperFunction,SMDPad,CuDef*%
%TO.P,IC6,15*%
%TO.N,G_Sens*%
G36*
X116931725Y-87472784D02*
G01*
X117974707Y-86429802D01*
X118186839Y-86641934D01*
X117143857Y-87684916D01*
X116931725Y-87472784D01*
G37*
%TD.AperFunction*%
%TA.AperFunction,SMDPad,CuDef*%
%TO.P,IC6,14*%
%TO.N,Net-(IC6-Pad14)*%
G36*
X117285278Y-87826338D02*
G01*
X118328260Y-86783356D01*
X118540392Y-86995488D01*
X117497410Y-88038470D01*
X117285278Y-87826338D01*
G37*
%TD.AperFunction*%
%TA.AperFunction,SMDPad,CuDef*%
%TO.P,IC6,13*%
%TO.N,+3V3*%
G36*
X117638831Y-88179891D02*
G01*
X118681813Y-87136909D01*
X118893945Y-87349041D01*
X117850963Y-88392023D01*
X117638831Y-88179891D01*
G37*
%TD.AperFunction*%
%TA.AperFunction,SMDPad,CuDef*%
%TO.P,IC6,12*%
%TO.N,GND*%
G36*
X117992385Y-88533444D02*
G01*
X119035367Y-87490462D01*
X119247499Y-87702594D01*
X118204517Y-88745576D01*
X117992385Y-88533444D01*
G37*
%TD.AperFunction*%
%TA.AperFunction,SMDPad,CuDef*%
%TO.P,IC6,11*%
%TO.N,LED4*%
G36*
X118345938Y-88886998D02*
G01*
X119388920Y-87844016D01*
X119601052Y-88056148D01*
X118558070Y-89099130D01*
X118345938Y-88886998D01*
G37*
%TD.AperFunction*%
%TA.AperFunction,SMDPad,CuDef*%
%TO.P,IC6,10*%
%TO.N,LED3*%
G36*
X118699492Y-89240551D02*
G01*
X119742474Y-88197569D01*
X119954606Y-88409701D01*
X118911624Y-89452683D01*
X118699492Y-89240551D01*
G37*
%TD.AperFunction*%
%TA.AperFunction,SMDPad,CuDef*%
%TO.P,IC6,9*%
%TO.N,LED2*%
G36*
X119053045Y-89594105D02*
G01*
X120096027Y-88551123D01*
X120308159Y-88763255D01*
X119265177Y-89806237D01*
X119053045Y-89594105D01*
G37*
%TD.AperFunction*%
%TA.AperFunction,SMDPad,CuDef*%
%TO.P,IC6,8*%
%TO.N,LED1*%
G36*
X119406598Y-89947658D02*
G01*
X120449580Y-88904676D01*
X120661712Y-89116808D01*
X119618730Y-90159790D01*
X119406598Y-89947658D01*
G37*
%TD.AperFunction*%
%TA.AperFunction,SMDPad,CuDef*%
%TO.P,IC6,7*%
%TO.N,Net-(C16-Pad1)*%
G36*
X119760152Y-90301211D02*
G01*
X120803134Y-89258229D01*
X121015266Y-89470361D01*
X119972284Y-90513343D01*
X119760152Y-90301211D01*
G37*
%TD.AperFunction*%
%TA.AperFunction,SMDPad,CuDef*%
%TO.P,IC6,6*%
%TO.N,Net-(IC6-Pad6)*%
G36*
X120113705Y-90654765D02*
G01*
X121156687Y-89611783D01*
X121368819Y-89823915D01*
X120325837Y-90866897D01*
X120113705Y-90654765D01*
G37*
%TD.AperFunction*%
%TA.AperFunction,SMDPad,CuDef*%
%TO.P,IC6,5*%
%TO.N,Net-(IC6-Pad5)*%
G36*
X120467259Y-91008318D02*
G01*
X121510241Y-89965336D01*
X121722373Y-90177468D01*
X120679391Y-91220450D01*
X120467259Y-91008318D01*
G37*
%TD.AperFunction*%
%TA.AperFunction,SMDPad,CuDef*%
%TO.P,IC6,4*%
%TO.N,Line_S*%
G36*
X120820812Y-91361872D02*
G01*
X121863794Y-90318890D01*
X122075926Y-90531022D01*
X121032944Y-91574004D01*
X120820812Y-91361872D01*
G37*
%TD.AperFunction*%
%TA.AperFunction,SMDPad,CuDef*%
%TO.P,IC6,3*%
%TO.N,Goal_S*%
G36*
X121174365Y-91715425D02*
G01*
X122217347Y-90672443D01*
X122429479Y-90884575D01*
X121386497Y-91927557D01*
X121174365Y-91715425D01*
G37*
%TD.AperFunction*%
%TA.AperFunction,SMDPad,CuDef*%
%TO.P,IC6,2*%
%TO.N,Net-(IC6-Pad2)*%
G36*
X121527919Y-92068978D02*
G01*
X122570901Y-91025996D01*
X122783033Y-91238128D01*
X121740051Y-92281110D01*
X121527919Y-92068978D01*
G37*
%TD.AperFunction*%
%TA.AperFunction,SMDPad,CuDef*%
%TO.P,IC6,1*%
%TO.N,+3V3*%
G36*
X121881472Y-92422532D02*
G01*
X122924454Y-91379550D01*
X123136586Y-91591682D01*
X122093604Y-92634664D01*
X121881472Y-92422532D01*
G37*
%TD.AperFunction*%
%TD*%
D30*
%TO.P,S5,2*%
%TO.N,Net-(C16-Pad1)*%
X136525000Y-92875000D03*
X136525000Y-88725000D03*
%TO.P,S5,1*%
%TO.N,GND*%
X138675000Y-92875000D03*
X138675000Y-88725000D03*
%TD*%
D22*
%TO.P,J2,6*%
%TO.N,outA_R*%
X143440000Y-95380000D03*
%TO.P,J2,5*%
%TO.N,outB_R*%
X140900000Y-95380000D03*
%TO.P,J2,4*%
%TO.N,+5V*%
X143440000Y-92840000D03*
%TO.P,J2,3*%
%TO.N,GND*%
X140900000Y-92840000D03*
%TO.P,J2,2*%
%TO.N,M2_R*%
X143440000Y-90300000D03*
D23*
%TO.P,J2,1*%
%TO.N,M1_R*%
X140900000Y-90300000D03*
%TD*%
%TO.P,D3,2*%
%TO.N,+3V3*%
%TA.AperFunction,SMDPad,CuDef*%
G36*
G01*
X145856250Y-75812500D02*
X144943750Y-75812500D01*
G75*
G02*
X144700000Y-75568750I0J243750D01*
G01*
X144700000Y-75081250D01*
G75*
G02*
X144943750Y-74837500I243750J0D01*
G01*
X145856250Y-74837500D01*
G75*
G02*
X146100000Y-75081250I0J-243750D01*
G01*
X146100000Y-75568750D01*
G75*
G02*
X145856250Y-75812500I-243750J0D01*
G01*
G37*
%TD.AperFunction*%
%TO.P,D3,1*%
%TO.N,Net-(D3-Pad1)*%
%TA.AperFunction,SMDPad,CuDef*%
G36*
G01*
X145856250Y-77687500D02*
X144943750Y-77687500D01*
G75*
G02*
X144700000Y-77443750I0J243750D01*
G01*
X144700000Y-76956250D01*
G75*
G02*
X144943750Y-76712500I243750J0D01*
G01*
X145856250Y-76712500D01*
G75*
G02*
X146100000Y-76956250I0J-243750D01*
G01*
X146100000Y-77443750D01*
G75*
G02*
X145856250Y-77687500I-243750J0D01*
G01*
G37*
%TD.AperFunction*%
%TD*%
D17*
%TO.P,C10,2*%
%TO.N,GND*%
X112300000Y-81440000D03*
%TO.P,C10,1*%
%TO.N,+3V3*%
X112300000Y-84200000D03*
%TD*%
D15*
%TO.P,IC3,3*%
%TO.N,GND*%
X95400000Y-77600000D03*
D31*
%TO.P,IC3,2*%
%TO.N,+5V*%
X97700000Y-83850000D03*
%TO.P,IC3,1*%
%TO.N,+12V*%
X93100000Y-83850000D03*
%TD*%
%TO.P,D2,2*%
%TO.N,+3V3*%
%TA.AperFunction,SMDPad,CuDef*%
G36*
G01*
X147856250Y-75787500D02*
X146943750Y-75787500D01*
G75*
G02*
X146700000Y-75543750I0J243750D01*
G01*
X146700000Y-75056250D01*
G75*
G02*
X146943750Y-74812500I243750J0D01*
G01*
X147856250Y-74812500D01*
G75*
G02*
X148100000Y-75056250I0J-243750D01*
G01*
X148100000Y-75543750D01*
G75*
G02*
X147856250Y-75787500I-243750J0D01*
G01*
G37*
%TD.AperFunction*%
%TO.P,D2,1*%
%TO.N,Net-(D2-Pad1)*%
%TA.AperFunction,SMDPad,CuDef*%
G36*
G01*
X147856250Y-77662500D02*
X146943750Y-77662500D01*
G75*
G02*
X146700000Y-77418750I0J243750D01*
G01*
X146700000Y-76931250D01*
G75*
G02*
X146943750Y-76687500I243750J0D01*
G01*
X147856250Y-76687500D01*
G75*
G02*
X148100000Y-76931250I0J-243750D01*
G01*
X148100000Y-77418750D01*
G75*
G02*
X147856250Y-77662500I-243750J0D01*
G01*
G37*
%TD.AperFunction*%
%TD*%
D22*
%TO.P,J6,4*%
%TO.N,USART1_TX*%
X90600000Y-75520000D03*
%TO.P,J6,3*%
%TO.N,USART1_RX*%
X90600000Y-78060000D03*
%TO.P,J6,2*%
%TO.N,GND*%
X90600000Y-80600000D03*
D23*
%TO.P,J6,1*%
%TO.N,+5V*%
X90600000Y-83140000D03*
%TD*%
%TO.P,D4,2*%
%TO.N,+3V3*%
%TA.AperFunction,SMDPad,CuDef*%
G36*
G01*
X143856250Y-75787500D02*
X142943750Y-75787500D01*
G75*
G02*
X142700000Y-75543750I0J243750D01*
G01*
X142700000Y-75056250D01*
G75*
G02*
X142943750Y-74812500I243750J0D01*
G01*
X143856250Y-74812500D01*
G75*
G02*
X144100000Y-75056250I0J-243750D01*
G01*
X144100000Y-75543750D01*
G75*
G02*
X143856250Y-75787500I-243750J0D01*
G01*
G37*
%TD.AperFunction*%
%TO.P,D4,1*%
%TO.N,Net-(D4-Pad1)*%
%TA.AperFunction,SMDPad,CuDef*%
G36*
G01*
X143856250Y-77662500D02*
X142943750Y-77662500D01*
G75*
G02*
X142700000Y-77418750I0J243750D01*
G01*
X142700000Y-76931250D01*
G75*
G02*
X142943750Y-76687500I243750J0D01*
G01*
X143856250Y-76687500D01*
G75*
G02*
X144100000Y-76931250I0J-243750D01*
G01*
X144100000Y-77418750D01*
G75*
G02*
X143856250Y-77662500I-243750J0D01*
G01*
G37*
%TD.AperFunction*%
%TD*%
D15*
%TO.P,IC4,3*%
%TO.N,GND*%
X106100000Y-77600000D03*
D31*
%TO.P,IC4,2*%
%TO.N,+3V3*%
X108400000Y-83850000D03*
%TO.P,IC4,1*%
%TO.N,+5V*%
X103800000Y-83850000D03*
%TD*%
%TO.P,D5,2*%
%TO.N,+3V3*%
%TA.AperFunction,SMDPad,CuDef*%
G36*
G01*
X141856250Y-75787500D02*
X140943750Y-75787500D01*
G75*
G02*
X140700000Y-75543750I0J243750D01*
G01*
X140700000Y-75056250D01*
G75*
G02*
X140943750Y-74812500I243750J0D01*
G01*
X141856250Y-74812500D01*
G75*
G02*
X142100000Y-75056250I0J-243750D01*
G01*
X142100000Y-75543750D01*
G75*
G02*
X141856250Y-75787500I-243750J0D01*
G01*
G37*
%TD.AperFunction*%
%TO.P,D5,1*%
%TO.N,Net-(D5-Pad1)*%
%TA.AperFunction,SMDPad,CuDef*%
G36*
G01*
X141856250Y-77662500D02*
X140943750Y-77662500D01*
G75*
G02*
X140700000Y-77418750I0J243750D01*
G01*
X140700000Y-76931250D01*
G75*
G02*
X140943750Y-76687500I243750J0D01*
G01*
X141856250Y-76687500D01*
G75*
G02*
X142100000Y-76931250I0J-243750D01*
G01*
X142100000Y-77418750D01*
G75*
G02*
X141856250Y-77662500I-243750J0D01*
G01*
G37*
%TD.AperFunction*%
%TD*%
D17*
%TO.P,C8,2*%
%TO.N,GND*%
X101500000Y-81640000D03*
%TO.P,C8,1*%
%TO.N,+5V*%
X101500000Y-84400000D03*
%TD*%
D32*
%TO.P,LS1,2*%
%TO.N,Net-(LS1-Pad2)*%
X130000000Y-80300000D03*
%TO.P,LS1,1*%
%TO.N,+5V*%
X135000000Y-80300000D03*
%TD*%
D10*
%TO.P,R3,2*%
%TO.N,GND*%
X96400000Y-94260000D03*
%TO.P,R3,1*%
%TO.N,Battery_AD*%
X96400000Y-96140000D03*
%TD*%
D25*
%TO.P,R5,2*%
%TO.N,GND*%
X142360000Y-112100000D03*
%TO.P,R5,1*%
%TO.N,Switch1*%
X144240000Y-112100000D03*
%TD*%
D10*
%TO.P,R1,2*%
%TO.N,Net-(IC2-Pad1)*%
X96700000Y-119200000D03*
%TO.P,R1,1*%
%TO.N,Net-(IC2-Pad2)*%
X96700000Y-121080000D03*
%TD*%
%TA.AperFunction,SMDPad,CuDef*%
D13*
%TO.P,R43,2*%
%TO.N,GND*%
G36*
X105118612Y-87841941D02*
G01*
X106158059Y-88881388D01*
X105422668Y-89616779D01*
X104383221Y-88577332D01*
X105118612Y-87841941D01*
G37*
%TD.AperFunction*%
%TA.AperFunction,SMDPad,CuDef*%
%TO.P,R43,1*%
%TO.N,Net-(IC6-Pad28)*%
G36*
X106447972Y-86512581D02*
G01*
X107487419Y-87552028D01*
X106752028Y-88287419D01*
X105712581Y-87247972D01*
X106447972Y-86512581D01*
G37*
%TD.AperFunction*%
%TD*%
D25*
%TO.P,R40,2*%
%TO.N,Net-(Q4-Pad1)*%
X124520000Y-72300000D03*
%TO.P,R40,1*%
%TO.N,Line_S*%
X126400000Y-72300000D03*
%TD*%
D10*
%TO.P,R9,2*%
%TO.N,Net-(Q1-Pad1)*%
X124000000Y-81020000D03*
%TO.P,R9,1*%
%TO.N,BUZZER*%
X124000000Y-82900000D03*
%TD*%
%TA.AperFunction,SMDPad,CuDef*%
D13*
%TO.P,R39,2*%
%TO.N,Net-(Q3-Pad1)*%
G36*
X79907306Y-73665428D02*
G01*
X79172306Y-74938486D01*
X78271640Y-74418486D01*
X79006640Y-73145428D01*
X79907306Y-73665428D01*
G37*
%TD.AperFunction*%
%TA.AperFunction,SMDPad,CuDef*%
%TO.P,R39,1*%
%TO.N,Corner_S*%
G36*
X81535434Y-74605428D02*
G01*
X80800434Y-75878486D01*
X79899768Y-75358486D01*
X80634768Y-74085428D01*
X81535434Y-74605428D01*
G37*
%TD.AperFunction*%
%TD*%
D10*
%TO.P,R36,2*%
%TO.N,LED4*%
X141400000Y-84100000D03*
%TO.P,R36,1*%
%TO.N,Net-(D5-Pad1)*%
X141400000Y-82220000D03*
%TD*%
%TO.P,R35,2*%
%TO.N,LED3*%
X143400000Y-84100000D03*
%TO.P,R35,1*%
%TO.N,Net-(D4-Pad1)*%
X143400000Y-82220000D03*
%TD*%
%TO.P,R34,2*%
%TO.N,LED2*%
X145400000Y-84100000D03*
%TO.P,R34,1*%
%TO.N,Net-(D3-Pad1)*%
X145400000Y-82220000D03*
%TD*%
%TA.AperFunction,SMDPad,CuDef*%
D13*
%TO.P,R12,2*%
%TO.N,GND*%
G36*
X153054705Y-75103471D02*
G01*
X153789705Y-76376529D01*
X152889039Y-76896529D01*
X152154039Y-75623471D01*
X153054705Y-75103471D01*
G37*
%TD.AperFunction*%
%TA.AperFunction,SMDPad,CuDef*%
%TO.P,R12,1*%
%TO.N,G_Sens*%
G36*
X154682833Y-74163471D02*
G01*
X155417833Y-75436529D01*
X154517167Y-75956529D01*
X153782167Y-74683471D01*
X154682833Y-74163471D01*
G37*
%TD.AperFunction*%
%TD*%
%TA.AperFunction,SMDPad,CuDef*%
%TO.P,R37,2*%
%TO.N,Net-(Q2-Pad1)*%
G36*
X153517167Y-74196529D02*
G01*
X152782167Y-72923471D01*
X153682833Y-72403471D01*
X154417833Y-73676529D01*
X153517167Y-74196529D01*
G37*
%TD.AperFunction*%
%TA.AperFunction,SMDPad,CuDef*%
%TO.P,R37,1*%
%TO.N,Goal_S*%
G36*
X151889039Y-75136529D02*
G01*
X151154039Y-73863471D01*
X152054705Y-73343471D01*
X152789705Y-74616529D01*
X151889039Y-75136529D01*
G37*
%TD.AperFunction*%
%TD*%
D10*
%TO.P,R11,2*%
%TO.N,Net-(IC10-Pad1)*%
X54800000Y-70220000D03*
%TO.P,R11,1*%
%TO.N,+3V3*%
X54800000Y-72100000D03*
%TD*%
%TO.P,R2,1*%
%TO.N,+12V*%
X94300000Y-94260000D03*
%TO.P,R2,2*%
%TO.N,Battery_AD*%
X94300000Y-96140000D03*
%TD*%
%TA.AperFunction,SMDPad,CuDef*%
D13*
%TO.P,R41,2*%
%TO.N,Net-(Q3-Pad1)*%
G36*
X78889705Y-75383471D02*
G01*
X78154705Y-76656529D01*
X77254039Y-76136529D01*
X77989039Y-74863471D01*
X78889705Y-75383471D01*
G37*
%TD.AperFunction*%
%TA.AperFunction,SMDPad,CuDef*%
%TO.P,R41,1*%
%TO.N,GND*%
G36*
X80517833Y-76323471D02*
G01*
X79782833Y-77596529D01*
X78882167Y-77076529D01*
X79617167Y-75803471D01*
X80517833Y-76323471D01*
G37*
%TD.AperFunction*%
%TD*%
D10*
%TO.P,R10,2*%
%TO.N,Net-(Q1-Pad1)*%
X126000000Y-81000000D03*
%TO.P,R10,1*%
%TO.N,GND*%
X126000000Y-82880000D03*
%TD*%
%TA.AperFunction,SMDPad,CuDef*%
D13*
%TO.P,C21,2*%
%TO.N,GND*%
G36*
X106232825Y-89602495D02*
G01*
X106897505Y-90267175D01*
X106367175Y-90797505D01*
X105702495Y-90132825D01*
X106232825Y-89602495D01*
G37*
%TD.AperFunction*%
%TA.AperFunction,SMDPad,CuDef*%
%TO.P,C21,1*%
%TO.N,+3V3*%
G36*
X107222775Y-88612545D02*
G01*
X107887455Y-89277225D01*
X107357125Y-89807555D01*
X106692445Y-89142875D01*
X107222775Y-88612545D01*
G37*
%TD.AperFunction*%
%TD*%
%TA.AperFunction,SMDPad,CuDef*%
%TO.P,C20,2*%
%TO.N,GND*%
G36*
X107242875Y-90592445D02*
G01*
X107907555Y-91257125D01*
X107377225Y-91787455D01*
X106712545Y-91122775D01*
X107242875Y-90592445D01*
G37*
%TD.AperFunction*%
%TA.AperFunction,SMDPad,CuDef*%
%TO.P,C20,1*%
%TO.N,Net-(C20-Pad1)*%
G36*
X108232825Y-89602495D02*
G01*
X108897505Y-90267175D01*
X108367175Y-90797505D01*
X107702495Y-90132825D01*
X108232825Y-89602495D01*
G37*
%TD.AperFunction*%
%TD*%
%TA.AperFunction,SMDPad,CuDef*%
%TO.P,C19,2*%
%TO.N,GND*%
G36*
X111237850Y-86497470D02*
G01*
X111902530Y-87162150D01*
X111372200Y-87692480D01*
X110707520Y-87027800D01*
X111237850Y-86497470D01*
G37*
%TD.AperFunction*%
%TA.AperFunction,SMDPad,CuDef*%
%TO.P,C19,1*%
%TO.N,+3V3*%
G36*
X112227800Y-85507520D02*
G01*
X112892480Y-86172200D01*
X112362150Y-86702530D01*
X111697470Y-86037850D01*
X112227800Y-85507520D01*
G37*
%TD.AperFunction*%
%TD*%
%TA.AperFunction,SMDPad,CuDef*%
%TO.P,C18,2*%
%TO.N,GND*%
G36*
X119092445Y-86657125D02*
G01*
X119757125Y-85992445D01*
X120287455Y-86522775D01*
X119622775Y-87187455D01*
X119092445Y-86657125D01*
G37*
%TD.AperFunction*%
%TA.AperFunction,SMDPad,CuDef*%
%TO.P,C18,1*%
%TO.N,+3V3*%
G36*
X118102495Y-85667175D02*
G01*
X118767175Y-85002495D01*
X119297505Y-85532825D01*
X118632825Y-86197505D01*
X118102495Y-85667175D01*
G37*
%TD.AperFunction*%
%TD*%
%TA.AperFunction,SMDPad,CuDef*%
%TO.P,C17,2*%
%TO.N,GND*%
G36*
X120092445Y-85757125D02*
G01*
X120757125Y-85092445D01*
X121287455Y-85622775D01*
X120622775Y-86287455D01*
X120092445Y-85757125D01*
G37*
%TD.AperFunction*%
%TA.AperFunction,SMDPad,CuDef*%
%TO.P,C17,1*%
%TO.N,+3V3*%
G36*
X119102495Y-84767175D02*
G01*
X119767175Y-84102495D01*
X120297505Y-84632825D01*
X119632825Y-85297505D01*
X119102495Y-84767175D01*
G37*
%TD.AperFunction*%
%TD*%
D33*
%TO.P,IC1,24*%
%TO.N,+12V*%
X119475000Y-121462000D03*
%TO.P,IC1,23*%
%TO.N,in1_R*%
X118825000Y-121462000D03*
%TO.P,IC1,22*%
%TO.N,in2_R*%
X118175000Y-121462000D03*
%TO.P,IC1,21*%
%TO.N,pwm_R*%
X117525000Y-121462000D03*
%TO.P,IC1,20*%
%TO.N,+3V3*%
X116875000Y-121462000D03*
%TO.P,IC1,19*%
X116225000Y-121462000D03*
%TO.P,IC1,18*%
%TO.N,GND*%
X115575000Y-121462000D03*
%TO.P,IC1,17*%
%TO.N,pwm_L*%
X114925000Y-121462000D03*
%TO.P,IC1,16*%
%TO.N,in2_L*%
X114275000Y-121462000D03*
%TO.P,IC1,15*%
%TO.N,in1_L*%
X113625000Y-121462000D03*
%TO.P,IC1,14*%
%TO.N,+12V*%
X112975000Y-121462000D03*
%TO.P,IC1,13*%
X112325000Y-121462000D03*
%TO.P,IC1,12*%
%TO.N,M2_L*%
X112325000Y-114338000D03*
%TO.P,IC1,11*%
X112975000Y-114338000D03*
%TO.P,IC1,10*%
%TO.N,GND*%
X113625000Y-114338000D03*
%TO.P,IC1,9*%
X114275000Y-114338000D03*
%TO.P,IC1,8*%
%TO.N,M1_L*%
X114925000Y-114338000D03*
%TO.P,IC1,7*%
X115575000Y-114338000D03*
%TO.P,IC1,6*%
%TO.N,M2_R*%
X116225000Y-114338000D03*
%TO.P,IC1,5*%
X116875000Y-114338000D03*
%TO.P,IC1,4*%
%TO.N,GND*%
X117525000Y-114338000D03*
%TO.P,IC1,3*%
X118175000Y-114338000D03*
%TO.P,IC1,2*%
%TO.N,M1_R*%
X118825000Y-114338000D03*
%TO.P,IC1,1*%
X119475000Y-114338000D03*
%TD*%
D34*
%TO.P,C26,2*%
%TO.N,GND*%
X116600000Y-109600000D03*
%TO.P,C26,1*%
%TO.N,+3V3*%
X115200000Y-109600000D03*
%TD*%
%TO.P,C25,1*%
%TO.N,GND*%
X115600000Y-103200000D03*
%TO.P,C25,2*%
%TO.N,+3V3*%
X114200000Y-103200000D03*
%TD*%
D22*
%TO.P,J3,6*%
%TO.N,M1_L*%
X91440000Y-95180000D03*
%TO.P,J3,5*%
%TO.N,M2_L*%
X88900000Y-95180000D03*
%TO.P,J3,4*%
%TO.N,GND*%
X91440000Y-92640000D03*
%TO.P,J3,3*%
%TO.N,+5V*%
X88900000Y-92640000D03*
%TO.P,J3,2*%
%TO.N,outA_L*%
X91440000Y-90100000D03*
D23*
%TO.P,J3,1*%
%TO.N,outB_L*%
X88900000Y-90100000D03*
%TD*%
D18*
%TO.P,C3,2*%
%TO.N,GND*%
X122300000Y-121800000D03*
%TO.P,C3,1*%
%TO.N,+3V3*%
X122300000Y-123200000D03*
%TD*%
%TO.P,C15,2*%
%TO.N,GND*%
X108900000Y-115300000D03*
%TO.P,C15,1*%
%TO.N,+12V*%
X108900000Y-116700000D03*
%TD*%
%TO.P,C6,2*%
%TO.N,GND*%
X110500000Y-115300000D03*
%TO.P,C6,1*%
%TO.N,+12V*%
X110500000Y-116700000D03*
%TD*%
%TA.AperFunction,SMDPad,CuDef*%
D13*
%TO.P,C12,2*%
%TO.N,GND*%
G36*
X123605139Y-95661814D02*
G01*
X124269819Y-96326494D01*
X123739489Y-96856824D01*
X123074809Y-96192144D01*
X123605139Y-95661814D01*
G37*
%TD.AperFunction*%
%TA.AperFunction,SMDPad,CuDef*%
%TO.P,C12,1*%
%TO.N,+3V3*%
G36*
X124595089Y-94671864D02*
G01*
X125259769Y-95336544D01*
X124729439Y-95866874D01*
X124064759Y-95202194D01*
X124595089Y-94671864D01*
G37*
%TD.AperFunction*%
%TD*%
%TA.AperFunction,SMDPad,CuDef*%
%TO.P,C11,2*%
%TO.N,GND*%
G36*
X124595088Y-96651764D02*
G01*
X125259768Y-97316444D01*
X124729438Y-97846774D01*
X124064758Y-97182094D01*
X124595088Y-96651764D01*
G37*
%TD.AperFunction*%
%TA.AperFunction,SMDPad,CuDef*%
%TO.P,C11,1*%
%TO.N,+3V3*%
G36*
X125585038Y-95661814D02*
G01*
X126249718Y-96326494D01*
X125719388Y-96856824D01*
X125054708Y-96192144D01*
X125585038Y-95661814D01*
G37*
%TD.AperFunction*%
%TD*%
D18*
%TO.P,C4,2*%
%TO.N,GND*%
X123800000Y-121800000D03*
%TO.P,C4,1*%
%TO.N,+3V3*%
X123800000Y-123200000D03*
%TD*%
%TO.P,C5,2*%
%TO.N,GND*%
X112500000Y-108100000D03*
%TO.P,C5,1*%
%TO.N,Net-(C5-Pad1)*%
X112500000Y-106700000D03*
%TD*%
%TA.AperFunction,SMDPad,CuDef*%
D13*
%TO.P,C14,1*%
%TO.N,Net-(C14-Pad1)*%
G36*
X112238186Y-102885038D02*
G01*
X111573506Y-103549718D01*
X111043176Y-103019388D01*
X111707856Y-102354708D01*
X112238186Y-102885038D01*
G37*
%TD.AperFunction*%
%TA.AperFunction,SMDPad,CuDef*%
%TO.P,C14,2*%
%TO.N,GND*%
G36*
X111248236Y-101895088D02*
G01*
X110583556Y-102559768D01*
X110053226Y-102029438D01*
X110717906Y-101364758D01*
X111248236Y-101895088D01*
G37*
%TD.AperFunction*%
%TD*%
D18*
%TO.P,C7,2*%
%TO.N,GND*%
X99600000Y-83000000D03*
%TO.P,C7,1*%
%TO.N,+5V*%
X99600000Y-84400000D03*
%TD*%
%TO.P,C16,2*%
%TO.N,GND*%
X135300000Y-89800000D03*
%TO.P,C16,1*%
%TO.N,Net-(C16-Pad1)*%
X135300000Y-88400000D03*
%TD*%
%TO.P,C2,2*%
%TO.N,GND*%
X90200000Y-87400000D03*
%TO.P,C2,1*%
%TO.N,+12V*%
X90200000Y-86000000D03*
%TD*%
%TO.P,C9,2*%
%TO.N,GND*%
X110400000Y-82800000D03*
%TO.P,C9,1*%
%TO.N,+3V3*%
X110400000Y-84200000D03*
%TD*%
D35*
%TO.P,IC2,1*%
%TO.N,Net-(IC2-Pad1)*%
X98660000Y-119500000D03*
X99930000Y-119500000D03*
X101200000Y-119500000D03*
%TO.P,IC2,2*%
%TO.N,Net-(IC2-Pad2)*%
X102470000Y-119500000D03*
%TO.P,IC2,3*%
%TO.N,+12V*%
X102470000Y-114076000D03*
X101200000Y-114076000D03*
X99930000Y-114076000D03*
X98660000Y-114076000D03*
%TD*%
D36*
%TO.P,S1,6*%
%TO.N,GND*%
X88500000Y-122800000D03*
%TO.P,S1,5*%
X88500000Y-119600000D03*
%TO.P,S1,4*%
%TO.N,Net-(IC2-Pad2)*%
X91000000Y-122800000D03*
%TO.P,S1,3*%
X91000000Y-119600000D03*
%TO.P,S1,2*%
%TO.N,Net-(S1-Pad1)*%
X93500000Y-122800000D03*
D37*
%TO.P,S1,1*%
X93500000Y-119600000D03*
%TD*%
%TA.AperFunction,SMDPad,CuDef*%
D13*
%TO.P,C13,1*%
%TO.N,+3V3*%
G36*
X113228136Y-101895089D02*
G01*
X112563456Y-102559769D01*
X112033126Y-102029439D01*
X112697806Y-101364759D01*
X113228136Y-101895089D01*
G37*
%TD.AperFunction*%
%TA.AperFunction,SMDPad,CuDef*%
%TO.P,C13,2*%
%TO.N,GND*%
G36*
X112238186Y-100905139D02*
G01*
X111573506Y-101569819D01*
X111043176Y-101039489D01*
X111707856Y-100374809D01*
X112238186Y-100905139D01*
G37*
%TD.AperFunction*%
%TD*%
D11*
%TO.P,J4,MP2*%
%TO.N,Net-(J4-PadMP2)*%
X112360000Y-69800000D03*
%TO.P,J4,MP1*%
%TO.N,Net-(J4-PadMP1)*%
X119440000Y-69800000D03*
D12*
%TO.P,J4,12*%
%TO.N,Net-(J4-Pad11)*%
X113150000Y-72450000D03*
%TO.P,J4,11*%
X113650000Y-72450000D03*
%TO.P,J4,10*%
%TO.N,L1_Sens*%
X114150000Y-72450000D03*
%TO.P,J4,9*%
%TO.N,L2_Sens*%
X114650000Y-72450000D03*
%TO.P,J4,8*%
%TO.N,L3_Sens*%
X115150000Y-72450000D03*
%TO.P,J4,7*%
%TO.N,L4_Sens*%
X115650000Y-72450000D03*
%TO.P,J4,6*%
%TO.N,R4_Sens*%
X116150000Y-72450000D03*
%TO.P,J4,5*%
%TO.N,R3_Sens*%
X116650000Y-72450000D03*
%TO.P,J4,4*%
%TO.N,R2_Sens*%
X117150000Y-72450000D03*
%TO.P,J4,3*%
%TO.N,R1_Sens*%
X117650000Y-72450000D03*
%TO.P,J4,2*%
%TO.N,+3V3*%
X118150000Y-72450000D03*
%TO.P,J4,1*%
X118650000Y-72450000D03*
%TD*%
%TA.AperFunction,SMDPad,CuDef*%
D13*
%TO.P,Q3,1*%
%TO.N,Net-(Q3-Pad1)*%
G36*
X76812917Y-73465192D02*
G01*
X76512917Y-73984808D01*
X75387083Y-73334808D01*
X75687083Y-72815192D01*
X76812917Y-73465192D01*
G37*
%TD.AperFunction*%
%TA.AperFunction,SMDPad,CuDef*%
%TO.P,Q3,2*%
%TO.N,GND*%
G36*
X77762917Y-71819744D02*
G01*
X77462917Y-72339360D01*
X76337083Y-71689360D01*
X76637083Y-71169744D01*
X77762917Y-71819744D01*
G37*
%TD.AperFunction*%
%TA.AperFunction,SMDPad,CuDef*%
%TO.P,Q3,3*%
%TO.N,Net-(IC10-Pad2)*%
G36*
X75469263Y-71592468D02*
G01*
X75169263Y-72112084D01*
X74043429Y-71462084D01*
X74343429Y-70942468D01*
X75469263Y-71592468D01*
G37*
%TD.AperFunction*%
%TD*%
D38*
%TO.P,Q1,1*%
%TO.N,Net-(Q1-Pad1)*%
X123950000Y-78650000D03*
%TO.P,Q1,2*%
%TO.N,GND*%
X125850000Y-78650000D03*
%TO.P,Q1,3*%
%TO.N,Net-(LS1-Pad2)*%
X124900000Y-76550000D03*
%TD*%
D39*
%TO.P,C1,2*%
%TO.N,GND*%
X83900000Y-79500000D03*
D40*
%TO.P,C1,1*%
%TO.N,+12V*%
X83900000Y-84500000D03*
%TD*%
%TA.AperFunction,SMDPad,CuDef*%
D13*
%TO.P,Q2,1*%
%TO.N,Net-(Q2-Pad1)*%
G36*
X155418429Y-71587084D02*
G01*
X155118429Y-71067468D01*
X156244263Y-70417468D01*
X156544263Y-70937084D01*
X155418429Y-71587084D01*
G37*
%TD.AperFunction*%
%TA.AperFunction,SMDPad,CuDef*%
%TO.P,Q2,2*%
%TO.N,GND*%
G36*
X156368429Y-73232532D02*
G01*
X156068429Y-72712916D01*
X157194263Y-72062916D01*
X157494263Y-72582532D01*
X156368429Y-73232532D01*
G37*
%TD.AperFunction*%
%TA.AperFunction,SMDPad,CuDef*%
%TO.P,Q2,3*%
%TO.N,Net-(IC7-Pad2)*%
G36*
X157712083Y-71359808D02*
G01*
X157412083Y-70840192D01*
X158537917Y-70190192D01*
X158837917Y-70709808D01*
X157712083Y-71359808D01*
G37*
%TD.AperFunction*%
%TD*%
D38*
%TO.P,Q4,1*%
%TO.N,Net-(Q4-Pad1)*%
X122750000Y-70250000D03*
%TO.P,Q4,2*%
%TO.N,GND*%
X120850000Y-70250000D03*
%TO.P,Q4,3*%
%TO.N,Net-(J4-Pad11)*%
X121800000Y-72350000D03*
%TD*%
D41*
%TO.N,GND*%
X115900000Y-106300000D03*
D42*
X142400000Y-113600000D03*
X80670633Y-77367196D03*
D41*
X116800000Y-103200000D03*
X123800000Y-120700000D03*
X113800000Y-108100000D03*
D42*
X109900000Y-102700000D03*
X110700000Y-87700000D03*
X137600000Y-113600000D03*
X82770633Y-73967196D03*
X78070633Y-72367196D03*
D41*
X122300000Y-120700000D03*
X114400000Y-123300000D03*
D42*
X115000000Y-88000000D03*
X125700000Y-98400000D03*
X110400000Y-81800000D03*
X99600000Y-81900000D03*
X139600000Y-88600000D03*
D41*
X117900000Y-115600000D03*
X108900000Y-114100000D03*
D42*
X113900000Y-81500000D03*
X105500000Y-91000000D03*
X106600000Y-92000000D03*
D41*
X91700000Y-87400000D03*
D42*
X122700000Y-85800000D03*
D41*
X110500000Y-114100000D03*
D42*
X125900000Y-79800000D03*
X150041867Y-73056250D03*
X126400000Y-68900000D03*
X155600000Y-73300000D03*
X151900000Y-76600000D03*
D41*
X114000000Y-115600000D03*
D42*
X104300000Y-89700000D03*
D41*
X117700000Y-109600000D03*
D42*
X101500000Y-80600000D03*
D41*
X96400000Y-92900000D03*
D42*
X135300000Y-90900000D03*
X126000000Y-84200000D03*
X120800000Y-68700000D03*
D41*
X95100000Y-122900000D03*
D43*
X95300000Y-77600000D03*
X106100000Y-77600000D03*
D42*
%TO.N,Battery_AD*%
X106600000Y-94490996D03*
X111300000Y-91900000D03*
%TO.N,+5V*%
X138200000Y-85900000D03*
D41*
X112900000Y-74700000D03*
D42*
%TO.N,pwm_R*%
X117500000Y-119900000D03*
X106000000Y-108400000D03*
%TO.N,in2_R*%
X118200000Y-119000000D03*
X106700000Y-109200000D03*
%TO.N,in1_R*%
X118750001Y-119916586D03*
X107400000Y-109875980D03*
%TO.N,+3V3*%
X125800000Y-114100000D03*
D41*
X167000000Y-72100000D03*
D42*
X144500000Y-97700000D03*
X124424527Y-92320769D03*
X69800000Y-73500000D03*
X124700000Y-94490996D03*
X124300000Y-110500000D03*
X54800000Y-73500000D03*
X182000000Y-72000000D03*
X113300000Y-85785001D03*
X151735287Y-78764713D03*
X114100000Y-84300000D03*
X148700000Y-97700000D03*
D41*
X162100000Y-73875000D03*
D42*
X107746533Y-88753467D03*
%TO.N,in1_L*%
X104050000Y-105100000D03*
X113600000Y-119900000D03*
%TO.N,in2_L*%
X104675000Y-106200000D03*
X114300000Y-119000000D03*
%TO.N,pwm_L*%
X105300000Y-107300000D03*
X114900000Y-119900000D03*
D41*
%TO.N,gyro_miso*%
X116593824Y-98823721D03*
X112900000Y-104400000D03*
D42*
%TO.N,gyro_clk*%
X120224265Y-101575735D03*
X119800000Y-105200000D03*
%TO.N,gyro_mosi*%
X119624265Y-104300000D03*
X119600000Y-99700000D03*
%TO.N,Net-(IC7-Pad1)*%
X178300000Y-70200000D03*
%TO.N,Net-(IC8-Pad1)*%
X163300000Y-70200000D03*
%TO.N,Net-(IC9-Pad1)*%
X65000000Y-70300000D03*
%TO.N,Net-(IC10-Pad1)*%
X50100000Y-70200000D03*
%TO.N,USART1_RX*%
X110900000Y-100300000D03*
%TO.N,USART1_TX*%
X111107466Y-99307466D03*
%TO.N,BUZZER*%
X117162831Y-96048444D03*
X124000000Y-85800000D03*
%TO.N,R2_Sens*%
X117800000Y-76000000D03*
X116800000Y-93400000D03*
%TO.N,R1_Sens*%
X117800000Y-75000000D03*
X116800000Y-94200000D03*
%TO.N,L2_Sens*%
X117800000Y-81000000D03*
X116800000Y-89400000D03*
%TO.N,L1_Sens*%
X117800000Y-82000000D03*
D41*
X116518992Y-88544993D03*
D42*
%TO.N,G_Sens*%
X157100000Y-74600000D03*
X139500000Y-93579999D03*
%TO.N,C_Sens*%
X83800000Y-73500000D03*
X105600000Y-85800000D03*
X64400000Y-71300000D03*
%TO.N,Net-(IC11-Pad1)*%
X120690000Y-31220000D03*
%TO.N,Net-(IC12-Pad1)*%
X126790000Y-31720000D03*
%TO.N,Net-(IC13-Pad1)*%
X132690000Y-32620000D03*
%TO.N,Net-(IC14-Pad1)*%
X138590000Y-33720000D03*
%TO.N,R3_Sens*%
X116800000Y-92600000D03*
X117800000Y-77000000D03*
%TO.N,Net-(IC15-Pad1)*%
X144190000Y-35320000D03*
%TO.N,Net-(IC16-Pad1)*%
X149890000Y-37320000D03*
%TO.N,Net-(IC17-Pad1)*%
X108790000Y-31320000D03*
%TO.N,Net-(IC18-Pad1)*%
X102890000Y-32020000D03*
%TO.N,Net-(IC19-Pad1)*%
X97090000Y-33020000D03*
D41*
%TO.N,Net-(IC20-Pad1)*%
X91190000Y-34320000D03*
D42*
%TO.N,L3_Sens*%
X117800000Y-80000000D03*
X116800000Y-90200000D03*
%TO.N,Net-(IC21-Pad1)*%
X85490000Y-36120000D03*
D41*
%TO.N,Net-(IC22-Pad1)*%
X79890000Y-38120000D03*
D42*
%TO.N,Net-(IC10-Pad2)*%
X73400000Y-70500000D03*
%TO.N,R1_S*%
X125088495Y-36134444D03*
%TO.N,R2_S*%
X130191390Y-37010443D03*
%TO.N,R3_S*%
X141208713Y-39955747D03*
%TO.N,L1_S*%
X107990000Y-35520000D03*
%TO.N,L2_S*%
X96890000Y-37120000D03*
%TO.N,L3_S*%
X85790000Y-40020000D03*
%TO.N,Goal_S*%
X152823865Y-79788578D03*
X135400000Y-93100001D03*
%TO.N,Line_S*%
X122000000Y-89400000D03*
X122500000Y-74200000D03*
%TO.N,Corner_S*%
X84200000Y-75100000D03*
X112161909Y-100061909D03*
%TO.N,R4_Sens*%
X117800000Y-78000000D03*
X116800000Y-91800000D03*
%TO.N,L4_Sens*%
X116800000Y-91000000D03*
X117800000Y-79000000D03*
D41*
%TO.N,GND1*%
X112190000Y-34620000D03*
D42*
%TO.N,+3.3V1*%
X93950000Y-35560000D03*
X128911548Y-33841548D03*
X145968837Y-37841163D03*
X111190000Y-33120000D03*
X105486826Y-33516826D03*
X88356667Y-37086667D03*
X151490000Y-39920000D03*
X82790000Y-38920000D03*
X134703709Y-34806291D03*
X99885454Y-34315454D03*
X122998094Y-33211906D03*
X140415691Y-36145691D03*
D41*
%TO.N,USART_RX*%
X133800000Y-48530000D03*
%TO.N,USART_TX*%
X132000000Y-51400000D03*
%TO.N,SW2*%
X133300000Y-54300000D03*
X127725362Y-59174638D03*
%TO.N,GND2*%
X121100000Y-53000000D03*
X107300000Y-49600000D03*
X117200000Y-57100000D03*
X107000000Y-58600000D03*
X118100000Y-58500000D03*
X107300000Y-54300000D03*
X108600000Y-58600000D03*
X119600000Y-54100000D03*
X118900000Y-47300000D03*
X115600000Y-47900000D03*
X117300000Y-47300000D03*
X116600000Y-58500000D03*
X115400000Y-54100000D03*
%TO.N,+5V1*%
X117100000Y-55700000D03*
%TO.N,+3.3V_1*%
X119500000Y-51100000D03*
X128025000Y-48600000D03*
%TO.N,SDA*%
X126575000Y-49300000D03*
%TO.N,SCL*%
X127300000Y-54700000D03*
%TO.N,Boot1*%
X128487834Y-57937472D03*
X134300727Y-55300727D03*
%TO.N,Net-(IC7-Pad2)*%
X167000000Y-70400000D03*
%TD*%
D44*
%TO.N,GND*%
X108900000Y-115300000D02*
X108900000Y-114100000D01*
X111640680Y-100972314D02*
X110650731Y-101962263D01*
D45*
X138675000Y-88725000D02*
X139475000Y-88725000D01*
D44*
X78070633Y-72367196D02*
X77377813Y-71967196D01*
X101500000Y-80600000D02*
X101500000Y-81640000D01*
D45*
X116600000Y-109600000D02*
X117700000Y-109600000D01*
X120600000Y-85800000D02*
X122700000Y-85800000D01*
D44*
X126000000Y-82880000D02*
X126000000Y-84200000D01*
D45*
X137560000Y-112100000D02*
X137560000Y-113560000D01*
D46*
X117900000Y-115600000D02*
X117900000Y-114300000D01*
D44*
X124662263Y-97249269D02*
X124662263Y-97362263D01*
X122300000Y-121800000D02*
X122300000Y-120700000D01*
D45*
X115600000Y-103200000D02*
X116800000Y-103200000D01*
X112500000Y-108100000D02*
X113800000Y-108100000D01*
X142360000Y-113560000D02*
X142400000Y-113600000D01*
X139475000Y-88725000D02*
X139600000Y-88600000D01*
D44*
X140900000Y-92840000D02*
X139010000Y-92840000D01*
X152100000Y-76500000D02*
X152792820Y-76100000D01*
X138675000Y-89025000D02*
X138675000Y-93175000D01*
X99600000Y-81900000D02*
X99600000Y-83000000D01*
X123800000Y-121800000D02*
X123800000Y-120700000D01*
D45*
X119689950Y-86589950D02*
X119689950Y-86977298D01*
D44*
X114749500Y-123300000D02*
X114400000Y-123300000D01*
D45*
X119600000Y-86800000D02*
X120600000Y-85800000D01*
D44*
X122155476Y-95172117D02*
X123242678Y-96259319D01*
X115575000Y-121462000D02*
X115575000Y-122474500D01*
D45*
X119600000Y-87137961D02*
X118619942Y-88118019D01*
X119600000Y-86800000D02*
X119600000Y-87137961D01*
D44*
X115575000Y-122474500D02*
X114749500Y-123300000D01*
X82770633Y-73967196D02*
X82077813Y-73567196D01*
D45*
X120600000Y-85800000D02*
X120600000Y-86137961D01*
D44*
X135300000Y-89800000D02*
X135300000Y-90900000D01*
X125850000Y-79750000D02*
X125900000Y-79800000D01*
X116000000Y-106300000D02*
X115900000Y-106300000D01*
X111305025Y-87094975D02*
X110700000Y-87700000D01*
D45*
X116000000Y-106300000D02*
X116000000Y-106300000D01*
D44*
X80670633Y-77367196D02*
X79977813Y-76967196D01*
X123242678Y-96259319D02*
X123672314Y-96259319D01*
X110500000Y-115300000D02*
X110500000Y-114100000D01*
D45*
X114057359Y-87057359D02*
X115000000Y-88000000D01*
X114500000Y-106900000D02*
X115400000Y-106900000D01*
D44*
X107310050Y-91189950D02*
X107310050Y-91289950D01*
X106300000Y-90200000D02*
X105500000Y-91000000D01*
X125850000Y-78650000D02*
X125850000Y-79750000D01*
X107310050Y-91289950D02*
X106600000Y-92000000D01*
X120850000Y-68750000D02*
X120800000Y-68700000D01*
X120850000Y-70250000D02*
X120850000Y-68750000D01*
X110650731Y-101962263D02*
X110637737Y-101962263D01*
D45*
X114040718Y-87057359D02*
X114057359Y-87057359D01*
D44*
X110637737Y-101962263D02*
X109900000Y-102700000D01*
X90200000Y-87400000D02*
X91700000Y-87400000D01*
X111640681Y-100972314D02*
X111640680Y-100972314D01*
D45*
X117500000Y-106900000D02*
X116600000Y-106900000D01*
D46*
X117900000Y-114700000D02*
X117900000Y-115600000D01*
X114000000Y-115600000D02*
X114000000Y-114300000D01*
D45*
X142360000Y-112100000D02*
X142360000Y-113560000D01*
D44*
X139010000Y-92840000D02*
X138675000Y-93175000D01*
D46*
X117900000Y-114700000D02*
X117900000Y-114799999D01*
D44*
X150041867Y-73056250D02*
X150734687Y-72656250D01*
X123672314Y-96259320D02*
X124662263Y-97249269D01*
X113840000Y-81440000D02*
X113900000Y-81500000D01*
D45*
X115400000Y-106900000D02*
X116000000Y-106300000D01*
D44*
X126400000Y-70000000D02*
X126400000Y-68900000D01*
X123672314Y-96259319D02*
X123672314Y-96259320D01*
X124662263Y-97362263D02*
X125700000Y-98400000D01*
D45*
X116600000Y-106900000D02*
X116000000Y-106300000D01*
D44*
X155741867Y-73256250D02*
X156434687Y-72856250D01*
X110400000Y-82800000D02*
X110400000Y-81800000D01*
X105370640Y-88529360D02*
X105370640Y-88629360D01*
X112300000Y-81440000D02*
X113840000Y-81440000D01*
X105270640Y-88729360D02*
X104300000Y-89700000D01*
D45*
X96400000Y-94260000D02*
X96400000Y-92900000D01*
D44*
X96462500Y-122900000D02*
X95100000Y-122900000D01*
D45*
X116900000Y-109300000D02*
X116600000Y-109600000D01*
X116900000Y-107800000D02*
X116900000Y-109300000D01*
D47*
%TO.N,Net-(IC2-Pad1)*%
X96810000Y-119200000D02*
X100700000Y-119200000D01*
X94580000Y-116900000D02*
X96700000Y-119020000D01*
X92600000Y-116900000D02*
X94580000Y-116900000D01*
D44*
%TO.N,Net-(D1-Pad2)*%
X100700000Y-122900000D02*
X98337500Y-122900000D01*
D45*
%TO.N,Battery_AD*%
X94440000Y-95880000D02*
X94400000Y-95840000D01*
X111300000Y-91900000D02*
X111599999Y-91600001D01*
X93940000Y-95880000D02*
X93900000Y-95840000D01*
X111599999Y-90980601D02*
X110858738Y-90239340D01*
X97811006Y-95880000D02*
X99200010Y-94490996D01*
X111599999Y-91600001D02*
X111599999Y-90980601D01*
X97811006Y-95880000D02*
X97811006Y-95888994D01*
X97811006Y-95888994D02*
X97560000Y-96140000D01*
X97560000Y-96140000D02*
X94300000Y-96140000D01*
X99200010Y-94490996D02*
X106600000Y-94490996D01*
D48*
%TO.N,+5V*%
X99600000Y-84500000D02*
X103150000Y-84500000D01*
D49*
X112900000Y-78189998D02*
X112900000Y-77610002D01*
D48*
X96550000Y-86750000D02*
X96800000Y-87000000D01*
X95700000Y-82939998D02*
X95700000Y-85900000D01*
D44*
X87000000Y-92000000D02*
X87000000Y-89500000D01*
X135100000Y-80200000D02*
X135100000Y-85225010D01*
X97200000Y-87600000D02*
X97800000Y-87000000D01*
D48*
X90600000Y-83140000D02*
X90440000Y-83140000D01*
X101800000Y-87000000D02*
X97800000Y-87000000D01*
D44*
X135774990Y-85900000D02*
X138200000Y-85900000D01*
D48*
X91539999Y-81899999D02*
X90600000Y-82839998D01*
D49*
X109589998Y-81500000D02*
X112900000Y-78189998D01*
D44*
X88199989Y-88300011D02*
X96499989Y-88300011D01*
D48*
X94660001Y-81899999D02*
X91539999Y-81899999D01*
X94660001Y-81899999D02*
X95700000Y-82939998D01*
X97300000Y-83650000D02*
X97100000Y-83450000D01*
X90600000Y-82839998D02*
X90600000Y-83140000D01*
X103800000Y-85000000D02*
X101800000Y-87000000D01*
D49*
X103800000Y-83850000D02*
X103800000Y-82100000D01*
X103800000Y-83850000D02*
X103800000Y-83100000D01*
D44*
X96350000Y-86950000D02*
X96550000Y-86750000D01*
D48*
X90440000Y-83140000D02*
X90024999Y-82724999D01*
D44*
X96800000Y-87000000D02*
X96800000Y-87200000D01*
X96800000Y-87200000D02*
X97200000Y-87600000D01*
D48*
X98350000Y-84500000D02*
X99600000Y-84500000D01*
X95700000Y-85900000D02*
X96550000Y-86750000D01*
D44*
X87000000Y-89500000D02*
X88199989Y-88300011D01*
X88900000Y-92640000D02*
X87640000Y-92640000D01*
X135100000Y-85225010D02*
X135774990Y-85900000D01*
X87640000Y-92640000D02*
X87000000Y-92000000D01*
X96499989Y-88300011D02*
X97200000Y-87600000D01*
D49*
X104400000Y-81500000D02*
X109589998Y-81500000D01*
D48*
X97800000Y-87000000D02*
X96800000Y-87000000D01*
X103800000Y-83450000D02*
X103800000Y-85000000D01*
X103150000Y-84500000D02*
X103800000Y-83850000D01*
D49*
X103800000Y-82100000D02*
X104400000Y-81500000D01*
X112900000Y-77610002D02*
X112900000Y-74700000D01*
D48*
X97700000Y-83850000D02*
X98350000Y-84500000D01*
D44*
X78209127Y-110882974D02*
X82751164Y-115425010D01*
X78209127Y-86636200D02*
X78209127Y-110882974D01*
X81745328Y-83099999D02*
X78209127Y-86636200D01*
X90559999Y-83099999D02*
X81745328Y-83099999D01*
X90600000Y-83140000D02*
X90559999Y-83099999D01*
X102580000Y-121915000D02*
X102580000Y-122900000D01*
X103295010Y-121199990D02*
X102580000Y-121915000D01*
X103295010Y-116095010D02*
X103295010Y-121199990D01*
X102625010Y-115425010D02*
X103295010Y-116095010D01*
X82751163Y-115425010D02*
X102625010Y-115425010D01*
%TO.N,pwm_R*%
X117525000Y-121462000D02*
X117525000Y-119925000D01*
X106000000Y-108400000D02*
X106000000Y-102152175D01*
X117525000Y-119925000D02*
X117500000Y-119900000D01*
X106000000Y-102152175D02*
X111212291Y-96939884D01*
%TO.N,in2_R*%
X118125000Y-120399500D02*
X118125000Y-119075000D01*
X118125000Y-119075000D02*
X118200000Y-119000000D01*
X106700000Y-102159282D02*
X111565845Y-97293437D01*
X118175000Y-120449500D02*
X118125000Y-120399500D01*
X118175000Y-121462000D02*
X118175000Y-120449500D01*
X106700000Y-109200000D02*
X106700000Y-102159282D01*
%TO.N,in1_R*%
X111766388Y-97800000D02*
X111919398Y-97646990D01*
X118825000Y-119991585D02*
X118750001Y-119916586D01*
X118825000Y-121462000D02*
X118825000Y-119991585D01*
X107400000Y-102131048D02*
X111731048Y-97800000D01*
X107400000Y-109875980D02*
X107400000Y-102131048D01*
X111731048Y-97800000D02*
X111766388Y-97800000D01*
%TO.N,+3V3*%
X116300000Y-84300000D02*
X116300000Y-81136410D01*
X112630631Y-101962264D02*
X112630631Y-103169369D01*
X112249030Y-109600000D02*
X111474515Y-108825485D01*
D48*
X151735287Y-97435287D02*
X151735287Y-78764713D01*
D44*
X111474515Y-108825485D02*
X111400000Y-108750970D01*
D48*
X116500000Y-122786648D02*
X116500000Y-121600000D01*
X148200000Y-75200000D02*
X147300000Y-75200000D01*
D44*
X89474999Y-73874999D02*
X89449998Y-73900000D01*
X107289950Y-90179900D02*
X109090971Y-91980921D01*
D48*
X151735287Y-78764713D02*
X151735287Y-78735287D01*
D44*
X177100000Y-72040000D02*
X181960000Y-72040000D01*
X147700000Y-74800000D02*
X147300000Y-75200000D01*
X181960000Y-72040000D02*
X182000000Y-72000000D01*
D45*
X112661262Y-103200000D02*
X112630631Y-103169369D01*
D44*
X167000000Y-72100000D02*
X177040000Y-72100000D01*
X107289950Y-89210050D02*
X107289950Y-89110050D01*
D48*
X151735287Y-78735287D02*
X148200000Y-75200000D01*
D44*
X112630631Y-101962264D02*
X112630631Y-102069369D01*
X108449990Y-91366126D02*
X109090971Y-92007107D01*
X111300000Y-105400000D02*
X111300000Y-108650970D01*
X112249030Y-109600000D02*
X115200000Y-109600000D01*
X177040000Y-72100000D02*
X177100000Y-72040000D01*
X115900000Y-110500000D02*
X115200000Y-109800000D01*
X162100000Y-72140000D02*
X166960000Y-72140000D01*
X115200000Y-109800000D02*
X115200000Y-109600000D01*
D48*
X116300000Y-84300000D02*
X114400000Y-84300000D01*
D44*
X144800000Y-75200000D02*
X145243078Y-74756922D01*
X124300000Y-110500000D02*
X115900000Y-110500000D01*
X166960000Y-72140000D02*
X167000000Y-72100000D01*
X125800000Y-121300000D02*
X125800000Y-122000000D01*
X113699990Y-74399990D02*
X113174999Y-73874999D01*
X125800000Y-114100000D02*
X125800000Y-121300000D01*
X125800000Y-121300000D02*
X125900000Y-121300000D01*
D48*
X116949999Y-123236647D02*
X116500000Y-122786648D01*
X139800000Y-75200000D02*
X146400000Y-75200000D01*
D44*
X116300000Y-81136410D02*
X113699990Y-78536400D01*
X113699990Y-78536400D02*
X113699990Y-74399990D01*
D48*
X136600000Y-122000000D02*
X126600000Y-122000000D01*
D44*
X125900000Y-121300000D02*
X126600000Y-122000000D01*
X111300000Y-108650970D02*
X111474515Y-108825485D01*
D48*
X126600000Y-122000000D02*
X125800000Y-122000000D01*
D45*
X114200000Y-103200000D02*
X112661262Y-103200000D01*
D44*
X162100000Y-72140000D02*
X162100000Y-73875000D01*
X111300000Y-104500000D02*
X111300000Y-105200000D01*
D48*
X119800000Y-75200000D02*
X119800000Y-76400000D01*
D45*
X119610050Y-82589950D02*
X119389950Y-82589950D01*
X119389950Y-82589950D02*
X119040001Y-82240001D01*
D48*
X119800000Y-76400000D02*
X119800000Y-81480002D01*
X123400000Y-75200000D02*
X123700000Y-75200000D01*
D44*
X69800000Y-72140000D02*
X69800000Y-73500000D01*
D45*
X118337083Y-87764466D02*
X118266388Y-87764466D01*
X119610050Y-81669952D02*
X119800000Y-81480002D01*
D48*
X118475010Y-73875010D02*
X118475010Y-73800000D01*
D44*
X54800000Y-72100000D02*
X54800000Y-73500000D01*
D48*
X123700000Y-75200000D02*
X121000000Y-75200000D01*
D44*
X85357801Y-77992197D02*
X78500000Y-78500000D01*
X78500000Y-78500000D02*
X73100000Y-74600000D01*
D48*
X139800000Y-75200000D02*
X123700000Y-75200000D01*
D45*
X119610050Y-82410050D02*
X119569850Y-82410050D01*
D44*
X124211458Y-94818563D02*
X124662264Y-95269369D01*
D45*
X119610050Y-82589950D02*
X119610050Y-82410050D01*
D48*
X151735287Y-113564713D02*
X143300000Y-122000000D01*
X116980002Y-84300000D02*
X116300000Y-84300000D01*
X119040001Y-82240001D02*
X116980002Y-84300000D01*
D44*
X109090971Y-91980921D02*
X109090971Y-92007107D01*
X107289950Y-89210050D02*
X107746533Y-88753467D01*
X122822691Y-92320769D02*
X122509029Y-92007107D01*
X112630631Y-103169369D02*
X111300000Y-104500000D01*
X125652213Y-96259318D02*
X124662264Y-95269369D01*
D45*
X114400000Y-84300000D02*
X114100000Y-84300000D01*
D44*
X113174999Y-73874999D02*
X89474999Y-73874999D01*
D48*
X124563353Y-123236647D02*
X116949999Y-123236647D01*
D45*
X119610050Y-84810050D02*
X119610050Y-82589950D01*
D48*
X109250000Y-84300000D02*
X112300000Y-84300000D01*
X119800000Y-75200000D02*
X118475010Y-73875010D01*
D44*
X107300000Y-89010050D02*
X107389950Y-89010050D01*
X107289950Y-89210050D02*
X107289950Y-90179900D01*
D45*
X112381277Y-86105025D02*
X113687165Y-87410913D01*
D46*
X118400000Y-72700000D02*
X118400000Y-73800000D01*
D48*
X146400000Y-75200000D02*
X146843520Y-75200000D01*
D45*
X119569850Y-82410050D02*
X119389950Y-82589950D01*
D44*
X122509029Y-94818563D02*
X124211458Y-94818563D01*
D48*
X121000000Y-75200000D02*
X119800000Y-75200000D01*
D44*
X89474999Y-73874999D02*
X85357801Y-77992197D01*
D48*
X108400000Y-83450000D02*
X109250000Y-84300000D01*
D44*
X111300000Y-105200000D02*
X111300000Y-105400000D01*
D45*
X112294975Y-86105025D02*
X112381277Y-86105025D01*
D44*
X73100000Y-74600000D02*
X69800000Y-73500000D01*
D45*
X119610050Y-82410050D02*
X119610050Y-81669952D01*
D44*
X116300000Y-83700000D02*
X116100000Y-83900000D01*
D45*
X118610050Y-85810050D02*
X119610050Y-84810050D01*
D48*
X125800000Y-122000000D02*
X124563353Y-123236647D01*
D44*
X69800000Y-73500000D02*
X54800000Y-73500000D01*
D48*
X119800000Y-76400000D02*
X121000000Y-75200000D01*
D44*
X151000000Y-97700000D02*
X151735287Y-98435287D01*
D48*
X119800000Y-81480002D02*
X119040001Y-82240001D01*
D44*
X116500000Y-83900000D02*
X116300000Y-83700000D01*
X125652213Y-96259319D02*
X125652213Y-96259318D01*
D48*
X151735287Y-97435287D02*
X151735287Y-98435287D01*
D44*
X126600000Y-97207106D02*
X126607106Y-97207106D01*
X130780002Y-97700000D02*
X144500000Y-97700000D01*
X151470574Y-97700000D02*
X151735287Y-97435287D01*
X127100000Y-97700000D02*
X130780002Y-97700000D01*
X150100000Y-97700000D02*
X151470574Y-97700000D01*
X124662264Y-95269369D02*
X124662264Y-94528732D01*
X124662264Y-95269369D02*
X124662264Y-95237736D01*
X151264713Y-97435287D02*
X151000000Y-97700000D01*
X112630631Y-101962264D02*
X114394272Y-100198623D01*
X150100000Y-97700000D02*
X151000000Y-97700000D01*
D45*
X118700000Y-86700000D02*
X118900000Y-86900000D01*
D48*
X151735287Y-98435287D02*
X151735287Y-107835287D01*
X151735287Y-107835287D02*
X151735287Y-109235287D01*
D45*
X118700000Y-85600000D02*
X118700000Y-86700000D01*
X112294975Y-86105025D02*
X112979976Y-86105025D01*
X112979976Y-86105025D02*
X113300000Y-85785001D01*
D44*
X109090971Y-92007107D02*
X109090971Y-91990971D01*
X124662264Y-95269369D02*
X124300000Y-94907105D01*
X109024262Y-91940398D02*
X109090971Y-92007107D01*
D48*
X151735287Y-109235287D02*
X151735287Y-113564713D01*
D45*
X118900000Y-86900000D02*
X118900000Y-87201549D01*
D44*
X124662264Y-94528732D02*
X124700000Y-94490996D01*
X125652213Y-96259319D02*
X126600000Y-97207106D01*
X124424527Y-92320769D02*
X122822691Y-92320769D01*
D48*
X114400000Y-84300000D02*
X112300000Y-84300000D01*
D44*
X114394272Y-100198623D02*
X114394272Y-100121864D01*
X151735287Y-97435287D02*
X151264713Y-97435287D01*
D45*
X118900000Y-87201549D02*
X118337083Y-87764466D01*
D44*
X148700000Y-97700000D02*
X150100000Y-97700000D01*
X126607106Y-97207106D02*
X127100000Y-97700000D01*
D48*
X136600000Y-122000000D02*
X143300000Y-122000000D01*
D45*
X113700000Y-105700000D02*
X114400000Y-105700000D01*
X113625000Y-105625000D02*
X113700000Y-105700000D01*
X113625000Y-103775000D02*
X113625000Y-105625000D01*
X114200000Y-103200000D02*
X113625000Y-103775000D01*
X114900000Y-109300000D02*
X115200000Y-109600000D01*
X114900000Y-107800000D02*
X114900000Y-109300000D01*
D44*
%TO.N,in1_L*%
X104050000Y-105100000D02*
X104050000Y-101250000D01*
X104800000Y-100500000D02*
X104823748Y-100500000D01*
X104050000Y-101250000D02*
X104800000Y-100500000D01*
X104823748Y-100500000D02*
X109798078Y-95525670D01*
X113625000Y-119925000D02*
X113600000Y-119900000D01*
X113625000Y-121462000D02*
X113625000Y-119925000D01*
%TO.N,in2_L*%
X114275000Y-119025000D02*
X114300000Y-119000000D01*
X109552617Y-96478237D02*
X109552617Y-96547383D01*
X109552617Y-96547383D02*
X104675000Y-101425000D01*
X114275000Y-121462000D02*
X114275000Y-119025000D01*
X104675000Y-101425000D02*
X104675000Y-102027620D01*
X110151631Y-95879223D02*
X109552617Y-96478237D01*
X104675000Y-106200000D02*
X104675000Y-102027620D01*
%TO.N,pwm_L*%
X105300000Y-107300000D02*
X105300000Y-102145068D01*
X114925000Y-119925000D02*
X114900000Y-119900000D01*
X114925000Y-121462000D02*
X114925000Y-119925000D01*
X105300000Y-102145068D02*
X110858738Y-96586330D01*
D48*
%TO.N,+12V*%
X112600000Y-119600000D02*
X112600000Y-121300000D01*
X112500000Y-118700000D02*
X113200000Y-118000000D01*
D45*
X79534137Y-99434479D02*
X84938617Y-94029999D01*
D47*
X107005000Y-117288000D02*
X109912000Y-117288000D01*
D48*
X111900000Y-118100000D02*
X112500000Y-118700000D01*
D47*
X107005000Y-117288000D02*
X108688000Y-117288000D01*
X113512000Y-117288000D02*
X116988000Y-117288000D01*
D48*
X112599999Y-119600000D02*
X112599999Y-119599999D01*
D47*
X92700000Y-84500002D02*
X91500002Y-85700000D01*
D45*
X84938617Y-94029999D02*
X94069999Y-94029999D01*
D47*
X118708002Y-117288000D02*
X116988000Y-117288000D01*
D44*
X79534137Y-97265863D02*
X79565863Y-97265863D01*
D47*
X82294165Y-84425009D02*
X79534137Y-87185037D01*
X89199998Y-85700000D02*
X87925007Y-84425009D01*
D48*
X109912000Y-117288000D02*
X110288000Y-117288000D01*
D44*
X118796002Y-117200000D02*
X118708002Y-117288000D01*
X79565863Y-97265863D02*
X80616630Y-98316630D01*
D47*
X83925009Y-84425009D02*
X83700000Y-84425009D01*
D48*
X119750001Y-118329999D02*
X119750001Y-121462000D01*
D45*
X79534137Y-99665863D02*
X79534137Y-99434479D01*
D47*
X79534137Y-87185037D02*
X79534137Y-97265863D01*
D44*
X118796002Y-117200000D02*
X118796002Y-116503998D01*
D47*
X91500002Y-85700000D02*
X89199998Y-85700000D01*
X79534137Y-99665863D02*
X79534137Y-97265863D01*
X87925007Y-84425009D02*
X83900000Y-84425009D01*
D45*
X94069999Y-94029999D02*
X94300000Y-94260000D01*
D47*
X83925009Y-84425009D02*
X82294165Y-84425009D01*
D48*
X118708002Y-117288000D02*
X119750001Y-118329999D01*
X113512000Y-117288000D02*
X113512000Y-117388000D01*
D47*
X109912000Y-117288000D02*
X113512000Y-117288000D01*
D48*
X112599999Y-118300001D02*
X112599999Y-119600000D01*
X113512000Y-117388000D02*
X112599999Y-118300001D01*
D47*
X103817000Y-114100000D02*
X107005000Y-117288000D01*
X83300000Y-114100000D02*
X103817000Y-114100000D01*
X79534137Y-110334137D02*
X83300000Y-114100000D01*
X79534137Y-99665863D02*
X79534137Y-110334137D01*
D48*
%TO.N,M1_L*%
X91440000Y-95180000D02*
X89889999Y-96730001D01*
X89889999Y-96730001D02*
X85067069Y-96730001D01*
X82434157Y-99362913D02*
X82434157Y-109000000D01*
X85067069Y-96730001D02*
X83598535Y-98198535D01*
X83598535Y-98198535D02*
X82434157Y-99362913D01*
X115299999Y-113115497D02*
X115299999Y-114338000D01*
X113384482Y-111199980D02*
X115299999Y-113115497D01*
X84599980Y-111199980D02*
X113384482Y-111199980D01*
X82532911Y-109132911D02*
X84599980Y-111199980D01*
%TO.N,M2_L*%
X112699999Y-114613001D02*
X112699999Y-114338000D01*
X112699999Y-114338000D02*
X112699999Y-114099999D01*
X84920000Y-95180000D02*
X88900000Y-95180000D01*
X81234147Y-98865853D02*
X84920000Y-95180000D01*
X81234147Y-109629971D02*
X81234147Y-98865853D01*
X84004166Y-112399990D02*
X81234147Y-109629971D01*
X112699999Y-113499999D02*
X111599990Y-112399990D01*
X111599990Y-112399990D02*
X84004166Y-112399990D01*
X112699999Y-114338000D02*
X112699999Y-113499999D01*
%TO.N,M2_R*%
X134797070Y-118200000D02*
X133500000Y-116902930D01*
X143440000Y-90300000D02*
X145820000Y-92680000D01*
X133500000Y-116902930D02*
X133499999Y-113402929D01*
X131697071Y-111600001D02*
X118015497Y-111600001D01*
X118015497Y-111600001D02*
X116500009Y-113115489D01*
X145820000Y-116080000D02*
X143700000Y-118200000D01*
X145820000Y-92680000D02*
X145820000Y-116080000D01*
X116500009Y-113115489D02*
X116500009Y-114338000D01*
X143700000Y-118200000D02*
X134797070Y-118200000D01*
X133499999Y-113402929D02*
X131697071Y-111600001D01*
%TO.N,M1_R*%
X144184001Y-88749999D02*
X142450001Y-88749999D01*
X132299990Y-117399990D02*
X134300010Y-119400010D01*
X147020010Y-91586008D02*
X144184001Y-88749999D01*
X119499990Y-112800010D02*
X131200010Y-112800010D01*
X119100000Y-114400000D02*
X119100000Y-113200000D01*
X131200010Y-112800010D02*
X132299990Y-113899990D01*
X132299990Y-113899990D02*
X132299990Y-117399990D01*
X134300010Y-119400010D02*
X144197061Y-119400009D01*
X119100000Y-113200000D02*
X119499990Y-112800010D01*
X144197061Y-119400009D02*
X147020010Y-116577060D01*
X142450001Y-88749999D02*
X140900000Y-90300000D01*
X147020010Y-116577060D02*
X147020010Y-91586008D01*
D44*
%TO.N,outB_R*%
X120741262Y-96586330D02*
X120142249Y-95987317D01*
X121958978Y-93865996D02*
X133965996Y-93865996D01*
D45*
X140150009Y-94630009D02*
X140900000Y-95380000D01*
D44*
X120142249Y-95987317D02*
X120142249Y-95682726D01*
D45*
X134001352Y-93865996D02*
X134765365Y-94630009D01*
X133965996Y-93865996D02*
X134001352Y-93865996D01*
D44*
X120142249Y-95682726D02*
X121958978Y-93865996D01*
D45*
X134765365Y-94630009D02*
X140150009Y-94630009D01*
D44*
%TO.N,outA_R*%
X143440000Y-95380000D02*
X142264999Y-94204999D01*
X121772577Y-93415987D02*
X119692239Y-95496326D01*
X119692239Y-96244414D02*
X120387709Y-96939884D01*
X134941409Y-94204999D02*
X134152397Y-93415987D01*
X134152397Y-93415987D02*
X121772577Y-93415987D01*
X142264999Y-94204999D02*
X134941409Y-94204999D01*
X119692239Y-95496326D02*
X119692239Y-96244414D01*
%TO.N,outA_L*%
X119645261Y-97646990D02*
X119046248Y-97047977D01*
X91440000Y-90100000D02*
X92339969Y-89200031D01*
X119645261Y-97646990D02*
X117273282Y-95275011D01*
X92339969Y-89200031D02*
X94800000Y-89200031D01*
X119680602Y-97646990D02*
X119645261Y-97646990D01*
X94800000Y-89200031D02*
X99465965Y-93865996D01*
X109641022Y-93865996D02*
X99465965Y-93865996D01*
X117273282Y-95275011D02*
X111050037Y-95275011D01*
X109641022Y-93865996D02*
X111050037Y-95275011D01*
%TO.N,outB_L*%
X90249979Y-88750021D02*
X94986400Y-88750021D01*
X99652365Y-93415986D02*
X109827423Y-93415987D01*
X117565719Y-94825001D02*
X120034155Y-97293437D01*
X109827423Y-93415987D02*
X111236437Y-94825001D01*
X111236437Y-94825001D02*
X117565719Y-94825001D01*
X94986400Y-88750021D02*
X99652365Y-93415986D01*
X88900000Y-90100000D02*
X90249979Y-88750021D01*
%TO.N,Net-(IC6-Pad28)*%
X110469843Y-90592893D02*
X107276950Y-87400000D01*
X110505184Y-90592893D02*
X110469843Y-90592893D01*
X110505184Y-90592893D02*
X110505184Y-90557552D01*
X107276950Y-87400000D02*
X106600000Y-87400000D01*
X106700000Y-87500000D02*
X106725001Y-87474999D01*
X106774999Y-87574999D02*
X106600000Y-87400000D01*
D45*
%TO.N,gyro_miso*%
X112900000Y-105700000D02*
X112900000Y-104400000D01*
X118266388Y-99061204D02*
X118261204Y-99061204D01*
X113300000Y-106100000D02*
X112900000Y-105700000D01*
X116930355Y-98487190D02*
X116593824Y-98823721D01*
X117692374Y-98487190D02*
X116930355Y-98487190D01*
X114400000Y-106100000D02*
X113300000Y-106100000D01*
X118195694Y-99061204D02*
X118266388Y-99061204D01*
X117692374Y-98487190D02*
X118266388Y-99061204D01*
X118266388Y-98990509D02*
X118266388Y-99061204D01*
%TO.N,mpu_cs*%
X118142324Y-100342324D02*
X120400000Y-102600000D01*
X120400000Y-105500000D02*
X119800000Y-106100000D01*
X118133295Y-100342324D02*
X118142324Y-100342324D01*
X117559282Y-99768311D02*
X118133295Y-100342324D01*
X119800000Y-106100000D02*
X117500000Y-106100000D01*
X120400000Y-102600000D02*
X120400000Y-105500000D01*
%TO.N,gyro_clk*%
X120073813Y-101575735D02*
X120224265Y-101575735D01*
X117912835Y-99414757D02*
X120073813Y-101575735D01*
X117500000Y-105700000D02*
X119300000Y-105700000D01*
X119300000Y-105700000D02*
X119800000Y-105200000D01*
%TO.N,gyro_mosi*%
X117500000Y-105300000D02*
X118100000Y-105300000D01*
X119200000Y-99287709D02*
X118619942Y-98707651D01*
X118624265Y-105300000D02*
X119624265Y-104300000D01*
X118100000Y-105300000D02*
X118624265Y-105300000D01*
X119200000Y-99300000D02*
X119600000Y-99700000D01*
X119200000Y-99300000D02*
X119200000Y-99287709D01*
D48*
%TO.N,Net-(IC2-Pad2)*%
X101992502Y-121080000D02*
X96700000Y-121080000D01*
X96700000Y-121080000D02*
X92855980Y-121080000D01*
X92480000Y-121080000D02*
X92855980Y-121080000D01*
X91000000Y-119600000D02*
X92480000Y-121080000D01*
X102470000Y-120602502D02*
X102470000Y-119500000D01*
X101992502Y-121080000D02*
X102470000Y-120602502D01*
D44*
%TO.N,Net-(C14-Pad1)*%
X114040718Y-99768311D02*
X114031689Y-99768311D01*
X114031689Y-99768311D02*
X113000000Y-100800000D01*
X113000000Y-100800000D02*
X112802945Y-100800000D01*
X112802945Y-100800000D02*
X111640681Y-101962264D01*
X111640681Y-102952213D02*
X111640681Y-101962264D01*
%TO.N,Boot*%
X139400002Y-112100000D02*
X139440000Y-112100000D01*
X135849990Y-110450010D02*
X135650010Y-110450010D01*
X139440000Y-112100000D02*
X139440000Y-112040000D01*
X124300000Y-109436410D02*
X124300000Y-99100000D01*
X138440000Y-115440000D02*
X138500000Y-115500000D01*
X125313599Y-110450009D02*
X124300000Y-109436410D01*
X124300000Y-99100000D02*
X121900000Y-96700000D01*
X139440000Y-110990010D02*
X139440000Y-112100000D01*
X138900000Y-110450010D02*
X139440000Y-110990010D01*
X139440000Y-114560000D02*
X138500000Y-115500000D01*
X139440000Y-112100000D02*
X139440000Y-114560000D01*
X135750010Y-110450010D02*
X135750009Y-110450009D01*
X138900000Y-110450010D02*
X135750010Y-110450010D01*
X135750009Y-110450009D02*
X125313599Y-110450009D01*
X135849990Y-110450010D02*
X135750009Y-110450009D01*
D49*
X121900000Y-96700000D02*
X121300000Y-96100000D01*
D44*
X121300000Y-96027592D02*
X121300000Y-96100000D01*
X121448369Y-95879223D02*
X121300000Y-96027592D01*
D45*
%TO.N,Net-(IC7-Pad1)*%
X178260000Y-70160000D02*
X178300000Y-70200000D01*
X177100000Y-70160000D02*
X178260000Y-70160000D01*
%TO.N,Net-(IC8-Pad1)*%
X162100000Y-70260000D02*
X163240000Y-70260000D01*
X163240000Y-70260000D02*
X163300000Y-70200000D01*
D44*
%TO.N,Net-(IC9-Pad1)*%
X65040000Y-70260000D02*
X65000000Y-70300000D01*
X69800000Y-70260000D02*
X65040000Y-70260000D01*
%TO.N,Net-(IC10-Pad1)*%
X50120000Y-70220000D02*
X50100000Y-70200000D01*
X54800000Y-70220000D02*
X50120000Y-70220000D01*
D48*
%TO.N,Net-(J4-Pad11)*%
X120310002Y-72350000D02*
X118909992Y-70949990D01*
D46*
X113399999Y-71619999D02*
X113399999Y-72400000D01*
D48*
X113399999Y-71619999D02*
X113399999Y-71399999D01*
X118909992Y-70949990D02*
X113850008Y-70949990D01*
X121800000Y-72350000D02*
X120310002Y-72350000D01*
X113399999Y-71399999D02*
X113850008Y-70949990D01*
D45*
%TO.N,Net-(C5-Pad1)*%
X114400000Y-106500000D02*
X112700000Y-106500000D01*
X112700000Y-106500000D02*
X112500000Y-106700000D01*
D44*
%TO.N,USART1_RX*%
X111732467Y-99607467D02*
X111039934Y-100300000D01*
X111039934Y-100300000D02*
X110900000Y-100300000D01*
X111732467Y-99248135D02*
X111732467Y-99607467D01*
X112626505Y-98354097D02*
X111732467Y-99248135D01*
%TO.N,USART1_TX*%
X111107466Y-99166029D02*
X111107466Y-99307466D01*
X112272951Y-98000544D02*
X111107466Y-99166029D01*
D45*
%TO.N,LED1*%
X146699970Y-87700030D02*
X121866358Y-87700030D01*
X121866358Y-87700030D02*
X120034155Y-89532233D01*
X147400000Y-87000000D02*
X146699970Y-87700030D01*
X147400000Y-84080000D02*
X147400000Y-87000000D01*
%TO.N,LED2*%
X121559262Y-87300020D02*
X144799980Y-87300020D01*
X144799980Y-87300020D02*
X145400000Y-86700000D01*
X119680602Y-89178680D02*
X121559262Y-87300020D01*
X145400000Y-86700000D02*
X145400000Y-84100000D01*
%TO.N,LED3*%
X143400000Y-84100000D02*
X143400000Y-86400000D01*
X143400000Y-86400000D02*
X142899990Y-86900010D01*
X119901062Y-88251113D02*
X119948887Y-88251113D01*
X121299990Y-86900010D02*
X142899990Y-86900010D01*
X119327049Y-88825126D02*
X119901062Y-88251113D01*
X119948887Y-88251113D02*
X121299990Y-86900010D01*
%TO.N,LED4*%
X141400000Y-84100000D02*
X141400000Y-86200000D01*
X120945068Y-86500000D02*
X118973495Y-88471573D01*
X141100000Y-86500000D02*
X120945068Y-86500000D01*
X141400000Y-86200000D02*
X141100000Y-86500000D01*
D44*
%TO.N,Net-(Q1-Pad1)*%
X123950000Y-78650000D02*
X123950000Y-80970000D01*
X124020000Y-81000000D02*
X124000000Y-81020000D01*
X123950000Y-80970000D02*
X124000000Y-81020000D01*
X126000000Y-81000000D02*
X124020000Y-81000000D01*
%TO.N,Net-(LS1-Pad2)*%
X124900000Y-76550000D02*
X126450000Y-76550000D01*
X124850000Y-76600000D02*
X124900000Y-76550000D01*
X126450000Y-76550000D02*
X130100000Y-80200000D01*
%TO.N,BUZZER*%
X118126505Y-96800000D02*
X117374949Y-96048444D01*
X117374949Y-96048444D02*
X117162831Y-96048444D01*
X118126505Y-96800000D02*
X119327049Y-98000544D01*
X124000000Y-82900000D02*
X124000000Y-84000000D01*
X124000000Y-84000000D02*
X124000000Y-85800000D01*
X119327049Y-98000544D02*
X119362390Y-98000544D01*
%TO.N,R2_Sens*%
X117150000Y-75650000D02*
X117500000Y-76000000D01*
X117150000Y-72450000D02*
X117150000Y-75255099D01*
X115433612Y-93400000D02*
X111565845Y-89532233D01*
X117150000Y-75255099D02*
X117150000Y-75650000D01*
X117500000Y-76000000D02*
X117800000Y-76000000D01*
X116800000Y-93400000D02*
X115433612Y-93400000D01*
%TO.N,R1_Sens*%
X117650000Y-72450000D02*
X117650000Y-74850000D01*
X117650000Y-74850000D02*
X117800000Y-75000000D01*
X116800000Y-94200000D02*
X115526505Y-94200000D01*
X115526505Y-94200000D02*
X111212291Y-89885786D01*
%TO.N,L2_Sens*%
X113333612Y-87764466D02*
X114969146Y-89400000D01*
X117800000Y-80925002D02*
X117800000Y-81000000D01*
X114969146Y-89400000D02*
X116800000Y-89400000D01*
X114650000Y-72450000D02*
X114650000Y-77775002D01*
X114650000Y-77775002D02*
X117800000Y-80925002D01*
%TO.N,L1_Sens*%
X114150000Y-72450000D02*
X114150000Y-78350000D01*
X114750000Y-78950000D02*
X117800000Y-82000000D01*
X114150000Y-78350000D02*
X114750000Y-78950000D01*
X114628808Y-86703806D02*
X116525002Y-88600000D01*
X114394272Y-86703806D02*
X114628808Y-86703806D01*
D45*
%TO.N,G_Sens*%
X135037465Y-93700001D02*
X139379998Y-93700001D01*
D44*
X117559282Y-87057359D02*
X116960268Y-87656373D01*
D45*
X134297138Y-92959674D02*
X134328443Y-92990979D01*
D44*
X154900000Y-74600000D02*
X154600000Y-74900000D01*
D45*
X139379998Y-93700001D02*
X139500000Y-93579999D01*
D44*
X157100000Y-74600000D02*
X154900000Y-74600000D01*
D45*
X134328443Y-92990979D02*
X135037465Y-93700001D01*
D44*
X116960268Y-87656373D02*
X116960268Y-87960964D01*
D45*
X121958978Y-92959674D02*
X134297138Y-92959674D01*
D44*
X116960268Y-87960964D02*
X121958978Y-92959674D01*
%TO.N,C_Sens*%
X110665020Y-85800000D02*
X111232510Y-85232510D01*
X80071872Y-72360000D02*
X82300000Y-71900000D01*
X117205728Y-86703806D02*
X115626932Y-85125010D01*
X80071872Y-72360000D02*
X75000000Y-69300000D01*
X117205728Y-86703806D02*
X117196194Y-86703806D01*
X115626932Y-85125010D02*
X111340010Y-85125010D01*
X105639999Y-85760001D02*
X105600000Y-85800000D01*
X115626932Y-85125010D02*
X115591941Y-85160001D01*
X105600000Y-85800000D02*
X110665020Y-85800000D01*
X83100000Y-72300000D02*
X83800000Y-73500000D01*
X64374999Y-69999999D02*
X64374999Y-71274999D01*
X75000000Y-69300000D02*
X64959999Y-69414999D01*
X111340010Y-85125010D02*
X111232510Y-85232510D01*
X82300000Y-71900000D02*
X83100000Y-72300000D01*
X64374999Y-71274999D02*
X64400000Y-71300000D01*
X64959999Y-69414999D02*
X64374999Y-69999999D01*
%TO.N,Net-(IC11-Pad1)*%
X120690000Y-31220000D02*
X121890000Y-31220000D01*
%TO.N,Net-(IC12-Pad1)*%
X126790000Y-31720000D02*
X127906185Y-31787208D01*
%TO.N,Net-(IC13-Pad1)*%
X132690000Y-32620000D02*
X133864527Y-32696344D01*
%TO.N,Net-(IC14-Pad1)*%
X138590000Y-33720000D02*
X139754358Y-33998250D01*
%TO.N,R3_Sens*%
X117400000Y-77000000D02*
X117800000Y-77000000D01*
X116674999Y-76274999D02*
X117200000Y-76800000D01*
X116650000Y-76250000D02*
X116674999Y-76274999D01*
X115305378Y-92600000D02*
X116800000Y-92600000D01*
X111919398Y-89178680D02*
X111919398Y-89214020D01*
X117200000Y-76800000D02*
X117400000Y-77000000D01*
X111919398Y-89214020D02*
X115305378Y-92600000D01*
X116650000Y-72450000D02*
X116650000Y-76250000D01*
%TO.N,Net-(IC15-Pad1)*%
X145378915Y-35625501D02*
X144190000Y-35320000D01*
%TO.N,Net-(IC16-Pad1)*%
X149890000Y-37320000D02*
X150975968Y-37669616D01*
%TO.N,Net-(IC17-Pad1)*%
X109971954Y-31243710D02*
X108790000Y-31320000D01*
%TO.N,Net-(IC18-Pad1)*%
X104057630Y-31754416D02*
X102890000Y-32020000D01*
%TO.N,Net-(IC19-Pad1)*%
X98240946Y-32672688D02*
X97090000Y-33020000D01*
%TO.N,Net-(IC20-Pad1)*%
X92325642Y-33998250D02*
X91190000Y-34320000D01*
%TO.N,L3_Sens*%
X115150000Y-72450000D02*
X115150000Y-77275002D01*
X115062039Y-90200000D02*
X112980058Y-88118019D01*
X117800000Y-79925002D02*
X117800000Y-80000000D01*
X115150000Y-77275002D02*
X117800000Y-79925002D01*
X116800000Y-90200000D02*
X115062039Y-90200000D01*
%TO.N,Net-(IC21-Pad1)*%
X85390000Y-36120000D02*
X86612170Y-35631002D01*
%TO.N,Net-(IC22-Pad1)*%
X81004032Y-37569616D02*
X79890000Y-38120000D01*
D45*
%TO.N,Net-(D2-Pad1)*%
X147400000Y-77175000D02*
X147400000Y-82200000D01*
%TO.N,Net-(D3-Pad1)*%
X145400000Y-77200000D02*
X145400000Y-82220000D01*
%TO.N,Net-(D4-Pad1)*%
X143400000Y-77175000D02*
X143400000Y-82220000D01*
%TO.N,Net-(D5-Pad1)*%
X141400000Y-77175000D02*
X141400000Y-82220000D01*
D44*
%TO.N,Net-(IC10-Pad2)*%
X74756346Y-71527276D02*
X74427276Y-71527276D01*
X74427276Y-71527276D02*
X73400000Y-70500000D01*
%TO.N,R1_S*%
X117740000Y-35270000D02*
X117740000Y-34620000D01*
X117989980Y-35519980D02*
X117740000Y-35270000D01*
X124497445Y-36312555D02*
X123088418Y-36319983D01*
X125088495Y-36134444D02*
X124497445Y-36312555D01*
X121162803Y-36319983D02*
X120362800Y-35519980D01*
X123088418Y-36319983D02*
X121162803Y-36319983D01*
X120362800Y-35519980D02*
X117989980Y-35519980D01*
%TO.N,R2_S*%
X130191390Y-37010443D02*
X129790000Y-37120000D01*
X123090000Y-36769990D02*
X120976400Y-36769990D01*
X120976400Y-36769990D02*
X120176400Y-35969990D01*
X117240000Y-35733590D02*
X117240000Y-34620000D01*
X117476400Y-35969990D02*
X117240000Y-35733590D01*
X129790000Y-37120000D02*
X127290000Y-36747847D01*
X127290000Y-36747847D02*
X123090000Y-36769990D01*
X120176400Y-35969990D02*
X117476400Y-35969990D01*
%TO.N,R3_S*%
X127290000Y-37220000D02*
X120790000Y-37220000D01*
X116740000Y-35870000D02*
X116740000Y-34620000D01*
X119990000Y-36420000D02*
X117290000Y-36420000D01*
X120790000Y-37220000D02*
X119990000Y-36420000D01*
X117290000Y-36420000D02*
X116740000Y-35870000D01*
X138290000Y-39220000D02*
X132790000Y-38020000D01*
X132790000Y-38020000D02*
X127290000Y-37220000D01*
X141208713Y-39955747D02*
X138290000Y-39220000D01*
%TO.N,L1_S*%
X113900023Y-35544979D02*
X111792201Y-35544979D01*
X114240000Y-34620000D02*
X114240000Y-35205002D01*
X111067190Y-36269990D02*
X108739990Y-36269990D01*
X114240000Y-35205002D02*
X113900023Y-35544979D01*
X111792201Y-35544979D02*
X111067190Y-36269990D01*
X108739990Y-36269990D02*
X107990000Y-35520000D01*
%TO.N,L2_S*%
X111978601Y-35994989D02*
X111253590Y-36720000D01*
X97090000Y-37720000D02*
X96890000Y-37120000D01*
X99105703Y-37577517D02*
X97438392Y-37971608D01*
X114740000Y-35341412D02*
X114086422Y-35994990D01*
X104690000Y-36720000D02*
X99105703Y-37577517D01*
X114740000Y-34620000D02*
X114740000Y-35341412D01*
X111253590Y-36720000D02*
X104690000Y-36720000D01*
X114086422Y-35994990D02*
X111978600Y-35994990D01*
X97438392Y-37971608D02*
X97090000Y-37720000D01*
%TO.N,L3_S*%
X86190000Y-41120000D02*
X86908181Y-41338181D01*
X114272822Y-36445000D02*
X115240000Y-35477822D01*
X111390000Y-37220000D02*
X112165001Y-36444999D01*
X85790000Y-40020000D02*
X86190000Y-41120000D01*
X104690000Y-37220000D02*
X111390000Y-37220000D01*
X99190000Y-38020000D02*
X104690000Y-37220000D01*
X93690000Y-39320000D02*
X99190000Y-38020000D01*
X86908181Y-41338181D02*
X88290000Y-40820000D01*
X88290000Y-40820000D02*
X93690000Y-39320000D01*
X112165001Y-36444999D02*
X114272822Y-36445000D01*
X115240000Y-35477822D02*
X115240000Y-34620000D01*
%TO.N,Net-(Q2-Pad1)*%
X155831346Y-71002276D02*
X155831346Y-72081088D01*
X155756217Y-72156217D02*
X153597372Y-73402628D01*
X153400000Y-72939230D02*
X152800000Y-71900000D01*
X155831346Y-72081088D02*
X155756217Y-72156217D01*
%TO.N,Net-(Q3-Pad1)*%
X77400000Y-73000000D02*
X78872243Y-73850000D01*
X77400000Y-73000000D02*
X76500000Y-73000000D01*
X76100000Y-73400000D02*
X76450000Y-73050000D01*
X76500000Y-73000000D02*
X76450000Y-73050000D01*
X79000000Y-74200000D02*
X78150000Y-75672243D01*
%TO.N,Net-(Q4-Pad1)*%
X124520000Y-72200000D02*
X124520000Y-70340000D01*
X122800000Y-70200000D02*
X122750000Y-70250000D01*
X124670000Y-71850000D02*
X124720000Y-71900000D01*
X124660000Y-70200000D02*
X122800000Y-70200000D01*
X124620000Y-70240000D02*
X124660000Y-70200000D01*
%TO.N,Goal_S*%
X125528760Y-92500000D02*
X126200000Y-92500000D01*
X152823865Y-79788578D02*
X152823865Y-78657125D01*
X152823865Y-78657125D02*
X150000000Y-75833260D01*
X121801922Y-91300000D02*
X122400936Y-90700986D01*
X150000000Y-75833260D02*
X150000000Y-75514360D01*
X150000000Y-75514360D02*
X150114360Y-75400000D01*
X134799999Y-92500000D02*
X135400000Y-93100001D01*
X123729746Y-90700986D02*
X125528760Y-92500000D01*
X150114360Y-75400000D02*
X151967822Y-74329902D01*
X122400936Y-90700986D02*
X123729746Y-90700986D01*
X126100000Y-92500000D02*
X126200000Y-92500000D01*
X126200000Y-92500000D02*
X134799999Y-92500000D01*
%TO.N,Line_S*%
X121900000Y-89400000D02*
X122047383Y-89547383D01*
X126400000Y-72300000D02*
X126400000Y-73300000D01*
X121448369Y-90911106D02*
X121448369Y-90946447D01*
X126400000Y-73600000D02*
X126400000Y-73300000D01*
X122047383Y-89547383D02*
X122047383Y-90312092D01*
X125800000Y-74200000D02*
X126400000Y-73600000D01*
X122500000Y-74200000D02*
X125800000Y-74200000D01*
X122047383Y-90312092D02*
X121448369Y-90911106D01*
%TO.N,Corner_S*%
X112381045Y-99306664D02*
X112381045Y-99842773D01*
X80835644Y-75100000D02*
X80817601Y-75081957D01*
X112980058Y-98707651D02*
X112381045Y-99306664D01*
X84200000Y-75100000D02*
X80835644Y-75100000D01*
X112381045Y-99842773D02*
X112161909Y-100061909D01*
%TO.N,R4_Sens*%
X112272951Y-88825126D02*
X115072826Y-91625001D01*
X116150000Y-76450000D02*
X117700000Y-78000000D01*
X116150000Y-72450000D02*
X116150000Y-76450000D01*
X115072826Y-91625001D02*
X116625001Y-91625001D01*
X116625001Y-91625001D02*
X116800000Y-91800000D01*
X117700000Y-78000000D02*
X117800000Y-78000000D01*
%TO.N,L4_Sens*%
X115154932Y-91000000D02*
X116800000Y-91000000D01*
X112626505Y-88471573D02*
X115154932Y-91000000D01*
X117800000Y-79000000D02*
X115650000Y-76850000D01*
X115650000Y-76850000D02*
X115650000Y-72450000D01*
D46*
%TO.N,GND1*%
X113490000Y-34620000D02*
X112440000Y-34620000D01*
X113490000Y-34620000D02*
X112190000Y-34620000D01*
D44*
%TO.N,Net-(C16-Pad1)*%
X136525000Y-89025000D02*
X136525000Y-93175000D01*
X136525000Y-89025000D02*
X135625040Y-88125040D01*
X135625040Y-88125040D02*
X122148455Y-88125040D01*
X122148455Y-88125040D02*
X120387709Y-89885786D01*
%TO.N,Net-(C20-Pad1)*%
X108900000Y-91109029D02*
X109444524Y-91653553D01*
X108900000Y-91100239D02*
X108900000Y-91109029D01*
X108300000Y-90200000D02*
X108300000Y-90509029D01*
X108300000Y-90509029D02*
X109444524Y-91653553D01*
D46*
%TO.N,+3.3V1*%
X121771954Y-33096290D02*
X122998094Y-33211906D01*
X119313710Y-33096290D02*
X118490001Y-33919999D01*
X134703709Y-34806291D02*
X139290000Y-35820000D01*
X119290000Y-33120000D02*
X119313710Y-33096290D01*
X87190000Y-37420000D02*
X82912223Y-38897777D01*
X127673815Y-33652792D02*
X128911548Y-33841548D01*
X144801085Y-37414499D02*
X145968837Y-37841163D01*
X92790000Y-35820000D02*
X88356667Y-37086667D01*
X117820002Y-33120000D02*
X118490001Y-33789999D01*
X122998094Y-33211906D02*
X127673815Y-33652792D01*
X110090000Y-33120000D02*
X105486826Y-33516826D01*
X121771954Y-33096290D02*
X119313710Y-33096290D01*
X88356667Y-37086667D02*
X87190000Y-37420000D01*
X118490001Y-33789999D02*
X118490001Y-34620000D01*
X117820002Y-33120000D02*
X119290000Y-33120000D01*
X150290000Y-39420000D02*
X151490000Y-39920000D01*
X104290000Y-33620000D02*
X99885454Y-34315454D01*
X110090000Y-33120000D02*
X111190000Y-33120000D01*
D44*
X81937072Y-39567072D02*
X81690000Y-39320000D01*
D46*
X93950000Y-35560000D02*
X92790000Y-35820000D01*
X140415691Y-36145691D02*
X144801085Y-37414499D01*
X139290000Y-35820000D02*
X140415691Y-36145691D01*
X111190000Y-33120000D02*
X117820002Y-33120000D01*
X145968837Y-37841163D02*
X150290000Y-39420000D01*
X99885454Y-34315454D02*
X98590000Y-34520000D01*
X105486826Y-33516826D02*
X104290000Y-33620000D01*
X82912223Y-38897777D02*
X81690000Y-39320000D01*
X128911548Y-33841548D02*
X133515473Y-34543656D01*
X98590000Y-34520000D02*
X93950000Y-35560000D01*
X118490001Y-34420000D02*
X118490001Y-33919999D01*
X133515473Y-34543656D02*
X134703709Y-34806291D01*
D44*
%TO.N,USART_RX*%
X100060000Y-49870000D02*
X99765000Y-49870000D01*
X133800000Y-48530000D02*
X133800000Y-47020000D01*
X133800000Y-47020000D02*
X133745000Y-46965000D01*
%TO.N,USART_TX*%
X132000000Y-50600000D02*
X132000000Y-51400000D01*
X132000000Y-50000000D02*
X132000000Y-50600000D01*
X132745000Y-49255000D02*
X132000000Y-50000000D01*
X136035000Y-49255000D02*
X132745000Y-49255000D01*
%TO.N,SW2*%
X119400000Y-60650000D02*
X123293971Y-60650000D01*
X115200000Y-60600000D02*
X115250000Y-60650000D01*
X123293971Y-60650000D02*
X124769333Y-59174638D01*
X115250000Y-60650000D02*
X119400000Y-60650000D01*
X136035000Y-54335000D02*
X133465000Y-54335000D01*
X133430000Y-54300000D02*
X133300000Y-54300000D01*
X133465000Y-54335000D02*
X133430000Y-54300000D01*
X124769333Y-59174638D02*
X127725362Y-59174638D01*
X113500000Y-60600000D02*
X115200000Y-60600000D01*
%TO.N,GND2*%
X107050000Y-58550000D02*
X107100000Y-58600000D01*
X130560000Y-58840000D02*
X130260000Y-58540000D01*
X119400000Y-58500000D02*
X118100000Y-58500000D01*
X115250000Y-58500000D02*
X116600000Y-58500000D01*
X130260000Y-58540000D02*
X129960000Y-58240000D01*
X129310000Y-58840000D02*
X129840000Y-58840000D01*
X129960000Y-58720000D02*
X129840000Y-58840000D01*
D48*
X133745000Y-60535000D02*
X131305000Y-60535000D01*
D44*
X108750000Y-58550000D02*
X108600000Y-58700000D01*
X109900000Y-58550000D02*
X108750000Y-58550000D01*
D49*
X101000001Y-51469999D02*
X101000001Y-53044001D01*
D44*
X130060000Y-58840000D02*
X130060000Y-58740000D01*
D49*
X101000001Y-53044001D02*
X99700000Y-54344002D01*
D44*
X129960000Y-58660000D02*
X129960000Y-58720000D01*
X122565000Y-53065000D02*
X121165000Y-53065000D01*
X114862500Y-48637500D02*
X115600000Y-47900000D01*
D49*
X102600000Y-49870000D02*
X101000001Y-51469999D01*
X99700000Y-54344002D02*
X99700000Y-54960000D01*
D44*
X130060000Y-58740000D02*
X130260000Y-58540000D01*
D46*
X107300000Y-54300000D02*
X107300000Y-49600000D01*
D45*
X117900000Y-54100000D02*
X119600000Y-54100000D01*
D44*
X129840000Y-58840000D02*
X130060000Y-58840000D01*
X114200000Y-48637500D02*
X114862500Y-48637500D01*
X131205000Y-59485000D02*
X130560000Y-58840000D01*
X118160000Y-54060000D02*
X118200000Y-54100000D01*
X121165000Y-53065000D02*
X121100000Y-53000000D01*
X127087529Y-57212471D02*
X127075058Y-57200000D01*
D48*
X131305000Y-60535000D02*
X131205000Y-60435000D01*
D44*
X128665000Y-60435000D02*
X128665000Y-59485000D01*
X129960000Y-58240000D02*
X129960000Y-58660000D01*
X122565000Y-53065000D02*
X122965000Y-53065000D01*
X105750000Y-58550000D02*
X107050000Y-58550000D01*
X117300000Y-47100000D02*
X117300000Y-47300000D01*
D45*
X116000000Y-53500000D02*
X115400000Y-54100000D01*
D44*
X131205000Y-60435000D02*
X131205000Y-59485000D01*
X116125000Y-46725000D02*
X116925000Y-46725000D01*
X115900000Y-57100000D02*
X117200000Y-57100000D01*
X122965000Y-53065000D02*
X123700000Y-53800000D01*
X129960000Y-58240000D02*
X128932471Y-57212471D01*
X127075058Y-57200000D02*
X124400000Y-57200000D01*
X130060000Y-58840000D02*
X130560000Y-58840000D01*
X128932471Y-57212471D02*
X127087529Y-57212471D01*
D45*
X119600000Y-54100000D02*
X119600000Y-54100000D01*
D44*
X129960000Y-58660000D02*
X130060000Y-58760000D01*
X128665000Y-59485000D02*
X129310000Y-58840000D01*
X130060000Y-58760000D02*
X130060000Y-58840000D01*
X116925000Y-46725000D02*
X117300000Y-47100000D01*
X120275000Y-46725000D02*
X119475000Y-46725000D01*
X123700000Y-53800000D02*
X123700000Y-56500000D01*
D45*
X116000000Y-52600000D02*
X116000000Y-53500000D01*
D44*
X119475000Y-46725000D02*
X118900000Y-47300000D01*
X123700000Y-56500000D02*
X124400000Y-57200000D01*
D49*
%TO.N,+5V1*%
X102600000Y-52410000D02*
X102600000Y-53000000D01*
D46*
X102600000Y-52410000D02*
X102600000Y-52803998D01*
D44*
X115200000Y-56400000D02*
X115900000Y-55700000D01*
D49*
X101000001Y-54599999D02*
X101000001Y-56199999D01*
D44*
X113650000Y-56400000D02*
X115200000Y-56400000D01*
D49*
X102600000Y-53000000D02*
X101000001Y-54599999D01*
X101000001Y-56199999D02*
X99700000Y-57500000D01*
D46*
X115900000Y-55700000D02*
X117100000Y-55700000D01*
D44*
%TO.N,+3.3V_1*%
X111600000Y-50800000D02*
X112300000Y-50100000D01*
X136035000Y-53065000D02*
X129115010Y-53065000D01*
X128025000Y-51974990D02*
X128025000Y-48600000D01*
D45*
X116000000Y-51200000D02*
X117760000Y-51200000D01*
X119500000Y-51100000D02*
X118140000Y-51100000D01*
D44*
X111600000Y-58720000D02*
X111600000Y-50800000D01*
D45*
X118140000Y-51100000D02*
X117900000Y-51340000D01*
D44*
X117900000Y-51300000D02*
X118100000Y-51100000D01*
X114350000Y-51100000D02*
X113650000Y-51800000D01*
X112500000Y-50100000D02*
X113520000Y-50100000D01*
D45*
X113650000Y-51800000D02*
X115400000Y-51800000D01*
D44*
X113500000Y-58720000D02*
X111600000Y-58720000D01*
X112300000Y-50100000D02*
X112500000Y-50100000D01*
X112100000Y-48680000D02*
X112100000Y-49700000D01*
D45*
X115400000Y-51800000D02*
X116000000Y-51200000D01*
D44*
X113520000Y-50100000D02*
X117100000Y-50100000D01*
X117100000Y-50100000D02*
X118100000Y-51100000D01*
X112100000Y-49700000D02*
X112500000Y-50100000D01*
X129115010Y-53065000D02*
X128025000Y-51974990D01*
D45*
X117760000Y-51200000D02*
X117900000Y-51340000D01*
D44*
%TO.N,Net-(D6-Pad2)*%
X112137500Y-46762500D02*
X112100000Y-46800000D01*
X114200000Y-46762500D02*
X112137500Y-46762500D01*
%TO.N,SDA*%
X126575000Y-49300000D02*
X122610000Y-49300000D01*
X122610000Y-49300000D02*
X122565000Y-49255000D01*
%TO.N,SCL*%
X127400000Y-46970000D02*
X127395000Y-46965000D01*
X127300000Y-54700000D02*
X127300000Y-47060000D01*
X127300000Y-47060000D02*
X127395000Y-46965000D01*
%TO.N,Net-(S4-Pad2)*%
X120275000Y-48875000D02*
X120275000Y-53248002D01*
X120275000Y-53248002D02*
X121361998Y-54335000D01*
X120275000Y-48875000D02*
X116125000Y-48875000D01*
X121361998Y-54335000D02*
X122565000Y-54335000D01*
D48*
%TO.N,Boot1*%
X136035000Y-55605000D02*
X136035000Y-56265000D01*
D44*
X135070727Y-55300727D02*
X136035000Y-56265000D01*
X135730727Y-55300727D02*
X136035000Y-55605000D01*
X111600000Y-60600000D02*
X110000000Y-60600000D01*
X123552562Y-59754999D02*
X111675001Y-59754999D01*
X111675001Y-59754999D02*
X111600000Y-59830000D01*
X111600000Y-59830000D02*
X111600000Y-60600000D01*
X105750000Y-60700000D02*
X109900000Y-60700000D01*
X125370089Y-57937472D02*
X123552562Y-59754999D01*
X110000000Y-60600000D02*
X109900000Y-60700000D01*
D48*
X136035000Y-56265000D02*
X136035000Y-56875000D01*
D44*
X134300727Y-55300727D02*
X135070727Y-55300727D01*
X128487834Y-57937472D02*
X125370089Y-57937472D01*
%TO.N,Switch1*%
X125500000Y-110000000D02*
X143500000Y-110000000D01*
X144240000Y-110740000D02*
X144240000Y-112100000D01*
X144240000Y-112100000D02*
X144240000Y-114560000D01*
X143340000Y-115460000D02*
X143300000Y-115500000D01*
X121801922Y-95525670D02*
X121801922Y-95561010D01*
X121801922Y-95561010D02*
X124800000Y-98559088D01*
X143500000Y-110000000D02*
X144240000Y-110740000D01*
X124800000Y-109300000D02*
X125500000Y-110000000D01*
X144240000Y-114560000D02*
X143300000Y-115500000D01*
X124800000Y-98559088D02*
X124800000Y-109300000D01*
%TO.N,Net-(IC6-Pad37)*%
X110505184Y-96232777D02*
X110469843Y-96232777D01*
%TO.N,Net-(IC7-Pad2)*%
X158415001Y-71065001D02*
X158125000Y-70775000D01*
X158455001Y-71105001D02*
X158415001Y-71065001D01*
X166294999Y-71105001D02*
X158455001Y-71105001D01*
X167000000Y-70400000D02*
X166294999Y-71105001D01*
%TD*%
M02*
