%TF.GenerationSoftware,KiCad,Pcbnew,(5.1.8)-1*%
%TF.CreationDate,2023-07-29T11:14:22+09:00*%
%TF.ProjectId,Tracer,54726163-6572-42e6-9b69-6361645f7063,rev?*%
%TF.SameCoordinates,Original*%
%TF.FileFunction,Paste,Bot*%
%TF.FilePolarity,Positive*%
%FSLAX46Y46*%
G04 Gerber Fmt 4.6, Leading zero omitted, Abs format (unit mm)*
G04 Created by KiCad (PCBNEW (5.1.8)-1) date 2023-07-29 11:14:22*
%MOMM*%
%LPD*%
G01*
G04 APERTURE LIST*
%ADD10C,0.100000*%
G04 APERTURE END LIST*
%TO.C,IC19*%
G36*
G01*
X96136559Y-34351100D02*
X96627866Y-34258267D01*
G75*
G02*
X96919936Y-34457503I46417J-245653D01*
G01*
X97012769Y-34948810D01*
G75*
G02*
X96813533Y-35240880I-245653J-46417D01*
G01*
X96322226Y-35333713D01*
G75*
G02*
X96030156Y-35134477I-46417J245653D01*
G01*
X95937323Y-34643170D01*
G75*
G02*
X96136559Y-34351100I245653J46417D01*
G01*
G37*
G36*
G01*
X95839493Y-32778920D02*
X96330800Y-32686087D01*
G75*
G02*
X96622870Y-32885323I46417J-245653D01*
G01*
X96715703Y-33376630D01*
G75*
G02*
X96516467Y-33668700I-245653J-46417D01*
G01*
X96025160Y-33761533D01*
G75*
G02*
X95733090Y-33562297I-46417J245653D01*
G01*
X95640257Y-33070990D01*
G75*
G02*
X95839493Y-32778920I245653J46417D01*
G01*
G37*
G36*
G01*
X100361794Y-33552734D02*
X100853101Y-33459901D01*
G75*
G02*
X101145171Y-33659137I46417J-245653D01*
G01*
X101238004Y-34150444D01*
G75*
G02*
X101038768Y-34442514I-245653J-46417D01*
G01*
X100547461Y-34535347D01*
G75*
G02*
X100255391Y-34336111I-46417J245653D01*
G01*
X100162558Y-33844804D01*
G75*
G02*
X100361794Y-33552734I245653J46417D01*
G01*
G37*
G36*
G01*
X100064728Y-31980553D02*
X100556035Y-31887720D01*
G75*
G02*
X100848105Y-32086956I46417J-245653D01*
G01*
X100940938Y-32578263D01*
G75*
G02*
X100741702Y-32870333I-245653J-46417D01*
G01*
X100250395Y-32963166D01*
G75*
G02*
X99958325Y-32763930I-46417J245653D01*
G01*
X99865492Y-32272623D01*
G75*
G02*
X100064728Y-31980553I245653J46417D01*
G01*
G37*
%TD*%
%TO.C,IC16*%
G36*
G01*
X148392555Y-37941856D02*
X148858083Y-38124294D01*
G75*
G02*
X148999628Y-38448277I-91219J-232764D01*
G01*
X148817190Y-38913805D01*
G75*
G02*
X148493207Y-39055350I-232764J91219D01*
G01*
X148027679Y-38872912D01*
G75*
G02*
X147886134Y-38548929I91219J232764D01*
G01*
X148068572Y-38083401D01*
G75*
G02*
X148392555Y-37941856I232764J-91219D01*
G01*
G37*
G36*
G01*
X148976358Y-36452167D02*
X149441886Y-36634605D01*
G75*
G02*
X149583431Y-36958588I-91219J-232764D01*
G01*
X149400993Y-37424116D01*
G75*
G02*
X149077010Y-37565661I-232764J91219D01*
G01*
X148611482Y-37383223D01*
G75*
G02*
X148469937Y-37059240I91219J232764D01*
G01*
X148652375Y-36593712D01*
G75*
G02*
X148976358Y-36452167I232764J-91219D01*
G01*
G37*
G36*
G01*
X152396095Y-39510827D02*
X152861623Y-39693265D01*
G75*
G02*
X153003168Y-40017248I-91219J-232764D01*
G01*
X152820730Y-40482776D01*
G75*
G02*
X152496747Y-40624321I-232764J91219D01*
G01*
X152031219Y-40441883D01*
G75*
G02*
X151889674Y-40117900I91219J232764D01*
G01*
X152072112Y-39652372D01*
G75*
G02*
X152396095Y-39510827I232764J-91219D01*
G01*
G37*
G36*
G01*
X152979898Y-38021137D02*
X153445426Y-38203575D01*
G75*
G02*
X153586971Y-38527558I-91219J-232764D01*
G01*
X153404533Y-38993086D01*
G75*
G02*
X153080550Y-39134631I-232764J91219D01*
G01*
X152615022Y-38952193D01*
G75*
G02*
X152473477Y-38628210I91219J232764D01*
G01*
X152655915Y-38162682D01*
G75*
G02*
X152979898Y-38021137I232764J-91219D01*
G01*
G37*
%TD*%
%TO.C,IC18*%
G36*
G01*
X101895101Y-33308163D02*
X102391267Y-33246363D01*
G75*
G02*
X102670250Y-33463546I30900J-248083D01*
G01*
X102732050Y-33959712D01*
G75*
G02*
X102514867Y-34238695I-248083J-30900D01*
G01*
X102018701Y-34300495D01*
G75*
G02*
X101739718Y-34083312I-30900J248083D01*
G01*
X101677918Y-33587146D01*
G75*
G02*
X101895101Y-33308163I248083J30900D01*
G01*
G37*
G36*
G01*
X101697339Y-31720432D02*
X102193505Y-31658632D01*
G75*
G02*
X102472488Y-31875815I30900J-248083D01*
G01*
X102534288Y-32371981D01*
G75*
G02*
X102317105Y-32650964I-248083J-30900D01*
G01*
X101820939Y-32712764D01*
G75*
G02*
X101541956Y-32495581I-30900J248083D01*
G01*
X101480156Y-31999415D01*
G75*
G02*
X101697339Y-31720432I248083J30900D01*
G01*
G37*
G36*
G01*
X106162128Y-32776676D02*
X106658294Y-32714876D01*
G75*
G02*
X106937277Y-32932059I30900J-248083D01*
G01*
X106999077Y-33428225D01*
G75*
G02*
X106781894Y-33707208I-248083J-30900D01*
G01*
X106285728Y-33769008D01*
G75*
G02*
X106006745Y-33551825I-30900J248083D01*
G01*
X105944945Y-33055659D01*
G75*
G02*
X106162128Y-32776676I248083J30900D01*
G01*
G37*
G36*
G01*
X105964366Y-31188945D02*
X106460532Y-31127145D01*
G75*
G02*
X106739515Y-31344328I30900J-248083D01*
G01*
X106801315Y-31840494D01*
G75*
G02*
X106584132Y-32119477I-248083J-30900D01*
G01*
X106087966Y-32181277D01*
G75*
G02*
X105808983Y-31964094I-30900J248083D01*
G01*
X105747183Y-31467928D01*
G75*
G02*
X105964366Y-31188945I248083J30900D01*
G01*
G37*
%TD*%
%TO.C,IC11*%
G36*
G01*
X119525800Y-32271850D02*
X120024813Y-32303245D01*
G75*
G02*
X120258622Y-32568450I-15698J-249507D01*
G01*
X120227227Y-33067463D01*
G75*
G02*
X119962022Y-33301272I-249507J15698D01*
G01*
X119463009Y-33269877D01*
G75*
G02*
X119229200Y-33004672I15698J249507D01*
G01*
X119260595Y-32505659D01*
G75*
G02*
X119525800Y-32271850I249507J-15698D01*
G01*
G37*
G36*
G01*
X119626265Y-30675008D02*
X120125278Y-30706403D01*
G75*
G02*
X120359087Y-30971608I-15698J-249507D01*
G01*
X120327692Y-31470621D01*
G75*
G02*
X120062487Y-31704430I-249507J15698D01*
G01*
X119563474Y-31673035D01*
G75*
G02*
X119329665Y-31407830I15698J249507D01*
G01*
X119361060Y-30908817D01*
G75*
G02*
X119626265Y-30675008I249507J-15698D01*
G01*
G37*
G36*
G01*
X123817315Y-32541850D02*
X124316328Y-32573245D01*
G75*
G02*
X124550137Y-32838450I-15698J-249507D01*
G01*
X124518742Y-33337463D01*
G75*
G02*
X124253537Y-33571272I-249507J15698D01*
G01*
X123754524Y-33539877D01*
G75*
G02*
X123520715Y-33274672I15698J249507D01*
G01*
X123552110Y-32775659D01*
G75*
G02*
X123817315Y-32541850I249507J-15698D01*
G01*
G37*
G36*
G01*
X123917780Y-30945007D02*
X124416793Y-30976402D01*
G75*
G02*
X124650602Y-31241607I-15698J-249507D01*
G01*
X124619207Y-31740620D01*
G75*
G02*
X124354002Y-31974429I-249507J15698D01*
G01*
X123854989Y-31943034D01*
G75*
G02*
X123621180Y-31677829I15698J249507D01*
G01*
X123652575Y-31178816D01*
G75*
G02*
X123917780Y-30945007I249507J-15698D01*
G01*
G37*
%TD*%
%TO.C,IC22*%
G36*
G01*
X79211482Y-39656777D02*
X79677010Y-39474339D01*
G75*
G02*
X80000993Y-39615884I91219J-232764D01*
G01*
X80183431Y-40081412D01*
G75*
G02*
X80041886Y-40405395I-232764J-91219D01*
G01*
X79576358Y-40587833D01*
G75*
G02*
X79252375Y-40446288I-91219J232764D01*
G01*
X79069937Y-39980760D01*
G75*
G02*
X79211482Y-39656777I232764J91219D01*
G01*
G37*
G36*
G01*
X78627679Y-38167088D02*
X79093207Y-37984650D01*
G75*
G02*
X79417190Y-38126195I91219J-232764D01*
G01*
X79599628Y-38591723D01*
G75*
G02*
X79458083Y-38915706I-232764J-91219D01*
G01*
X78992555Y-39098144D01*
G75*
G02*
X78668572Y-38956599I-91219J232764D01*
G01*
X78486134Y-38491071D01*
G75*
G02*
X78627679Y-38167088I232764J91219D01*
G01*
G37*
G36*
G01*
X83215022Y-38087807D02*
X83680550Y-37905369D01*
G75*
G02*
X84004533Y-38046914I91219J-232764D01*
G01*
X84186971Y-38512442D01*
G75*
G02*
X84045426Y-38836425I-232764J-91219D01*
G01*
X83579898Y-39018863D01*
G75*
G02*
X83255915Y-38877318I-91219J232764D01*
G01*
X83073477Y-38411790D01*
G75*
G02*
X83215022Y-38087807I232764J91219D01*
G01*
G37*
G36*
G01*
X82631219Y-36598117D02*
X83096747Y-36415679D01*
G75*
G02*
X83420730Y-36557224I91219J-232764D01*
G01*
X83603168Y-37022752D01*
G75*
G02*
X83461623Y-37346735I-232764J-91219D01*
G01*
X82996095Y-37529173D01*
G75*
G02*
X82672112Y-37387628I-91219J232764D01*
G01*
X82489674Y-36922100D01*
G75*
G02*
X82631219Y-36598117I232764J91219D01*
G01*
G37*
%TD*%
%TO.C,IC17*%
G36*
G01*
X107763474Y-32566965D02*
X108262487Y-32535570D01*
G75*
G02*
X108527692Y-32769379I15698J-249507D01*
G01*
X108559087Y-33268392D01*
G75*
G02*
X108325278Y-33533597I-249507J-15698D01*
G01*
X107826265Y-33564992D01*
G75*
G02*
X107561060Y-33331183I-15698J249507D01*
G01*
X107529665Y-32832170D01*
G75*
G02*
X107763474Y-32566965I249507J15698D01*
G01*
G37*
G36*
G01*
X107663009Y-30970123D02*
X108162022Y-30938728D01*
G75*
G02*
X108427227Y-31172537I15698J-249507D01*
G01*
X108458622Y-31671550D01*
G75*
G02*
X108224813Y-31936755I-249507J-15698D01*
G01*
X107725800Y-31968150D01*
G75*
G02*
X107460595Y-31734341I-15698J249507D01*
G01*
X107429200Y-31235328D01*
G75*
G02*
X107663009Y-30970123I249507J15698D01*
G01*
G37*
G36*
G01*
X112054989Y-32296966D02*
X112554002Y-32265571D01*
G75*
G02*
X112819207Y-32499380I15698J-249507D01*
G01*
X112850602Y-32998393D01*
G75*
G02*
X112616793Y-33263598I-249507J-15698D01*
G01*
X112117780Y-33294993D01*
G75*
G02*
X111852575Y-33061184I-15698J249507D01*
G01*
X111821180Y-32562171D01*
G75*
G02*
X112054989Y-32296966I249507J15698D01*
G01*
G37*
G36*
G01*
X111954524Y-30700123D02*
X112453537Y-30668728D01*
G75*
G02*
X112718742Y-30902537I15698J-249507D01*
G01*
X112750137Y-31401550D01*
G75*
G02*
X112516328Y-31666755I-249507J-15698D01*
G01*
X112017315Y-31698150D01*
G75*
G02*
X111752110Y-31464341I-15698J249507D01*
G01*
X111720715Y-30965328D01*
G75*
G02*
X111954524Y-30700123I249507J15698D01*
G01*
G37*
%TD*%
%TO.C,IC15*%
G36*
G01*
X142761546Y-36083190D02*
X143237343Y-36236869D01*
G75*
G02*
X143398403Y-36551607I-76839J-237899D01*
G01*
X143244724Y-37027404D01*
G75*
G02*
X142929986Y-37188464I-237899J76839D01*
G01*
X142454189Y-37034785D01*
G75*
G02*
X142293129Y-36720047I76839J237899D01*
G01*
X142446808Y-36244250D01*
G75*
G02*
X142761546Y-36083190I237899J-76839D01*
G01*
G37*
G36*
G01*
X143253317Y-34560639D02*
X143729114Y-34714318D01*
G75*
G02*
X143890174Y-35029056I-76839J-237899D01*
G01*
X143736495Y-35504853D01*
G75*
G02*
X143421757Y-35665913I-237899J76839D01*
G01*
X142945960Y-35512234D01*
G75*
G02*
X142784900Y-35197496I76839J237899D01*
G01*
X142938579Y-34721699D01*
G75*
G02*
X143253317Y-34560639I237899J-76839D01*
G01*
G37*
G36*
G01*
X146853402Y-37404823D02*
X147329199Y-37558502D01*
G75*
G02*
X147490259Y-37873240I-76839J-237899D01*
G01*
X147336580Y-38349037D01*
G75*
G02*
X147021842Y-38510097I-237899J76839D01*
G01*
X146546045Y-38356418D01*
G75*
G02*
X146384985Y-38041680I76839J237899D01*
G01*
X146538664Y-37565883D01*
G75*
G02*
X146853402Y-37404823I237899J-76839D01*
G01*
G37*
G36*
G01*
X147345173Y-35882272D02*
X147820970Y-36035951D01*
G75*
G02*
X147982030Y-36350689I-76839J-237899D01*
G01*
X147828351Y-36826486D01*
G75*
G02*
X147513613Y-36987546I-237899J76839D01*
G01*
X147037816Y-36833867D01*
G75*
G02*
X146876756Y-36519129I76839J237899D01*
G01*
X147030435Y-36043332D01*
G75*
G02*
X147345173Y-35882272I237899J-76839D01*
G01*
G37*
%TD*%
%TO.C,IC21*%
G36*
G01*
X84745960Y-37527766D02*
X85221757Y-37374087D01*
G75*
G02*
X85536495Y-37535147I76839J-237899D01*
G01*
X85690174Y-38010944D01*
G75*
G02*
X85529114Y-38325682I-237899J-76839D01*
G01*
X85053317Y-38479361D01*
G75*
G02*
X84738579Y-38318301I-76839J237899D01*
G01*
X84584900Y-37842504D01*
G75*
G02*
X84745960Y-37527766I237899J76839D01*
G01*
G37*
G36*
G01*
X84254189Y-36005215D02*
X84729986Y-35851536D01*
G75*
G02*
X85044724Y-36012596I76839J-237899D01*
G01*
X85198403Y-36488393D01*
G75*
G02*
X85037343Y-36803131I-237899J-76839D01*
G01*
X84561546Y-36956810D01*
G75*
G02*
X84246808Y-36795750I-76839J237899D01*
G01*
X84093129Y-36319953D01*
G75*
G02*
X84254189Y-36005215I237899J76839D01*
G01*
G37*
G36*
G01*
X88837816Y-36206133D02*
X89313613Y-36052454D01*
G75*
G02*
X89628351Y-36213514I76839J-237899D01*
G01*
X89782030Y-36689311D01*
G75*
G02*
X89620970Y-37004049I-237899J-76839D01*
G01*
X89145173Y-37157728D01*
G75*
G02*
X88830435Y-36996668I-76839J237899D01*
G01*
X88676756Y-36520871D01*
G75*
G02*
X88837816Y-36206133I237899J76839D01*
G01*
G37*
G36*
G01*
X88346045Y-34683582D02*
X88821842Y-34529903D01*
G75*
G02*
X89136580Y-34690963I76839J-237899D01*
G01*
X89290259Y-35166760D01*
G75*
G02*
X89129199Y-35481498I-237899J-76839D01*
G01*
X88653402Y-35635177D01*
G75*
G02*
X88338664Y-35474117I-76839J237899D01*
G01*
X88184985Y-34998320D01*
G75*
G02*
X88346045Y-34683582I237899J76839D01*
G01*
G37*
%TD*%
%TO.C,IC13*%
G36*
G01*
X131325160Y-33478467D02*
X131816467Y-33571300D01*
G75*
G02*
X132015703Y-33863370I-46417J-245653D01*
G01*
X131922870Y-34354677D01*
G75*
G02*
X131630800Y-34553913I-245653J46417D01*
G01*
X131139493Y-34461080D01*
G75*
G02*
X130940257Y-34169010I46417J245653D01*
G01*
X131033090Y-33677703D01*
G75*
G02*
X131325160Y-33478467I245653J-46417D01*
G01*
G37*
G36*
G01*
X131622226Y-31906287D02*
X132113533Y-31999120D01*
G75*
G02*
X132312769Y-32291190I-46417J-245653D01*
G01*
X132219936Y-32782497D01*
G75*
G02*
X131927866Y-32981733I-245653J46417D01*
G01*
X131436559Y-32888900D01*
G75*
G02*
X131237323Y-32596830I46417J245653D01*
G01*
X131330156Y-32105523D01*
G75*
G02*
X131622226Y-31906287I245653J-46417D01*
G01*
G37*
G36*
G01*
X135550395Y-34276834D02*
X136041702Y-34369667D01*
G75*
G02*
X136240938Y-34661737I-46417J-245653D01*
G01*
X136148105Y-35153044D01*
G75*
G02*
X135856035Y-35352280I-245653J46417D01*
G01*
X135364728Y-35259447D01*
G75*
G02*
X135165492Y-34967377I46417J245653D01*
G01*
X135258325Y-34476070D01*
G75*
G02*
X135550395Y-34276834I245653J-46417D01*
G01*
G37*
G36*
G01*
X135847461Y-32704653D02*
X136338768Y-32797486D01*
G75*
G02*
X136538004Y-33089556I-46417J-245653D01*
G01*
X136445171Y-33580863D01*
G75*
G02*
X136153101Y-33780099I-245653J46417D01*
G01*
X135661794Y-33687266D01*
G75*
G02*
X135462558Y-33395196I46417J245653D01*
G01*
X135555391Y-32903889D01*
G75*
G02*
X135847461Y-32704653I245653J-46417D01*
G01*
G37*
%TD*%
%TO.C,IC12*%
G36*
G01*
X125420939Y-32727236D02*
X125917105Y-32789036D01*
G75*
G02*
X126134288Y-33068019I-30900J-248083D01*
G01*
X126072488Y-33564185D01*
G75*
G02*
X125793505Y-33781368I-248083J30900D01*
G01*
X125297339Y-33719568D01*
G75*
G02*
X125080156Y-33440585I30900J248083D01*
G01*
X125141956Y-32944419D01*
G75*
G02*
X125420939Y-32727236I248083J-30900D01*
G01*
G37*
G36*
G01*
X125618701Y-31139505D02*
X126114867Y-31201305D01*
G75*
G02*
X126332050Y-31480288I-30900J-248083D01*
G01*
X126270250Y-31976454D01*
G75*
G02*
X125991267Y-32193637I-248083J30900D01*
G01*
X125495101Y-32131837D01*
G75*
G02*
X125277918Y-31852854I30900J248083D01*
G01*
X125339718Y-31356688D01*
G75*
G02*
X125618701Y-31139505I248083J-30900D01*
G01*
G37*
G36*
G01*
X129687966Y-33258723D02*
X130184132Y-33320523D01*
G75*
G02*
X130401315Y-33599506I-30900J-248083D01*
G01*
X130339515Y-34095672D01*
G75*
G02*
X130060532Y-34312855I-248083J30900D01*
G01*
X129564366Y-34251055D01*
G75*
G02*
X129347183Y-33972072I30900J248083D01*
G01*
X129408983Y-33475906D01*
G75*
G02*
X129687966Y-33258723I248083J-30900D01*
G01*
G37*
G36*
G01*
X129885728Y-31670992D02*
X130381894Y-31732792D01*
G75*
G02*
X130599077Y-32011775I-30900J-248083D01*
G01*
X130537277Y-32507941D01*
G75*
G02*
X130258294Y-32725124I-248083J30900D01*
G01*
X129762128Y-32663324D01*
G75*
G02*
X129544945Y-32384341I30900J248083D01*
G01*
X129606745Y-31888175D01*
G75*
G02*
X129885728Y-31670992I248083J-30900D01*
G01*
G37*
%TD*%
%TO.C,IC20*%
G36*
G01*
X90386912Y-35791153D02*
X90871420Y-35667653D01*
G75*
G02*
X91175424Y-35848157I61750J-242254D01*
G01*
X91298924Y-36332665D01*
G75*
G02*
X91118420Y-36636669I-242254J-61750D01*
G01*
X90633912Y-36760169D01*
G75*
G02*
X90329908Y-36579665I-61750J242254D01*
G01*
X90206408Y-36095157D01*
G75*
G02*
X90386912Y-35791153I242254J61750D01*
G01*
G37*
G36*
G01*
X89991714Y-34240727D02*
X90476222Y-34117227D01*
G75*
G02*
X90780226Y-34297731I61750J-242254D01*
G01*
X90903726Y-34782239D01*
G75*
G02*
X90723222Y-35086243I-242254J-61750D01*
G01*
X90238714Y-35209743D01*
G75*
G02*
X89934710Y-35029239I-61750J242254D01*
G01*
X89811210Y-34544731D01*
G75*
G02*
X89991714Y-34240727I242254J61750D01*
G01*
G37*
G36*
G01*
X94553680Y-34729057D02*
X95038188Y-34605557D01*
G75*
G02*
X95342192Y-34786061I61750J-242254D01*
G01*
X95465692Y-35270569D01*
G75*
G02*
X95285188Y-35574573I-242254J-61750D01*
G01*
X94800680Y-35698073D01*
G75*
G02*
X94496676Y-35517569I-61750J242254D01*
G01*
X94373176Y-35033061D01*
G75*
G02*
X94553680Y-34729057I242254J61750D01*
G01*
G37*
G36*
G01*
X94158481Y-33178632D02*
X94642989Y-33055132D01*
G75*
G02*
X94946993Y-33235636I61750J-242254D01*
G01*
X95070493Y-33720144D01*
G75*
G02*
X94889989Y-34024148I-242254J-61750D01*
G01*
X94405481Y-34147648D01*
G75*
G02*
X94101477Y-33967144I-61750J242254D01*
G01*
X93977977Y-33482636D01*
G75*
G02*
X94158481Y-33178632I242254J61750D01*
G01*
G37*
%TD*%
%TO.C,IC14*%
G36*
G01*
X137038714Y-34630257D02*
X137523222Y-34753757D01*
G75*
G02*
X137703726Y-35057761I-61750J-242254D01*
G01*
X137580226Y-35542269D01*
G75*
G02*
X137276222Y-35722773I-242254J61750D01*
G01*
X136791714Y-35599273D01*
G75*
G02*
X136611210Y-35295269I61750J242254D01*
G01*
X136734710Y-34810761D01*
G75*
G02*
X137038714Y-34630257I242254J-61750D01*
G01*
G37*
G36*
G01*
X137433912Y-33079831D02*
X137918420Y-33203331D01*
G75*
G02*
X138098924Y-33507335I-61750J-242254D01*
G01*
X137975424Y-33991843D01*
G75*
G02*
X137671420Y-34172347I-242254J61750D01*
G01*
X137186912Y-34048847D01*
G75*
G02*
X137006408Y-33744843I61750J242254D01*
G01*
X137129908Y-33260335D01*
G75*
G02*
X137433912Y-33079831I242254J-61750D01*
G01*
G37*
G36*
G01*
X141205481Y-35692352D02*
X141689989Y-35815852D01*
G75*
G02*
X141870493Y-36119856I-61750J-242254D01*
G01*
X141746993Y-36604364D01*
G75*
G02*
X141442989Y-36784868I-242254J61750D01*
G01*
X140958481Y-36661368D01*
G75*
G02*
X140777977Y-36357364I61750J242254D01*
G01*
X140901477Y-35872856D01*
G75*
G02*
X141205481Y-35692352I242254J-61750D01*
G01*
G37*
G36*
G01*
X141600680Y-34141927D02*
X142085188Y-34265427D01*
G75*
G02*
X142265692Y-34569431I-61750J-242254D01*
G01*
X142142192Y-35053939D01*
G75*
G02*
X141838188Y-35234443I-242254J61750D01*
G01*
X141353680Y-35110943D01*
G75*
G02*
X141173176Y-34806939I61750J242254D01*
G01*
X141296676Y-34322431D01*
G75*
G02*
X141600680Y-34141927I242254J-61750D01*
G01*
G37*
%TD*%
D10*
%TO.C,R32*%
G36*
X94067656Y-39260666D02*
G01*
X93704568Y-37836213D01*
X94712344Y-37579334D01*
X95075432Y-39003787D01*
X94067656Y-39260666D01*
G37*
G36*
X92245906Y-39725024D02*
G01*
X91882818Y-38300571D01*
X92890594Y-38043692D01*
X93253682Y-39468145D01*
X92245906Y-39725024D01*
G37*
%TD*%
%TO.C,R23*%
G36*
X138704568Y-39403787D02*
G01*
X139067656Y-37979334D01*
X140075432Y-38236213D01*
X139712344Y-39660666D01*
X138704568Y-39403787D01*
G37*
G36*
X136882818Y-38939429D02*
G01*
X137245906Y-37514976D01*
X138253682Y-37771855D01*
X137890594Y-39196308D01*
X136882818Y-38939429D01*
G37*
%TD*%
%TO.C,R33*%
G36*
X83349227Y-42651078D02*
G01*
X82812859Y-41282426D01*
X83781157Y-40902954D01*
X84317525Y-42271606D01*
X83349227Y-42651078D01*
G37*
G36*
X81598843Y-43337046D02*
G01*
X81062475Y-41968394D01*
X82030773Y-41588922D01*
X82567141Y-42957574D01*
X81598843Y-43337046D01*
G37*
%TD*%
%TO.C,R22*%
G36*
X127683140Y-37101276D02*
G01*
X127864834Y-35642548D01*
X128896860Y-35771094D01*
X128715166Y-37229822D01*
X127683140Y-37101276D01*
G37*
G36*
X125817556Y-36868906D02*
G01*
X125999250Y-35410178D01*
X127031276Y-35538724D01*
X126849582Y-36997452D01*
X125817556Y-36868906D01*
G37*
%TD*%
%TO.C,R31*%
G36*
X105197626Y-37197452D02*
G01*
X105015932Y-35738724D01*
X106047958Y-35610178D01*
X106229652Y-37068906D01*
X105197626Y-37197452D01*
G37*
G36*
X103332042Y-37429822D02*
G01*
X103150348Y-35971094D01*
X104182374Y-35842548D01*
X104364068Y-37301276D01*
X103332042Y-37429822D01*
G37*
%TD*%
%TO.C,R24*%
G36*
X149437667Y-42814590D02*
G01*
X149974035Y-41445938D01*
X150942333Y-41825410D01*
X150405965Y-43194062D01*
X149437667Y-42814590D01*
G37*
G36*
X147687283Y-42128622D02*
G01*
X148223651Y-40759970D01*
X149191949Y-41139442D01*
X148655581Y-42508094D01*
X147687283Y-42128622D01*
G37*
%TD*%
%TO.C,IC10*%
G36*
G01*
X48150000Y-71500000D02*
X48650000Y-71500000D01*
G75*
G02*
X48900000Y-71750000I0J-250000D01*
G01*
X48900000Y-72250000D01*
G75*
G02*
X48650000Y-72500000I-250000J0D01*
G01*
X48150000Y-72500000D01*
G75*
G02*
X47900000Y-72250000I0J250000D01*
G01*
X47900000Y-71750000D01*
G75*
G02*
X48150000Y-71500000I250000J0D01*
G01*
G37*
G36*
G01*
X48150000Y-69900000D02*
X48650000Y-69900000D01*
G75*
G02*
X48900000Y-70150000I0J-250000D01*
G01*
X48900000Y-70650000D01*
G75*
G02*
X48650000Y-70900000I-250000J0D01*
G01*
X48150000Y-70900000D01*
G75*
G02*
X47900000Y-70650000I0J250000D01*
G01*
X47900000Y-70150000D01*
G75*
G02*
X48150000Y-69900000I250000J0D01*
G01*
G37*
G36*
G01*
X52450000Y-71500000D02*
X52950000Y-71500000D01*
G75*
G02*
X53200000Y-71750000I0J-250000D01*
G01*
X53200000Y-72250000D01*
G75*
G02*
X52950000Y-72500000I-250000J0D01*
G01*
X52450000Y-72500000D01*
G75*
G02*
X52200000Y-72250000I0J250000D01*
G01*
X52200000Y-71750000D01*
G75*
G02*
X52450000Y-71500000I250000J0D01*
G01*
G37*
G36*
G01*
X52450000Y-69900000D02*
X52950000Y-69900000D01*
G75*
G02*
X53200000Y-70150000I0J-250000D01*
G01*
X53200000Y-70650000D01*
G75*
G02*
X52950000Y-70900000I-250000J0D01*
G01*
X52450000Y-70900000D01*
G75*
G02*
X52200000Y-70650000I0J250000D01*
G01*
X52200000Y-70150000D01*
G75*
G02*
X52450000Y-69900000I250000J0D01*
G01*
G37*
%TD*%
%TO.C,IC8*%
G36*
G01*
X163850000Y-71500000D02*
X164350000Y-71500000D01*
G75*
G02*
X164600000Y-71750000I0J-250000D01*
G01*
X164600000Y-72250000D01*
G75*
G02*
X164350000Y-72500000I-250000J0D01*
G01*
X163850000Y-72500000D01*
G75*
G02*
X163600000Y-72250000I0J250000D01*
G01*
X163600000Y-71750000D01*
G75*
G02*
X163850000Y-71500000I250000J0D01*
G01*
G37*
G36*
G01*
X163850000Y-69900000D02*
X164350000Y-69900000D01*
G75*
G02*
X164600000Y-70150000I0J-250000D01*
G01*
X164600000Y-70650000D01*
G75*
G02*
X164350000Y-70900000I-250000J0D01*
G01*
X163850000Y-70900000D01*
G75*
G02*
X163600000Y-70650000I0J250000D01*
G01*
X163600000Y-70150000D01*
G75*
G02*
X163850000Y-69900000I250000J0D01*
G01*
G37*
G36*
G01*
X168150000Y-71500000D02*
X168650000Y-71500000D01*
G75*
G02*
X168900000Y-71750000I0J-250000D01*
G01*
X168900000Y-72250000D01*
G75*
G02*
X168650000Y-72500000I-250000J0D01*
G01*
X168150000Y-72500000D01*
G75*
G02*
X167900000Y-72250000I0J250000D01*
G01*
X167900000Y-71750000D01*
G75*
G02*
X168150000Y-71500000I250000J0D01*
G01*
G37*
G36*
G01*
X168150000Y-69900000D02*
X168650000Y-69900000D01*
G75*
G02*
X168900000Y-70150000I0J-250000D01*
G01*
X168900000Y-70650000D01*
G75*
G02*
X168650000Y-70900000I-250000J0D01*
G01*
X168150000Y-70900000D01*
G75*
G02*
X167900000Y-70650000I0J250000D01*
G01*
X167900000Y-70150000D01*
G75*
G02*
X168150000Y-69900000I250000J0D01*
G01*
G37*
%TD*%
%TO.C,IC7*%
G36*
G01*
X178850000Y-71500000D02*
X179350000Y-71500000D01*
G75*
G02*
X179600000Y-71750000I0J-250000D01*
G01*
X179600000Y-72250000D01*
G75*
G02*
X179350000Y-72500000I-250000J0D01*
G01*
X178850000Y-72500000D01*
G75*
G02*
X178600000Y-72250000I0J250000D01*
G01*
X178600000Y-71750000D01*
G75*
G02*
X178850000Y-71500000I250000J0D01*
G01*
G37*
G36*
G01*
X178850000Y-69900000D02*
X179350000Y-69900000D01*
G75*
G02*
X179600000Y-70150000I0J-250000D01*
G01*
X179600000Y-70650000D01*
G75*
G02*
X179350000Y-70900000I-250000J0D01*
G01*
X178850000Y-70900000D01*
G75*
G02*
X178600000Y-70650000I0J250000D01*
G01*
X178600000Y-70150000D01*
G75*
G02*
X178850000Y-69900000I250000J0D01*
G01*
G37*
G36*
G01*
X183150000Y-71500000D02*
X183650000Y-71500000D01*
G75*
G02*
X183900000Y-71750000I0J-250000D01*
G01*
X183900000Y-72250000D01*
G75*
G02*
X183650000Y-72500000I-250000J0D01*
G01*
X183150000Y-72500000D01*
G75*
G02*
X182900000Y-72250000I0J250000D01*
G01*
X182900000Y-71750000D01*
G75*
G02*
X183150000Y-71500000I250000J0D01*
G01*
G37*
G36*
G01*
X183150000Y-69900000D02*
X183650000Y-69900000D01*
G75*
G02*
X183900000Y-70150000I0J-250000D01*
G01*
X183900000Y-70650000D01*
G75*
G02*
X183650000Y-70900000I-250000J0D01*
G01*
X183150000Y-70900000D01*
G75*
G02*
X182900000Y-70650000I0J250000D01*
G01*
X182900000Y-70150000D01*
G75*
G02*
X183150000Y-69900000I250000J0D01*
G01*
G37*
%TD*%
%TO.C,IC9*%
G36*
G01*
X63150000Y-71500000D02*
X63650000Y-71500000D01*
G75*
G02*
X63900000Y-71750000I0J-250000D01*
G01*
X63900000Y-72250000D01*
G75*
G02*
X63650000Y-72500000I-250000J0D01*
G01*
X63150000Y-72500000D01*
G75*
G02*
X62900000Y-72250000I0J250000D01*
G01*
X62900000Y-71750000D01*
G75*
G02*
X63150000Y-71500000I250000J0D01*
G01*
G37*
G36*
G01*
X63150000Y-69900000D02*
X63650000Y-69900000D01*
G75*
G02*
X63900000Y-70150000I0J-250000D01*
G01*
X63900000Y-70650000D01*
G75*
G02*
X63650000Y-70900000I-250000J0D01*
G01*
X63150000Y-70900000D01*
G75*
G02*
X62900000Y-70650000I0J250000D01*
G01*
X62900000Y-70150000D01*
G75*
G02*
X63150000Y-69900000I250000J0D01*
G01*
G37*
G36*
G01*
X67450000Y-71500000D02*
X67950000Y-71500000D01*
G75*
G02*
X68200000Y-71750000I0J-250000D01*
G01*
X68200000Y-72250000D01*
G75*
G02*
X67950000Y-72500000I-250000J0D01*
G01*
X67450000Y-72500000D01*
G75*
G02*
X67200000Y-72250000I0J250000D01*
G01*
X67200000Y-71750000D01*
G75*
G02*
X67450000Y-71500000I250000J0D01*
G01*
G37*
G36*
G01*
X67450000Y-69900000D02*
X67950000Y-69900000D01*
G75*
G02*
X68200000Y-70150000I0J-250000D01*
G01*
X68200000Y-70650000D01*
G75*
G02*
X67950000Y-70900000I-250000J0D01*
G01*
X67450000Y-70900000D01*
G75*
G02*
X67200000Y-70650000I0J250000D01*
G01*
X67200000Y-70150000D01*
G75*
G02*
X67450000Y-69900000I250000J0D01*
G01*
G37*
%TD*%
M02*
