%TF.GenerationSoftware,KiCad,Pcbnew,(5.1.8)-1*%
%TF.CreationDate,2023-07-29T11:14:22+09:00*%
%TF.ProjectId,Tracer,54726163-6572-42e6-9b69-6361645f7063,rev?*%
%TF.SameCoordinates,Original*%
%TF.FileFunction,Soldermask,Bot*%
%TF.FilePolarity,Negative*%
%FSLAX46Y46*%
G04 Gerber Fmt 4.6, Leading zero omitted, Abs format (unit mm)*
G04 Created by KiCad (PCBNEW (5.1.8)-1) date 2023-07-29 11:14:22*
%MOMM*%
%LPD*%
G01*
G04 APERTURE LIST*
%ADD10C,2.600000*%
%ADD11O,2.100000X2.100000*%
%ADD12C,1.900000*%
%ADD13C,2.900000*%
%ADD14C,1.700000*%
%ADD15C,1.758000*%
%ADD16C,1.675000*%
G04 APERTURE END LIST*
%TO.C,IC19*%
G36*
G01*
X96001165Y-34173145D02*
X96688994Y-34043178D01*
G75*
G02*
X97097891Y-34322109I64983J-343914D01*
G01*
X97227858Y-35009938D01*
G75*
G02*
X96948927Y-35418835I-343914J-64983D01*
G01*
X96261098Y-35548802D01*
G75*
G02*
X95852201Y-35269871I-64983J343914D01*
G01*
X95722234Y-34582042D01*
G75*
G02*
X96001165Y-34173145I343914J64983D01*
G01*
G37*
G36*
G01*
X95704099Y-32600965D02*
X96391928Y-32470998D01*
G75*
G02*
X96800825Y-32749929I64983J-343914D01*
G01*
X96930792Y-33437758D01*
G75*
G02*
X96651861Y-33846655I-343914J-64983D01*
G01*
X95964032Y-33976622D01*
G75*
G02*
X95555135Y-33697691I-64983J343914D01*
G01*
X95425168Y-33009862D01*
G75*
G02*
X95704099Y-32600965I343914J64983D01*
G01*
G37*
G36*
G01*
X100226400Y-33374779D02*
X100914229Y-33244812D01*
G75*
G02*
X101323126Y-33523743I64983J-343914D01*
G01*
X101453093Y-34211572D01*
G75*
G02*
X101174162Y-34620469I-343914J-64983D01*
G01*
X100486333Y-34750436D01*
G75*
G02*
X100077436Y-34471505I-64983J343914D01*
G01*
X99947469Y-33783676D01*
G75*
G02*
X100226400Y-33374779I343914J64983D01*
G01*
G37*
G36*
G01*
X99929334Y-31802598D02*
X100617163Y-31672631D01*
G75*
G02*
X101026060Y-31951562I64983J-343914D01*
G01*
X101156027Y-32639391D01*
G75*
G02*
X100877096Y-33048288I-343914J-64983D01*
G01*
X100189267Y-33178255D01*
G75*
G02*
X99780370Y-32899324I-64983J343914D01*
G01*
X99650403Y-32211495D01*
G75*
G02*
X99929334Y-31802598I343914J64983D01*
G01*
G37*
%TD*%
%TO.C,IC16*%
G36*
G01*
X148372425Y-37719157D02*
X149024164Y-37974570D01*
G75*
G02*
X149222327Y-38428147I-127707J-325870D01*
G01*
X148966914Y-39079886D01*
G75*
G02*
X148513337Y-39278049I-325870J127707D01*
G01*
X147861598Y-39022636D01*
G75*
G02*
X147663435Y-38569059I127707J325870D01*
G01*
X147918848Y-37917320D01*
G75*
G02*
X148372425Y-37719157I325870J-127707D01*
G01*
G37*
G36*
G01*
X148956228Y-36229468D02*
X149607967Y-36484881D01*
G75*
G02*
X149806130Y-36938458I-127707J-325870D01*
G01*
X149550717Y-37590197D01*
G75*
G02*
X149097140Y-37788360I-325870J127707D01*
G01*
X148445401Y-37532947D01*
G75*
G02*
X148247238Y-37079370I127707J325870D01*
G01*
X148502651Y-36427631D01*
G75*
G02*
X148956228Y-36229468I325870J-127707D01*
G01*
G37*
G36*
G01*
X152375965Y-39288128D02*
X153027704Y-39543541D01*
G75*
G02*
X153225867Y-39997118I-127707J-325870D01*
G01*
X152970454Y-40648857D01*
G75*
G02*
X152516877Y-40847020I-325870J127707D01*
G01*
X151865138Y-40591607D01*
G75*
G02*
X151666975Y-40138030I127707J325870D01*
G01*
X151922388Y-39486291D01*
G75*
G02*
X152375965Y-39288128I325870J-127707D01*
G01*
G37*
G36*
G01*
X152959768Y-37798438D02*
X153611507Y-38053851D01*
G75*
G02*
X153809670Y-38507428I-127707J-325870D01*
G01*
X153554257Y-39159167D01*
G75*
G02*
X153100680Y-39357330I-325870J127707D01*
G01*
X152448941Y-39101917D01*
G75*
G02*
X152250778Y-38648340I127707J325870D01*
G01*
X152506191Y-37996601D01*
G75*
G02*
X152959768Y-37798438I325870J-127707D01*
G01*
G37*
%TD*%
%TO.C,IC18*%
G36*
G01*
X101771146Y-33122057D02*
X102465779Y-33035536D01*
G75*
G02*
X102856356Y-33339591I43261J-347316D01*
G01*
X102942877Y-34034224D01*
G75*
G02*
X102638822Y-34424801I-347316J-43261D01*
G01*
X101944189Y-34511322D01*
G75*
G02*
X101553612Y-34207267I-43261J347316D01*
G01*
X101467091Y-33512634D01*
G75*
G02*
X101771146Y-33122057I347316J43261D01*
G01*
G37*
G36*
G01*
X101573384Y-31534326D02*
X102268017Y-31447805D01*
G75*
G02*
X102658594Y-31751860I43261J-347316D01*
G01*
X102745115Y-32446493D01*
G75*
G02*
X102441060Y-32837070I-347316J-43261D01*
G01*
X101746427Y-32923591D01*
G75*
G02*
X101355850Y-32619536I-43261J347316D01*
G01*
X101269329Y-31924903D01*
G75*
G02*
X101573384Y-31534326I347316J43261D01*
G01*
G37*
G36*
G01*
X106038173Y-32590570D02*
X106732806Y-32504049D01*
G75*
G02*
X107123383Y-32808104I43261J-347316D01*
G01*
X107209904Y-33502737D01*
G75*
G02*
X106905849Y-33893314I-347316J-43261D01*
G01*
X106211216Y-33979835D01*
G75*
G02*
X105820639Y-33675780I-43261J347316D01*
G01*
X105734118Y-32981147D01*
G75*
G02*
X106038173Y-32590570I347316J43261D01*
G01*
G37*
G36*
G01*
X105840411Y-31002839D02*
X106535044Y-30916318D01*
G75*
G02*
X106925621Y-31220373I43261J-347316D01*
G01*
X107012142Y-31915006D01*
G75*
G02*
X106708087Y-32305583I-347316J-43261D01*
G01*
X106013454Y-32392104D01*
G75*
G02*
X105622877Y-32088049I-43261J347316D01*
G01*
X105536356Y-31393416D01*
G75*
G02*
X105840411Y-31002839I347316J43261D01*
G01*
G37*
%TD*%
%TO.C,IC11*%
G36*
G01*
X119438555Y-32065966D02*
X120137174Y-32109919D01*
G75*
G02*
X120464506Y-32481205I-21977J-349309D01*
G01*
X120420553Y-33179824D01*
G75*
G02*
X120049267Y-33507156I-349309J21977D01*
G01*
X119350648Y-33463203D01*
G75*
G02*
X119023316Y-33091917I21977J349309D01*
G01*
X119067269Y-32393298D01*
G75*
G02*
X119438555Y-32065966I349309J-21977D01*
G01*
G37*
G36*
G01*
X119539020Y-30469124D02*
X120237639Y-30513077D01*
G75*
G02*
X120564971Y-30884363I-21977J-349309D01*
G01*
X120521018Y-31582982D01*
G75*
G02*
X120149732Y-31910314I-349309J21977D01*
G01*
X119451113Y-31866361D01*
G75*
G02*
X119123781Y-31495075I21977J349309D01*
G01*
X119167734Y-30796456D01*
G75*
G02*
X119539020Y-30469124I349309J-21977D01*
G01*
G37*
G36*
G01*
X123730070Y-32335966D02*
X124428689Y-32379919D01*
G75*
G02*
X124756021Y-32751205I-21977J-349309D01*
G01*
X124712068Y-33449824D01*
G75*
G02*
X124340782Y-33777156I-349309J21977D01*
G01*
X123642163Y-33733203D01*
G75*
G02*
X123314831Y-33361917I21977J349309D01*
G01*
X123358784Y-32663298D01*
G75*
G02*
X123730070Y-32335966I349309J-21977D01*
G01*
G37*
G36*
G01*
X123830535Y-30739123D02*
X124529154Y-30783076D01*
G75*
G02*
X124856486Y-31154362I-21977J-349309D01*
G01*
X124812533Y-31852981D01*
G75*
G02*
X124441247Y-32180313I-349309J21977D01*
G01*
X123742628Y-32136360D01*
G75*
G02*
X123415296Y-31765074I21977J349309D01*
G01*
X123459249Y-31066455D01*
G75*
G02*
X123830535Y-30739123I349309J-21977D01*
G01*
G37*
%TD*%
%TO.C,IC22*%
G36*
G01*
X79045401Y-39507053D02*
X79697140Y-39251640D01*
G75*
G02*
X80150717Y-39449803I127707J-325870D01*
G01*
X80406130Y-40101542D01*
G75*
G02*
X80207967Y-40555119I-325870J-127707D01*
G01*
X79556228Y-40810532D01*
G75*
G02*
X79102651Y-40612369I-127707J325870D01*
G01*
X78847238Y-39960630D01*
G75*
G02*
X79045401Y-39507053I325870J127707D01*
G01*
G37*
G36*
G01*
X78461598Y-38017364D02*
X79113337Y-37761951D01*
G75*
G02*
X79566914Y-37960114I127707J-325870D01*
G01*
X79822327Y-38611853D01*
G75*
G02*
X79624164Y-39065430I-325870J-127707D01*
G01*
X78972425Y-39320843D01*
G75*
G02*
X78518848Y-39122680I-127707J325870D01*
G01*
X78263435Y-38470941D01*
G75*
G02*
X78461598Y-38017364I325870J127707D01*
G01*
G37*
G36*
G01*
X83048941Y-37938083D02*
X83700680Y-37682670D01*
G75*
G02*
X84154257Y-37880833I127707J-325870D01*
G01*
X84409670Y-38532572D01*
G75*
G02*
X84211507Y-38986149I-325870J-127707D01*
G01*
X83559768Y-39241562D01*
G75*
G02*
X83106191Y-39043399I-127707J325870D01*
G01*
X82850778Y-38391660D01*
G75*
G02*
X83048941Y-37938083I325870J127707D01*
G01*
G37*
G36*
G01*
X82465138Y-36448393D02*
X83116877Y-36192980D01*
G75*
G02*
X83570454Y-36391143I127707J-325870D01*
G01*
X83825867Y-37042882D01*
G75*
G02*
X83627704Y-37496459I-325870J-127707D01*
G01*
X82975965Y-37751872D01*
G75*
G02*
X82522388Y-37553709I-127707J325870D01*
G01*
X82266975Y-36901970D01*
G75*
G02*
X82465138Y-36448393I325870J127707D01*
G01*
G37*
%TD*%
%TO.C,IC17*%
G36*
G01*
X107651113Y-32373639D02*
X108349732Y-32329686D01*
G75*
G02*
X108721018Y-32657018I21977J-349309D01*
G01*
X108764971Y-33355637D01*
G75*
G02*
X108437639Y-33726923I-349309J-21977D01*
G01*
X107739020Y-33770876D01*
G75*
G02*
X107367734Y-33443544I-21977J349309D01*
G01*
X107323781Y-32744925D01*
G75*
G02*
X107651113Y-32373639I349309J21977D01*
G01*
G37*
G36*
G01*
X107550648Y-30776797D02*
X108249267Y-30732844D01*
G75*
G02*
X108620553Y-31060176I21977J-349309D01*
G01*
X108664506Y-31758795D01*
G75*
G02*
X108337174Y-32130081I-349309J-21977D01*
G01*
X107638555Y-32174034D01*
G75*
G02*
X107267269Y-31846702I-21977J349309D01*
G01*
X107223316Y-31148083D01*
G75*
G02*
X107550648Y-30776797I349309J21977D01*
G01*
G37*
G36*
G01*
X111942628Y-32103640D02*
X112641247Y-32059687D01*
G75*
G02*
X113012533Y-32387019I21977J-349309D01*
G01*
X113056486Y-33085638D01*
G75*
G02*
X112729154Y-33456924I-349309J-21977D01*
G01*
X112030535Y-33500877D01*
G75*
G02*
X111659249Y-33173545I-21977J349309D01*
G01*
X111615296Y-32474926D01*
G75*
G02*
X111942628Y-32103640I349309J21977D01*
G01*
G37*
G36*
G01*
X111842163Y-30506797D02*
X112540782Y-30462844D01*
G75*
G02*
X112912068Y-30790176I21977J-349309D01*
G01*
X112956021Y-31488795D01*
G75*
G02*
X112628689Y-31860081I-349309J-21977D01*
G01*
X111930070Y-31904034D01*
G75*
G02*
X111558784Y-31576702I-21977J349309D01*
G01*
X111514831Y-30878083D01*
G75*
G02*
X111842163Y-30506797I349309J21977D01*
G01*
G37*
%TD*%
%TO.C,IC15*%
G36*
G01*
X142727858Y-35862136D02*
X143393974Y-36077286D01*
G75*
G02*
X143619457Y-36517919I-107575J-333058D01*
G01*
X143404307Y-37184035D01*
G75*
G02*
X142963674Y-37409518I-333058J107575D01*
G01*
X142297558Y-37194368D01*
G75*
G02*
X142072075Y-36753735I107575J333058D01*
G01*
X142287225Y-36087619D01*
G75*
G02*
X142727858Y-35862136I333058J-107575D01*
G01*
G37*
G36*
G01*
X143219629Y-34339585D02*
X143885745Y-34554735D01*
G75*
G02*
X144111228Y-34995368I-107575J-333058D01*
G01*
X143896078Y-35661484D01*
G75*
G02*
X143455445Y-35886967I-333058J107575D01*
G01*
X142789329Y-35671817D01*
G75*
G02*
X142563846Y-35231184I107575J333058D01*
G01*
X142778996Y-34565068D01*
G75*
G02*
X143219629Y-34339585I333058J-107575D01*
G01*
G37*
G36*
G01*
X146819714Y-37183769D02*
X147485830Y-37398919D01*
G75*
G02*
X147711313Y-37839552I-107575J-333058D01*
G01*
X147496163Y-38505668D01*
G75*
G02*
X147055530Y-38731151I-333058J107575D01*
G01*
X146389414Y-38516001D01*
G75*
G02*
X146163931Y-38075368I107575J333058D01*
G01*
X146379081Y-37409252D01*
G75*
G02*
X146819714Y-37183769I333058J-107575D01*
G01*
G37*
G36*
G01*
X147311485Y-35661218D02*
X147977601Y-35876368D01*
G75*
G02*
X148203084Y-36317001I-107575J-333058D01*
G01*
X147987934Y-36983117D01*
G75*
G02*
X147547301Y-37208600I-333058J107575D01*
G01*
X146881185Y-36993450D01*
G75*
G02*
X146655702Y-36552817I107575J333058D01*
G01*
X146870852Y-35886701D01*
G75*
G02*
X147311485Y-35661218I333058J-107575D01*
G01*
G37*
%TD*%
%TO.C,IC21*%
G36*
G01*
X84589329Y-37368183D02*
X85255445Y-37153033D01*
G75*
G02*
X85696078Y-37378516I107575J-333058D01*
G01*
X85911228Y-38044632D01*
G75*
G02*
X85685745Y-38485265I-333058J-107575D01*
G01*
X85019629Y-38700415D01*
G75*
G02*
X84578996Y-38474932I-107575J333058D01*
G01*
X84363846Y-37808816D01*
G75*
G02*
X84589329Y-37368183I333058J107575D01*
G01*
G37*
G36*
G01*
X84097558Y-35845632D02*
X84763674Y-35630482D01*
G75*
G02*
X85204307Y-35855965I107575J-333058D01*
G01*
X85419457Y-36522081D01*
G75*
G02*
X85193974Y-36962714I-333058J-107575D01*
G01*
X84527858Y-37177864D01*
G75*
G02*
X84087225Y-36952381I-107575J333058D01*
G01*
X83872075Y-36286265D01*
G75*
G02*
X84097558Y-35845632I333058J107575D01*
G01*
G37*
G36*
G01*
X88681185Y-36046550D02*
X89347301Y-35831400D01*
G75*
G02*
X89787934Y-36056883I107575J-333058D01*
G01*
X90003084Y-36722999D01*
G75*
G02*
X89777601Y-37163632I-333058J-107575D01*
G01*
X89111485Y-37378782D01*
G75*
G02*
X88670852Y-37153299I-107575J333058D01*
G01*
X88455702Y-36487183D01*
G75*
G02*
X88681185Y-36046550I333058J107575D01*
G01*
G37*
G36*
G01*
X88189414Y-34523999D02*
X88855530Y-34308849D01*
G75*
G02*
X89296163Y-34534332I107575J-333058D01*
G01*
X89511313Y-35200448D01*
G75*
G02*
X89285830Y-35641081I-333058J-107575D01*
G01*
X88619714Y-35856231D01*
G75*
G02*
X88179081Y-35630748I-107575J333058D01*
G01*
X87963931Y-34964632D01*
G75*
G02*
X88189414Y-34523999I333058J107575D01*
G01*
G37*
%TD*%
%TO.C,IC13*%
G36*
G01*
X131264032Y-33263378D02*
X131951861Y-33393345D01*
G75*
G02*
X132230792Y-33802242I-64983J-343914D01*
G01*
X132100825Y-34490071D01*
G75*
G02*
X131691928Y-34769002I-343914J64983D01*
G01*
X131004099Y-34639035D01*
G75*
G02*
X130725168Y-34230138I64983J343914D01*
G01*
X130855135Y-33542309D01*
G75*
G02*
X131264032Y-33263378I343914J-64983D01*
G01*
G37*
G36*
G01*
X131561098Y-31691198D02*
X132248927Y-31821165D01*
G75*
G02*
X132527858Y-32230062I-64983J-343914D01*
G01*
X132397891Y-32917891D01*
G75*
G02*
X131988994Y-33196822I-343914J64983D01*
G01*
X131301165Y-33066855D01*
G75*
G02*
X131022234Y-32657958I64983J343914D01*
G01*
X131152201Y-31970129D01*
G75*
G02*
X131561098Y-31691198I343914J-64983D01*
G01*
G37*
G36*
G01*
X135489267Y-34061745D02*
X136177096Y-34191712D01*
G75*
G02*
X136456027Y-34600609I-64983J-343914D01*
G01*
X136326060Y-35288438D01*
G75*
G02*
X135917163Y-35567369I-343914J64983D01*
G01*
X135229334Y-35437402D01*
G75*
G02*
X134950403Y-35028505I64983J343914D01*
G01*
X135080370Y-34340676D01*
G75*
G02*
X135489267Y-34061745I343914J-64983D01*
G01*
G37*
G36*
G01*
X135786333Y-32489564D02*
X136474162Y-32619531D01*
G75*
G02*
X136753093Y-33028428I-64983J-343914D01*
G01*
X136623126Y-33716257D01*
G75*
G02*
X136214229Y-33995188I-343914J64983D01*
G01*
X135526400Y-33865221D01*
G75*
G02*
X135247469Y-33456324I64983J343914D01*
G01*
X135377436Y-32768495D01*
G75*
G02*
X135786333Y-32489564I343914J-64983D01*
G01*
G37*
%TD*%
D10*
%TO.C,M2*%
X109499782Y-41001626D03*
%TD*%
%TO.C,IC12*%
G36*
G01*
X125346427Y-32516409D02*
X126041060Y-32602930D01*
G75*
G02*
X126345115Y-32993507I-43261J-347316D01*
G01*
X126258594Y-33688140D01*
G75*
G02*
X125868017Y-33992195I-347316J43261D01*
G01*
X125173384Y-33905674D01*
G75*
G02*
X124869329Y-33515097I43261J347316D01*
G01*
X124955850Y-32820464D01*
G75*
G02*
X125346427Y-32516409I347316J-43261D01*
G01*
G37*
G36*
G01*
X125544189Y-30928678D02*
X126238822Y-31015199D01*
G75*
G02*
X126542877Y-31405776I-43261J-347316D01*
G01*
X126456356Y-32100409D01*
G75*
G02*
X126065779Y-32404464I-347316J43261D01*
G01*
X125371146Y-32317943D01*
G75*
G02*
X125067091Y-31927366I43261J347316D01*
G01*
X125153612Y-31232733D01*
G75*
G02*
X125544189Y-30928678I347316J-43261D01*
G01*
G37*
G36*
G01*
X129613454Y-33047896D02*
X130308087Y-33134417D01*
G75*
G02*
X130612142Y-33524994I-43261J-347316D01*
G01*
X130525621Y-34219627D01*
G75*
G02*
X130135044Y-34523682I-347316J43261D01*
G01*
X129440411Y-34437161D01*
G75*
G02*
X129136356Y-34046584I43261J347316D01*
G01*
X129222877Y-33351951D01*
G75*
G02*
X129613454Y-33047896I347316J-43261D01*
G01*
G37*
G36*
G01*
X129811216Y-31460165D02*
X130505849Y-31546686D01*
G75*
G02*
X130809904Y-31937263I-43261J-347316D01*
G01*
X130723383Y-32631896D01*
G75*
G02*
X130332806Y-32935951I-347316J43261D01*
G01*
X129638173Y-32849430D01*
G75*
G02*
X129334118Y-32458853I43261J347316D01*
G01*
X129420639Y-31764220D01*
G75*
G02*
X129811216Y-31460165I347316J-43261D01*
G01*
G37*
%TD*%
%TO.C,IC20*%
G36*
G01*
X90240611Y-35622049D02*
X90918922Y-35449150D01*
G75*
G02*
X91344528Y-35701856I86450J-339156D01*
G01*
X91517427Y-36380167D01*
G75*
G02*
X91264721Y-36805773I-339156J-86450D01*
G01*
X90586410Y-36978672D01*
G75*
G02*
X90160804Y-36725966I-86450J339156D01*
G01*
X89987905Y-36047655D01*
G75*
G02*
X90240611Y-35622049I339156J86450D01*
G01*
G37*
G36*
G01*
X89845413Y-34071623D02*
X90523724Y-33898724D01*
G75*
G02*
X90949330Y-34151430I86450J-339156D01*
G01*
X91122229Y-34829741D01*
G75*
G02*
X90869523Y-35255347I-339156J-86450D01*
G01*
X90191212Y-35428246D01*
G75*
G02*
X89765606Y-35175540I-86450J339156D01*
G01*
X89592707Y-34497229D01*
G75*
G02*
X89845413Y-34071623I339156J86450D01*
G01*
G37*
G36*
G01*
X94407379Y-34559953D02*
X95085690Y-34387054D01*
G75*
G02*
X95511296Y-34639760I86450J-339156D01*
G01*
X95684195Y-35318071D01*
G75*
G02*
X95431489Y-35743677I-339156J-86450D01*
G01*
X94753178Y-35916576D01*
G75*
G02*
X94327572Y-35663870I-86450J339156D01*
G01*
X94154673Y-34985559D01*
G75*
G02*
X94407379Y-34559953I339156J86450D01*
G01*
G37*
G36*
G01*
X94012180Y-33009528D02*
X94690491Y-32836629D01*
G75*
G02*
X95116097Y-33089335I86450J-339156D01*
G01*
X95288996Y-33767646D01*
G75*
G02*
X95036290Y-34193252I-339156J-86450D01*
G01*
X94357979Y-34366151D01*
G75*
G02*
X93932373Y-34113445I-86450J339156D01*
G01*
X93759474Y-33435134D01*
G75*
G02*
X94012180Y-33009528I339156J86450D01*
G01*
G37*
%TD*%
%TO.C,IC14*%
G36*
G01*
X136991212Y-34411754D02*
X137669523Y-34584653D01*
G75*
G02*
X137922229Y-35010259I-86450J-339156D01*
G01*
X137749330Y-35688570D01*
G75*
G02*
X137323724Y-35941276I-339156J86450D01*
G01*
X136645413Y-35768377D01*
G75*
G02*
X136392707Y-35342771I86450J339156D01*
G01*
X136565606Y-34664460D01*
G75*
G02*
X136991212Y-34411754I339156J-86450D01*
G01*
G37*
G36*
G01*
X137386410Y-32861328D02*
X138064721Y-33034227D01*
G75*
G02*
X138317427Y-33459833I-86450J-339156D01*
G01*
X138144528Y-34138144D01*
G75*
G02*
X137718922Y-34390850I-339156J86450D01*
G01*
X137040611Y-34217951D01*
G75*
G02*
X136787905Y-33792345I86450J339156D01*
G01*
X136960804Y-33114034D01*
G75*
G02*
X137386410Y-32861328I339156J-86450D01*
G01*
G37*
G36*
G01*
X141157979Y-35473849D02*
X141836290Y-35646748D01*
G75*
G02*
X142088996Y-36072354I-86450J-339156D01*
G01*
X141916097Y-36750665D01*
G75*
G02*
X141490491Y-37003371I-339156J86450D01*
G01*
X140812180Y-36830472D01*
G75*
G02*
X140559474Y-36404866I86450J339156D01*
G01*
X140732373Y-35726555D01*
G75*
G02*
X141157979Y-35473849I339156J-86450D01*
G01*
G37*
G36*
G01*
X141553178Y-33923424D02*
X142231489Y-34096323D01*
G75*
G02*
X142484195Y-34521929I-86450J-339156D01*
G01*
X142311296Y-35200240D01*
G75*
G02*
X141885690Y-35452946I-339156J86450D01*
G01*
X141207379Y-35280047D01*
G75*
G02*
X140954673Y-34854441I86450J339156D01*
G01*
X141127572Y-34176130D01*
G75*
G02*
X141553178Y-33923424I339156J-86450D01*
G01*
G37*
%TD*%
%TO.C,R32*%
G36*
G01*
X93873853Y-39310066D02*
X93510765Y-37885613D01*
G75*
G02*
X93655168Y-37642410I193803J49400D01*
G01*
X94662944Y-37385531D01*
G75*
G02*
X94906147Y-37529934I49400J-193803D01*
G01*
X95269235Y-38954387D01*
G75*
G02*
X95124832Y-39197590I-193803J-49400D01*
G01*
X94117056Y-39454469D01*
G75*
G02*
X93873853Y-39310066I-49400J193803D01*
G01*
G37*
G36*
G01*
X92052103Y-39774424D02*
X91689015Y-38349971D01*
G75*
G02*
X91833418Y-38106768I193803J49400D01*
G01*
X92841194Y-37849889D01*
G75*
G02*
X93084397Y-37994292I49400J-193803D01*
G01*
X93447485Y-39418745D01*
G75*
G02*
X93303082Y-39661948I-193803J-49400D01*
G01*
X92295306Y-39918827D01*
G75*
G02*
X92052103Y-39774424I-49400J193803D01*
G01*
G37*
%TD*%
%TO.C,M2*%
X122499781Y-41001626D03*
%TD*%
%TO.C,R23*%
G36*
G01*
X138510765Y-39354387D02*
X138873853Y-37929934D01*
G75*
G02*
X139117056Y-37785531I193803J-49400D01*
G01*
X140124832Y-38042410D01*
G75*
G02*
X140269235Y-38285613I-49400J-193803D01*
G01*
X139906147Y-39710066D01*
G75*
G02*
X139662944Y-39854469I-193803J49400D01*
G01*
X138655168Y-39597590D01*
G75*
G02*
X138510765Y-39354387I49400J193803D01*
G01*
G37*
G36*
G01*
X136689015Y-38890029D02*
X137052103Y-37465576D01*
G75*
G02*
X137295306Y-37321173I193803J-49400D01*
G01*
X138303082Y-37578052D01*
G75*
G02*
X138447485Y-37821255I-49400J-193803D01*
G01*
X138084397Y-39245708D01*
G75*
G02*
X137841194Y-39390111I-193803J49400D01*
G01*
X136833418Y-39133232D01*
G75*
G02*
X136689015Y-38890029I49400J193803D01*
G01*
G37*
%TD*%
%TO.C,R33*%
G36*
G01*
X83163016Y-42724053D02*
X82626648Y-41355401D01*
G75*
G02*
X82739884Y-41096215I186211J72975D01*
G01*
X83708182Y-40716743D01*
G75*
G02*
X83967368Y-40829979I72975J-186211D01*
G01*
X84503736Y-42198631D01*
G75*
G02*
X84390500Y-42457817I-186211J-72975D01*
G01*
X83422202Y-42837289D01*
G75*
G02*
X83163016Y-42724053I-72975J186211D01*
G01*
G37*
G36*
G01*
X81412632Y-43410021D02*
X80876264Y-42041369D01*
G75*
G02*
X80989500Y-41782183I186211J72975D01*
G01*
X81957798Y-41402711D01*
G75*
G02*
X82216984Y-41515947I72975J-186211D01*
G01*
X82753352Y-42884599D01*
G75*
G02*
X82640116Y-43143785I-186211J-72975D01*
G01*
X81671818Y-43523257D01*
G75*
G02*
X81412632Y-43410021I-72975J186211D01*
G01*
G37*
%TD*%
%TO.C,R22*%
G36*
G01*
X127484674Y-37076556D02*
X127666368Y-35617828D01*
G75*
G02*
X127889554Y-35444082I198466J-24720D01*
G01*
X128921580Y-35572628D01*
G75*
G02*
X129095326Y-35795814I-24720J-198466D01*
G01*
X128913632Y-37254542D01*
G75*
G02*
X128690446Y-37428288I-198466J24720D01*
G01*
X127658420Y-37299742D01*
G75*
G02*
X127484674Y-37076556I24720J198466D01*
G01*
G37*
G36*
G01*
X125619090Y-36844186D02*
X125800784Y-35385458D01*
G75*
G02*
X126023970Y-35211712I198466J-24720D01*
G01*
X127055996Y-35340258D01*
G75*
G02*
X127229742Y-35563444I-24720J-198466D01*
G01*
X127048048Y-37022172D01*
G75*
G02*
X126824862Y-37195918I-198466J24720D01*
G01*
X125792836Y-37067372D01*
G75*
G02*
X125619090Y-36844186I24720J198466D01*
G01*
G37*
%TD*%
%TO.C,R31*%
G36*
G01*
X104999160Y-37222172D02*
X104817466Y-35763444D01*
G75*
G02*
X104991212Y-35540258I198466J24720D01*
G01*
X106023238Y-35411712D01*
G75*
G02*
X106246424Y-35585458I24720J-198466D01*
G01*
X106428118Y-37044186D01*
G75*
G02*
X106254372Y-37267372I-198466J-24720D01*
G01*
X105222346Y-37395918D01*
G75*
G02*
X104999160Y-37222172I-24720J198466D01*
G01*
G37*
G36*
G01*
X103133576Y-37454542D02*
X102951882Y-35995814D01*
G75*
G02*
X103125628Y-35772628I198466J24720D01*
G01*
X104157654Y-35644082D01*
G75*
G02*
X104380840Y-35817828I24720J-198466D01*
G01*
X104562534Y-37276556D01*
G75*
G02*
X104388788Y-37499742I-198466J-24720D01*
G01*
X103356762Y-37628288D01*
G75*
G02*
X103133576Y-37454542I-24720J198466D01*
G01*
G37*
%TD*%
%TO.C,R24*%
G36*
G01*
X149251456Y-42741615D02*
X149787824Y-41372963D01*
G75*
G02*
X150047010Y-41259727I186211J-72975D01*
G01*
X151015308Y-41639199D01*
G75*
G02*
X151128544Y-41898385I-72975J-186211D01*
G01*
X150592176Y-43267037D01*
G75*
G02*
X150332990Y-43380273I-186211J72975D01*
G01*
X149364692Y-43000801D01*
G75*
G02*
X149251456Y-42741615I72975J186211D01*
G01*
G37*
G36*
G01*
X147501072Y-42055647D02*
X148037440Y-40686995D01*
G75*
G02*
X148296626Y-40573759I186211J-72975D01*
G01*
X149264924Y-40953231D01*
G75*
G02*
X149378160Y-41212417I-72975J-186211D01*
G01*
X148841792Y-42581069D01*
G75*
G02*
X148582606Y-42694305I-186211J72975D01*
G01*
X147614308Y-42314833D01*
G75*
G02*
X147501072Y-42055647I72975J186211D01*
G01*
G37*
%TD*%
%TO.C,U1*%
G36*
G01*
X134661701Y-59261701D02*
X134661701Y-59261701D01*
G75*
G02*
X132186827Y-59261701I-1237437J1237437D01*
G01*
X131338299Y-58413173D01*
G75*
G02*
X131338299Y-55938299I1237437J1237437D01*
G01*
X131338299Y-55938299D01*
G75*
G02*
X133813173Y-55938299I1237437J-1237437D01*
G01*
X134661701Y-56786827D01*
G75*
G02*
X134661701Y-59261701I-1237437J-1237437D01*
G01*
G37*
%TD*%
D11*
%TO.C,J7*%
X99700000Y-49880000D03*
X99700000Y-52420000D03*
X99700000Y-54960000D03*
G36*
G01*
X98650000Y-58350000D02*
X98650000Y-56650000D01*
G75*
G02*
X98850000Y-56450000I200000J0D01*
G01*
X100550000Y-56450000D01*
G75*
G02*
X100750000Y-56650000I0J-200000D01*
G01*
X100750000Y-58350000D01*
G75*
G02*
X100550000Y-58550000I-200000J0D01*
G01*
X98850000Y-58550000D01*
G75*
G02*
X98650000Y-58350000I0J200000D01*
G01*
G37*
%TD*%
%TO.C,J8*%
X102600000Y-57490000D03*
X102600000Y-54950000D03*
X102600000Y-52410000D03*
G36*
G01*
X101550000Y-50720000D02*
X101550000Y-49020000D01*
G75*
G02*
X101750000Y-48820000I200000J0D01*
G01*
X103450000Y-48820000D01*
G75*
G02*
X103650000Y-49020000I0J-200000D01*
G01*
X103650000Y-50720000D01*
G75*
G02*
X103450000Y-50920000I-200000J0D01*
G01*
X101750000Y-50920000D01*
G75*
G02*
X101550000Y-50720000I0J200000D01*
G01*
G37*
%TD*%
D12*
%TO.C,J1*%
X92600000Y-116900000D03*
X90600000Y-116900000D03*
X88600000Y-116900000D03*
%TD*%
D13*
%TO.C,SW2*%
X143300000Y-115500000D03*
X143300000Y-122000000D03*
%TD*%
%TO.C,SW3*%
X138500000Y-115500000D03*
X138500000Y-122000000D03*
%TD*%
D11*
%TO.C,J2*%
X143440000Y-95380000D03*
X140900000Y-95380000D03*
X143440000Y-92840000D03*
X140900000Y-92840000D03*
X143440000Y-90300000D03*
G36*
G01*
X139850000Y-91150000D02*
X139850000Y-89450000D01*
G75*
G02*
X140050000Y-89250000I200000J0D01*
G01*
X141750000Y-89250000D01*
G75*
G02*
X141950000Y-89450000I0J-200000D01*
G01*
X141950000Y-91150000D01*
G75*
G02*
X141750000Y-91350000I-200000J0D01*
G01*
X140050000Y-91350000D01*
G75*
G02*
X139850000Y-91150000I0J200000D01*
G01*
G37*
%TD*%
%TO.C,J6*%
X90600000Y-75520000D03*
X90600000Y-78060000D03*
X90600000Y-80600000D03*
G36*
G01*
X91650000Y-82290000D02*
X91650000Y-83990000D01*
G75*
G02*
X91450000Y-84190000I-200000J0D01*
G01*
X89750000Y-84190000D01*
G75*
G02*
X89550000Y-83990000I0J200000D01*
G01*
X89550000Y-82290000D01*
G75*
G02*
X89750000Y-82090000I200000J0D01*
G01*
X91450000Y-82090000D01*
G75*
G02*
X91650000Y-82290000I0J-200000D01*
G01*
G37*
%TD*%
D14*
%TO.C,LS1*%
X130000000Y-80300000D03*
X135000000Y-80300000D03*
%TD*%
D10*
%TO.C,M2*%
X149800000Y-92063343D03*
%TD*%
%TO.C,M2*%
X81900000Y-92000000D03*
%TD*%
%TO.C,M2*%
X149900000Y-120300000D03*
%TD*%
%TO.C,M2*%
X81900000Y-120400000D03*
%TD*%
D11*
%TO.C,J3*%
X91440000Y-95180000D03*
X88900000Y-95180000D03*
X91440000Y-92640000D03*
X88900000Y-92640000D03*
X91440000Y-90100000D03*
G36*
G01*
X87850000Y-90950000D02*
X87850000Y-89250000D01*
G75*
G02*
X88050000Y-89050000I200000J0D01*
G01*
X89750000Y-89050000D01*
G75*
G02*
X89950000Y-89250000I0J-200000D01*
G01*
X89950000Y-90950000D01*
G75*
G02*
X89750000Y-91150000I-200000J0D01*
G01*
X88050000Y-91150000D01*
G75*
G02*
X87850000Y-90950000I0J200000D01*
G01*
G37*
%TD*%
D15*
%TO.C,S1*%
X88500000Y-122800000D03*
X88500000Y-119600000D03*
X91000000Y-122800000D03*
X91000000Y-119600000D03*
X93500000Y-122800000D03*
G36*
G01*
X92821000Y-118721000D02*
X94179000Y-118721000D01*
G75*
G02*
X94379000Y-118921000I0J-200000D01*
G01*
X94379000Y-120279000D01*
G75*
G02*
X94179000Y-120479000I-200000J0D01*
G01*
X92821000Y-120479000D01*
G75*
G02*
X92621000Y-120279000I0J200000D01*
G01*
X92621000Y-118921000D01*
G75*
G02*
X92821000Y-118721000I200000J0D01*
G01*
G37*
%TD*%
D10*
%TO.C,M2*%
X109400000Y-66100000D03*
%TD*%
%TO.C,M2*%
X122400000Y-66100000D03*
%TD*%
%TO.C,IC10*%
G36*
G01*
X48050000Y-71300000D02*
X48750000Y-71300000D01*
G75*
G02*
X49100000Y-71650000I0J-350000D01*
G01*
X49100000Y-72350000D01*
G75*
G02*
X48750000Y-72700000I-350000J0D01*
G01*
X48050000Y-72700000D01*
G75*
G02*
X47700000Y-72350000I0J350000D01*
G01*
X47700000Y-71650000D01*
G75*
G02*
X48050000Y-71300000I350000J0D01*
G01*
G37*
G36*
G01*
X48050000Y-69700000D02*
X48750000Y-69700000D01*
G75*
G02*
X49100000Y-70050000I0J-350000D01*
G01*
X49100000Y-70750000D01*
G75*
G02*
X48750000Y-71100000I-350000J0D01*
G01*
X48050000Y-71100000D01*
G75*
G02*
X47700000Y-70750000I0J350000D01*
G01*
X47700000Y-70050000D01*
G75*
G02*
X48050000Y-69700000I350000J0D01*
G01*
G37*
G36*
G01*
X52350000Y-71300000D02*
X53050000Y-71300000D01*
G75*
G02*
X53400000Y-71650000I0J-350000D01*
G01*
X53400000Y-72350000D01*
G75*
G02*
X53050000Y-72700000I-350000J0D01*
G01*
X52350000Y-72700000D01*
G75*
G02*
X52000000Y-72350000I0J350000D01*
G01*
X52000000Y-71650000D01*
G75*
G02*
X52350000Y-71300000I350000J0D01*
G01*
G37*
G36*
G01*
X52350000Y-69700000D02*
X53050000Y-69700000D01*
G75*
G02*
X53400000Y-70050000I0J-350000D01*
G01*
X53400000Y-70750000D01*
G75*
G02*
X53050000Y-71100000I-350000J0D01*
G01*
X52350000Y-71100000D01*
G75*
G02*
X52000000Y-70750000I0J350000D01*
G01*
X52000000Y-70050000D01*
G75*
G02*
X52350000Y-69700000I350000J0D01*
G01*
G37*
%TD*%
%TO.C,IC8*%
G36*
G01*
X163750000Y-71300000D02*
X164450000Y-71300000D01*
G75*
G02*
X164800000Y-71650000I0J-350000D01*
G01*
X164800000Y-72350000D01*
G75*
G02*
X164450000Y-72700000I-350000J0D01*
G01*
X163750000Y-72700000D01*
G75*
G02*
X163400000Y-72350000I0J350000D01*
G01*
X163400000Y-71650000D01*
G75*
G02*
X163750000Y-71300000I350000J0D01*
G01*
G37*
G36*
G01*
X163750000Y-69700000D02*
X164450000Y-69700000D01*
G75*
G02*
X164800000Y-70050000I0J-350000D01*
G01*
X164800000Y-70750000D01*
G75*
G02*
X164450000Y-71100000I-350000J0D01*
G01*
X163750000Y-71100000D01*
G75*
G02*
X163400000Y-70750000I0J350000D01*
G01*
X163400000Y-70050000D01*
G75*
G02*
X163750000Y-69700000I350000J0D01*
G01*
G37*
G36*
G01*
X168050000Y-71300000D02*
X168750000Y-71300000D01*
G75*
G02*
X169100000Y-71650000I0J-350000D01*
G01*
X169100000Y-72350000D01*
G75*
G02*
X168750000Y-72700000I-350000J0D01*
G01*
X168050000Y-72700000D01*
G75*
G02*
X167700000Y-72350000I0J350000D01*
G01*
X167700000Y-71650000D01*
G75*
G02*
X168050000Y-71300000I350000J0D01*
G01*
G37*
G36*
G01*
X168050000Y-69700000D02*
X168750000Y-69700000D01*
G75*
G02*
X169100000Y-70050000I0J-350000D01*
G01*
X169100000Y-70750000D01*
G75*
G02*
X168750000Y-71100000I-350000J0D01*
G01*
X168050000Y-71100000D01*
G75*
G02*
X167700000Y-70750000I0J350000D01*
G01*
X167700000Y-70050000D01*
G75*
G02*
X168050000Y-69700000I350000J0D01*
G01*
G37*
%TD*%
%TO.C,IC7*%
G36*
G01*
X178750000Y-71300000D02*
X179450000Y-71300000D01*
G75*
G02*
X179800000Y-71650000I0J-350000D01*
G01*
X179800000Y-72350000D01*
G75*
G02*
X179450000Y-72700000I-350000J0D01*
G01*
X178750000Y-72700000D01*
G75*
G02*
X178400000Y-72350000I0J350000D01*
G01*
X178400000Y-71650000D01*
G75*
G02*
X178750000Y-71300000I350000J0D01*
G01*
G37*
G36*
G01*
X178750000Y-69700000D02*
X179450000Y-69700000D01*
G75*
G02*
X179800000Y-70050000I0J-350000D01*
G01*
X179800000Y-70750000D01*
G75*
G02*
X179450000Y-71100000I-350000J0D01*
G01*
X178750000Y-71100000D01*
G75*
G02*
X178400000Y-70750000I0J350000D01*
G01*
X178400000Y-70050000D01*
G75*
G02*
X178750000Y-69700000I350000J0D01*
G01*
G37*
G36*
G01*
X183050000Y-71300000D02*
X183750000Y-71300000D01*
G75*
G02*
X184100000Y-71650000I0J-350000D01*
G01*
X184100000Y-72350000D01*
G75*
G02*
X183750000Y-72700000I-350000J0D01*
G01*
X183050000Y-72700000D01*
G75*
G02*
X182700000Y-72350000I0J350000D01*
G01*
X182700000Y-71650000D01*
G75*
G02*
X183050000Y-71300000I350000J0D01*
G01*
G37*
G36*
G01*
X183050000Y-69700000D02*
X183750000Y-69700000D01*
G75*
G02*
X184100000Y-70050000I0J-350000D01*
G01*
X184100000Y-70750000D01*
G75*
G02*
X183750000Y-71100000I-350000J0D01*
G01*
X183050000Y-71100000D01*
G75*
G02*
X182700000Y-70750000I0J350000D01*
G01*
X182700000Y-70050000D01*
G75*
G02*
X183050000Y-69700000I350000J0D01*
G01*
G37*
%TD*%
D16*
%TO.C,C1*%
X83900000Y-79500000D03*
G36*
G01*
X84537500Y-85337500D02*
X83262500Y-85337500D01*
G75*
G02*
X83062500Y-85137500I0J200000D01*
G01*
X83062500Y-83862500D01*
G75*
G02*
X83262500Y-83662500I200000J0D01*
G01*
X84537500Y-83662500D01*
G75*
G02*
X84737500Y-83862500I0J-200000D01*
G01*
X84737500Y-85137500D01*
G75*
G02*
X84537500Y-85337500I-200000J0D01*
G01*
G37*
%TD*%
%TO.C,IC9*%
G36*
G01*
X63050000Y-71300000D02*
X63750000Y-71300000D01*
G75*
G02*
X64100000Y-71650000I0J-350000D01*
G01*
X64100000Y-72350000D01*
G75*
G02*
X63750000Y-72700000I-350000J0D01*
G01*
X63050000Y-72700000D01*
G75*
G02*
X62700000Y-72350000I0J350000D01*
G01*
X62700000Y-71650000D01*
G75*
G02*
X63050000Y-71300000I350000J0D01*
G01*
G37*
G36*
G01*
X63050000Y-69700000D02*
X63750000Y-69700000D01*
G75*
G02*
X64100000Y-70050000I0J-350000D01*
G01*
X64100000Y-70750000D01*
G75*
G02*
X63750000Y-71100000I-350000J0D01*
G01*
X63050000Y-71100000D01*
G75*
G02*
X62700000Y-70750000I0J350000D01*
G01*
X62700000Y-70050000D01*
G75*
G02*
X63050000Y-69700000I350000J0D01*
G01*
G37*
G36*
G01*
X67350000Y-71300000D02*
X68050000Y-71300000D01*
G75*
G02*
X68400000Y-71650000I0J-350000D01*
G01*
X68400000Y-72350000D01*
G75*
G02*
X68050000Y-72700000I-350000J0D01*
G01*
X67350000Y-72700000D01*
G75*
G02*
X67000000Y-72350000I0J350000D01*
G01*
X67000000Y-71650000D01*
G75*
G02*
X67350000Y-71300000I350000J0D01*
G01*
G37*
G36*
G01*
X67350000Y-69700000D02*
X68050000Y-69700000D01*
G75*
G02*
X68400000Y-70050000I0J-350000D01*
G01*
X68400000Y-70750000D01*
G75*
G02*
X68050000Y-71100000I-350000J0D01*
G01*
X67350000Y-71100000D01*
G75*
G02*
X67000000Y-70750000I0J350000D01*
G01*
X67000000Y-70050000D01*
G75*
G02*
X67350000Y-69700000I350000J0D01*
G01*
G37*
%TD*%
M02*
